<svg xmlns="http://www.w3.org/2000/svg" viewBox="0 0 44.26 40.48"><defs><style>.cls-1{fill:#f4d074;}.cls-2{fill:#a38741;}.cls-3{fill:#fff;}</style></defs><g id="Layer_2" data-name="Layer 2"><g id="OBJECTS"><path class="cls-1" d="M7.59,25.59a.76.76,0,0,1-.54-.65c1.64-.91,3.56-1.48,4.55-3.82L5.62,23a1.91,1.91,0,0,1-1.06-1.46,4.5,4.5,0,0,0,4.08-2.27c-2-.2-3.65.56-5.34.24a8.73,8.73,0,0,1-.86-.86C.11,15.67.72,14,4.5,12.9c-.18.8-1,1.09-1.4,1.68-.29.42-.59.82-.24,1.34a1.2,1.2,0,0,0,1.3.53A6.49,6.49,0,0,0,7.84,14.1a1,1,0,0,0-.94-1.65,16.75,16.75,0,0,0-2.41.45c1.76-2,3.94-2,5.62.11a19.11,19.11,0,0,1,3,5.72A48.38,48.38,0,0,0,16.3,26c.29.53.5,1.15,1.26.55a1.06,1.06,0,0,0,1.23.9c1-.11,2.09-.17,2.78-1.25-1.29-1-2.73-.57-4.06-.7-.46-.42-.4-1-.44-1.51,1.88-.43,3.89-.56,5.65-2.25-2.3-.69-4.21.28-6.14.22a4.54,4.54,0,0,1-.94-3,10.31,10.31,0,0,0,6.91-1.24c-2.77-1.19-5.17-.59-7.46-.81a2.47,2.47,0,0,1-.49-2.09c1.67-.13,3.38-.15,5.23-1.73L14,13a3.78,3.78,0,0,1-.77-2.55c1.93,0,3.88.18,5.79-1.23a18.67,18.67,0,0,0-6.23-.66c-.89-2.29-1.15-4.4.74-6.48A5.19,5.19,0,0,1,17,.44c1.32-.17,2.65-.18,4-.38,1.79-.28,2.8.46,3.28,2.3A22.69,22.69,0,0,1,25,8.05c0,4.82,0,9.64,0,14.41.85.18.87-.48,1.27-.55,1.56-.1,3.22.06,4.48-1.68a24.89,24.89,0,0,0-4.37-.67,3.19,3.19,0,0,1,.52-2.25c2.06.13,4.19.72,6.6-1l-6.33-.9c.1-.85-.19-1.8.59-2.49,1.72-.17,3.56.52,5.54-.89a12.06,12.06,0,0,0-5.46-1,6.19,6.19,0,0,1,.38-2.21c.44-2.38,1.19-3.1,3.6-3.28a23.23,23.23,0,0,1,4,0c2.87.27,4.09,2,3.43,4.81-.89,3.83-2.5,7.42-3.79,11.12-.34,1-1.36,2.09-.1,3.18L35,25a.66.66,0,0,0-.79.61c-.78,2.51.17,3.68,2.89,3.6.3-.8-.53-1.34-.48-2.08l.15-.18c.87,0,1.61.91,2.63.38,0-1-.83-1.5-1.26-2.24l.31-.31a20.62,20.62,0,0,0,2.61.71c1.52.2,1.76-.08,2.06-1.89.12-.1.24-.2.35-.31,1.23.92.8,2.09.41,3.18a11.8,11.8,0,0,1-3.18,4.74c-4.25,4-8.77,7.6-14.73,8.48-3.59.53-7.24,1.27-10.91.37.63-1,1.68-1.72,1.35-3.36l-3.58,2.88c-1.05,0-2.14.17-3.1-.47,2-.54,2.18-.71,2-2.45a8.59,8.59,0,0,0-3.16,1.91,2.45,2.45,0,0,1-1.88-.49c1.39-.71,2.7-1.48,2.8-3.39C7.62,34.78,6.63,36.4,5,36.57c-.19-1.29,1.91-1.66,1.34-3.29-1.49.76-3.09,1.08-3.88,2.64a3.3,3.3,0,0,1-1.6-1.73c2.16-.27,3.29-1.85,4.26-3.52.62-1.07.3-1.67-.89-2.06A5.67,5.67,0,0,0,3,28.51c1.72-1.28,2.54-1.33,4.08-.05,1,.81,1.89,1.61,3.26,1.44l0,.09c.08.66.17,1.3,1,.47a23.15,23.15,0,0,0,3.36-2.07c.25-.22.49-.48.33-.85s-.49-.36-.83-.26L9.62,28.52A1.09,1.09,0,0,1,9,27.61c1.62-.64,3.34-1.16,4.54-3.09C11.26,24.64,9.5,25.59,7.59,25.59ZM17.07,4.91a10.25,10.25,0,0,0,5.08-1.05c.56-.26,1-.64,1-1.31A1.33,1.33,0,0,0,21.69,1.4c-.91,0-1.82,0-2.73,0a7.35,7.35,0,0,0-3.86.71c-.61.34-1.15.73-1,1.52A1.49,1.49,0,0,0,15.62,4.9,14.28,14.28,0,0,0,17.07,4.91Zm16.34,5.14a21.88,21.88,0,0,0,2.51-.28c.75-.17,1.41-.59,1.32-1.53a1.43,1.43,0,0,0-1.5-1.37c-1.49-.06-3,0-4.47,0a1.43,1.43,0,0,0-1.44,1.43A1.41,1.41,0,0,0,31,9.74,15.41,15.41,0,0,0,33.41,10.05ZM27.32,25.49c.86-.1,2,.14,2.06-.94,0-.83-1.1-.41-1.66-.7a3.28,3.28,0,0,0-1.2-.31c-.49-.05-.75.27-.82.74a.86.86,0,0,0,.47,1A4.85,4.85,0,0,0,27.32,25.49ZM28.86,29c-.62.1-1.34.07-1.37.8,0,.54.64.64,1.11.77.31.08.62.21.93.28s.84.07,1-.4A.9.9,0,0,0,30,29.24,4.68,4.68,0,0,0,28.86,29Zm-.38,2.52c-.56.07-1.3.07-1.2.85.12,1,1.1.79,1.75.93a.73.73,0,0,0,.92-.84C29.85,31.61,29.16,31.52,28.48,31.49Zm-7.54-1.15c1.06.17,2.13.45,3-.63.05-.06-.05-.36-.15-.41a2.39,2.39,0,0,0-2.83.64S20.93,30.09,20.94,30.34Zm-2.4,2.08c-.07-.36-.2-.68-.59-.7a1.62,1.62,0,0,0-1.65,1.21c-.12.34.2.59.58.59C17.67,33.51,18.33,33.29,18.54,32.42Zm5.51,0c-.17-.41-.44-.71-.91-.57s-1.36.31-1.23,1.18c.08.49.62.44,1,.4C23.51,33.4,24,33.18,24.05,32.46Zm-5.47,3.08c.59,0,1.16-.19,1.22-.93,0-.42-.35-.55-.69-.56-.64,0-1.17.22-1.24.94C17.82,35.43,18.22,35.48,18.58,35.54Zm17-3a1.54,1.54,0,0,0-1.36-1.19c-.41,0-.57.35-.46.71a1.49,1.49,0,0,0,1.5,1.1C35.55,33.13,35.63,32.81,35.62,32.49Zm-2.91.67c-.44,0-.51.35-.47.68a.69.69,0,0,0,.65.62c.34,0,.67-.14.62-.55A.8.8,0,0,0,32.71,33.16Z"/><path class="cls-2" d="M35,25l.34-.41c.31-.34.62-.67.92-1l1.88,1.51c.43.74,1.27,1.25,1.26,2.24-1,.53-1.76-.34-2.63-.38l-.67-.61c-.07.1-.21.22-.19.29.09.34.41.42.71.5-.05.74.78,1.28.48,2.08-2.72.08-3.67-1.09-2.89-3.6Z"/><path class="cls-2" d="M3,28.51a5.67,5.67,0,0,1,1.24.1c1.19.39,1.51,1,.89,2.06-1,1.67-2.1,3.25-4.26,3.52a1.77,1.77,0,0,1-.82-2.11,1.13,1.13,0,0,0,.48-1v0A.62.62,0,0,0,1,30.48v0A.57.57,0,0,0,1.44,30h0a.5.5,0,0,0,.5-.51h0A.5.5,0,0,0,2.45,29h0A.52.52,0,0,0,3,28.5Z"/><path class="cls-2" d="M15.09,17c2.29.22,4.69-.38,7.46.81A10.31,10.31,0,0,1,15.64,19,3.33,3.33,0,0,1,15.09,17Z"/><path class="cls-2" d="M16.58,22c1.93.06,3.84-.91,6.14-.22C21,23.47,19,23.6,17.07,24,16.47,23.45,16.62,22.7,16.58,22Z"/><path class="cls-2" d="M5.62,23l6-1.89c-1,2.34-2.91,2.91-4.55,3.82A3.11,3.11,0,0,1,5.62,23Z"/><path class="cls-2" d="M27.13,15.38l6.33.9c-2.41,1.75-4.54,1.16-6.6,1A3.55,3.55,0,0,1,27.13,15.38Z"/><path class="cls-2" d="M9.62,28.52l4.53-1.24c.34-.1.67-.12.83.26s-.08.63-.33.85a23.15,23.15,0,0,1-3.36,2.07l-1-.47,0-.09C10.11,29.44,9.87,29,9.62,28.52Z"/><path class="cls-2" d="M7.59,25.59c1.91,0,3.67-.95,5.93-1.07C12.32,26.45,10.6,27,9,27.61A2.68,2.68,0,0,1,7.59,25.59Z"/><path class="cls-2" d="M12.75,8.52A18.67,18.67,0,0,1,19,9.18c-1.91,1.41-3.86,1.27-5.79,1.23C13,9.78,12.9,9.15,12.75,8.52Z"/><path class="cls-2" d="M27.8,11a12.06,12.06,0,0,1,5.46,1c-2,1.41-3.82.72-5.54.89A3.51,3.51,0,0,1,27.8,11Z"/><path class="cls-2" d="M3.3,19.52c1.69.32,3.36-.44,5.34-.24a4.5,4.5,0,0,1-4.08,2.27A3.94,3.94,0,0,1,3.3,19.52Z"/><path class="cls-2" d="M5,36.57c1.61-.17,2.6-1.79,4.46-1.88-.1,1.91-1.41,2.68-2.8,3.39a3.28,3.28,0,0,1-1.74-.92c0-.2.07-.41.1-.61Z"/><path class="cls-2" d="M14,13l5.87.18c-1.85,1.58-3.56,1.6-5.23,1.73A2.56,2.56,0,0,1,14,13Z"/><path class="cls-2" d="M26.34,19.56a24.89,24.89,0,0,1,4.37.67c-1.26,1.74-2.92,1.58-4.48,1.68A3.85,3.85,0,0,1,26.34,19.56Z"/><path class="cls-1" d="M38.12,25.09l-1.88-1.51c1.35-2.9,2.31-3.22,5.08-1.71l-.23.3c-2.82-.19-3,0-2.65,2.6Z"/><path class="cls-2" d="M2.48,35.92c.79-1.56,2.39-1.88,3.88-2.64.57,1.63-1.53,2-1.34,3.29l0,0-1.39.05Z"/><path class="cls-2" d="M17.51,25.54c1.33.13,2.77-.33,4.06.7-.69,1.08-1.74,1.14-2.78,1.25a1.06,1.06,0,0,1-1.23-.9C17.54,26.24,17.52,25.89,17.51,25.54Z"/><path class="cls-2" d="M12.81,39.58l3.58-2.88c.33,1.64-.72,2.41-1.35,3.36C14.25,40.09,13.43,40.29,12.81,39.58Z"/><path class="cls-2" d="M8.56,38.57a8.59,8.59,0,0,1,3.16-1.91c.17,1.74,0,1.91-2,2.45L9,38.91a.39.39,0,0,0-.41-.35Z"/><path class="cls-1" d="M3.65,36.6,5,36.55c0,.2-.07.41-.1.61A1.76,1.76,0,0,1,3.65,36.6Z"/><path class="cls-1" d="M.54,31a1.13,1.13,0,0,1-.48,1A.91.91,0,0,1,.54,31Z"/><path class="cls-1" d="M41.32,21.87a1.5,1.5,0,0,1,1,.51l-.23.27-1-.48Z"/><path class="cls-1" d="M8.55,38.56a.39.39,0,0,1,.41.35C8.68,39,8.58,38.8,8.55,38.56Z"/><path class="cls-1" d="M1,30.48a.62.62,0,0,1-.44.58A.56.56,0,0,1,1,30.48Z"/><path class="cls-1" d="M1.44,30A.57.57,0,0,1,1,30.5.56.56,0,0,1,1.44,30Z"/><path class="cls-1" d="M1.93,29.44a.5.5,0,0,1-.5.51A.56.56,0,0,1,1.93,29.44Z"/><path class="cls-1" d="M2.45,29a.5.5,0,0,1-.52.49A.52.52,0,0,1,2.45,29Z"/><path class="cls-1" d="M3,28.5a.52.52,0,0,1-.57.45A.52.52,0,0,1,3,28.5Z"/><path class="cls-1" d="M42.92,22.8l.53.5-.35.3-.45-.53Z"/><path class="cls-1" d="M42.33,22.38l.59.42-.27.27-.55-.42Z"/><path class="cls-2" d="M17.07,4.91a14.28,14.28,0,0,1-1.45,0,1.49,1.49,0,0,1-1.57-1.31c-.1-.79.44-1.18,1-1.52A7.35,7.35,0,0,1,19,1.36c.91,0,1.82,0,2.73,0A1.33,1.33,0,0,1,23.1,2.55c.08.67-.39,1.05-1,1.31A10.25,10.25,0,0,1,17.07,4.91Z"/><path class="cls-2" d="M33.41,10.05A15.41,15.41,0,0,1,31,9.74a1.41,1.41,0,0,1-1.16-1.43,1.43,1.43,0,0,1,1.44-1.43c1.49-.06,3-.07,4.47,0a1.43,1.43,0,0,1,1.5,1.37c.09.94-.57,1.36-1.32,1.53A21.88,21.88,0,0,1,33.41,10.05Z"/><path class="cls-2" d="M42.1,22.65l.55.42.45.53c-.3,1.81-.54,2.09-2.06,1.89a20.62,20.62,0,0,1-2.61-.71c-.38-2.59-.16-2.8,2.66-2.61Z"/><path class="cls-2" d="M4.49,12.9a16.75,16.75,0,0,1,2.41-.45,1,1,0,0,1,.94,1.65,6.49,6.49,0,0,1-3.68,2.35,1.2,1.2,0,0,1-1.3-.53c-.35-.52,0-.92.24-1.34.43-.59,1.22-.88,1.4-1.68Z"/><path class="cls-2" d="M27.32,25.49a4.85,4.85,0,0,1-1.15-.17.86.86,0,0,1-.47-1c.07-.47.33-.79.82-.74a3.28,3.28,0,0,1,1.2.31c.56.29,1.69-.13,1.66.7C29.32,25.63,28.18,25.39,27.32,25.49Z"/><path class="cls-2" d="M28.86,29a4.68,4.68,0,0,1,1.12.27.9.9,0,0,1,.57,1.18c-.18.47-.6.5-1,.4s-.62-.2-.93-.28c-.47-.13-1.13-.23-1.11-.77C27.52,29,28.24,29.07,28.86,29Z"/><path class="cls-2" d="M28.48,31.49c.68,0,1.37.12,1.47.94a.73.73,0,0,1-.92.84c-.65-.14-1.63,0-1.75-.93C27.18,31.56,27.92,31.56,28.48,31.49Z"/><path class="cls-2" d="M20.94,30.34c0-.25-.05-.37,0-.4a2.39,2.39,0,0,1,2.83-.64c.1.05.2.35.15.41C23.07,30.79,22,30.51,20.94,30.34Z"/><path class="cls-2" d="M18.54,32.42c-.21.87-.87,1.09-1.66,1.1-.38,0-.7-.25-.58-.59A1.62,1.62,0,0,1,18,31.72C18.34,31.74,18.47,32.06,18.54,32.42Z"/><path class="cls-2" d="M24.05,32.46c0,.72-.54.94-1.13,1-.39,0-.93.09-1-.4-.13-.87.62-1,1.23-1.18S23.88,32.05,24.05,32.46Z"/><path class="cls-2" d="M18.58,35.54c-.36-.06-.76-.11-.71-.55.07-.72.6-1,1.24-.94.34,0,.72.14.69.56C19.74,35.35,19.17,35.49,18.58,35.54Z"/><path class="cls-2" d="M35.62,32.49c0,.32-.07.64-.32.62A1.49,1.49,0,0,1,33.8,32c-.11-.36.05-.73.46-.71A1.54,1.54,0,0,1,35.62,32.49Z"/><path class="cls-2" d="M32.71,33.16a.8.8,0,0,1,.8.75c.05.41-.28.58-.62.55a.69.69,0,0,1-.65-.62C32.2,33.51,32.27,33.19,32.71,33.16Z"/><path class="cls-3" d="M10.32,30l1,.47C10.49,31.29,10.4,30.65,10.32,30Z"/><path class="cls-3" d="M35,25l-.79.61A.66.66,0,0,1,35,25Z"/><path class="cls-1" d="M36.6,27.13c-.3-.08-.62-.16-.71-.5,0-.07.12-.19.19-.29l.67.61Z"/></g></g></svg>