<svg xmlns="http://www.w3.org/2000/svg" viewBox="0 0 45.6 46.96"><defs><style>.cls-1{fill:#95ab72;}</style></defs><g id="Layer_2" data-name="Layer 2"><g id="OBJECTS"><path class="cls-1" d="M4.14,18.38c.59-3,1.86-5.79,1.69-8.9A1.25,1.25,0,0,1,6.57,8.1c.73-.28,1.25.16,1.66.66a4.9,4.9,0,0,1,.86,4.1c-.35,1.88-.83,3.74-1.24,5.61a22.81,22.81,0,0,0-.57,6.43,3.77,3.77,0,0,0,.52,2.32c.76.14.92-.52,1.13-.95a13.88,13.88,0,0,0,1.7-6.91,3.79,3.79,0,0,1,.72-2.94,1.2,1.2,0,0,1,1.25-.52c.58.13.71.59.75,1.08.35,4.13-.34,8-3.2,11.19-1.43,1.57-2.13,3-1.26,5.16a17,17,0,0,1,.67,3.45c1.07,0,1.48-.77,2-1.32,3.67-3.83,5.79-8.58,7.87-13.35a2.51,2.51,0,0,0-.05-1.85c-.68-2.3-1.34-4.6-2-6.9a15.14,15.14,0,0,1,1.06-11A4.36,4.36,0,0,1,20,.34,1.33,1.33,0,0,1,21.57.2,1.22,1.22,0,0,1,22,1.69c-.4,1.37-.84,2.73-1.31,4.25,2.2-.3,2.39-2.82,4.23-3.51.7,2-.14,3.39-1.27,4.63a25.63,25.63,0,0,1-2.84,2.57,2.44,2.44,0,0,0-.85,3,22.55,22.55,0,0,0,1.25,3.75,7.81,7.81,0,0,0,1.24-2.8A22.2,22.2,0,0,1,31.2,1.86,10.72,10.72,0,0,1,33.94.42c1-.31,2-.53,2.51.61.45,1-.19,1.65-.93,2.22-1.2.92-2.41,1.84-3.59,2.79a13.45,13.45,0,0,0-1.12,1.22,4.61,4.61,0,0,0,3.42-1.21c.47-.33,1-.69,1.49-.16s.07,1.05-.24,1.51a5.12,5.12,0,0,1-4.57,2.19c-2-.05-3.09.92-4.16,2.53-2.67,4-4,8.47-5.63,12.94a6.36,6.36,0,0,0,2.58-.47,1.74,1.74,0,0,0,1.42-1.9,21.58,21.58,0,0,1,1.13-5.38,6.76,6.76,0,0,1,3.08-4.13c1-.53,1.58-.14,1.5.94a6.44,6.44,0,0,1-1.34,3,11.29,11.29,0,0,0-2,5.1,7.23,7.23,0,0,0,4.74-4.56,16.6,16.6,0,0,1,1.19-2.86,3.89,3.89,0,0,1,1.48-1.53,1.3,1.3,0,0,1,1.57.09,1.2,1.2,0,0,1,.28,1.33,14.85,14.85,0,0,1-2.5,5.15c-.2.24-.38.5-.68.91,1.8.48,3.15-.45,4.54-1.06a3,3,0,0,0,.75-.59c.7-.61,1.51-1.26,2.25-.3S41,20.47,40.37,21A9.48,9.48,0,0,1,35.77,23a7.76,7.76,0,0,1-2.62.21c-1.81-.29-3,.57-4.23,1.79.71.75,1.53.54,2.28.54s1.59-.11,2.39-.14c.48,0,1.07-.1,1.24.46s-.39,1-.89,1.23a5.45,5.45,0,0,1-4,.33,13.29,13.29,0,0,0-6.63.05c-1.95.39-3.6,1-4.34,3.19-.43,1.23-1.45,2.25-2.5,3.81,2.61-.44,4.87-.59,6.61-2.34a16,16,0,0,0,2.24-2.8A1.23,1.23,0,0,1,27,28.63c.84.4.76,1.15.53,1.86a5.48,5.48,0,0,1-3.21,3.36c-1.73.78-3.49,1.47-5.38,2.26.69.83,1.63.84,2.4,1.18.37.17.77.34.7.83a1.06,1.06,0,0,1-.81.79,3.7,3.7,0,0,1-2.58-.22,13.82,13.82,0,0,1-1.93-.95c-2.21-1.36-2.2-1.38-3.94.44a2.22,2.22,0,0,0-.82,1.31c2.57.73,5.15,1.48,7.74,2.19.9.24,1.48-.39,2.06-1,1.62-1.55,3.23-3.1,4.89-4.6a11.8,11.8,0,0,1,4.73-2.74A8.1,8.1,0,0,1,33.46,33c.69,0,1.55,0,1.72.92s-.67.94-1.19,1.26c-1,.6-2.33.62-3,1.82,1.3.94,2.65-.16,4.1.19a6.31,6.31,0,0,1-6.31,2.39c-2.66-.5-4.18.71-5.77,2.55a4.79,4.79,0,0,0,3,.38,21.42,21.42,0,0,0,7.62-2c2.55-1.15,5.06-2.38,7.58-3.6.77-.37,1.61-1.11,2.3-.1s-.25,1.64-.87,2.22c-1.89,1.78-4.26,2.79-6.52,4-.2,0-.45.05-.42.32s.25.28.48.26c2.13,1.11,4.34.73,6.55.29.46-.09.91-.3,1.37-.4a1.14,1.14,0,0,1,1.41.62,1.11,1.11,0,0,1-.5,1.45,6.72,6.72,0,0,1-5.68,1.19,13.08,13.08,0,0,1-4.2-1.68,6.66,6.66,0,0,0-5.05-.94c-3.79.79-7.46.14-11.11-.89-1.61-.46-3.23-.91-4.86-1.3A8.45,8.45,0,0,0,8,42.44a1.66,1.66,0,0,1-2.19-.2c-.55-.62-.28-1.28,0-2A9.75,9.75,0,0,0,6,33.67,42,42,0,0,1,4,23.34,5.79,5.79,0,0,0,2.25,20,9.25,9.25,0,0,1,.33,11.48a11.31,11.31,0,0,1,.41-1.37A1.19,1.19,0,0,1,2,9.28a1.27,1.27,0,0,1,1.12,1.09,11.78,11.78,0,0,1,0,4.06c-.18,1.34-.48,2.69.32,4,0,.24.13.48.39.49S4.12,18.59,4.14,18.38ZM30.61,37.29v-.22a1.66,1.66,0,0,0-.31.12s0,.14,0,.21Z"/><path class="cls-1" d="M4.14,18.38c0,.21,0,.5-.29.5s-.35-.25-.39-.49Z"/><path class="cls-1" d="M36.16,43.63c-.23,0-.45,0-.48-.26s.22-.29.42-.32C36.11,43.24,36.13,43.43,36.16,43.63Z"/><path class="cls-1" d="M30.61,37.29l-.31.11c0-.07,0-.19,0-.21a1.66,1.66,0,0,1,.31-.12Z"/></g></g></svg>