<svg xmlns="http://www.w3.org/2000/svg" viewBox="0 0 52.87 48.97"><defs><style>.cls-1{fill:#e48585;}</style></defs><g id="Layer_2" data-name="Layer 2"><g id="OBJECTS"><path class="cls-1" d="M5.63,26.33c-.27-3,.15-6.08-.9-9a1.24,1.24,0,0,1,.32-1.53A1.41,1.41,0,0,1,6.82,16a4.85,4.85,0,0,1,2,3.68c.2,1.9.27,3.82.4,5.73a22.78,22.78,0,0,0,1.29,6.33,3.66,3.66,0,0,0,1.14,2.07c.77-.08.75-.75.82-1.23a13.81,13.81,0,0,0-.33-7.1,3.8,3.8,0,0,1-.14-3,1.22,1.22,0,0,1,1-.85c.6,0,.85.36,1,.82,1.51,3.87,2,7.79.11,11.64-.92,1.91-1.17,3.53.26,5.3a17.46,17.46,0,0,1,1.62,3.13c1-.3,1.2-1.16,1.55-1.84,2.42-4.72,3.11-9.87,3.75-15a2.45,2.45,0,0,0-.57-1.76c-1.3-2-2.59-4-3.89-6A15.11,15.11,0,0,1,14.79,7a4.43,4.43,0,0,1,.94-2.42A1.34,1.34,0,0,1,17.19,4,1.21,1.21,0,0,1,18,5.25c0,1.43,0,2.86,0,4.45,2-.92,1.48-3.38,3.06-4.57,1.23,1.69.82,3.29.09,4.81a26.26,26.26,0,0,1-2,3.27,2.44,2.44,0,0,0,0,3.08,23.38,23.38,0,0,0,2.26,3.24,7.66,7.66,0,0,0,.4-3A22.23,22.23,0,0,1,26.89,2.81,10.87,10.87,0,0,1,29.12.65c.82-.56,1.74-1.07,2.57-.13s.3,1.64-.26,2.4c-.89,1.22-1.79,2.45-2.65,3.7a12.78,12.78,0,0,0-.73,1.48A4.64,4.64,0,0,0,31,6c.35-.44.76-1,1.38-.58s.37,1,.2,1.52a5.12,5.12,0,0,1-3.76,3.4c-2,.53-2.7,1.75-3.27,3.61-1.43,4.57-1.42,9.25-1.73,14a6.14,6.14,0,0,0,2.33-1.19A1.74,1.74,0,0,0,27,24.51,21.91,21.91,0,0,1,26.53,19a6.72,6.72,0,0,1,1.79-4.83c.76-.79,1.47-.58,1.7.47A6.5,6.5,0,0,1,29.59,18a11.38,11.38,0,0,0-.43,5.44,7.22,7.22,0,0,0,3.25-5.71,17,17,0,0,1,.33-3.09,3.94,3.94,0,0,1,1-1.88,1.31,1.31,0,0,1,1.53-.36,1.19,1.19,0,0,1,.64,1.2A14.86,14.86,0,0,1,35,19.2c-.13.29-.22.59-.4,1.07,1.87-.05,2.89-1.32,4.06-2.3a3.19,3.19,0,0,0,.55-.79c.49-.77,1.09-1.62,2.07-.91s.32,1.61-.12,2.34a9.54,9.54,0,0,1-3.87,3.13,7.58,7.58,0,0,1-2.45.94c-1.82.24-2.73,1.41-3.55,2.92.89.52,1.62.08,2.34-.13s1.5-.56,2.25-.82c.45-.15,1-.39,1.31.1s-.09,1.07-.5,1.43a5.36,5.36,0,0,1-3.72,1.44,13.4,13.4,0,0,0-6.35,1.93c-1.75.93-3.16,2-3.26,4.29,0,1.3-.74,2.58-1.31,4.36,2.39-1.16,4.5-1.94,5.68-4.11a15.82,15.82,0,0,0,1.35-3.33c.17-.64.59-1.19,1.37-1.07s1,.88,1,1.63a5.54,5.54,0,0,1-2.13,4.14c-1.44,1.23-2.93,2.39-4.52,3.69.9.6,1.81.34,2.64.45.41,0,.84.11.91.59a1.06,1.06,0,0,1-.56,1,3.75,3.75,0,0,1-2.53.52,12.71,12.71,0,0,1-2.12-.37c-2.51-.68-2.51-.69-3.65,1.55a2.18,2.18,0,0,0-.42,1.48c2.67,0,5.36,0,8-.09.94,0,1.31-.79,1.71-1.5,1.11-1.94,2.22-3.88,3.38-5.8A12,12,0,0,1,36,33a8.21,8.21,0,0,1,1.93-.94c.66-.2,1.49-.43,1.91.4S39.44,33.56,39,34c-.77.85-2.05,1.25-2.4,2.61,1.52.53,2.5-.91,4-1a6.31,6.31,0,0,1-5.38,4.07c-2.69.29-3.8,1.88-4.81,4.09a4.89,4.89,0,0,0,3-.49,21.55,21.55,0,0,0,6.74-4.06c2.12-1.82,4.18-3.72,6.25-5.6.64-.58,1.24-1.53,2.18-.75s.23,1.64-.2,2.37c-1.31,2.24-3.29,3.89-5.14,5.65-.18.09-.41.18-.31.42s.33.21.53.12c2.37.46,4.38-.53,6.37-1.58.42-.22.79-.54,1.2-.78a1.15,1.15,0,0,1,1.53.21,1.1,1.1,0,0,1-.07,1.52,6.72,6.72,0,0,1-5.1,2.76,13.19,13.19,0,0,1-4.51-.42,6.64,6.64,0,0,0-5.11.52C34.39,45.53,30.68,46,26.89,46c-1.68,0-3.35,0-5,.14a8.46,8.46,0,0,0-5.69,2.17,1.65,1.65,0,0,1-2.15.42c-.7-.43-.64-1.14-.57-1.91a9.81,9.81,0,0,0-1.71-6.35A42.25,42.25,0,0,1,6.9,31.12a5.77,5.77,0,0,0-2.61-2.69A9.23,9.23,0,0,1,0,20.8a11.53,11.53,0,0,1,0-1.44,1.18,1.18,0,0,1,1-1.17,1.26,1.26,0,0,1,1.38.74,11.77,11.77,0,0,1,1.13,3.89c.21,1.34.31,2.72,1.43,3.71.11.22.27.42.52.35S5.68,26.54,5.63,26.33ZM36.38,37l-.06-.22a1.39,1.39,0,0,0-.27.21s0,.13.06.2Z"/><path class="cls-1" d="M5.63,26.33c0,.21.16.47-.13.55s-.41-.13-.52-.35Z"/><path class="cls-1" d="M43.49,41.46c-.2.09-.43.11-.53-.12s.13-.33.31-.42Z"/><path class="cls-1" d="M36.38,37l-.27.19c0-.07-.08-.17-.06-.2a1.39,1.39,0,0,1,.27-.21Z"/></g></g></svg>