<svg xmlns="http://www.w3.org/2000/svg" viewBox="0 0 55.18 42.79"><defs><style>.cls-1{fill:#db4f4f;}.cls-2{fill:#e48585;}.cls-3{fill:#fff;}.cls-4{fill:#1c2426;}</style></defs><g id="Layer_2" data-name="Layer 2"><g id="OBJECTS"><path class="cls-1" d="M52.93,32a5.76,5.76,0,0,1,2.16,3.33A6.25,6.25,0,0,1,55.17,37c0,.15-.26,2.24-.41,2.12-1.6-1.2-3.24-2.32-4.93-3.38a20.87,20.87,0,0,1-1.65,5.74,6.42,6.42,0,0,1-2.13-3.58,7.39,7.39,0,0,1,2.31-7.43c-1.38-1.73-2.24-3.81-4.12-5.71,0,2.83-.05,5.58-.28,8.38a.31.31,0,0,1-.06.21c-.06.08-.18.08-.28.08H41.31a4.61,4.61,0,0,0,.09,1.74,13,13,0,0,1,.08,2c0,1.48.05,3-.07,4.43,0,.45-.14,1-.55,1.14a.91.91,0,0,1-1.06-.51A3.57,3.57,0,0,1,39.56,41c-.12-1.07-.49-2.09-.64-3.15s0-2-.08-3.06c-.07-.81-.55-1-1.3-1s-1.1.38-1.13,1.15a25.76,25.76,0,0,1-.69,6.33c-.1.36-.29.76-.65.85a.79.79,0,0,1-.84-.45,2.33,2.33,0,0,1-.19-1C34,39.3,34,38,33.92,36.72c0-.93.15-2.22-.71-2.85s-2.45-.41-3.72-.5-2.55-.06-3.83-.14c-.85-.06-1.1.31-1.12,1.11a35.71,35.71,0,0,1-.73,6.18c-.14.65-.22,1.65-1.07,1.59S22,40.9,22,40.24c0-1,0-2,0-3.05A15.43,15.43,0,0,0,22,35c-.1-.63-.31-1.25-.41-1.89H19.47a.24.24,0,0,0-.15,0,.22.22,0,0,0,0,.14c0,.54.06,1.1,0,1.63-.1.95-.43,1.79-.45,2.73L18.77,41a3,3,0,0,1-.1.79.92.92,0,0,1-.51.58.9.9,0,0,1-1-.37,2.2,2.2,0,0,1-.32-1.07c-.09-1.06,0-2.14,0-3.21s-.09-2.27,0-3.41c0-.52-.17-1-.18-1.5a25.43,25.43,0,0,0-4-.15c0-1.26,0-2.56,0-3.81,0-.63.15-1.24.22-1.86a14.2,14.2,0,0,1,.1-1.83,28.12,28.12,0,0,0-4.64,4.61c-.68.75.13,1.14.5,1.57a7,7,0,0,1,1.74,5.52,8.45,8.45,0,0,1-.45,2.56c-.13.26-1.51,1.91-1.9,1.45a19.47,19.47,0,0,1-3.52-5.91A28.08,28.08,0,0,1,.54,39c-1.78-3.13,1.1-8.15,4.43-9a3.89,3.89,0,0,0,2.4-1.69,27.72,27.72,0,0,1,5-5.14A7.59,7.59,0,0,0,14.72,20a19,19,0,0,1,5.43-7.78,12.31,12.31,0,0,1,3-1.93c.63-.27,1.56-.27,1.65-1.11a10.78,10.78,0,0,0-.36-2c-1.87.24-3-1.15-3.27-2.87s.23-3.19,1.58-3.93a4,4,0,0,1,4.62.89c1.49,1.54,1.49,4.34-.68,5.32a.53.53,0,0,0-.19.13.4.4,0,0,0,0,.34c.12.65.25,1.29.38,1.94a16.1,16.1,0,0,1,3.3.21c.7,0,1.45.28,1.86-.62A2.1,2.1,0,0,0,31.88,6,2.83,2.83,0,0,1,32,1.91,3.77,3.77,0,0,1,36.29.81a3.17,3.17,0,0,1,1.93,3.06,3.36,3.36,0,0,1-2,3c-.61.33-1.45.17-1.87.92-.74,1.31-.52,2.23.88,3A16.26,16.26,0,0,1,42.8,20c.42,1.16,4.75,5.76,5.64,7.55A7.38,7.38,0,0,0,52,31.25c-.11.11-.19.26-.32.32-.55.27-1.32.4-1,1.27A1.55,1.55,0,0,0,52.25,34c.88-.11.6-.93.67-1.51C52.93,32.35,52.93,32.19,52.93,32ZM39.4,19a2.21,2.21,0,0,0-1.84-2.12c-.71,0-1,.44-.94,1.08.05,1.1,1,2.25,1.78,2.16A1.09,1.09,0,0,0,39.4,19ZM40,25.67c0-1-.69-2-1.4-1.91s-1,.7-.95,1.37c0,1.09.72,1.85,1.53,1.76S40,26.26,40,25.67Zm-2.87-3.46c0-.64,0-1.45-1-1.48-.75,0-.91.52-.9,1.13,0,.77.18,1.5,1.09,1.58S37,22.84,37.08,22.21ZM9.18,34.55c0-.72-.37-1.26-1.14-1.26-.61,0-.72.54-.67,1a1.12,1.12,0,0,0,1,1.14C9,35.54,9.16,35.08,9.18,34.55Z"/><path class="cls-2" d="M52.93,32c0,.16,0,.32,0,.47-.07.58.21,1.4-.67,1.51a1.55,1.55,0,0,1-1.58-1.17c-.34-.87.43-1,1-1.27.13-.06.21-.21.32-.32A1.22,1.22,0,0,1,52.93,32Z"/><path class="cls-2" d="M39.4,19a1.09,1.09,0,0,1-1,1.12c-.79.09-1.73-1.06-1.78-2.16,0-.64.23-1.07.94-1.08A2.21,2.21,0,0,1,39.4,19Z"/><path class="cls-2" d="M40,25.67c0,.59-.08,1.13-.82,1.22s-1.49-.67-1.53-1.76c0-.67.12-1.32.95-1.37S39.94,24.7,40,25.67Z"/><path class="cls-2" d="M37.08,22.21c0,.63,0,1.3-.83,1.23s-1.09-.81-1.09-1.58c0-.61.15-1.14.9-1.13C37.12,20.76,37,21.57,37.08,22.21Z"/><path class="cls-2" d="M9.18,34.55c0,.53-.15,1-.8.92a1.12,1.12,0,0,1-1-1.14c0-.5.06-1,.67-1C8.81,33.29,9.13,33.83,9.18,34.55Z"/><path class="cls-3" d="M23.22,1.28a2.65,2.65,0,1,1-.88,3.64A2.65,2.65,0,0,1,23.22,1.28Z"/><path class="cls-4" d="M22.85,1.5a1.57,1.57,0,1,1-.52,2.16A1.57,1.57,0,0,1,22.85,1.5Z"/><path class="cls-3" d="M33.06,1.66a2.65,2.65,0,1,1-.88,3.64A2.65,2.65,0,0,1,33.06,1.66Z"/><path class="cls-4" d="M32.69,1.89A1.56,1.56,0,1,1,32.17,4,1.56,1.56,0,0,1,32.69,1.89Z"/></g></g></svg>