<svg xmlns="http://www.w3.org/2000/svg" viewBox="0 0 158.46 155.36"><defs><style>.cls-1{fill:none;}.cls-2{fill:#e8e8e8;}.cls-3{fill:#959292;}.cls-4{fill:#1c2426;}.cls-5{fill:#747575;}.cls-6{fill:#fff;}</style></defs><g id="Layer_2" data-name="Layer 2"><g id="OBJECTS"><path class="cls-1" d="M101.72,85.67c-.21-.7-.88-1-1.78-1a4.46,4.46,0,0,0-3,.75,4.46,4.46,0,0,1,3-.75C100.84,84.69,101.51,85,101.72,85.67Z"/><path class="cls-2" d="M70.82,80.1c.62-.95,1.21-1.92,1.94-3.08-2.19-.48-4,.33-5.76,1A53.05,53.05,0,0,0,45.34,92.83c-4.63,5.08-8.86,10.5-13,16a24.94,24.94,0,0,0-3.91,8.23l3.95,1c1.55-2.39,3.11-4.76,4.72-7.12C42,103.82,48.79,99.71,56.83,97.52a93.33,93.33,0,0,1,11.72-2.4A17.27,17.27,0,0,1,70.82,80.1Z"/><path class="cls-2" d="M154.26,89.26c-1.15-.46-2.36-.79-3.51-1.26-8.07-3.32-16.13-4.57-24.6-6.31-5.3-1.09-10.57-2.31-15.92-3.16S100,77.89,94.63,78c-1.2,0-1.23,1-1.45,1.71a94.75,94.75,0,0,1-3.57,10c-.76,1.76-1.61,3.46-2.53,5.12,5.31.45,10.61.88,15.91,1.36,1.66.14,3.3.42,5,.66,3.6.54,7.17,1.36,10.79,1.6a68,68,0,0,0,33.73-6,10.31,10.31,0,0,0,3.37-2.74,2.26,2.26,0,0,0,.36-.55A1.84,1.84,0,0,1,154.26,89.26Zm-56.18-.85C97,88.28,96,88,96.15,86.57a1.73,1.73,0,0,1,.79-1.18,4.46,4.46,0,0,1,3-.75c.9,0,1.57.33,1.78,1a2,2,0,0,1,0,.87C101.59,87.91,100.08,88.66,98.08,88.41Zm7.36-3.91a17.33,17.33,0,0,1-2.18-.29,2,2,0,0,1-1.61-1.69c-.09-1,.69-1.49,1.49-1.75,1.58-.52,3.2-.87,4.76.18a1.92,1.92,0,0,1,1,1.76c-.06.86-.61,1.23-1.4,1.4A10.82,10.82,0,0,1,105.44,84.5Zm7.74,3c-.78,1.22-2,1.33-3.88,1.08a2.36,2.36,0,0,1-.88-.2c-1.22-.51-1.29-1.54-.16-2.31a4.65,4.65,0,0,1,1.39-.6c1.2-.33,2.43-.67,3.34.61A1.18,1.18,0,0,1,113.18,87.46Z"/><path class="cls-2" d="M121.51,61.35c3.5,4.87,8.74,6.32,13.79,7.29,4.73.46,6.48-1.43,6-5.78-.55-4.59-3.17-7.85-6.83-10.24-3-2-6.42-3.35-10.27-2.52-3.64.79-5.4,3.46-4.62,7.08A10.83,10.83,0,0,0,121.51,61.35Z"/><path class="cls-3" d="M109,82.71a1.92,1.92,0,0,0-1-1.76c-1.56-1-3.18-.7-4.76-.18-.8.26-1.58.78-1.49,1.75a2,2,0,0,0,1.61,1.69,17.33,17.33,0,0,0,2.18.29,10.82,10.82,0,0,0,2.11-.39C108.34,83.94,108.89,83.57,109,82.71Z"/><path class="cls-3" d="M99.94,84.64a4.46,4.46,0,0,0-3,.75,1.73,1.73,0,0,0-.79,1.18C96,88,97,88.28,98.08,88.41c2,.25,3.51-.5,3.68-1.87a2,2,0,0,0,0-.87C101.51,85,100.84,84.69,99.94,84.64Z"/><path class="cls-3" d="M109.65,85.43a4.65,4.65,0,0,0-1.39.6c-1.13.77-1.06,1.8.16,2.31a2.36,2.36,0,0,0,.88.2c1.9.25,3.1.14,3.88-1.08A1.18,1.18,0,0,0,113,86C112.08,84.76,110.85,85.1,109.65,85.43Z"/><path class="cls-4" d="M158.44,80.79A41.91,41.91,0,0,0,153.7,63.4c-10.51-21-32.2-33.52-55-36.51A5.47,5.47,0,0,1,94.27,24,76.69,76.69,0,0,0,73.94,2.25,16.55,16.55,0,0,0,70.76.3c-1.54-.66-2.31-.23-2.84,1.33a18.34,18.34,0,0,0-.79,4.29,73.68,73.68,0,0,0,.54,14,60.11,60.11,0,0,1,.42,11.84c-.07.78,0,1.63-1,2.11-4.06,2-7.42,5-10.92,7.72A101.42,101.42,0,0,0,28.27,75.15,127.64,127.64,0,0,0,17.79,104.1c-1.11,4.74-2.21,9.59-1.45,14.53.29,1.88-.42,2.46-2.13,3-6,1.81-10.15,6-13,11.43a8.34,8.34,0,0,0-.94,6.33,124,124,0,0,1,3.21,14.26,4.41,4.41,0,0,0,.24.9c.38.91,1.11,1.16,1.58.3,1.6-2.92,4.54-4.16,7-6,4.85-3.52,8.47-7.95,9.94-13.91a6.45,6.45,0,0,1,1-2.9,37.5,37.5,0,0,0,3.85,5.28c2,2.28,4.45,4.28,7.46,4.86,3.95.75,8,1.59,12,.81,1.74-.34,3.65.19,5.6-.91-3.47-2.26-4.56-5.6-5.32-9.1a38.82,38.82,0,0,0-1.57-5c-1.93-5.27-5.79-8.21-11.12-9.46L32.39,118l-3.95-1a24.94,24.94,0,0,1,3.91-8.23c4.13-5.49,8.36-10.91,13-16A53.05,53.05,0,0,1,67,78c1.77-.63,3.57-1.44,5.76-1-.73,1.16-1.32,2.13-1.94,3.08a17.27,17.27,0,0,0-2.27,15c.2.64.42,1.29.68,1.94.48,1.16.92,2.33,1.37,3.49,1.2-.69.72-1.85.69-2.81-.07-1.86-.26-3.73-.5-5.58-.72-5.65,1.26-10.41,4.79-14.67a2.38,2.38,0,0,1,.71-.59c.13-.07.36,0,.61.07.22,1-.64,1.43-1.11,2A18.16,18.16,0,0,0,72,92.75c.28,2.68.42,5.38.67,8.77,2-9.2,4.21-17.64,9.92-24.61-1,3-3.08,5.55-4.19,8.55s-2.21,6.26-3.14,9.45-.93,6.56-2,10.11c1.51-1,1.71-2.29,2.08-3.39,1-3,2.07-6.09,2.83-9.23A43.82,43.82,0,0,1,84,79.68a1.81,1.81,0,0,1,1.71-1.2c-.51.92-1,1.85-1.48,2.78a74.58,74.58,0,0,0-7,20.31c-.37.24-.65.74-.31.93.49.27.42-.38.55-.67A16.18,16.18,0,0,0,81,96.43Q84.67,88,88.37,79.6c.32-.71.34-1.64,1.3-2,.54,1,0,1.84-.29,2.66-2.17,5.4-4.38,10.77-6.9,16-1.68,3.49-4.09,6.49-6.26,9.66-.54.78-1.63,1.35-1.28,2.57-1-.25-1.58-.09-1.35,1.12.51-.28,1.13-.43,1.36-1.06,0,0,0,0,0,0l0,.06a5.81,5.81,0,0,0,2.57-1.7,45.49,45.49,0,0,0,9.56-12.06c.92-1.66,1.77-3.36,2.53-5.12a94.75,94.75,0,0,0,3.57-10C93.4,79,93.43,78,94.63,78c5.37-.11,10.22-.31,15.6.53s10.62,2.07,15.92,3.16c8.47,1.74,16.53,3,24.6,6.31,1.15.47,2.36.8,3.51,1.26a1.84,1.84,0,0,0,1.93-.08,2.75,2.75,0,0,0,.78-1.1A16.28,16.28,0,0,0,158.44,80.79ZM124.16,50.1c3.85-.83,7.23.53,10.27,2.52,3.66,2.39,6.28,5.65,6.83,10.24.52,4.35-1.23,6.24-6,5.78-5.05-1-10.29-2.42-13.79-7.29a10.83,10.83,0,0,1-2-4.17C118.76,53.56,120.52,50.89,124.16,50.1ZM39.27,79.79a3.44,3.44,0,0,1,1.82-3,.87.87,0,0,1,1.13.12,1.57,1.57,0,0,1,.21.24,1.18,1.18,0,0,1,.23.87l-.06.3c-.31,1.09-1.85,2.52-2.6,2.37A.87.87,0,0,1,39.27,79.79ZM49.52,66a6,6,0,0,1,3.11-4A1.59,1.59,0,0,1,55,63c.28,1.64-2.54,4.76-4.31,4.68A1.32,1.32,0,0,1,49.52,66ZM62.2,46c.46-2.11,5-4.43,6.86-3.5.9.45,1.26,1.27.54,2a12.73,12.73,0,0,1-6,3C62.36,47.35,62,46.82,62.2,46Zm-2.66,9.5c.42-1.85,3.45-4.24,5.3-4.16a1.69,1.69,0,0,1,1.79,1.85,5.1,5.1,0,0,1-.52,1,9,9,0,0,1-4.89,3C59.84,57.45,59.24,56.78,59.54,55.45Zm-10.61,2c.44-1.89,3.43-4.67,5.24-4.86A1.63,1.63,0,0,1,56,54.38a5.93,5.93,0,0,1-.55,1.19,9.77,9.77,0,0,1-4.58,3.51c-.58.22-1.19.42-1.68-.21A1.6,1.6,0,0,1,48.93,57.41Zm-5.17,6.8c1.36-.36,2.21.44,1.93,2a7.14,7.14,0,0,1-3.61,4.16c-1.14.59-2.22-.32-2.13-1.67C40.05,67.2,42.25,64.6,43.76,64.21ZM35.75,75a1.16,1.16,0,0,1,1.18-.1,1,1,0,0,1,.48,1A5.24,5.24,0,0,1,36.11,79c-.36.45-.75,1.13-1.47.79s-.59-1-.56-1.81A4.08,4.08,0,0,1,35.75,75Z"/><path class="cls-5" d="M74.94,108.5c-.35-1.22.74-1.79,1.28-2.57,2.17-3.17,4.58-6.17,6.26-9.66,2.52-5.25,4.73-10.62,6.9-16,.34-.82.83-1.67.29-2.66-1,.37-1,1.3-1.3,2Q84.67,88,81,96.43a16.18,16.18,0,0,1-3.58,5.4c-.13.29-.06.94-.55.67-.34-.19-.06-.69.31-.93a74.58,74.58,0,0,1,7-20.31c.47-.93,1-1.86,1.48-2.78A1.81,1.81,0,0,0,84,79.68,43.82,43.82,0,0,0,78.18,92.4c-.76,3.14-1.79,6.19-2.83,9.23-.37,1.1-.57,2.4-2.08,3.39,1.07-3.55,1.06-6.9,2-10.11s2-6.33,3.14-9.45,3.14-5.54,4.19-8.55c-5.71,7-7.9,15.41-9.92,24.61-.25-3.39-.39-6.09-.67-8.77A18.16,18.16,0,0,1,75.79,79c.47-.6,1.33-1,1.11-2-.25,0-.48-.14-.61-.07a2.38,2.38,0,0,0-.71.59c-3.53,4.26-5.51,9-4.79,14.67.24,1.85.43,3.72.5,5.58,0,1,.51,2.12-.69,2.81,0,2.48.75,4.9.68,7.41,0,1.44.55,1.73,2.31,1.66C73.36,108.41,74,108.25,74.94,108.5Z"/><path class="cls-5" d="M75,108.56h0l0-.06S75,108.54,75,108.56Z"/><path class="cls-5" d="M50.86,59.08a9.77,9.77,0,0,0,4.58-3.51A5.93,5.93,0,0,0,56,54.38a1.63,1.63,0,0,0-1.82-1.83c-1.81.19-4.8,3-5.24,4.86a1.6,1.6,0,0,0,.25,1.46C49.67,59.5,50.28,59.3,50.86,59.08Z"/><path class="cls-5" d="M61.22,57.14a9,9,0,0,0,4.89-3,5.1,5.1,0,0,0,.52-1,1.69,1.69,0,0,0-1.79-1.85C63,51.21,60,53.6,59.54,55.45,59.24,56.78,59.84,57.45,61.22,57.14Z"/><path class="cls-5" d="M63.58,47.45a12.73,12.73,0,0,0,6-3c.72-.74.36-1.56-.54-2-1.87-.93-6.4,1.39-6.86,3.5C62,46.82,62.36,47.35,63.58,47.45Z"/><path class="cls-5" d="M42.08,70.4a7.14,7.14,0,0,0,3.61-4.16c.28-1.59-.57-2.39-1.93-2s-3.71,3-3.81,4.52C39.86,70.08,40.94,71,42.08,70.4Z"/><path class="cls-5" d="M55,63a1.59,1.59,0,0,0-2.38-1.12,6,6,0,0,0-3.11,4,1.32,1.32,0,0,0,1.18,1.75C52.47,67.79,55.29,64.67,55,63Z"/><path class="cls-5" d="M34.64,79.76c.72.34,1.11-.34,1.47-.79a5.24,5.24,0,0,0,1.3-3.08,1,1,0,0,0-.48-1,1.16,1.16,0,0,0-1.18.1,4.08,4.08,0,0,0-1.67,3C34.05,78.74,34,79.45,34.64,79.76Z"/><path class="cls-5" d="M42.6,78.29l.06-.3a1.18,1.18,0,0,0-.23-.87,1.57,1.57,0,0,0-.21-.24.87.87,0,0,0-1.13-.12,3.44,3.44,0,0,0-1.82,3,.87.87,0,0,0,.73.87C40.75,80.81,42.29,79.38,42.6,78.29Z"/><path class="cls-6" d="M134.56,61.57a2.53,2.53,0,1,1-2.33-2.72A2.52,2.52,0,0,1,134.56,61.57Z"/><path class="cls-4" d="M134.6,61.16a1.5,1.5,0,1,1-1.38-1.61A1.5,1.5,0,0,1,134.6,61.16Z"/></g></g></svg>