<svg xmlns="http://www.w3.org/2000/svg" viewBox="0 0 116.94 44.92"><defs><style>.cls-1{fill:#8bd1ea;}</style></defs><g id="Layer_2" data-name="Layer 2"><g id="OBJECTS"><path class="cls-1" d="M49.49,17a6.74,6.74,0,0,1-6.17-4.21,7.67,7.67,0,0,1,1-8.25,3.16,3.16,0,0,1,.39-.43c.46-.38,1-.85,1.56-.49s.15.93,0,1.4a12.11,12.11,0,0,0-.84,3.79,5.12,5.12,0,0,0,4.14,5.55c3,.49,6.07-2.53,5.65-5.47A2.49,2.49,0,0,0,54,7.05c-1.55-.92-2.71-.28-2.74,1.52A5.65,5.65,0,0,0,51.78,11c.35.8.07,1.2-.77,1.35a2,2,0,0,1-2.16-1,5.47,5.47,0,0,1,.28-6.21,4.57,4.57,0,0,1,5.72-.79,5.17,5.17,0,0,1,3,5.05A8.06,8.06,0,0,1,49.49,17Z"/><path class="cls-1" d="M56.46,24.34a6.08,6.08,0,0,1,2.69-2.83,4.74,4.74,0,0,1,5,.27c1.57,1,1.92,2.68,1.71,4.47A7.62,7.62,0,0,1,60,32.79a7.73,7.73,0,0,1-8.25-2.56c-1.91-2.21-.87-6.34,1.94-7.58C55.09,22,55.73,22.39,56.46,24.34Zm2.14,5.94a5.17,5.17,0,0,0,5.08-4.46,2.13,2.13,0,0,0-2.11-2.64A2.22,2.22,0,0,0,59.25,26c.18.89.25,1.6-.8,1.78a1.6,1.6,0,0,1-1.68-1.07,3.34,3.34,0,0,1-.25-1.9c0-.26,0-.54-.25-.66s-.48,0-.68.2c-2.11,1.83-1.66,4.55.92,5.58A5.79,5.79,0,0,0,58.6,30.28Z"/><path class="cls-1" d="M5.67,15a6.08,6.08,0,0,1,2.69-2.83,4.74,4.74,0,0,1,5,.27c1.57,1,1.92,2.68,1.71,4.47A7.62,7.62,0,0,1,9.22,23.4,7.73,7.73,0,0,1,1,20.84C-.94,18.63.1,14.5,2.91,13.26,4.3,12.65,4.94,13,5.67,15Zm2.14,5.94a5.17,5.17,0,0,0,5.08-4.46,2.12,2.12,0,0,0-2.11-2.63,2.21,2.21,0,0,0-2.32,2.8c.18.89.25,1.6-.8,1.78A1.6,1.6,0,0,1,6,17.31a3.33,3.33,0,0,1-.25-1.9c0-.26,0-.54-.25-.66s-.48,0-.68.2c-2.11,1.83-1.66,4.55.92,5.58A5.79,5.79,0,0,0,7.81,20.89Z"/><path class="cls-1" d="M92.53,15.22a6.13,6.13,0,0,1,2.69-2.83,4.74,4.74,0,0,1,5,.27c1.58,1,1.93,2.68,1.71,4.47a7.6,7.6,0,0,1-5.84,6.54,7.71,7.71,0,0,1-8.25-2.56c-1.91-2.21-.87-6.34,1.94-7.58C91.16,12.93,91.8,13.27,92.53,15.22Zm2.14,5.94a5.16,5.16,0,0,0,5.08-4.46,2.12,2.12,0,0,0-2.11-2.63,2.22,2.22,0,0,0-2.32,2.81c.17.89.25,1.59-.8,1.77a1.58,1.58,0,0,1-1.68-1.07,3.24,3.24,0,0,1-.25-1.9c0-.26,0-.54-.25-.66s-.48,0-.68.21c-2.12,1.83-1.66,4.54.92,5.57A5.79,5.79,0,0,0,94.67,21.16Z"/><path class="cls-1" d="M72.1,11.79c1-2.29,2-2.91,3.84-2.52,2.25.46,3.48,1.88,3.43,4a5.24,5.24,0,0,1-3.3,5,7.36,7.36,0,0,1-4.76.38,4.55,4.55,0,0,1-3.2-6.07C68.85,10.71,70.38,10.33,72.1,11.79Zm0-.33a8.4,8.4,0,0,0-1.14,1.31,2.52,2.52,0,0,0,1.52,3.45c2.5.9,5-.54,5-2.91a1.85,1.85,0,0,0-2-1.87c-1.15.1-.73,1-.74,1.63,0,.37.24.83-.21,1a1.23,1.23,0,0,1-1.43-.3C72.43,13.25,72.42,12.42,72.05,11.46Z"/><path class="cls-1" d="M29.05,9.84c1-2.3,2-2.91,3.84-2.53,2.25.47,3.48,1.89,3.43,4a5.24,5.24,0,0,1-3.3,5,7.3,7.3,0,0,1-4.76.38,4.54,4.54,0,0,1-3.2-6.06C25.8,8.76,27.33,8.38,29.05,9.84ZM29,9.51a8,8,0,0,0-1.14,1.3,2.53,2.53,0,0,0,1.52,3.46c2.5.9,5-.54,5-2.91a1.85,1.85,0,0,0-2-1.87c-1.15.09-.73,1-.74,1.63,0,.36.24.83-.21,1a1.26,1.26,0,0,1-1.43-.3C29.38,11.29,29.37,10.47,29,9.51Z"/><path class="cls-1" d="M79.06,27.49a3.57,3.57,0,0,1-4.27,3.62,6.72,6.72,0,0,1-3.93-2,3.73,3.73,0,0,1,1.3-5.87c.47-.2.89-.25,1.22.19s0,.71-.28,1l-.14.14c-.73.89-1.37,1.88-.69,3a3.8,3.8,0,0,0,3.45,1.85,1.88,1.88,0,0,0,1.79-1.92,1.11,1.11,0,0,0-.78-1.21c-.57-.19-.83.23-1,.67s-.48.94-1.13.73a1.22,1.22,0,0,1-.77-1.24,2.14,2.14,0,0,1,2.45-2.15A3,3,0,0,1,79.06,27.49Z"/><path class="cls-1" d="M65.2,3.08c-.67.86-2.45.92-1.81,2.58.33.86.82,1.74,1.79,1.89S66.56,7,66.83,6.22c-.66-.38-1.12.28-1.7.23A.85.85,0,0,1,64.32,6a.81.81,0,0,1,.13-.9,2.66,2.66,0,0,1,3.17-.64,2,2,0,0,1,.67,2.59,3.3,3.3,0,0,1-5.63,1.35,4.25,4.25,0,0,1-1.61-3.78A2.52,2.52,0,0,1,62.77,2.5,1.86,1.86,0,0,1,65.2,3.08Z"/><path class="cls-1" d="M28.34,22.68c-.67.86-2.46.93-1.82,2.59.33.86.83,1.73,1.79,1.88s1.39-.51,1.65-1.33c-.65-.38-1.12.28-1.69.23a.87.87,0,0,1-.82-.4.84.84,0,0,1,.13-.91,2.68,2.68,0,0,1,3.18-.64,2,2,0,0,1,.66,2.59A3.3,3.3,0,0,1,25.79,28a4.29,4.29,0,0,1-1.61-3.78A2.55,2.55,0,0,1,25.9,22.1,1.88,1.88,0,0,1,28.34,22.68Z"/><path class="cls-1" d="M40.78,36.18c.58.92,0,2.62,1.79,2.6a2.55,2.55,0,0,0,2.4-1c.43-.76,0-1.48-.68-2-.58.49-.13,1.15-.37,1.67-.14.31-.3.58-.67.63a.84.84,0,0,1-.8-.44A2.66,2.66,0,0,1,43,34.4a2,2,0,0,1,2.65.27,3.3,3.3,0,0,1-.69,5.75,4.27,4.27,0,0,1-4.1.2,2.54,2.54,0,0,1-1.43-2.37A1.86,1.86,0,0,1,40.78,36.18Z"/><path class="cls-1" d="M108.33,8.76c.79,1.29,0,3.63,2.48,3.61,1.28,0,2.66-.24,3.32-1.42s0-2-.93-2.79c-.81.67-.18,1.59-.52,2.32-.2.42-.42.8-.93.86a1.15,1.15,0,0,1-1.11-.61,3.69,3.69,0,0,1,.7-4.43,2.81,2.81,0,0,1,3.69.38c2.89,2.48,2.45,6.25-1,8a5.93,5.93,0,0,1-5.69.28,3.52,3.52,0,0,1-2-3.29A2.58,2.58,0,0,1,108.33,8.76Z"/><path class="cls-1" d="M80.66,2.16c.58.92,0,2.62,1.8,2.6a2.54,2.54,0,0,0,2.39-1c.43-.76,0-1.47-.67-2-.59.48-.13,1.14-.38,1.67-.14.3-.3.57-.66.62a.83.83,0,0,1-.8-.44,2.66,2.66,0,0,1,.5-3.2A2,2,0,0,1,85.5.66a3.3,3.3,0,0,1-.7,5.75,4.27,4.27,0,0,1-4.1.19,2.55,2.55,0,0,1-1.43-2.37A1.87,1.87,0,0,1,80.66,2.16Z"/><path class="cls-1" d="M26.43,36.38c-.86,1.14-3.17,1.22-2.34,3.43.42,1.14,1.06,2.3,2.32,2.51,1.11.18,1.79-.69,2.13-1.77-.85-.51-1.45.37-2.19.31a1,1,0,0,1-.89-1.75,3.4,3.4,0,0,1,4.11-.85,2.75,2.75,0,0,1,.86,3.44c-1.24,3.42-4.67,4.28-7.28,1.79a5.74,5.74,0,0,1-2.09-5,3.35,3.35,0,0,1,2.23-2.86A2.36,2.36,0,0,1,26.43,36.38Z"/></g></g></svg>