<svg xmlns="http://www.w3.org/2000/svg" viewBox="0 0 150.32 61.36"><defs><style>.cls-1{fill:#e8e8e8;}.cls-2{fill:#5f899e;}.cls-3{fill:#8daab8;}.cls-4{fill:#6ac0e8;}.cls-5{fill:#2880a8;}.cls-6{fill:#fff;}.cls-7{fill:#1c2426;}</style></defs><g id="Layer_2" data-name="Layer 2"><g id="OBJECTS"><path class="cls-1" d="M120.38,30c-1,1.82-2.59,2.15-4,2.52-4.25,1.11-8.51,2.2-12.79,3.14-9.06,2-18,4.46-26.93,6.83a101.37,101.37,0,0,1-30.1,3.6c-7.28-.29-14-2.24-19.88-6.71a20.73,20.73,0,0,1-7-10.9,4.75,4.75,0,0,1,2.55-5.79,34.84,34.84,0,0,1,10.94-3.37A149.86,149.86,0,0,1,63.7,17.54a175.09,175.09,0,0,1,25,2.89c9.16,1.6,17.93,4.6,26.82,7.16C117.21,28.09,118.33,29.65,120.38,30Z"/><path class="cls-2" d="M88.52,60.59c0,.3-.17.43-.45.46h-1c-.33-.81-1.07-1.13-1.74-1.57A60.34,60.34,0,0,1,71.82,47.09a114.32,114.32,0,0,1-7.51-9.89c-.33-.5-.68-1.07-1.45-.87-.2.84.31,1.3.66,1.79,1.68,2.33,3.35,4.66,5.09,6.94a69.19,69.19,0,0,0,11.27,12c1.16.94,2.73,1.48,3.38,3a29.4,29.4,0,0,1-11.07-6.9A74.89,74.89,0,0,1,60.42,38.73a4.52,4.52,0,0,0-3.82-2.22c-11.83-1.47-23.46-3.77-34.29-9-3-1.44-3.44-2.21-3.25-5.54.37-6.46,3.78-11.13,9-14.49A41.82,41.82,0,0,1,45.76,1.1,114.59,114.59,0,0,1,72.58.59c16.27,1.85,31.88,5.84,45.93,14.71A107.5,107.5,0,0,0,131,22.5c2,2.54,1.43,5.33.76,8.13a1.85,1.85,0,0,1-2.2,1.6c-1.34-.09-2.69,0-4,0-8-.4-43.83,4-48,4.22-1.28.08-2.55.13-4.22.22,1,.82,1.82,1.49,2.65,2.13C81.62,43.21,85.39,49,88.05,55.65a7.47,7.47,0,0,1,.59,2.55,2.42,2.42,0,0,1-1-.93,105.43,105.43,0,0,0-8.15-9.39c-2.26-2.26-4.55-4.49-6.8-6.77a54.79,54.79,0,0,0-5.42-4.31c-.34-.27-.74-.27-1.34.37A142.53,142.53,0,0,1,88.52,60.59ZM64.27,3.43c-.6,0-1,0-1.4,0-1.62.06-3,1-3.07,2.07s1.24,2.08,3,2.26a10.84,10.84,0,0,1,2.58.36,3.47,3.47,0,0,0,2.54-.42,1.82,1.82,0,0,0,.3-3.37A5.68,5.68,0,0,0,64.27,3.43Zm8.22,10.11A8,8,0,0,0,75,13.33c.66-.28,1.39-.55,1.45-1.41s-.63-1.28-1.32-1.48a10.64,10.64,0,0,0-5.2-.06,1.36,1.36,0,0,0-1.1,1.39A1.5,1.5,0,0,0,70,13.34,9.06,9.06,0,0,0,72.49,13.54ZM77.4,7.76h1.67a1.24,1.24,0,0,0,.46-.11,1.11,1.11,0,0,0,.37-1.92,6.9,6.9,0,0,0-5.19-1.1c-.52.22-1,.5-1,1.17a1.49,1.49,0,0,0,.75,1.39A4.57,4.57,0,0,0,77.4,7.76ZM89,9.22c1.24,0,2-.52,1.88-1.33s-1.19-1.48-2.2-1.53-1.92.7-1.88,1.45S87.81,9.22,89,9.22Zm-4.83,2.42h.47c.64,0,1.33,0,1.45-.87S85.6,9.66,85,9.43a2.9,2.9,0,0,0-.92-.19c-1.21-.06-2.32.57-2.2,1.3.2,1.18,1.2,1.05,2.06,1.1Z"/><path class="cls-3" d="M125.48,32.25c1.34,0,2.69-.11,4,0a1.85,1.85,0,0,0,2.2-1.6c.67-2.8,1.23-5.59-.76-8.13.55-.26.66-.78.83-1.28.58.67,1,1.15,1.68,0a66.74,66.74,0,0,1,5.83-9c1.45-1.85,3.39-3.11,4.93-4.82,1.41-1,3.27-1.15,4.46-2.55a.83.83,0,0,1,1.26,0c.31.29.53.67.27,1-1.23,1.74-.57,3.85-1.22,5.7a6,6,0,0,0-.94,2.15c-2.12,5.28-5,10-10.42,12.46a.45.45,0,0,0-.23.61,26.31,26.31,0,0,1,3.18,2c2.58,2.44,3.48,5.6,4.1,8.92.32,1.69.27,3.44,1,5.06.13,1.93-.82,3.66-1.07,5.53-.14,1.11-.94,1.3-1.93.68a2.8,2.8,0,0,1-1.34-1.27,3.19,3.19,0,0,1-.46-2.06l1.42,1,.21.63c.06,0,.16-.08.17-.14a.5.5,0,0,0-.33-.54,53.07,53.07,0,0,0-6.44-16.52,2.16,2.16,0,0,0-1.69-1.32A16.53,16.53,0,0,0,135.74,35c1.39,2.68,2.44,5.52,4,8.11a5.48,5.48,0,0,1,1.1,2.61c-.85.08-1-.63-1.33-1.16-2.45-4.27-4.85-8.57-6.1-13.4-.88.24-.76,1.24-1.41,1.58A44.62,44.62,0,0,1,125.48,32.25Zm10.1-4.82a.47.47,0,0,0-.52-.33c-.05,0-.09.11-.13.17l.6.21a1.89,1.89,0,0,0,.61,1.26,21,21,0,0,1,3.74,6.36c1,2.93,2,5.88,3.05,8.8.23.63.13,1.56,1.14,2-.3-2.83-.54-5.51-.87-8.18C142.59,32.85,140.59,29,135.58,27.43ZM147.05,7.25a5,5,0,0,0-2.64,1.52c-4.67,3.92-7.8,9-10.87,14.16-.21.34-.4.7.12,1.08a10.57,10.57,0,0,0,3.79-3.11,85.63,85.63,0,0,0,5.22-6.83c1.49-2.24,3.41-4.21,4.44-6.76.06-.08.12-.17.19-.25ZM134,25.38a5.46,5.46,0,0,0,3.47-.3,14.65,14.65,0,0,0,6-5.24,24.05,24.05,0,0,0,4.27-10.36C143.36,14.73,139.93,20.8,134,25.38Z"/><path class="cls-2" d="M145.64,42.81c-.69-1.62-.64-3.37-1-5.06-.62-3.32-1.52-6.48-4.1-8.92a26.31,26.31,0,0,0-3.18-2,.45.45,0,0,1,.23-.61c5.44-2.51,8.3-7.18,10.42-12.46a6,6,0,0,1,.94-2.15c.08,6.28-2.91,10.94-8,14.59C147.33,30.54,147.23,36.48,145.64,42.81Z"/><path class="cls-3" d="M88.52,60.59A142.53,142.53,0,0,0,65.88,37.17c.6-.64,1-.64,1.34-.37a54.79,54.79,0,0,1,5.42,4.31c2.25,2.28,4.54,4.51,6.8,6.77a105.43,105.43,0,0,1,8.15,9.39,2.42,2.42,0,0,0,1,.93A2,2,0,0,1,88.52,60.59Z"/><path class="cls-3" d="M83.26,60.07c-.65-1.54-2.22-2.08-3.38-3a69.19,69.19,0,0,1-11.27-12c-1.74-2.28-3.41-4.61-5.09-6.94-.35-.49-.86-.95-.66-1.79.77-.2,1.12.37,1.45.87a114.32,114.32,0,0,0,7.51,9.89A60.34,60.34,0,0,0,85.35,59.47c.67.44,1.41.76,1.74,1.57A8.53,8.53,0,0,1,83.26,60.07Z"/><path class="cls-2" d="M144.22,7.37c-1.54,1.71-3.48,3-4.93,4.82a66.74,66.74,0,0,0-5.83,9c-.67,1.19-1.1.71-1.68,0a13.15,13.15,0,0,1,3.35-7.62A20.87,20.87,0,0,1,144.22,7.37Z"/><path class="cls-2" d="M132,32.72c.65-.34.53-1.34,1.41-1.58,1.25,4.83,3.65,9.13,6.1,13.4.3.53.48,1.24,1.33,1.16h0a3.19,3.19,0,0,0,.46,2.06A30.86,30.86,0,0,1,132,32.72Z"/><path class="cls-3" d="M87.1,61h1C87.75,61.33,87.42,61.58,87.1,61Z"/><path class="cls-3" d="M64.27,3.43a5.68,5.68,0,0,1,3.9.9,1.82,1.82,0,0,1-.3,3.37,3.47,3.47,0,0,1-2.54.42,10.84,10.84,0,0,0-2.58-.36c-1.71-.18-3-1.22-3-2.26s1.45-2,3.07-2.07C63.27,3.41,63.67,3.43,64.27,3.43Z"/><path class="cls-3" d="M72.49,13.54a9.06,9.06,0,0,1-2.49-.2,1.5,1.5,0,0,1-1.19-1.57,1.36,1.36,0,0,1,1.1-1.39,10.64,10.64,0,0,1,5.2.06c.69.2,1.38.59,1.32,1.48s-.79,1.13-1.45,1.41A8,8,0,0,1,72.49,13.54Z"/><path class="cls-3" d="M77.4,7.76a4.57,4.57,0,0,1-3-.58,1.49,1.49,0,0,1-.75-1.39c0-.67.52-1,1-1.17a6.9,6.9,0,0,1,5.19,1.1,1.11,1.11,0,0,1-.37,1.92,1.24,1.24,0,0,1-.46.11Z"/><path class="cls-3" d="M89,9.22c-1.19,0-2.17-.63-2.2-1.41s.94-1.5,1.88-1.45,2.13.83,2.2,1.53S90.24,9.21,89,9.22Z"/><path class="cls-3" d="M84.17,11.64h-.24c-.86-.05-1.86.08-2.06-1.1-.12-.73,1-1.36,2.2-1.3a2.9,2.9,0,0,1,.92.19c.61.23,1.21.53,1.1,1.34s-.81.84-1.45.87Z"/><path class="cls-2" d="M134,25.38c5.9-4.58,9.33-10.65,13.78-15.9a24.05,24.05,0,0,1-4.27,10.36,14.65,14.65,0,0,1-6,5.24A5.46,5.46,0,0,1,134,25.38Z"/><path class="cls-2" d="M147.11,7.31c-1,2.55-3,4.52-4.44,6.76a85.63,85.63,0,0,1-5.22,6.83A10.57,10.57,0,0,1,133.66,24c-.52-.38-.33-.74-.12-1.08,3.07-5.14,6.2-10.24,10.87-14.16a5,5,0,0,1,2.64-1.52Z"/><path class="cls-2" d="M135.58,27.43c5,1.58,7,5.42,7.62,10.25.33,2.67.57,5.35.87,8.18-1-.4-.91-1.33-1.14-2-1.07-2.92-2-5.87-3.05-8.8a21,21,0,0,0-3.74-6.36,1.89,1.89,0,0,1-.61-1.26Z"/><path class="cls-2" d="M140.85,45.7a5.48,5.48,0,0,0-1.1-2.61c-1.57-2.59-2.62-5.43-4-8.11a16.53,16.53,0,0,1-1.56-6.19,2.16,2.16,0,0,1,1.69,1.32,53.07,53.07,0,0,1,6.44,16.52l-.05,0-1.42-1Z"/><path class="cls-2" d="M142.31,46.63a.5.5,0,0,1,.33.54c0,.06-.11.1-.17.14l-.21-.63Z"/><path class="cls-2" d="M135.53,27.48l-.6-.21c0-.06.08-.16.13-.17a.47.47,0,0,1,.52.33Z"/><path class="cls-2" d="M147.05,7.25l.25-.19c-.07.08-.13.17-.19.25Z"/><path class="cls-4" d="M17.46,7.37c1.84.71,3.71,1.37,5.52,2.17s1.69.87,1.42,2.71a8.42,8.42,0,0,1-3.66,5.61,1.54,1.54,0,0,1-2.44-.17c-.41-.47-.86-.92-1.29-1.37a4.65,4.65,0,0,0,.45-2.54Z"/><path class="cls-5" d="M17.46,7.37v6.41A4.65,4.65,0,0,1,17,16.32l-2.48-2.21.06-8.21A7.47,7.47,0,0,1,17.46,7.37Z"/><path class="cls-4" d="M14.59,5.9l-.06,8.21a15.28,15.28,0,0,1-3.26-3c.57-.47.42-1.13.43-1.74,0-1.63,0-3.27,0-4.9A6.29,6.29,0,0,1,14.59,5.9Z"/><path class="cls-5" d="M11.71,4.46c0,1.63,0,3.27,0,4.9,0,.61.14,1.27-.43,1.74A15.71,15.71,0,0,1,8.41,8.2c0-1.33,0-2.66,0-4,0-.6.13-1.08.8-1.22A5.8,5.8,0,0,1,11.71,4.46Z"/><path class="cls-5" d="M6,5.87,2.62,2.48c.14-.62-.17-1.34.39-1.87a7.4,7.4,0,0,1,3,1,7.63,7.63,0,0,0,.28,2.55A1.43,1.43,0,0,1,6,5.87Z"/><path class="cls-4" d="M6,5.87a1.43,1.43,0,0,0,.3-1.73A7.63,7.63,0,0,1,6,1.59,5.54,5.54,0,0,1,9.19,3c-.67.14-.81.62-.8,1.22,0,1.33,0,2.66,0,4A9.25,9.25,0,0,1,6,5.87Z"/><path class="cls-4" d="M3,.61c-.56.53-.25,1.25-.39,1.87A17.53,17.53,0,0,1,0,0C1.37.05,2.24,0,3,.61Z"/><path class="cls-6" d="M47.2,32.85a1.95,1.95,0,1,1,2.69.63A2,2,0,0,1,47.2,32.85Z"/><path class="cls-7" d="M47.37,33.12a1.15,1.15,0,1,1,1.59.37A1.16,1.16,0,0,1,47.37,33.12Z"/></g></g></svg>