<svg xmlns="http://www.w3.org/2000/svg" viewBox="0 0 136.99 175.05"><defs><style>.cls-1{fill:#db4f4f;}.cls-2{fill:#e48585;}.cls-3{fill:#fff;}.cls-4{fill:#1c2426;}</style></defs><g id="Layer_2" data-name="Layer 2"><g id="OBJECTS"><path class="cls-1" d="M42,66.48c.77,1.73,1.52,3.48,2.33,5.19a106.87,106.87,0,0,0,22.9,31.53,10.86,10.86,0,0,0,1.19,1.06c6.65,4.67,10.94,11.29,15,18.09,3,5,5.88,10.13,10.19,14.2a16.93,16.93,0,0,0,4,3c.75.38,1.54.82,2.32.11a2.35,2.35,0,0,0,.8-2.67,7.86,7.86,0,0,1-.47-3.8c.28-2.34,2-3.22,4.11-2.21a6.84,6.84,0,0,1,3.61,7,10,10,0,0,1-12.64,8.53,18.67,18.67,0,0,1-7.89-4.81,30,30,0,0,1-4.3-5.3c-2.79-4.26-5.43-8.6-8-13a68.22,68.22,0,0,0-14.2-17.1,50.75,50.75,0,0,1-7.65-7.79C46.77,90,40.72,81.05,36.79,70.89A55.29,55.29,0,0,1,34.88,64a31.41,31.41,0,0,0,1.81,12.22,65.34,65.34,0,0,0,11.15,20.5c3.17,3.78,6.11,7.75,9.3,11.53,4.63,5.5,6.59,12.05,7.66,19,1.19,7.66,1.81,15.38,2.66,23.08.89,8,5.57,13.4,12.94,16.51,3.32,1.39,6.11.08,8.69-1.82,1.52-1.12,1.84-3.59,1-5.43-.13-.27-.38-.49-.5-.76a1.58,1.58,0,0,1,2.17-2.12,5.64,5.64,0,0,1,3,4.05c.71,4.11,1.15,7.79-2.27,10.91a14,14,0,0,1-7.7,3.27c-6.78.89-9.71-2-15.16-5.38-5.76-3.56-8.16-9.13-9.37-15.47-1.18-6.17-.77-12.41-.92-18.63-.16-6.51-1.13-12.84-4.47-18.61a30.58,30.58,0,0,0-2-3C48.6,108.06,44,102.55,40.2,96.52s-7.06-12-8.6-19a15.11,15.11,0,0,0-.55-1.73c0-.11-.21-.16-.32-.25-.3.3-.21.69-.2,1,.13,7.68-.25,15.34-.43,23-.1,4.32,1.23,8.23,2.81,12.09a13.51,13.51,0,0,0,3.36,4.56,4.75,4.75,0,0,0,3.06,1.33c1.08.07,1.52-.57,1.2-1.6a4.66,4.66,0,0,0-1.09-1.72,2.45,2.45,0,0,1-.64-2.9,3.22,3.22,0,0,1,2.9-1.88A5.5,5.5,0,0,1,47,113.94c1,4.82-4.1,11.38-10.25,8.86a14.58,14.58,0,0,1-6.85-5.39,32.58,32.58,0,0,1-5.46-19.19c0-6.68.2-13.36.3-20,0-.82,0-1.64,0-2.79a6.12,6.12,0,0,0-1.51,2.75c-2.17,6.73-3.92,13.55-4,20.7-.13,8.71,3.36,15.91,9.09,22.17a45.31,45.31,0,0,0,6.11,5.46,45.08,45.08,0,0,1,11.29,12.69,19.06,19.06,0,0,1,2.63,7.45c1.06,7.7-6.28,12.87-11.24,12.18-4.62-.64-7.43-4.18-6.58-8.61A4.2,4.2,0,0,1,32,147.68,2.76,2.76,0,0,1,34.9,147a2.53,2.53,0,0,1,1.41,2.64c0,.15,0,.3,0,.45.06,2,.44,2.65,1.69,2.7a3.27,3.27,0,0,0,3.1-2.51,9.23,9.23,0,0,0-.21-3.39,21.16,21.16,0,0,0-5.8-9.91,53.78,53.78,0,0,0-7.23-6.25c-7.47-5.31-11.84-12.44-14-21.39a53.79,53.79,0,0,1,2.86-34.09A112.39,112.39,0,0,1,21.5,64.41c.76-1.39.66-1.38-.68-2.48C10.6,53.55,2.27,43.52.34,30-.67,22.94.52,15.4,4.55,9.5c5.5-8.07,16.58-12,25.67-7.83,4.11,1.87,7.39,5.18,10.25,8.67,5.67,6.89,11.41,15.71,13.58,24.48,1.65,6.62,1.8,12,9.86,13.15a121.43,121.43,0,0,0,14.76,1c5.71.16,11.35.66,16.8,2.58,9.76,3.43,17.29,9.34,21.47,19a16.64,16.64,0,0,1,1.26,9.13,9,9,0,0,1-8.63,7.3c-2.28,0-4.56-.11-6.36-1.86a6.12,6.12,0,0,1-1.54-2,3,3,0,0,1,1.23-3.94,6.42,6.42,0,0,1,3.7-.85c2.51.06,3.28-.74,3.35-3.21a10.71,10.71,0,0,0-1.51-5.66,21.71,21.71,0,0,0-9.69-9.31,49,49,0,0,0-18-4.62c-6-.37-12.14-.56-18.12-1.73-2-.38-4-.92-6-1.41-.16.78.44,1,.78,1.28a36.81,36.81,0,0,0,7.78,5.11,92.1,92.1,0,0,1,13.47,8.91,46.45,46.45,0,0,1,9.4,9.85C90,80.3,91.81,83,93.58,85.77c5.53,8.59,12.61,15.31,22.44,18.78,1.71.61,3.33,1.47,5,2.15a32.44,32.44,0,0,1,12.55,9.59,13.49,13.49,0,0,1,3.26,11,7.24,7.24,0,0,1-5.42,6.36,8.08,8.08,0,0,1-8.26-1.81,5.42,5.42,0,0,1-1.75-4.3,2.56,2.56,0,0,1,1.44-2.4,2.19,2.19,0,0,1,2.53.38,9.54,9.54,0,0,0,1.67,1.18,1.36,1.36,0,0,0,2.13-1.18,6.45,6.45,0,0,0-.89-4.36A25.48,25.48,0,0,0,115.6,110.9c-1.06-.41-2.14-.78-3.23-1.12-8.07-2.52-14.22-7.68-19.32-14.22a99.75,99.75,0,0,1-6.48-9.08A54.25,54.25,0,0,0,66.48,67.37q-8.25-4.62-16.06-9.94a.85.85,0,0,0-.86-.21c-.48.65.29.85.53,1.22a24.06,24.06,0,0,0,11.48,9.32,46.5,46.5,0,0,1,10.06,5.75,35.5,35.5,0,0,1,9.56,11.16C83.05,88,84.52,91.49,86.07,95c.52,1.18,1.1,2.33,1.6,3.52A25,25,0,0,0,97.78,109.9a14,14,0,0,0,8.61,2.41c1.51-.09,3-.06,4.56,0a5,5,0,0,1,3.83,1.71c1.49,1.73,1.08,3.62-1,4.64a12.24,12.24,0,0,1-3.93,1.09c-7.19,1-13.43-.55-18.72-5.93a58.94,58.94,0,0,1-11-15.57c-1.33-2.73-2.61-5.49-3.73-8.31A28.9,28.9,0,0,0,63.42,75.28c-4.32-2.48-8.88-4.54-12.94-7.53,3,5.24,6,10.33,10.5,14.4,2.47,2.25,5,4.49,7.52,6.62a38.81,38.81,0,0,1,6.48,7c3.1,4.23,5.58,8.87,8.56,13.17a42.65,42.65,0,0,0,10.74,10.4,11.24,11.24,0,0,0,3.51,1.58q5.59,1.54,11.17,3.13c7.32,2.1,12.37,6.76,14.66,14A11.54,11.54,0,0,1,121,149.49a6.43,6.43,0,0,1-7.48,1.55,11.71,11.71,0,0,1-3.37-1.86,5.51,5.51,0,0,1-1.1-6.84,2.61,2.61,0,0,1,2.4-1.46c1.07,0,1.56.65,2,1.58.57,1.34,1.9,1.38,2.74.17a2.88,2.88,0,0,0,.45-2.19c-.49-2.59-1.4-5-3.68-6.57a26.3,26.3,0,0,0-8.77-4.18c-2.65-.63-5.24-1.52-7.82-2.41a28.68,28.68,0,0,1-10.19-6.71A78.53,78.53,0,0,1,76.61,109q-3.6-5-7.51-9.74a47.8,47.8,0,0,0-7.1-7A48.79,48.79,0,0,1,50.79,79.4C48.05,75,45,70.65,42.49,66.07c0-.52-.16-1.17-.8-.91-.39.16-.06.79.18,1.16A1.14,1.14,0,0,0,42,66.48ZM26,3.28c-1.12.08-2.12.28-2.53,1.34s.29,1.79,1.06,2.29A18.55,18.55,0,0,0,27.71,8.6a2,2,0,0,0,2.61-.78A2.25,2.25,0,0,0,29.78,5,7.23,7.23,0,0,0,26,3.28Zm11,8C37,9.8,34.82,8,33.42,8.34c-1,.22-1.65,1.28-1.2,2a4.81,4.81,0,0,0,2.51,2.21A1.75,1.75,0,0,0,36.93,11.23Zm.06,36a2.39,2.39,0,0,0-.65-2c-.37-.43-.55-1.4-1.24-1s-.29,1.17.12,1.73a1.82,1.82,0,0,1,.33.59c.16.59.3,1.24-.22,1.69a1.58,1.58,0,0,1-1.72.1,3.61,3.61,0,0,1-.73-.52c-.46-.35-1-1.09-1.51-.46s.35,1,.7,1.42a5.53,5.53,0,0,0,.83.77,2.41,2.41,0,0,0,2.75.18A2.21,2.21,0,0,0,37,47.18ZM41.55,16.8a5.14,5.14,0,0,0,0-.68,2.86,2.86,0,0,0-2.24-2.28,1.31,1.31,0,0,0-1.6.55c-.57,1.15.08,2,.76,2.87a3.31,3.31,0,0,0,1,.87C40.75,18.74,41.55,18.21,41.55,16.8ZM18.49,8.72a3.22,3.22,0,0,0,2-.42,1,1,0,0,0,.33-1.55c-.74-1-3.55-1.37-4.58-.56-.8.63-.75,1.42.14,2A3.18,3.18,0,0,0,18.49,8.72ZM44.05,53.5a1.17,1.17,0,0,0-1,.8c-.5,1.34,1,3.86,2.41,4.11.74.12,1.24-.22,1.1-1a6.92,6.92,0,0,0-1.36-3.3A1.52,1.52,0,0,0,44.05,53.5ZM26.38,20.12c.72,0,1.34.05,1.69-.59s-.1-1-.36-1.44a3.41,3.41,0,0,0-2.18-1.5,1.29,1.29,0,0,0-1.57.58,1.41,1.41,0,0,0,.2,1.68A3.75,3.75,0,0,0,26.38,20.12Zm-5.07-8.67a6.75,6.75,0,0,0-1.12.11,1,1,0,0,0-.57,1.58,4.28,4.28,0,0,0,3.6,1.47A1.08,1.08,0,0,0,24,12.88,2.75,2.75,0,0,0,21.31,11.45ZM83,126.87a1,1,0,0,0-1.18.9,4.74,4.74,0,0,0,1.85,3.65c1,.49,1.74.06,1.61-1a5.23,5.23,0,0,0-1.74-3.31A1.84,1.84,0,0,0,83,126.87ZM42.9,23.68a2.69,2.69,0,0,0-2.17-2.58c-.87,0-1.22.57-1.28,1.29a2.55,2.55,0,0,0,2.34,2.32C42.53,24.7,42.92,24.37,42.9,23.68ZM20.38,3.2a2.14,2.14,0,0,0-.16-.39,3.5,3.5,0,0,0-3.54-.67,1,1,0,0,0-.19,1.7A2.67,2.67,0,0,0,20,4,.82.82,0,0,0,20.38,3.2ZM93,141a3.75,3.75,0,0,0-2.4-2.68,1.06,1.06,0,0,0-1.14,1.29,3,3,0,0,0,2.5,2.26C92.6,141.87,93,141.65,93,141Zm-67-64c0,.78-.12,2,1.13,2s1.1-1.17,1.13-2.05c.05-1.62-.29-2.37-1.06-2.36S26.1,75.4,26.08,76.92ZM64.87,156c-.48.06-.74.17-.84.51a5,5,0,0,0,1.47,3.38,1.08,1.08,0,0,0,1.26-.06,1,1,0,0,0,.23-1,5.89,5.89,0,0,0-1.47-2.49C65.35,156.11,65,156.07,64.87,156ZM11.5,7.37A2.08,2.08,0,0,0,9.34,8.59,1,1,0,0,0,9.67,9.8c.92.65,1.74.17,2.51-.32.5-.31,1.1-.71.9-1.41S12.19,7.36,11.5,7.37ZM36.4,24.75a2.6,2.6,0,0,0-2.22-2.29A1.08,1.08,0,0,0,33,23.53c-.05.87,1.41,2.13,2.35,2.07C35.89,25.57,36.33,25.32,36.4,24.75Zm95.4,92.55c0-1.11-1.83-2.8-2.8-2.63a.73.73,0,0,0-.65,1,3.66,3.66,0,0,0,2.22,2.41C131.23,118.29,131.78,118.07,131.8,117.3ZM27.88,64.13c0,.78-.13,1.71.84,1.87s1-.77,1.23-1.36a2.75,2.75,0,0,0-.14-2.58.57.57,0,0,0-.79-.19A2.75,2.75,0,0,0,27.88,64.13Zm-.45-54c-.92,0-1.28.25-1.32.88-.06.91,1.07,1.84,2.22,1.82.68,0,1.22-.27,1.2-1.05A1.93,1.93,0,0,0,27.43,10.11ZM48,60a.89.89,0,0,0-.87.81,2.74,2.74,0,0,0,2,2.63c.47.05.89-.06,1-.61A3.15,3.15,0,0,0,48,60ZM35.56,16.85a2.68,2.68,0,0,0-1.84-2.07c-.84-.08-1.24.39-1.27,1.19a2,2,0,0,0,1.86,1.87A1.14,1.14,0,0,0,35.56,16.85ZM88.44,135.37a2.16,2.16,0,0,0-1.7-2.15,1.11,1.11,0,0,0-1.31,1c-.13.8,1.16,2.17,2,2.12A1,1,0,0,0,88.44,135.37Zm-.19-29.92a.7.7,0,0,0-.61.59,2.34,2.34,0,0,0,.37,1.52c.67,1.25,1.63,1.8,2.27,1.21,1-.91-.2-1.46-.5-2.12A1.87,1.87,0,0,0,88.25,105.45ZM14.36,10.73c-.82-.05-1.88.7-1.88,1.38,0,.87.58,1.15,1.35,1.19,1,0,2.15-.7,2-1.4S15,11,14.36,10.73Zm97.38,56.41c-.14,0-.41,0-.54.19a1.5,1.5,0,0,0-.11,1.88c.36.63.79,1.32,1.66,1.34a.82.82,0,0,0,.54-.35C113.86,69.4,112.8,67.22,111.74,67.14Zm22.81,54.79c0-1.14-.62-1.94-1.45-1.93a1.07,1.07,0,0,0-1.19,1.07,2.13,2.13,0,0,0,1.69,2.08C134.42,123.15,134.57,122.6,134.55,121.93Zm-90.23,23c0-.23,0-.46,0-.68-.15-1.06-.83-1.66-1.62-1.39s-.63,1.08-.55,1.72a2.58,2.58,0,0,0,.33.83c.29.56.63,1.12,1.37.88S44.25,145.4,44.32,144.91Zm5.82-94.55A11.87,11.87,0,0,0,48.56,48c-.28-.27-.57-.49-1-.25a1,1,0,0,0-.47.94,3,3,0,0,0,2.35,2.37C49.9,51.1,50.16,50.88,50.14,50.36Zm-10.49,86.5a.79.79,0,0,0-.76.58,2.53,2.53,0,0,0,1.44,2.38.8.8,0,0,0,1-.12.88.88,0,0,0,.12-.19A2,2,0,0,0,39.65,136.86Zm31.06,26.82c0-.79-1.12-2.09-1.79-2.05s-.94.63-.9,1.28a1.86,1.86,0,0,0,1.74,1.71A.82.82,0,0,0,70.71,163.68Zm29.49-47.74c0-.67-1.27-1.68-2.17-1.78a1,1,0,0,0-1.1.6c-.17.39.08.72.36,1a3,3,0,0,0,2,1A.85.85,0,0,0,100.2,115.94Zm-5.72-2.43c.72,0,1-.41.7-1a4.65,4.65,0,0,0-1-1.2c-.51-.49-1.11-1.32-1.82-.51s-.06,1.4.53,1.93A3.6,3.6,0,0,0,94.48,113.51Zm37.81,14.7c.09.62.27,1.34,1,1.14a1.71,1.71,0,0,0,1.21-1.94c0-.62-.1-1.32-.89-1.32s-.93.86-1.22,1.45A3.17,3.17,0,0,0,132.29,128.21ZM116.58,133a.55.55,0,0,0,.61-.52c.16-1-1.28-2.57-2.23-2.38-.58.12-1,.53-.67,1.15A3.78,3.78,0,0,0,116.58,133ZM73.45,98.1c0-1-.8-2.18-1.55-2.2a.86.86,0,0,0-1,.93,2.66,2.66,0,0,0,1.77,2.1C73.25,99,73.43,98.61,73.45,98.1ZM115,74.43a1.56,1.56,0,0,0-1.32-1.66c-.76-.09-.95.6-.93,1.25,0,1,.71,1.76,1.44,1.7S114.94,75.15,115,74.43Zm3.11,59.28a.71.71,0,0,0-.71.9,1.91,1.91,0,0,0,1.71,1.76c.68,0,.9-.46.84-1.06A1.87,1.87,0,0,0,118.06,133.71ZM35.33,131.9c-.43.08-.67.39-.52.79a4.07,4.07,0,0,0,2.13,2.22.6.6,0,0,0,.88-.65A3.72,3.72,0,0,0,35.33,131.9ZM98.07,95.73A1.92,1.92,0,0,0,96.27,94c-.53,0-.87.23-.82.81.07,1,1,2,1.9,1.87C97.91,96.62,98.08,96.24,98.07,95.73Zm6.2,22.45c.62-.06,1.4.12,1.47-.7s-.64-1.11-1.37-1.11-1.92-.27-2,.84S103.55,118.1,104.27,118.18ZM28.51,68.28a.66.66,0,0,0-.76.25,3.29,3.29,0,0,0-.07,2.81.52.52,0,0,0,.6.19c.53-.19,1.09-1.9.84-2.64a.8.8,0,0,0-.23-.37A1.74,1.74,0,0,0,28.51,68.28Zm24.18-15.6a1.17,1.17,0,0,0-.41.15.78.78,0,0,0-.21.83,1.89,1.89,0,0,0,1.48,1.52.94.94,0,0,0,1-.23.74.74,0,0,0,.1-.63A2.82,2.82,0,0,0,52.69,52.68Zm60.42,27.16c0,.56,0,1.16.69,1.29s1.2-.66,1.13-1.63c0-.63-.2-1.34-1-1.24S113.14,79.2,113.11,79.84Zm-24.41,3c-.45-.06-.57.18-.58.38a2.72,2.72,0,0,0,.08,1.31c.36.71.93,1.78,1.72,1.43s0-1.26-.24-1.9a3.2,3.2,0,0,0-.57-1A1.38,1.38,0,0,0,88.7,82.84Zm-11.83,85c-.56,0-1.05.11-1.1.81a1.32,1.32,0,0,0,1.46,1.29c.56-.11,1.25-.31,1.14-1.1S77.58,167.86,76.87,167.84ZM65,89.77c-.15-1.42-1.28-1.72-2.07-2.35a.41.41,0,0,0-.59,0,.86.86,0,0,0-.14.6C62.38,89.21,63.1,89.66,65,89.77Zm28,1.84c.69.07.91-.2,1-.61a1.93,1.93,0,0,0-1.47-2,.64.64,0,0,0-.74.64A2,2,0,0,0,93,91.61ZM69.14,94a.65.65,0,0,0,.62-.63c.07-.77-1-1.66-1.83-1.63a.71.71,0,0,0-.78.64C67.07,93.13,68.08,94,69.14,94Zm4.11,73.79c.5-.08,1-.28.93-.81a1.43,1.43,0,0,0-1.34-1.31c-.59-.08-1.12.24-1,.89A1.51,1.51,0,0,0,73.25,167.78Z"/><path class="cls-2" d="M26,3.28A7.23,7.23,0,0,1,29.78,5a2.25,2.25,0,0,1,.54,2.87,2,2,0,0,1-2.61.78A18.55,18.55,0,0,1,24.5,6.91c-.77-.5-1.46-1.25-1.06-2.29S24.85,3.36,26,3.28Z"/><path class="cls-2" d="M36.93,11.23a1.75,1.75,0,0,1-2.2,1.35,4.81,4.81,0,0,1-2.51-2.21c-.45-.75.24-1.81,1.2-2C34.82,8,37,9.8,36.93,11.23Z"/><path class="cls-2" d="M37,47.18a2.21,2.21,0,0,1-1.34,2.49,2.41,2.41,0,0,1-2.75-.18,5.53,5.53,0,0,1-.83-.77c-.35-.43-1.21-.82-.7-1.42s1.05.11,1.51.46a3.61,3.61,0,0,0,.73.52,1.58,1.58,0,0,0,1.72-.1c.52-.45.38-1.1.22-1.69a1.82,1.82,0,0,0-.33-.59c-.41-.56-.89-1.31-.12-1.73s.87.6,1.24,1A2.39,2.39,0,0,1,37,47.18Z"/><path class="cls-2" d="M41.55,16.8c0,1.41-.8,1.94-2,1.33a3.31,3.31,0,0,1-1-.87c-.68-.83-1.33-1.72-.76-2.87a1.31,1.31,0,0,1,1.6-.55,2.86,2.86,0,0,1,2.24,2.28A5.14,5.14,0,0,1,41.55,16.8Z"/><path class="cls-2" d="M18.49,8.72a3.18,3.18,0,0,1-2.13-.52c-.89-.59-.94-1.38-.14-2,1-.81,3.84-.49,4.58.56a1,1,0,0,1-.33,1.55A3.22,3.22,0,0,1,18.49,8.72Z"/><path class="cls-2" d="M44.05,53.5a1.52,1.52,0,0,1,1.12.63,6.92,6.92,0,0,1,1.36,3.3c.14.76-.36,1.1-1.1,1C44,58.16,42.52,55.64,43,54.3A1.17,1.17,0,0,1,44.05,53.5Z"/><path class="cls-2" d="M26.38,20.12a3.75,3.75,0,0,1-2.22-1.27,1.41,1.41,0,0,1-.2-1.68,1.29,1.29,0,0,1,1.57-.58,3.41,3.41,0,0,1,2.18,1.5c.26.43.68.88.36,1.44S27.1,20.15,26.38,20.12Z"/><path class="cls-2" d="M21.31,11.45A2.75,2.75,0,0,1,24,12.88a1.08,1.08,0,0,1-.74,1.73,4.28,4.28,0,0,1-3.6-1.47,1,1,0,0,1,.57-1.58A6.75,6.75,0,0,1,21.31,11.45Z"/><path class="cls-2" d="M83,126.87a1.84,1.84,0,0,1,.54.25,5.23,5.23,0,0,1,1.74,3.31c.13,1-.66,1.48-1.61,1a4.74,4.74,0,0,1-1.85-3.65A1,1,0,0,1,83,126.87Z"/><path class="cls-2" d="M42.9,23.68c0,.69-.37,1-1.11,1a2.55,2.55,0,0,1-2.34-2.32c.06-.72.41-1.3,1.28-1.29A2.69,2.69,0,0,1,42.9,23.68Z"/><path class="cls-2" d="M20.38,3.2A.82.82,0,0,1,20,4a2.67,2.67,0,0,1-3.5-.13,1,1,0,0,1,.19-1.7,3.5,3.5,0,0,1,3.54.67A2.14,2.14,0,0,1,20.38,3.2Z"/><path class="cls-2" d="M93.05,141c0,.68-.45.9-1,.87a3,3,0,0,1-2.5-2.26,1.06,1.06,0,0,1,1.14-1.29A3.78,3.78,0,0,1,93.05,141Z"/><path class="cls-2" d="M26.08,76.92c0-1.52.49-2.44,1.2-2.46s1.11.74,1.06,2.36c0,.88.09,2.05-1.13,2.05S26.12,77.7,26.08,76.92Z"/><path class="cls-2" d="M64.87,156c.13.06.48.1.65.3A5.89,5.89,0,0,1,67,158.8a1,1,0,0,1-.23,1,1.08,1.08,0,0,1-1.26.06A5,5,0,0,1,64,156.52C64.13,156.18,64.39,156.07,64.87,156Z"/><path class="cls-2" d="M11.5,7.37c.69,0,1.37,0,1.58.7s-.4,1.1-.9,1.41c-.77.49-1.59,1-2.51.32a1,1,0,0,1-.33-1.21A2.08,2.08,0,0,1,11.5,7.37Z"/><path class="cls-2" d="M36.4,24.75c-.07.57-.51.82-1.09.85-.94.06-2.4-1.2-2.35-2.07a1.08,1.08,0,0,1,1.22-1.07A2.6,2.6,0,0,1,36.4,24.75Z"/><path class="cls-2" d="M131.8,117.3c0,.77-.57,1-1.23.77a3.66,3.66,0,0,1-2.22-2.41.73.73,0,0,1,.65-1C130,114.5,131.79,116.19,131.8,117.3Z"/><path class="cls-2" d="M27.88,64.13A2.75,2.75,0,0,1,29,61.87a.57.57,0,0,1,.79.19A2.75,2.75,0,0,1,30,64.64c-.2.59-.39,1.49-1.23,1.36S27.92,64.91,27.88,64.13Z"/><path class="cls-2" d="M27.43,10.11a1.93,1.93,0,0,1,2.1,1.65c0,.78-.52,1-1.2,1.05-1.15,0-2.28-.91-2.22-1.82C26.15,10.36,26.51,10.12,27.43,10.11Z"/><path class="cls-2" d="M48,60a3.15,3.15,0,0,1,2.14,2.83c-.14.55-.56.66-1,.61a2.74,2.74,0,0,1-2-2.63A.89.89,0,0,1,48,60Z"/><path class="cls-2" d="M35.56,16.85a1.14,1.14,0,0,1-1.25,1A2,2,0,0,1,32.45,16c0-.8.43-1.27,1.27-1.19A2.68,2.68,0,0,1,35.56,16.85Z"/><path class="cls-2" d="M88.44,135.37a1,1,0,0,1-1,.94c-.83.05-2.12-1.32-2-2.12a1.11,1.11,0,0,1,1.31-1A2.16,2.16,0,0,1,88.44,135.37Z"/><path class="cls-2" d="M88.25,105.45a1.87,1.87,0,0,1,1.53,1.2c.3.66,1.48,1.21.5,2.12-.64.59-1.6,0-2.27-1.21a2.34,2.34,0,0,1-.37-1.52A.7.7,0,0,1,88.25,105.45Z"/><path class="cls-2" d="M14.36,10.73c.59.25,1.35.35,1.5,1.17s-1,1.45-2,1.4c-.77,0-1.35-.32-1.35-1.19C12.48,11.43,13.54,10.68,14.36,10.73Z"/><path class="cls-2" d="M111.74,67.14c1.06.08,2.12,2.26,1.55,3.06a.82.82,0,0,1-.54.35c-.87,0-1.3-.71-1.66-1.34a1.5,1.5,0,0,1,.11-1.88C111.33,67.19,111.6,67.18,111.74,67.14Z"/><path class="cls-2" d="M134.55,121.93c0,.67-.13,1.22-1,1.22a2.13,2.13,0,0,1-1.69-2.08A1.07,1.07,0,0,1,133.1,120C133.93,120,134.53,120.79,134.55,121.93Z"/><path class="cls-2" d="M44.32,144.91c-.07.49.14,1.14-.51,1.36s-1.08-.32-1.37-.88a2.58,2.58,0,0,1-.33-.83c-.08-.64-.36-1.41.55-1.72s1.47.33,1.62,1.39C44.31,144.45,44.3,144.68,44.32,144.91Z"/><path class="cls-2" d="M50.14,50.36c0,.52-.24.74-.68.72a3,3,0,0,1-2.35-2.37,1,1,0,0,1,.47-.94c.41-.24.7,0,1,.25A11.87,11.87,0,0,1,50.14,50.36Z"/><path class="cls-2" d="M39.65,136.86a2,2,0,0,1,1.83,2.65.88.88,0,0,1-.12.19.8.8,0,0,1-1,.12,2.53,2.53,0,0,1-1.44-2.38A.79.79,0,0,1,39.65,136.86Z"/><path class="cls-2" d="M70.71,163.68a.82.82,0,0,1-.95.94A1.86,1.86,0,0,1,68,162.91c0-.65.14-1.23.9-1.28S70.68,162.89,70.71,163.68Z"/><path class="cls-2" d="M100.2,115.94a.85.85,0,0,1-.93.76,3,3,0,0,1-2-1c-.28-.27-.53-.6-.36-1a1,1,0,0,1,1.1-.6C98.93,114.26,100.19,115.27,100.2,115.94Z"/><path class="cls-2" d="M94.48,113.51a3.6,3.6,0,0,1-1.57-.79c-.59-.53-1.12-1.26-.53-1.93s1.31,0,1.82.51a4.65,4.65,0,0,1,1,1.2C95.47,113.1,95.2,113.49,94.48,113.51Z"/><path class="cls-2" d="M132.29,128.21a3.17,3.17,0,0,1,.14-.67c.29-.59.39-1.44,1.22-1.45s.86.7.89,1.32a1.71,1.71,0,0,1-1.21,1.94C132.56,129.55,132.38,128.83,132.29,128.21Z"/><path class="cls-2" d="M116.58,133a3.78,3.78,0,0,1-2.29-1.75c-.34-.62.09-1,.67-1.15,1-.19,2.39,1.38,2.23,2.38A.55.55,0,0,1,116.58,133Z"/><path class="cls-2" d="M73.45,98.1c0,.51-.2.88-.79.83a2.66,2.66,0,0,1-1.77-2.1.86.86,0,0,1,1-.93C72.65,95.92,73.47,97.12,73.45,98.1Z"/><path class="cls-2" d="M115,74.43c0,.72-.11,1.23-.81,1.29s-1.4-.71-1.44-1.7c0-.65.17-1.34.93-1.25A1.56,1.56,0,0,1,115,74.43Z"/><path class="cls-2" d="M118.06,133.71a1.87,1.87,0,0,1,1.84,1.6c.06.6-.16,1-.84,1.06a1.91,1.91,0,0,1-1.71-1.76A.71.71,0,0,1,118.06,133.71Z"/><path class="cls-2" d="M35.33,131.9a3.72,3.72,0,0,1,2.49,2.36.6.6,0,0,1-.88.65,4.07,4.07,0,0,1-2.13-2.22C34.66,132.29,34.9,132,35.33,131.9Z"/><path class="cls-2" d="M98.07,95.73c0,.51-.16.89-.72,1-.85.13-1.83-.82-1.9-1.87,0-.58.29-.81.82-.81A1.92,1.92,0,0,1,98.07,95.73Z"/><path class="cls-2" d="M104.27,118.18c-.72-.08-1.88.13-1.85-1s1.19-.83,2-.84,1.43.25,1.37,1.11S104.89,118.12,104.27,118.18Z"/><path class="cls-2" d="M28.51,68.28a1.74,1.74,0,0,1,.38.24.8.8,0,0,1,.23.37c.25.74-.31,2.45-.84,2.64a.52.52,0,0,1-.6-.19,3.29,3.29,0,0,1,.07-2.81A.66.66,0,0,1,28.51,68.28Z"/><path class="cls-2" d="M52.69,52.68a2.82,2.82,0,0,1,2,1.64.74.74,0,0,1-.1.63.94.94,0,0,1-1,.23,1.89,1.89,0,0,1-1.48-1.52.78.78,0,0,1,.21-.83A1.17,1.17,0,0,1,52.69,52.68Z"/><path class="cls-2" d="M113.11,79.84c0-.64-.06-1.48.84-1.58s.94.61,1,1.24c.07,1-.46,1.75-1.13,1.63S113.14,80.4,113.11,79.84Z"/><path class="cls-2" d="M88.7,82.84a1.38,1.38,0,0,1,.41.27,3.2,3.2,0,0,1,.57,1c.21.64,1.16,1.49.24,1.9s-1.36-.72-1.72-1.43a2.72,2.72,0,0,1-.08-1.31C88.13,83,88.25,82.78,88.7,82.84Z"/><path class="cls-2" d="M76.87,167.84c.71,0,1.38.19,1.5,1s-.58,1-1.14,1.1a1.32,1.32,0,0,1-1.46-1.29C75.82,168,76.31,167.85,76.87,167.84Z"/><path class="cls-2" d="M65,89.77c-1.87-.11-2.59-.56-2.8-1.7a.86.86,0,0,1,.14-.6.41.41,0,0,1,.59,0C63.69,88.05,64.82,88.35,65,89.77Z"/><path class="cls-2" d="M93,91.61a2,2,0,0,1-1.25-1.92.64.64,0,0,1,.74-.64A1.93,1.93,0,0,1,94,91C93.9,91.41,93.68,91.68,93,91.61Z"/><path class="cls-2" d="M69.14,94c-1.06,0-2.07-.86-2-1.62a.71.71,0,0,1,.78-.64c.88,0,1.9.86,1.83,1.63A.65.65,0,0,1,69.14,94Z"/><path class="cls-2" d="M73.25,167.78a1.51,1.51,0,0,1-1.42-1.23c-.11-.65.42-1,1-.89A1.43,1.43,0,0,1,74.18,167C74.23,167.5,73.75,167.7,73.25,167.78Z"/><path class="cls-2" d="M42,66.48a1.14,1.14,0,0,1-.15-.16c-.24-.37-.57-1-.18-1.16.64-.26.77.39.8.91Z"/><path class="cls-3" d="M47.33,36a2.51,2.51,0,1,1-.83,3.46A2.53,2.53,0,0,1,47.33,36Z"/><circle class="cls-4" cx="47.76" cy="37.52" r="1.49" transform="translate(9.21 84.46) rotate(-88.76)"/><path class="cls-3" d="M19.42,52.64a2.51,2.51,0,1,1-.84,3.45A2.51,2.51,0,0,1,19.42,52.64Z"/><path class="cls-4" d="M19.07,52.85a1.49,1.49,0,1,1-.5,2A1.5,1.5,0,0,1,19.07,52.85Z"/></g></g></svg>