<svg xmlns="http://www.w3.org/2000/svg" viewBox="0 0 144.6 84.1"><defs><style>.cls-1{fill:#576c43;}.cls-2{fill:#92a871;}.cls-3{fill:#95ab72;}.cls-4{fill:#6d8355;}.cls-5{fill:#84460e;}.cls-6{fill:#c47126;}.cls-7{fill:#fff;}.cls-8{fill:#1c2426;}</style></defs><g id="Layer_2" data-name="Layer 2"><g id="OBJECTS"><path class="cls-1" d="M23.26,49.82c0-3.1,0-5.81.9-8.27,2-5.51,4.15-11,10.24-13.39A11.31,11.31,0,0,1,40,27.31,7.14,7.14,0,0,1,46.28,33,14.27,14.27,0,0,1,46,40.15a28.11,28.11,0,0,1-7,12.35,1.37,1.37,0,0,1-.17.17c-4.73,3.74-6.09,9-6.43,14.64a30.43,30.43,0,0,1-.45,4.76c-.15.72-.34,1.47-1.16,1.66s-1.33-.43-1.72-1a15.28,15.28,0,0,1-2.11-4.8q-1.59-7-3.2-14A15.21,15.21,0,0,1,23.26,49.82Z"/><path class="cls-1" d="M119.19,70.91a39,39,0,0,1-19.33-6,18.57,18.57,0,0,1-6.61-7.42A72.81,72.81,0,0,1,89,49.17a3.29,3.29,0,0,0-.5-.79c-1.39-1.76-1.39-3.16,0-4.84,1.88-2.22,5.21-2.86,8.36-1.59a13.44,13.44,0,0,1,4.89,3.37c3.48,3.73,6.9,7.52,10.29,11.32.86,1,1.9,1.69,2.79,2.6q3.87,3.91,7.71,7.86a4.5,4.5,0,0,1,.86,1.14,1.74,1.74,0,0,1-1.25,2.58,2.82,2.82,0,0,1-.71.09C120.64,70.92,119.84,70.91,119.19,70.91Z"/><path class="cls-1" d="M127.2,47.94c-4.06.64-7.8.05-11-2.77-.24-.21-.49-.41-.71-.64-.6-.64-1.46-1.3-.83-2.24s1.56-.35,2.35,0,1.47,1,2.22-.13c.31-.49.76-.11,1.17.23a9.68,9.68,0,0,0,11.64.4c.19-.14.35-.32.55-.46a.82.82,0,0,1,1.09,0,.89.89,0,0,1,.07,1.11,6.55,6.55,0,0,1-2.05,2.61,6.66,6.66,0,0,1-3.2,1.52A1.09,1.09,0,0,0,127.2,47.94Z"/><path class="cls-2" d="M118.26,48.8a1.12,1.12,0,0,1,1.33-.35A1.28,1.28,0,0,1,118.26,48.8Z"/><path class="cls-3" d="M51.91,68.09a3.49,3.49,0,0,1,.74,2.07c-1.83.41-2.39,1-2.27,2.35s.87,1.86,2.48,1.93a6.08,6.08,0,0,0,1-.07,2.14,2.14,0,0,1,.4,1.51,1.88,1.88,0,0,0-1.85.84,4,4,0,0,0,1.87,5.89c-1.18,1.68-2.19,2-3.65.73a48.73,48.73,0,0,1-4.07-4.06c-4.1-4.49-8-9.14-10.77-14.62a35.54,35.54,0,0,1-3.27-10.23,8.88,8.88,0,0,1,0-3.33c.86-4.19,2.17-8.16,4.92-11.57,1.5-1.86,2.79-3.9,4.16-5.86,1.23-1.74,2-2.1,4.06-1.41a59.92,59.92,0,0,1,5.78,2.3c2.3,1.07,2.75,2.22,2,4.65-.89,2.9-1.77,5.8-2.72,8.69-1.51,4.62-2.3,9.28-1,14.09-.94.23-1.41,1-1,1.74a5.52,5.52,0,0,1,.81,3.89c-.14.66.6,1.25,1.33,1.43S51.77,68.64,51.91,68.09ZM36.47,52.56c0-.24,0-.48,0-.71,0-.55.06-1.2-.67-1.33s-1,.36-1.25.88a3.73,3.73,0,0,0-.3.64,2.25,2.25,0,0,0,.33,2.43.94.94,0,0,0,1.1.16C36.55,54.19,36.46,53.34,36.47,52.56Zm.94,5.77A1.54,1.54,0,0,0,36,56.89c-.94-.06-1,.83-1,1.56,0,.91.4,1.52,1.38,1.55S37.43,59.45,37.41,58.33Zm-.33,5.08a3.11,3.11,0,0,0,.85,1.67c.44.46,1,1,1.62.44.49-.42.33-1,0-1.53a3,3,0,0,0-1.33-1.32C37.57,62.37,37.23,62.78,37.08,63.41Zm2.77-8.79c0-.83-.14-1.71-1.2-1.67-.89,0-.75.86-.76,1.47,0,.84.14,1.7,1.2,1.67C40,56.06,39.79,55.22,39.85,54.62Zm-.38,3.56c-.57.13-.91.4-.92,1,0,.83.91,1.88,1.55,1.77a.81.81,0,0,0,.63-1.08C40.59,59.08,40.44,58.26,39.47,58.18Zm3.25,1.54a1,1,0,0,0-.95,1.15c0,.79.25,1.45,1.14,1.46s.75-.66.74-1.22S43.49,59.87,42.72,59.72ZM42,54.8a1.07,1.07,0,0,0-1.15,1,1,1,0,0,0,1,1.3c.62,0,.78-.43.8-.94S42.77,55,42,54.8ZM38.2,49.9a1.12,1.12,0,0,0,1-1c.08-.62-.16-1.14-.83-1.17s-.9.52-1,1.1A.85.85,0,0,0,38.2,49.9Z"/><path class="cls-3" d="M13.51,21.12a33.48,33.48,0,0,1,6.86.51,33.31,33.31,0,0,0,7.36.79c2.6,0,5,.86,7.44,1.29a2,2,0,0,1,1.1.43A35.57,35.57,0,0,0,40.66,28c1,.72.76,2.55-.34,3.42C34.62,35.87,29,40.58,21.58,42c-4,.77-7.88,1.27-11.85.18C4.73,40.83.17,35.53,0,30.88a8.15,8.15,0,0,1,5-8.23A18.56,18.56,0,0,1,13.51,21.12ZM11.66,37c1.8,0,2.73-.74,2.71-2.26a2.35,2.35,0,0,0-2.47-2.58c-1.91-.06-2.81.71-2.81,2.42S9.89,37,11.66,37Zm-2.2-10.1a2.75,2.75,0,0,0,1.37-.39c.42-.22.91-.44.95-1,.05-.72-.49-1-1.08-1-.84,0-.74-.47-.69-1.1.06-1.05-.69-1.36-1.59-1.26a3.46,3.46,0,0,0-2.09,1.06c-.34.35-.64.73-.43,1.26s.6.48,1,.48c.79,0,1.61-.17,1.36,1.18C8.12,26.94,8.92,26.89,9.46,26.92ZM26.1,35.51a3.72,3.72,0,0,0,2.31-1.34,1.08,1.08,0,0,0,.16-1.31,1.29,1.29,0,0,0-1.2-.64A2.79,2.79,0,0,0,25,34.49C25,35.16,25.29,35.52,26.1,35.51Zm6.36-.34a.87.87,0,0,0-.45-.84c-1-.62-3.44.57-3.6,1.78a.83.83,0,0,0,.2.63,2,2,0,0,0,2,0A2.77,2.77,0,0,0,32.46,35.17ZM19.59,36.52c1,0,2.08-.36,2.31-.9a.94.94,0,0,0-.4-1.23c-.87-.55-1.67-.12-2.44.3-.5.27-.92.66-.68,1.32S19.13,36.48,19.59,36.52Zm-2.14,3.84c1.08,0,2-.52,2-1S18.34,38,17.63,38.13s-1.56.36-1.62,1.18S16.8,40.32,17.45,40.36Zm6-1a8.08,8.08,0,0,0,1-.27c.52-.22,1.06-.53.85-1.22a1.1,1.1,0,0,0-1.5-.77,4,4,0,0,0-1.06.51,1,1,0,0,0-.6,1.17C22.33,39.42,22.86,39.36,23.49,39.4ZM7.6,29.42c-.11-.13-.21-.4-.39-.47a1.42,1.42,0,0,0-1.55.29c-.41.37-.86.73-.75,1.38a.64.64,0,0,0,.22.39c.58.39,1,0,1.54-.26A1.4,1.4,0,0,0,7.6,29.42ZM3.82,26.88c-.07-.34-.11-.76-.5-.7a1.6,1.6,0,0,0-1.38,1.65c0,.4.09.92.58.79A1.75,1.75,0,0,0,3.82,26.88Z"/><path class="cls-3" d="M107.72,41.32a2.75,2.75,0,0,1,1.8.53c4.36,2.62,8.84,5,13.37,7.35.13.06.2.23.3.35-1,1.52-1.1,2.75-.18,3.54s2.17.64,3.44-.8c.29-.34.36-.92,1-.88l.77.17c-.19.79-.84,1.53-.1,2.4,1.12,1.33,2.5.9,3.41-1.11a2.07,2.07,0,0,1,1.88.46c-1.07,1.31-1.1,2.34-.09,3.21s2,.63,3-.62a2.14,2.14,0,0,0,.43-1.55,1,1,0,0,1,1,.39,6.75,6.75,0,0,1-.24.91,2,2,0,0,0,.6,2.55,2.73,2.73,0,0,0,2.87.38c1.1-.32,1.24-1.62,2.29-1.91,1.69,1.26,1.78,2.29.13,3.45a20.78,20.78,0,0,1-7.51,3A47.24,47.24,0,0,1,113.11,63a17.53,17.53,0,0,1-9.44-5.74,42.62,42.62,0,0,1-5.74-8.79c.65-.52.8-1.35,1.21-2C101.13,43.32,103.18,40.24,107.72,41.32Zm.8,14.08c.61.33,1.27.74,2,1s1.09-.12,1.24-.72c.24-1-1-2.6-2.24-3.08s-1.31.7-1.75,1.34c-.07.1-.28.1-.5.17l-1.19-1.08c-.42-.37-.84-.84-1.44-.37a1.27,1.27,0,0,0-.32,1.72,5.8,5.8,0,0,0,2.55,2.4c.67.32,1.06.16,1.15-.61C108,55.91,108,55.58,108.52,55.4Zm8,.54c-.07-.87-1.4-1.68-2.61-1.66-.76,0-1.21.34-1.12,1.15a2.45,2.45,0,0,0,2.53,1.68C116.07,57,116.54,56.68,116.57,55.94Zm12.19,2.16c-1.38,0-2,.42-2,1.42a1.56,1.56,0,0,0,1.84,1.37c.75-.16,1.61-.37,1.78-1.3C130.51,58.85,129.36,58.08,128.76,58.1Zm-11.51,0c-.59,0-1.18.14-1.36.74s.35,1,.86,1.24a2,2,0,0,0,2.24.11.71.71,0,0,0,.26-1A2.08,2.08,0,0,0,117.25,58.12Zm4.32-1c-.53.12-1.37-.15-1.47.72s.57,1.23,1.36,1.23,2,.26,2.11-.87S122.42,57.24,121.57,57.11Zm-8.36,2.45a1.93,1.93,0,0,0-1.73-1.91c-.5,0-.93.1-1,.68a1.87,1.87,0,0,0,1.59,2A1,1,0,0,0,113.21,59.56ZM123.82,62c1,0,1.75-.33,1.71-.84-.06-.79-.79-.89-1.36-1-.84-.14-1.82.61-1.68,1.19S123.29,61.93,123.82,62Z"/><path class="cls-4" d="M107.72,41.32c-4.54-1.08-6.59,2-8.58,5.17-.41.66-.56,1.49-1.21,2-1.34-1.46-1.68-3.58-3.28-4.9-.47-.39-.11-1,.28-1.47a2.12,2.12,0,0,1,1.71-.67c3.16-.16,6.33-.33,9.5-.48A2.13,2.13,0,0,1,107.72,41.32Z"/><path class="cls-4" d="M54.23,82.61a4,4,0,0,1-1.87-5.89,1.88,1.88,0,0,1,1.85-.84C55,78.12,55.32,80.36,54.23,82.61Z"/><path class="cls-4" d="M143.28,56.69c-1.05.29-1.19,1.59-2.29,1.91a2.73,2.73,0,0,1-2.87-.38,2,2,0,0,1-.6-2.55,6.75,6.75,0,0,0,.24-.91A10.39,10.39,0,0,1,143.28,56.69Z"/><path class="cls-4" d="M127.43,51.41c-.62,0-.69.54-1,.88-1.27,1.44-2.38,1.7-3.44.8s-.86-2,.18-3.54C124.58,50.21,126.23,50.31,127.43,51.41Z"/><path class="cls-4" d="M136.75,54.37a2.14,2.14,0,0,1-.43,1.55c-1,1.25-2,1.48-3,.62s-1-1.9.09-3.21A10.68,10.68,0,0,1,136.75,54.37Z"/><path class="cls-4" d="M53.81,74.37a6.08,6.08,0,0,1-1,.07c-1.61-.07-2.36-.66-2.48-1.93s.44-1.94,2.27-2.35A10.68,10.68,0,0,1,53.81,74.37Z"/><path class="cls-4" d="M51.91,68.09c-.14.55-.28,1.15-1,1s-1.47-.77-1.33-1.43a5.52,5.52,0,0,0-.81-3.89c-.38-.75.09-1.51,1-1.74C50.48,64,51.19,66.06,51.91,68.09Z"/><path class="cls-4" d="M131.51,52.87c-.91,2-2.29,2.44-3.41,1.11-.74-.87-.09-1.61.1-2.4C129.46,51.61,130.34,52.62,131.51,52.87Z"/><path class="cls-4" d="M36.47,52.56c0,.78.08,1.63-.79,2.07a.94.94,0,0,1-1.1-.16A2.25,2.25,0,0,1,34.25,52a3.73,3.73,0,0,1,.3-.64c.26-.52.61-1,1.25-.88s.64.78.67,1.33C36.48,52.08,36.47,52.32,36.47,52.56Z"/><path class="cls-4" d="M37.41,58.33c0,1.12-.14,1.7-1,1.67S35,59.36,35,58.45c0-.73,0-1.62,1-1.56A1.54,1.54,0,0,1,37.41,58.33Z"/><path class="cls-4" d="M37.08,63.41c.15-.63.49-1,1.17-.74A3,3,0,0,1,39.58,64c.3.49.46,1.11,0,1.53-.65.56-1.18,0-1.62-.44A3.11,3.11,0,0,1,37.08,63.41Z"/><path class="cls-4" d="M39.85,54.62c-.06.6.12,1.44-.76,1.47-1.06,0-1.21-.83-1.2-1.67,0-.61-.13-1.44.76-1.47C39.71,52.91,39.82,53.79,39.85,54.62Z"/><path class="cls-4" d="M39.47,58.18c1,.08,1.12.9,1.26,1.65a.81.81,0,0,1-.63,1.08c-.64.11-1.56-.94-1.55-1.77C38.56,58.58,38.9,58.31,39.47,58.18Z"/><path class="cls-4" d="M42.72,59.72c.77.15.93.73.93,1.39s0,1.23-.74,1.22-1.18-.67-1.14-1.46A1,1,0,0,1,42.72,59.72Z"/><path class="cls-4" d="M42,54.8c.74.19.7.77.67,1.33s-.18,1-.8.94a1,1,0,0,1-1-1.3A1.07,1.07,0,0,1,42,54.8Z"/><path class="cls-4" d="M38.2,49.9a.85.85,0,0,1-.73-1.07c.05-.58.26-1.14,1-1.1s.91.55.83,1.17A1.12,1.12,0,0,1,38.2,49.9Z"/><path class="cls-4" d="M11.66,37c-1.77,0-2.57-.78-2.57-2.42s.9-2.48,2.81-2.42a2.35,2.35,0,0,1,2.47,2.58C14.39,36.28,13.46,37.05,11.66,37Z"/><path class="cls-4" d="M9.46,26.92c-.54,0-1.34,0-1.2-.75C8.51,24.82,7.69,25,6.9,25c-.4,0-.82,0-1-.48s.09-.91.43-1.26a3.46,3.46,0,0,1,2.09-1.06c.9-.1,1.65.21,1.59,1.26,0,.63-.15,1.07.69,1.1.59,0,1.13.29,1.08,1,0,.53-.53.75-.95,1A2.75,2.75,0,0,1,9.46,26.92Z"/><path class="cls-4" d="M26.1,35.51c-.81,0-1.14-.35-1.11-1a2.79,2.79,0,0,1,2.38-2.27,1.29,1.29,0,0,1,1.2.64,1.08,1.08,0,0,1-.16,1.31A3.72,3.72,0,0,1,26.1,35.51Z"/><path class="cls-4" d="M32.46,35.17a2.77,2.77,0,0,1-1.83,1.6,2,2,0,0,1-2,0,.83.83,0,0,1-.2-.63c.16-1.21,2.58-2.4,3.6-1.78A.87.87,0,0,1,32.46,35.17Z"/><path class="cls-4" d="M19.59,36.52c-.46,0-1,.06-1.21-.51s.18-1,.68-1.32c.77-.42,1.57-.85,2.44-.3a.94.94,0,0,1,.4,1.23C21.67,36.16,20.61,36.55,19.59,36.52Z"/><path class="cls-4" d="M17.45,40.36c-.65,0-1.5-.1-1.44-1s.94-1,1.62-1.18,1.85.65,1.84,1.18S18.53,40.34,17.45,40.36Z"/><path class="cls-4" d="M23.49,39.4c-.63,0-1.16,0-1.32-.58a1,1,0,0,1,.6-1.17,4,4,0,0,1,1.06-.51,1.1,1.1,0,0,1,1.5.77c.21.69-.33,1-.85,1.22A8.08,8.08,0,0,1,23.49,39.4Z"/><path class="cls-4" d="M7.6,29.42a1.4,1.4,0,0,1-.93,1.33c-.49.24-1,.65-1.54.26a.64.64,0,0,1-.22-.39c-.11-.65.34-1,.75-1.38A1.42,1.42,0,0,1,7.21,29C7.39,29,7.49,29.29,7.6,29.42Z"/><path class="cls-4" d="M3.82,26.88a1.75,1.75,0,0,1-1.3,1.74c-.49.13-.61-.39-.58-.79a1.6,1.6,0,0,1,1.38-1.65C3.71,26.12,3.75,26.54,3.82,26.88Z"/><path class="cls-4" d="M108.52,55.4c-.48.18-.48.51-.52.81-.09.77-.48.93-1.15.61a5.8,5.8,0,0,1-2.55-2.4,1.27,1.27,0,0,1,.32-1.72c.6-.47,1,0,1.44.37l1.19,1.08c.22-.07.43-.07.5-.17.44-.64.39-1.87,1.75-1.34s2.48,2.12,2.24,3.08c-.15.6-.58,1-1.24.72S109.13,55.73,108.52,55.4Z"/><path class="cls-4" d="M116.57,55.94c0,.74-.5,1.08-1.2,1.17a2.45,2.45,0,0,1-2.53-1.68c-.09-.81.36-1.13,1.12-1.15C115.17,54.26,116.5,55.07,116.57,55.94Z"/><path class="cls-4" d="M128.76,58.1c.6,0,1.75.75,1.6,1.49-.17.93-1,1.14-1.78,1.3a1.56,1.56,0,0,1-1.84-1.37C126.75,58.52,127.38,58.15,128.76,58.1Z"/><path class="cls-4" d="M117.25,58.13a2.06,2.06,0,0,1,2,1,.71.71,0,0,1-.26,1,2,2,0,0,1-2.24-.11c-.51-.27-1.07-.57-.86-1.24S116.66,58.12,117.25,58.13Z"/><path class="cls-4" d="M121.57,57.11c.85.13,2.09-.16,2,1.08s-1.29.88-2.11.87-1.47-.34-1.36-1.23S121,57.23,121.57,57.11Z"/><path class="cls-4" d="M113.21,59.56a1,1,0,0,1-1.19.76,1.87,1.87,0,0,1-1.59-2c.12-.58.55-.71,1-.68A1.93,1.93,0,0,1,113.21,59.56Z"/><path class="cls-4" d="M123.82,62c-.53,0-1.15.08-1.33-.63s.84-1.33,1.68-1.19c.57.09,1.3.19,1.36,1C125.57,61.64,124.84,62,123.82,62Z"/><path class="cls-5" d="M58.09,1.51A29,29,0,0,1,64.77.56c.44,1.35,1,2.69,1.31,4.07a3.64,3.64,0,0,0,2,2.54A64.81,64.81,0,0,1,74,10.8,12.43,12.43,0,0,0,81.88,13c2.37-.2,4.74-.8,7.13-.47,2.12.29,3.48-.68,4.54-2.36.6-.94,1.22-1.9,2.49-2a16.23,16.23,0,0,1,3.86,2.77l-1.52,1.84c-2,2.49-2.94,5.21-1.87,8.43a38,38,0,0,0,4.43,8.44,6.82,6.82,0,0,0,6.17,3c1.19,0,2.39,0,3.59,0,2.57,0,4.7-.72,5.8-3.29a15.21,15.21,0,0,1,2,5.2,5,5,0,0,0-1.17.18c-6.67,2.46-13.66,2.84-20.64,3.16a116.93,116.93,0,0,1-21.87-1.35,98,98,0,0,1-18.32-4.23,79.25,79.25,0,0,1-19.39-9.69c-2.47-1.71-5.15-3.22-6.86-5.84A19.75,19.75,0,0,1,34,13a2.16,2.16,0,0,1,1.27.58c2.42,2.33,5.42,3.55,8.54,4.58a3.88,3.88,0,0,0,3.59-.28c3.64-2.27,7.33-4.43,10.33-7.6a3.76,3.76,0,0,0,1.1-3.84A16,16,0,0,1,58.09,1.51Zm9,29.26c1.67.24,2.92-.58,4-2.16,1.55-2.42,2.67-5.06,4-7.58,1.18-2.17.49-4-1.81-5.42-1.48-.95-3-1.76-4.58-2.59A4.66,4.66,0,0,0,64.35,13a34.11,34.11,0,0,0-7,4.06c-1.78,1.44-3.81,2.65-5,4.77A2.68,2.68,0,0,0,53,25.58a12.15,12.15,0,0,0,4.28,2.58c2.41.8,4.79,1.73,7.29,2.3A12.75,12.75,0,0,0,67.13,30.77ZM87.92,17.33a43.12,43.12,0,0,0-9.11,2.8,2.52,2.52,0,0,0-1.34,1.61c-.89,2.8-2,5.52-2.68,8.4-.55,2.5.13,3.46,2.65,4,4.39.92,8.82.59,13.25.42A9.88,9.88,0,0,0,93.24,34a2.93,2.93,0,0,0,2.19-3.5c-.77-3.8-1.29-7.67-3.39-11.1C91.19,18,90.21,17.24,87.92,17.33Z"/><path class="cls-5" d="M119.62,38.76c.8,3,.59,3.55-2,5A48.19,48.19,0,0,1,101.05,49c-12.08,1.87-23.91.36-35.61-2.65A100.94,100.94,0,0,1,36.16,34.18a31.56,31.56,0,0,1-9.69-9.49c-.62-.94-1.57-1.92-.8-3.26a3.21,3.21,0,0,1,1.27,1.06c2.32,3.33,5.48,5.81,8.63,8.22,5.15,4,11.06,6.61,17,9.17,5.45,2.35,11.25,3.45,17,4.74A43.87,43.87,0,0,0,78.25,46c6.14.11,12.26.86,18.41.56.8,0,1.59-.07,2.39-.14a69.15,69.15,0,0,0,9.35-1.79C112.65,43.67,116.56,42,119.62,38.76Z"/><path class="cls-5" d="M119,36l.18.93a9.47,9.47,0,0,0-1.48.78c-6.08,4.53-13.26,5.67-20.48,6.38-6.19.6-12.41-.43-18.63-.42a6.15,6.15,0,0,1-1-.11c-4.32-.68-8.55-1.82-12.8-2.81A75.77,75.77,0,0,1,29.88,22c-.52-.49-1.12-.94-1.1-1.77,1.39,0,2,1.28,2.89,2a85.41,85.41,0,0,0,16.58,9.49A92.43,92.43,0,0,0,68.51,38a106.15,106.15,0,0,0,11.1,1.53c3.33.26,6.64.71,10,.83a86,86,0,0,0,14.06-.85,59.61,59.61,0,0,0,13.47-3A4.41,4.41,0,0,1,119,36Z"/><path class="cls-6" d="M96,8.15c-1.27.14-1.89,1.1-2.49,2-1.06,1.68-2.42,2.65-4.54,2.36-2.39-.33-4.76.27-7.13.47A12.43,12.43,0,0,1,74,10.8a64.81,64.81,0,0,0-5.9-3.63,3.64,3.64,0,0,1-2-2.54c-.35-1.38-.87-2.72-1.31-4.07C76.25-1.27,86.63,1.46,96,8.15Z"/><path class="cls-6" d="M28.78,20.19c0,.83.58,1.28,1.1,1.77A75.77,75.77,0,0,0,64.81,40.77c4.25,1,8.48,2.13,12.8,2.81a6.15,6.15,0,0,0,1,.11c6.22,0,12.44,1,18.63.42,7.22-.71,14.4-1.85,20.48-6.38a9.47,9.47,0,0,1,1.48-.78,2.34,2.34,0,0,1,.47,1.81c-3.06,3.26-7,4.91-11.22,5.89a69.15,69.15,0,0,1-9.35,1.79c-.8.07-1.59.1-2.39.14-6.15.3-12.27-.45-18.41-.56a43.87,43.87,0,0,1-8.68-1.4c-5.75-1.29-11.55-2.39-17-4.74-5.94-2.56-11.85-5.2-17-9.17-3.15-2.41-6.31-4.89-8.63-8.22a3.21,3.21,0,0,0-1.27-1.06,11.49,11.49,0,0,1,2.16-2.19l.18.14a1,1,0,0,0,.78.82Z"/><path class="cls-6" d="M116.5,29.37c-1.1,2.57-3.23,3.31-5.8,3.29-1.2,0-2.4,0-3.59,0a6.82,6.82,0,0,1-6.17-3,38,38,0,0,1-4.43-8.44c-1.07-3.22-.18-5.94,1.87-8.43l1.52-1.84c6.49,4.54,12.15,9.86,16,16.91A14.71,14.71,0,0,1,116.5,29.37Z"/><path class="cls-6" d="M58.09,1.51a16,16,0,0,0,.78,4.91,3.76,3.76,0,0,1-1.1,3.84c-3,3.17-6.69,5.33-10.33,7.6a3.88,3.88,0,0,1-3.59.28c-3.12-1-6.12-2.25-8.54-4.58A2.16,2.16,0,0,0,34,13a40,40,0,0,1,12.4-8C50.18,3.37,54,1.83,58.09,1.51Z"/><path class="cls-6" d="M119,36a4.41,4.41,0,0,0-1.85.41,59.61,59.61,0,0,1-13.47,3,86,86,0,0,1-14.06.85c-3.34-.12-6.65-.57-10-.83A106.15,106.15,0,0,1,68.51,38a92.43,92.43,0,0,1-20.26-6.31,85.41,85.41,0,0,1-16.58-9.49c-.92-.68-1.5-1.95-2.89-2h0c0-.53-.12-.93-.78-.82l-.18-.14a14.1,14.1,0,0,1,2.38-2.44c1.72,2.62,4.4,4.13,6.87,5.84a79.25,79.25,0,0,0,19.39,9.69,98,98,0,0,0,18.32,4.23,116.93,116.93,0,0,0,21.87,1.35c7-.32,14-.7,20.64-3.16a5,5,0,0,1,1.17-.18A1.8,1.8,0,0,1,119,36Z"/><path class="cls-6" d="M67.13,30.77a12.75,12.75,0,0,1-2.58-.31c-2.5-.57-4.88-1.5-7.29-2.3A12.15,12.15,0,0,1,53,25.58a2.68,2.68,0,0,1-.63-3.79c1.16-2.12,3.19-3.33,5-4.77a34.11,34.11,0,0,1,7-4.06,4.66,4.66,0,0,1,4.37.06c1.54.83,3.1,1.64,4.58,2.59,2.3,1.46,3,3.25,1.81,5.42-1.36,2.52-2.48,5.16-4,7.58C70.05,30.19,68.8,31,67.13,30.77Z"/><path class="cls-6" d="M87.92,17.33c2.29-.09,3.27.68,4.12,2.06,2.1,3.43,2.62,7.3,3.39,11.1A2.93,2.93,0,0,1,93.24,34a9.88,9.88,0,0,1-2.55.56c-4.43.17-8.86.5-13.25-.42-2.52-.53-3.2-1.49-2.65-4,.65-2.88,1.79-5.6,2.68-8.4a2.52,2.52,0,0,1,1.34-1.61A43.12,43.12,0,0,1,87.92,17.33Z"/><path class="cls-5" d="M28,19.38c.66-.11.79.29.78.82A1,1,0,0,1,28,19.38Z"/><path class="cls-7" d="M17.57,36.17a2.67,2.67,0,1,1,2.27-3A2.68,2.68,0,0,1,17.57,36.17Z"/><path class="cls-8" d="M18,36.11a1.58,1.58,0,1,1,1.35-1.79A1.58,1.58,0,0,1,18,36.11Z"/></g></g></svg>