<svg xmlns="http://www.w3.org/2000/svg" viewBox="0 0 39.2 45.76"><defs><style>.cls-1{fill:#db4f4f;}.cls-2{fill:#e48585;}</style></defs><g id="Layer_2" data-name="Layer 2"><g id="OBJECTS"><path class="cls-1" d="M15.81,25.9c-3.62,3.3-7.16,6-10.27,9.1A12.45,12.45,0,0,1,2.6,37.36a1.76,1.76,0,0,1-2.15,0C-.25,36.74,0,36,.33,35.25a11.6,11.6,0,0,1,1.83-2.56c3.11-3.61,6.15-7.29,8.94-11.16.36-.5.7-1,1.18-1.75-.89-.51-1.69-1-2.54-1.45-1.69-.84-3.42-1.62-5.12-2.45a30,30,0,0,1-3-1.57c-.73-.48-1.81-1.11-1.53-2s1.43-1,2.32-1.18a8.88,8.88,0,0,1,2.72.09,31.16,31.16,0,0,1,9.94,2.52,3.28,3.28,0,0,0,.77.11c.45-2.27.92-4.52,1.35-6.76A28.3,28.3,0,0,1,19.42,1c.23-.52.54-1,1.23-.95s.9.62,1.11,1.13a11.38,11.38,0,0,1,.62,4.14c.12,3.29.21,6.59.41,9.87.14,2.23.26,2.37,2.43,2.63,4,.48,8.08.83,12.12,1.25.72.07,1.74-.25,1.86.84s-.87,1.11-1.58,1.37a43.3,43.3,0,0,1-10.07,2c-1.32.15-2.62.47-3.94.68-.86.14-1.33.46-1.35,1.47-.09,4.79-1.37,9.43-1.86,14.17-.09.9-.21,1.81-.28,2.71a7.77,7.77,0,0,1-.66,2.64,1.11,1.11,0,0,1-2.16,0,10.6,10.6,0,0,1-.66-4.13c0-4.42-.27-8.83-.66-13.24C15.94,27.13,15.89,26.73,15.81,25.9Zm3.38-6.29a6.25,6.25,0,0,0,3.41,0c-1.47-1.15-4-.13-4-3.09-1.05,2.54-2.5.14-3.71.66.48,1.08,1.69,1.09,2.45,1.64-.41,1-1.65,1.38-1.72,2.55.76.05,1-.44,1.37-.73s.61-.81,1.2-.57c.47.43,0,1.32.82,1.57C19.7,21.06,18.82,20.38,19.19,19.61ZM20.45,2.93c-.77,1.34-.76,1.34-.16,2.51A3.67,3.67,0,0,0,20.45,2.93Zm-.56,20.39c-.85.72-.57,1.41-.36,2.34A2,2,0,0,0,19.89,23.32Zm-.67,5.87a1.52,1.52,0,0,0,.09-2.11A1.84,1.84,0,0,0,19.22,29.19Zm-12.31-15c1.15,1,1.15,1,2.26.57C8.38,14.44,7.79,14,6.91,14.16Zm6.27,2.41a2.58,2.58,0,0,0-2.41-.68A3,3,0,0,0,13.18,16.57ZM9.39,27.72c1.09-.53,1.09-.53,1-1.38A1.37,1.37,0,0,0,9.39,27.72Zm9.69-13.23a2.3,2.3,0,0,0,0-2C18.36,13.28,18.4,13.89,19.08,14.49ZM12.5,23.37a1.9,1.9,0,0,0-1,1.92C12.31,24.93,12.54,24.41,12.5,23.37ZM4.87,13.92c.21-.05.46-.14.36-.39a1.06,1.06,0,0,0-1-.61c-.22,0-.42.14-.33.39A.88.88,0,0,0,4.87,13.92ZM18.79,34.14c.19-.78.72-1.16.29-1.73a.37.37,0,0,0-.34-.08c-.39.38-.26.86-.23,1.32C18.51,33.71,18.57,33.76,18.79,34.14Zm-4-12c-.11.05-.27.07-.32.16s0,.22.07.34a1.13,1.13,0,0,0,.32-.19C14.93,22.31,14.9,22.19,14.74,22.12Z"/><path class="cls-2" d="M19.19,19.61c-.37.77.51,1.45-.15,2.07-.8-.25-.35-1.14-.82-1.57-.59-.24-.84.29-1.2.57s-.61.78-1.37.73c.07-1.17,1.31-1.52,1.72-2.55-.76-.55-2-.56-2.45-1.64,1.21-.52,2.66,1.88,3.71-.66-.07,3,2.5,1.94,4,3.09A6.25,6.25,0,0,1,19.19,19.61Z"/><path class="cls-2" d="M20.45,2.93a3.67,3.67,0,0,1-.16,2.51C19.69,4.27,19.68,4.27,20.45,2.93Z"/><path class="cls-2" d="M19.89,23.32a2,2,0,0,1-.36,2.34C19.32,24.73,19,24,19.89,23.32Z"/><path class="cls-2" d="M19.22,29.19a1.84,1.84,0,0,1,.09-2.11A1.52,1.52,0,0,1,19.22,29.19Z"/><path class="cls-2" d="M6.91,14.16c.88-.21,1.47.28,2.26.57C8.06,15.14,8.06,15.14,6.91,14.16Z"/><path class="cls-2" d="M13.18,16.57a3,3,0,0,1-2.41-.68A2.58,2.58,0,0,1,13.18,16.57Z"/><path class="cls-2" d="M9.39,27.72a1.37,1.37,0,0,1,1-1.38C10.48,27.19,10.48,27.19,9.39,27.72Z"/><path class="cls-2" d="M19.08,14.49c-.68-.6-.72-1.21,0-2A2.3,2.3,0,0,1,19.08,14.49Z"/><path class="cls-2" d="M12.5,23.37c0,1-.19,1.56-1,1.92A1.9,1.9,0,0,1,12.5,23.37Z"/><path class="cls-2" d="M4.87,13.92a.88.88,0,0,1-1-.61c-.09-.25.11-.41.33-.39a1.06,1.06,0,0,1,1,.61C5.33,13.78,5.08,13.87,4.87,13.92Z"/><path class="cls-2" d="M18.79,34.14c-.22-.38-.28-.43-.28-.49,0-.46-.16-.94.23-1.32a.37.37,0,0,1,.34.08C19.51,33,19,33.36,18.79,34.14Z"/><path class="cls-2" d="M14.74,22.12c.16.07.19.19.07.31a1.13,1.13,0,0,1-.32.19c0-.12-.11-.26-.07-.34S14.63,22.17,14.74,22.12Z"/></g></g></svg>