<svg xmlns="http://www.w3.org/2000/svg" viewBox="0 0 105.03 105.01"><defs><style>.cls-1{opacity:0.83;}.cls-2{fill:#1c2426;}.cls-3{fill:#747575;}</style></defs><g id="Layer_2" data-name="Layer 2"><g id="OBJECTS"><g class="cls-1"><path class="cls-2" d="M62.73,105c-.76-.08-.8-.6-.95-1a7.6,7.6,0,0,0-4.35-4.53,37.17,37.17,0,0,0-9.37-2.85,58.85,58.85,0,0,1-8.59-2.11c-6.69-2.18-10.16-7.18-11.7-13.71C26.7,76.3,27.43,71.88,29,67.6A14.74,14.74,0,0,1,30.11,65c2.6-4.2,1.22-8.11-1.25-11.57A32.58,32.58,0,0,0,16.48,42.67a30.89,30.89,0,0,1-12-9.7C1.76,29.21-.26,25.09,0,20.34.79,7.72,7.5,1.18,20.34.14,26.81-.39,33.56.7,39.91,1.79c5.5,1,7.7,4.11,12.68,5.91a53,53,0,0,0,8.15,1.9C69,11.18,75.3,15.85,80.34,22.37a8.53,8.53,0,0,0,3.33,2.92,24.2,24.2,0,0,1,5.8,3.8c5,4.15,9.77,8.58,12.8,14.44,4.49,8.66,3.31,17-2.14,24.83a10.4,10.4,0,0,1-4.48,3.51,30.91,30.91,0,0,1-21.06,1.79,70,70,0,0,1-17.7-7.77A32.18,32.18,0,0,0,45,61.63a8.73,8.73,0,0,0-9.4,4.21,22.18,22.18,0,0,0-3.9,12.65,15.17,15.17,0,0,0,7.89,13.17,32.32,32.32,0,0,0,9.14,3.49,46.88,46.88,0,0,1,9.72,3.32,9.5,9.5,0,0,1,3.64,3A3.71,3.71,0,0,1,62.73,105ZM99.22,58.63a1.87,1.87,0,0,0-.9-1.59,1.41,1.41,0,0,0-1.73.41A5.22,5.22,0,0,0,95,60.86a1.4,1.4,0,0,0,.71,1.41A1.46,1.46,0,0,0,97.52,62,5.81,5.81,0,0,0,99.22,58.63ZM11,16a2,2,0,0,0,.62,1.2c.47.45,1,.55,1.42,0a7.68,7.68,0,0,0,1.68-4.1,1.3,1.3,0,0,0-.84-1.31,1.06,1.06,0,0,0-1.27.36A5,5,0,0,0,11,16Zm80.6,27.59A8.64,8.64,0,0,0,92.13,47c.22.43.5.86,1.05.83s.81-.44,1-.87a4.65,4.65,0,0,0-.83-4.67c-.76-.69-1.54-.48-1.77.49A5.7,5.7,0,0,0,91.55,43.62ZM10,24.15a4,4,0,0,0,1.59,3.08,1.08,1.08,0,0,0,1.8-.95,6.84,6.84,0,0,0-1.54-3.93c-.52-.68-1.11-.44-1.56.18A2.67,2.67,0,0,0,10,24.15Zm10.05,5.17a9.77,9.77,0,0,0-1.34-3.16,1.18,1.18,0,0,0-1.16-.68c-.66.07-.88.61-1,1.16a3.59,3.59,0,0,0,2.13,3.82C19.47,30.74,20,30.31,20.05,29.32ZM86.86,60.44a1,1,0,0,0-1.19-1.11A5.39,5.39,0,0,0,82.54,62c-.15.62,0,1.11.69,1.27C84.47,63.58,86.78,61.75,86.86,60.44ZM16.07,22.35c1.07-.89,1.13-2.22,1.49-3.4a1.16,1.16,0,0,0-.83-1.5c-.63-.2-1.06.21-1.41.65C14.45,19.23,14.74,20.91,16.07,22.35Zm57.52.19a1.14,1.14,0,0,0-1.19,1.3,2.76,2.76,0,0,0,2.5,2.39,1.26,1.26,0,0,0,1.35-1.33A2.87,2.87,0,0,0,73.59,22.54Zm18,34.19c0,1,0,1.72.79,1.92a1.42,1.42,0,0,0,1.59-.78,3.66,3.66,0,0,0,.57-2.94,1,1,0,0,0-1.78-.56A3.25,3.25,0,0,0,91.54,56.73ZM14.38,31.29a1,1,0,0,0-.91,1.13c0,1.18,1.76,2.93,3,3a.74.74,0,0,0,.83-.66C17.47,33.7,15.43,31.27,14.38,31.29ZM86.63,55.6c.08.45,0,1.19.76,1.4.64.17,1-.34,1.32-.8a5,5,0,0,0,.93-2.41,1.16,1.16,0,0,0-.83-1.28A1.07,1.07,0,0,0,87.6,53,5.55,5.55,0,0,0,86.63,55.6Zm1.13,11.16A2.93,2.93,0,0,0,90.31,64c0-.64-.34-1.05-1-1.06a3.57,3.57,0,0,0-2.69,2.69A1.07,1.07,0,0,0,87.76,66.76Zm7.76-16.85c.11.94-.11,2,.9,2.1s1.14-1,1.33-1.73a2.76,2.76,0,0,0-.5-2.48c-.53-.66-1.16-.6-1.39.18A15.83,15.83,0,0,0,95.52,49.91ZM21.19,35.14a1.08,1.08,0,0,0-.91,1.36,3.34,3.34,0,0,0,3,2.33.79.79,0,0,0,.8-.72C24.12,37.23,22.16,35.15,21.19,35.14ZM80.13,66.27c-1.14,0-1.88.63-1.8,1.43a1.83,1.83,0,0,0,1.92,1.39c1,0,2.12-.9,2.14-1.58S81.33,66.24,80.13,66.27ZM53.45,11.72a1.2,1.2,0,0,0-1.15.66,1.14,1.14,0,0,0,.07,1.13,4.32,4.32,0,0,0,3.15,1.32c.58-.15.7-.57.61-1.08A3.33,3.33,0,0,0,53.45,11.72Z"/><path class="cls-3" d="M99.22,58.63A5.81,5.81,0,0,1,97.52,62a1.46,1.46,0,0,1-1.77.28A1.4,1.4,0,0,1,95,60.86a5.22,5.22,0,0,1,1.55-3.41A1.41,1.41,0,0,1,98.32,57,1.87,1.87,0,0,1,99.22,58.63Z"/><path class="cls-3" d="M11,16a5,5,0,0,1,1.61-3.85,1.06,1.06,0,0,1,1.27-.36,1.3,1.3,0,0,1,.84,1.31A7.68,7.68,0,0,1,13,17.23c-.44.55-1,.45-1.42,0A2,2,0,0,1,11,16Z"/><path class="cls-3" d="M91.55,43.62a5.7,5.7,0,0,1,.07-.86c.23-1,1-1.18,1.77-.49a4.65,4.65,0,0,1,.83,4.67c-.23.43-.51.85-1,.87s-.83-.4-1.05-.83A8.64,8.64,0,0,1,91.55,43.62Z"/><path class="cls-3" d="M10,24.15a2.67,2.67,0,0,1,.29-1.62c.45-.62,1-.86,1.56-.18a6.84,6.84,0,0,1,1.54,3.93,1.08,1.08,0,0,1-1.8.95A4,4,0,0,1,10,24.15Z"/><path class="cls-3" d="M20.05,29.32c0,1-.58,1.42-1.39,1.14a3.59,3.59,0,0,1-2.13-3.82c.14-.55.36-1.09,1-1.16a1.18,1.18,0,0,1,1.16.68A9.77,9.77,0,0,1,20.05,29.32Z"/><path class="cls-3" d="M86.86,60.44c-.08,1.31-2.39,3.14-3.63,2.85-.67-.16-.84-.65-.69-1.27a5.39,5.39,0,0,1,3.13-2.69A1,1,0,0,1,86.86,60.44Z"/><path class="cls-3" d="M16.07,22.35c-1.33-1.44-1.62-3.12-.75-4.25.35-.44.78-.85,1.41-.65a1.16,1.16,0,0,1,.83,1.5C17.2,20.13,17.14,21.46,16.07,22.35Z"/><path class="cls-3" d="M73.59,22.54a2.87,2.87,0,0,1,2.66,2.36,1.26,1.26,0,0,1-1.35,1.33,2.76,2.76,0,0,1-2.5-2.39A1.14,1.14,0,0,1,73.59,22.54Z"/><path class="cls-3" d="M91.54,56.73a3.25,3.25,0,0,1,1.17-2.36,1,1,0,0,1,1.78.56,3.66,3.66,0,0,1-.57,2.94,1.42,1.42,0,0,1-1.59.78C91.57,58.45,91.53,57.77,91.54,56.73Z"/><path class="cls-3" d="M14.38,31.29c1,0,3.09,2.41,2.92,3.43a.74.74,0,0,1-.83.66c-1.24,0-3-1.78-3-3A1,1,0,0,1,14.38,31.29Z"/><path class="cls-3" d="M86.63,55.6a5.55,5.55,0,0,1,1-2.57,1.07,1.07,0,0,1,1.21-.52,1.16,1.16,0,0,1,.83,1.28,5,5,0,0,1-.93,2.41c-.3.46-.68,1-1.32.8C86.6,56.79,86.71,56.05,86.63,55.6Z"/><path class="cls-3" d="M87.76,66.76a1.07,1.07,0,0,1-1.17-1.12A3.57,3.57,0,0,1,89.28,63c.69,0,1,.42,1,1.06A2.93,2.93,0,0,1,87.76,66.76Z"/><path class="cls-3" d="M95.52,49.91A15.83,15.83,0,0,1,95.86,48c.23-.78.86-.84,1.39-.18a2.76,2.76,0,0,1,.5,2.48c-.19.75-.39,1.81-1.33,1.73S95.63,50.85,95.52,49.91Z"/><path class="cls-3" d="M21.19,35.14c1,0,2.93,2.09,2.85,3a.79.79,0,0,1-.8.72,3.34,3.34,0,0,1-3-2.33A1.08,1.08,0,0,1,21.19,35.14Z"/><path class="cls-3" d="M80.13,66.27c1.2,0,2.28.56,2.26,1.24s-1.19,1.54-2.14,1.58a1.83,1.83,0,0,1-1.92-1.39C78.25,66.9,79,66.3,80.13,66.27Z"/><path class="cls-3" d="M53.45,11.72a3.33,3.33,0,0,1,2.68,2c.09.51,0,.93-.61,1.08a4.32,4.32,0,0,1-3.15-1.32,1.14,1.14,0,0,1-.07-1.13A1.2,1.2,0,0,1,53.45,11.72Z"/></g></g></g></svg>