<svg width="80" height="85" viewBox="0 0 80 85" fill="none" xmlns="http://www.w3.org/2000/svg">
<path d="M43.1758 0.230089C43.1758 0.230089 63.129 4.6396 71.6539 20.0546C71.6539 20.0546 80.9009 35.8944 78.9958 52.8496C78.9958 52.8496 78.6607 77.1544 57.4148 79.2814C57.4148 79.2814 51.2784 79.5254 40.7285 84.1765C40.7285 84.1765 28.3538 86.9408 18.9245 80.0161C18.9245 80.0161 -2.4641 61.5966 0.23565 36.4521C0.23565 36.4521 8.56355 7.54176 18.9245 5.12519C18.9245 5.12519 31.9398 -1.27853 43.1758 0.230089Z" fill="#F6A023" fill-opacity="0.4"/>
<path d="M41.5625 40.4166C41.5625 39.9531 41.7 39.4999 41.9575 39.1145C42.215 38.7291 42.5811 38.4287 43.0093 38.2513C43.4376 38.0739 43.9088 38.0275 44.3635 38.1179C44.8181 38.2083 45.2358 38.4316 45.5635 38.7593C45.8913 39.0871 46.1145 39.5047 46.205 39.9594C46.2954 40.414 46.249 40.8853 46.0716 41.3135C45.8942 41.7418 45.5938 42.1078 45.2084 42.3654C44.8229 42.6229 44.3698 42.7604 43.9062 42.7604C43.2846 42.7604 42.6885 42.5134 42.249 42.0739C41.8094 41.6344 41.5625 41.0382 41.5625 40.4166ZM58.7109 34.4362C58.4405 38.3872 56.6814 42.0885 53.7888 44.7934C50.8962 47.4983 47.0853 49.0053 43.125 49.0104H36.875C36.2534 49.0104 35.6573 49.2573 35.2177 49.6968C34.7782 50.1364 34.5312 50.7325 34.5312 51.3541C34.5312 51.9757 34.7782 52.5719 35.2177 53.0114C35.6573 53.4509 36.2534 53.6979 36.875 53.6979H47.8125C48.2269 53.6979 48.6243 53.8625 48.9174 54.1555C49.2104 54.4485 49.375 54.846 49.375 55.2604C49.375 55.6748 49.2104 56.0722 48.9174 56.3652C48.6243 56.6583 48.2269 56.8229 47.8125 56.8229H38.4375V59.9479H44.6875C45.1019 59.9479 45.4993 60.1125 45.7924 60.4055C46.0854 60.6985 46.25 61.096 46.25 61.5104C46.25 61.9248 46.0854 62.3222 45.7924 62.6152C45.4993 62.9083 45.1019 63.0729 44.6875 63.0729H33.75C29.606 63.0729 25.6317 61.4267 22.7015 58.4964C19.7712 55.5662 18.125 51.5919 18.125 47.4479C18.125 43.3039 19.7712 39.3296 22.7015 36.3993C25.6317 33.4691 29.606 31.8229 33.75 31.8229H56.4062C57.0279 31.8229 57.624 31.5759 58.0635 31.1364C58.5031 30.6969 58.75 30.1007 58.75 29.4791C58.75 28.8575 58.5031 28.2614 58.0635 27.8218C57.624 27.3823 57.0279 27.1354 56.4062 27.1354H40C38.7568 27.1354 37.5645 26.6415 36.6854 25.7624C35.8064 24.8834 35.3125 23.6911 35.3125 22.4479C35.3125 22.0335 35.4771 21.636 35.7701 21.343C36.0632 21.05 36.4606 20.8854 36.875 20.8854C37.2894 20.8854 37.6868 21.05 37.9799 21.343C38.2729 21.636 38.4375 22.0335 38.4375 22.4479C38.4375 22.8623 38.6021 23.2597 38.8951 23.5527C39.1882 23.8458 39.5856 24.0104 40 24.0104H56.4062C57.6507 24.0115 58.8575 24.4371 59.8275 25.2168C60.7974 25.9964 61.4724 27.0836 61.741 28.2987C62.0096 29.5138 61.8558 30.7842 61.3049 31.9001C60.7539 33.016 59.8389 33.9106 58.7109 34.4362ZM24.9219 56.2936L31.4102 51.6588C31.4102 51.5592 31.4102 51.4635 31.4102 51.3541C31.409 50.8606 31.4747 50.3691 31.6055 49.8932L21.4453 45.274C21.092 47.2557 21.2244 49.2934 21.8313 51.2127C22.4381 53.1319 23.5013 54.8753 24.9297 56.2936H24.9219ZM32.5391 54.692L27.5234 58.2799C29.416 59.3741 31.5639 59.9495 33.75 59.9479H35.3125V56.5944C34.2147 56.2643 33.2477 55.5991 32.5469 54.692H32.5391ZM35.3125 46.1139V34.9479H33.75C31.3525 34.9506 29.0063 35.6419 26.9904 36.9397C24.9745 38.2374 23.3739 40.0869 22.3789 42.2682L33.291 47.2272C33.878 46.7165 34.5672 46.337 35.3125 46.1139ZM55.5273 34.9479H38.4375V45.8854H43.125C46.1686 45.8817 49.1066 44.7692 51.3893 42.7561C53.6721 40.743 55.1432 37.9671 55.5273 34.9479Z" fill="#D9D9D9"/>
</svg>
