<svg width="80" height="85" viewBox="0 0 80 85" fill="none" xmlns="http://www.w3.org/2000/svg">
<path d="M43.1758 0.44591C43.1758 0.44591 63.129 4.85542 71.6539 20.2704C71.6539 20.2704 80.9009 36.1102 78.9958 53.0654C78.9958 53.0654 78.6607 77.3702 57.4148 79.4972C57.4148 79.4972 51.2784 79.7413 40.7285 84.3923C40.7285 84.3923 28.3538 87.1566 18.9245 80.2319C18.9245 80.2319 -2.4641 61.8124 0.23565 36.6679C0.23565 36.6679 8.56355 7.75758 18.9245 5.34101C18.9245 5.34101 31.9398 -1.06271 43.1758 0.44591Z" fill="#F6A023" fill-opacity="0.4"/>
<path d="M38.4375 40.6562C38.4375 40.1927 38.3 39.7396 38.0425 39.3541C37.785 38.9687 37.4189 38.6683 36.9907 38.4909C36.5624 38.3135 36.0912 38.2671 35.6365 38.3575C35.1819 38.448 34.7642 38.6712 34.4365 38.999C34.1087 39.3267 33.8855 39.7444 33.795 40.199C33.7046 40.6536 33.751 41.1249 33.9284 41.5532C34.1058 41.9814 34.4062 42.3475 34.7916 42.605C35.1771 42.8625 35.6302 43 36.0938 43C36.7154 43 37.3115 42.7531 37.751 42.3135C38.1906 41.874 38.4375 41.2779 38.4375 40.6562ZM21.2891 34.6758C21.5595 38.6268 23.3186 42.3282 26.2112 45.033C29.1038 47.7379 32.9147 49.2449 36.875 49.25H43.125C43.7466 49.25 44.3427 49.4969 44.7823 49.9365C45.2218 50.376 45.4688 50.9721 45.4688 51.5938C45.4688 52.2154 45.2218 52.8115 44.7823 53.251C44.3427 53.6906 43.7466 53.9375 43.125 53.9375H32.1875C31.7731 53.9375 31.3757 54.1021 31.0826 54.3951C30.7896 54.6882 30.625 55.0856 30.625 55.5C30.625 55.9144 30.7896 56.3118 31.0826 56.6049C31.3757 56.8979 31.7731 57.0625 32.1875 57.0625H41.5625V60.1875H35.3125C34.8981 60.1875 34.5007 60.3521 34.2076 60.6451C33.9146 60.9382 33.75 61.3356 33.75 61.75C33.75 62.1644 33.9146 62.5618 34.2076 62.8549C34.5007 63.1479 34.8981 63.3125 35.3125 63.3125H46.25C50.394 63.3125 54.3683 61.6663 57.2985 58.736C60.2288 55.8058 61.875 51.8315 61.875 47.6875C61.875 43.5435 60.2288 39.5692 57.2985 36.639C54.3683 33.7087 50.394 32.0625 46.25 32.0625H23.5938C22.9721 32.0625 22.376 31.8156 21.9365 31.376C21.4969 30.9365 21.25 30.3404 21.25 29.7188C21.25 29.0971 21.4969 28.501 21.9365 28.0615C22.376 27.6219 22.9721 27.375 23.5938 27.375H40C41.2432 27.375 42.4355 26.8811 43.3146 26.0021C44.1936 25.123 44.6875 23.9307 44.6875 22.6875C44.6875 22.2731 44.5229 21.8757 44.2299 21.5826C43.9368 21.2896 43.5394 21.125 43.125 21.125C42.7106 21.125 42.3132 21.2896 42.0201 21.5826C41.7271 21.8757 41.5625 22.2731 41.5625 22.6875C41.5625 23.1019 41.3979 23.4993 41.1049 23.7924C40.8118 24.0854 40.4144 24.25 40 24.25H23.5938C22.3493 24.2512 21.1425 24.6767 20.1725 25.4564C19.2026 26.2361 18.5276 27.3232 18.259 28.5383C17.9904 29.7535 18.1442 31.0238 18.6951 32.1397C19.2461 33.2556 20.1611 34.1502 21.2891 34.6758ZM55.0781 56.5332L48.5898 51.8984C48.5898 51.7988 48.5898 51.7031 48.5898 51.5938C48.591 51.1002 48.5253 50.6087 48.3945 50.1328L58.5547 45.5137C58.908 47.4953 58.7756 49.5331 58.1687 51.4523C57.5619 53.3715 56.4987 55.115 55.0703 56.5332H55.0781ZM47.4609 54.9316L52.4766 58.5195C50.584 59.6137 48.4361 60.1891 46.25 60.1875H44.6875V56.834C45.7853 56.5039 46.7523 55.8387 47.4531 54.9316H47.4609ZM44.6875 46.3535V35.1875H46.25C48.6475 35.1902 50.9937 35.8815 53.0096 37.1793C55.0255 38.477 56.6261 40.3266 57.6211 42.5078L46.709 47.4668C46.122 46.9561 45.4328 46.5766 44.6875 46.3535ZM24.4727 35.1875H41.5625V46.125H36.875C33.8314 46.1213 30.8934 45.0089 28.6107 42.9957C26.3279 40.9826 24.8568 38.2068 24.4727 35.1875Z" fill="#D9D9D9"/>
</svg>
