<svg width="80" height="75" viewBox="0 0 80 75" fill="none" xmlns="http://www.w3.org/2000/svg">
<path d="M43.1758 0.728232C43.1758 0.728232 63.129 4.58983 71.6539 18.0894C71.6539 18.0894 80.9009 31.961 78.9958 46.8094C78.9958 46.8094 78.6607 68.0941 57.4148 69.9568C57.4148 69.9568 51.2784 70.1706 40.7285 74.2437C40.7285 74.2437 28.3538 76.6645 18.9245 70.6002C18.9245 70.6002 -2.4641 54.4695 0.23565 32.4494C0.23565 32.4494 8.56355 7.13138 18.9245 5.01508C18.9245 5.01508 31.9398 -0.592928 43.1758 0.728232Z" fill="#4459AC"/>
<path d="M41.5625 35.6562C41.5625 35.1927 41.7 34.7396 41.9575 34.3541C42.215 33.9687 42.5811 33.6683 43.0093 33.4909C43.4376 33.3135 43.9088 33.2671 44.3635 33.3575C44.8181 33.448 45.2358 33.6712 45.5635 33.999C45.8913 34.3267 46.1145 34.7444 46.205 35.199C46.2954 35.6537 46.249 36.1249 46.0716 36.5532C45.8942 36.9814 45.5938 37.3475 45.2084 37.605C44.8229 37.8625 44.3698 38 43.9062 38C43.2846 38 42.6885 37.7531 42.249 37.3135C41.8094 36.874 41.5625 36.2779 41.5625 35.6562ZM58.7109 29.6758C58.4405 33.6268 56.6814 37.3282 53.7888 40.033C50.8962 42.7379 47.0853 44.2449 43.125 44.25H36.875C36.2534 44.25 35.6573 44.4969 35.2177 44.9365C34.7782 45.376 34.5312 45.9721 34.5312 46.5938C34.5312 47.2154 34.7782 47.8115 35.2177 48.251C35.6573 48.6906 36.2534 48.9375 36.875 48.9375H47.8125C48.2269 48.9375 48.6243 49.1021 48.9174 49.3951C49.2104 49.6882 49.375 50.0856 49.375 50.5C49.375 50.9144 49.2104 51.3118 48.9174 51.6049C48.6243 51.8979 48.2269 52.0625 47.8125 52.0625H38.4375V55.1875H44.6875C45.1019 55.1875 45.4993 55.3521 45.7924 55.6451C46.0854 55.9382 46.25 56.3356 46.25 56.75C46.25 57.1644 46.0854 57.5618 45.7924 57.8549C45.4993 58.1479 45.1019 58.3125 44.6875 58.3125H33.75C29.606 58.3125 25.6317 56.6663 22.7015 53.736C19.7712 50.8058 18.125 46.8315 18.125 42.6875C18.125 38.5435 19.7712 34.5692 22.7015 31.639C25.6317 28.7087 29.606 27.0625 33.75 27.0625H56.4062C57.0279 27.0625 57.624 26.8156 58.0635 26.376C58.5031 25.9365 58.75 25.3404 58.75 24.7188C58.75 24.0971 58.5031 23.501 58.0635 23.0615C57.624 22.6219 57.0279 22.375 56.4062 22.375H40C38.7568 22.375 37.5645 21.8811 36.6854 21.0021C35.8064 20.123 35.3125 18.9307 35.3125 17.6875C35.3125 17.2731 35.4771 16.8757 35.7701 16.5826C36.0632 16.2896 36.4606 16.125 36.875 16.125C37.2894 16.125 37.6868 16.2896 37.9799 16.5826C38.2729 16.8757 38.4375 17.2731 38.4375 17.6875C38.4375 18.1019 38.6021 18.4993 38.8951 18.7924C39.1882 19.0854 39.5856 19.25 40 19.25H56.4062C57.6507 19.2512 58.8575 19.6767 59.8275 20.4564C60.7974 21.2361 61.4724 22.3232 61.741 23.5383C62.0096 24.7535 61.8558 26.0238 61.3049 27.1397C60.7539 28.2556 59.8389 29.1502 58.7109 29.6758ZM24.9219 51.5332L31.4102 46.8984C31.4102 46.7988 31.4102 46.7031 31.4102 46.5938C31.409 46.1002 31.4747 45.6087 31.6055 45.1328L21.4453 40.5137C21.092 42.4953 21.2244 44.5331 21.8313 46.4523C22.4381 48.3715 23.5013 50.115 24.9297 51.5332H24.9219ZM32.5391 49.9316L27.5234 53.5195C29.416 54.6137 31.5639 55.1891 33.75 55.1875H35.3125V51.834C34.2147 51.5039 33.2477 50.8387 32.5469 49.9316H32.5391ZM35.3125 41.3535V30.1875H33.75C31.3525 30.1902 29.0063 30.8815 26.9904 32.1793C24.9745 33.477 23.3739 35.3266 22.3789 37.5078L33.291 42.4668C33.878 41.9561 34.5672 41.5766 35.3125 41.3535ZM55.5273 30.1875H38.4375V41.125H43.125C46.1686 41.1213 49.1066 40.0089 51.3893 37.9957C53.6721 35.9826 55.1432 33.2068 55.5273 30.1875Z" fill="white"/>
</svg>
