<svg width="80" height="75" viewBox="0 0 80 75" fill="none" xmlns="http://www.w3.org/2000/svg">
<path d="M43.1758 0.823325C43.1758 0.823325 63.129 4.68492 71.6539 18.1845C71.6539 18.1845 80.9009 32.0561 78.9958 46.9045C78.9958 46.9045 78.6607 68.1892 57.4148 70.0519C57.4148 70.0519 51.2784 70.2656 40.7285 74.3388C40.7285 74.3388 28.3538 76.7596 18.9245 70.6953C18.9245 70.6953 -2.4641 54.5645 0.23565 32.5445C0.23565 32.5445 8.56355 7.22647 18.9245 5.11018C18.9245 5.11018 31.9398 -0.497835 43.1758 0.823325Z" fill="#4459AC"/>
<path d="M38.4375 35.6562C38.4375 35.1927 38.3 34.7396 38.0425 34.3541C37.785 33.9687 37.4189 33.6683 36.9907 33.4909C36.5624 33.3135 36.0912 33.2671 35.6365 33.3575C35.1819 33.448 34.7642 33.6712 34.4365 33.999C34.1087 34.3267 33.8855 34.7444 33.795 35.199C33.7046 35.6537 33.751 36.1249 33.9284 36.5532C34.1058 36.9814 34.4062 37.3475 34.7916 37.605C35.1771 37.8625 35.6302 38 36.0938 38C36.7154 38 37.3115 37.7531 37.751 37.3135C38.1906 36.874 38.4375 36.2779 38.4375 35.6562ZM21.2891 29.6758C21.5595 33.6268 23.3186 37.3282 26.2112 40.033C29.1038 42.7379 32.9147 44.2449 36.875 44.25H43.125C43.7466 44.25 44.3427 44.4969 44.7823 44.9365C45.2218 45.376 45.4688 45.9721 45.4688 46.5938C45.4688 47.2154 45.2218 47.8115 44.7823 48.251C44.3427 48.6906 43.7466 48.9375 43.125 48.9375H32.1875C31.7731 48.9375 31.3757 49.1021 31.0826 49.3951C30.7896 49.6882 30.625 50.0856 30.625 50.5C30.625 50.9144 30.7896 51.3118 31.0826 51.6049C31.3757 51.8979 31.7731 52.0625 32.1875 52.0625H41.5625V55.1875H35.3125C34.8981 55.1875 34.5007 55.3521 34.2076 55.6451C33.9146 55.9382 33.75 56.3356 33.75 56.75C33.75 57.1644 33.9146 57.5618 34.2076 57.8549C34.5007 58.1479 34.8981 58.3125 35.3125 58.3125H46.25C50.394 58.3125 54.3683 56.6663 57.2985 53.736C60.2288 50.8058 61.875 46.8315 61.875 42.6875C61.875 38.5435 60.2288 34.5692 57.2985 31.639C54.3683 28.7087 50.394 27.0625 46.25 27.0625H23.5938C22.9721 27.0625 22.376 26.8156 21.9365 26.376C21.4969 25.9365 21.25 25.3404 21.25 24.7188C21.25 24.0971 21.4969 23.501 21.9365 23.0615C22.376 22.6219 22.9721 22.375 23.5938 22.375H40C41.2432 22.375 42.4355 21.8811 43.3146 21.0021C44.1936 20.123 44.6875 18.9307 44.6875 17.6875C44.6875 17.2731 44.5229 16.8757 44.2299 16.5826C43.9368 16.2896 43.5394 16.125 43.125 16.125C42.7106 16.125 42.3132 16.2896 42.0201 16.5826C41.7271 16.8757 41.5625 17.2731 41.5625 17.6875C41.5625 18.1019 41.3979 18.4993 41.1049 18.7924C40.8118 19.0854 40.4144 19.25 40 19.25H23.5938C22.3493 19.2512 21.1425 19.6767 20.1725 20.4564C19.2026 21.2361 18.5276 22.3232 18.259 23.5383C17.9904 24.7535 18.1442 26.0238 18.6951 27.1397C19.2461 28.2556 20.1611 29.1502 21.2891 29.6758ZM55.0781 51.5332L48.5898 46.8984C48.5898 46.7988 48.5898 46.7031 48.5898 46.5938C48.591 46.1002 48.5253 45.6087 48.3945 45.1328L58.5547 40.5137C58.908 42.4953 58.7756 44.5331 58.1687 46.4523C57.5619 48.3715 56.4987 50.115 55.0703 51.5332H55.0781ZM47.4609 49.9316L52.4766 53.5195C50.584 54.6137 48.4361 55.1891 46.25 55.1875H44.6875V51.834C45.7853 51.5039 46.7523 50.8387 47.4531 49.9316H47.4609ZM44.6875 41.3535V30.1875H46.25C48.6475 30.1902 50.9937 30.8815 53.0096 32.1793C55.0255 33.477 56.6261 35.3266 57.6211 37.5078L46.709 42.4668C46.122 41.9561 45.4328 41.5766 44.6875 41.3535ZM24.4727 30.1875H41.5625V41.125H36.875C33.8314 41.1213 30.8934 40.0089 28.6107 37.9957C26.3279 35.9826 24.8568 33.2068 24.4727 30.1875Z" fill="white"/>
</svg>
