<svg xmlns="http://www.w3.org/2000/svg" viewBox="0 0 144.17 73.88"><defs><style>.cls-1{fill:#f2ead5;}.cls-2{fill:#a2b693;opacity:0.8;}</style></defs><g id="Layer_2" data-name="Layer 2"><g id="Layer_2-2" data-name="Layer 2"><path class="cls-1" d="M0,9.53v61.6c.33-.14.64,0,1,.11l-.07,0c0-.05-.05,0-.05,0s0,.1,0,.16.16.19.25.26c.33.16.43-.08.53-.33,0,0,0-.07.06,0a.24.24,0,0,0,.29.21h.08l.22.21a.24.24,0,0,0,.09.11,1.08,1.08,0,0,0,.4.11.32.32,0,0,0,.18-.1l.16-.06.19.09a.8.8,0,0,0,.57,0l0,0A.16.16,0,0,0,4,72H4a2.35,2.35,0,0,0,.82.45c.18.09.41,0,.58.13a.62.62,0,0,0,.79,0c.4-.19.79-.41,1.25-.17a.2.2,0,0,0,.24,0c.13.4.49.06.69.21-.38,0-.44,0-.43.25a1.21,1.21,0,0,0,1.46,1c.47-.2,1-.26,1.45-.46a.63.63,0,0,0,.64-.47v0c.23.09.39.44.71.17a.36.36,0,0,1,.2-.28.43.43,0,0,0,.48-.09h0l.15-.07h0c.16.1.29,0,.42-.08.36,0,.68.24,1.05.17.43-.24.76,0,1.09.21a.87.87,0,0,0,.69,0c.53-.18.59-.13.56.44a.7.7,0,0,0,0,.38.22.22,0,0,0,.09.1.5.5,0,0,0,.43,0,.48.48,0,0,0,.11-.09c.1-.12.1-.29.23-.39a9,9,0,0,1,1.47,0,.24.24,0,0,0,.11-.06c.08-.1.19-.17.26-.27.24.37.67.39,1,.55.13-.12.16-.43.33-.37.34.1.45-.16.64-.3h0a1.2,1.2,0,0,0,.77-.09l0-.1.06,0a.28.28,0,0,0,.09-.1.37.37,0,0,0-.13-.5.87.87,0,0,0,.85-.56c.1-.32.22-.27.36,0s.33.35.55.06a.61.61,0,0,0,.05-.12,1.2,1.2,0,0,1,.63-1.14.37.37,0,0,0,.21-.36,1.2,1.2,0,0,0,.37-.1c.19-.08.3.1.45.13a.77.77,0,0,1,.44.22.67.67,0,0,0,.74,0,.27.27,0,0,0,.07-.08h.12c0-.14.36-.22.34-.37a.57.57,0,0,1,.12.18.44.44,0,0,0,.08.11c.11.11.19.27.37.28a.32.32,0,0,0,.14,0c.43-.19.44-.24.16-.6-.07-.08-.22-.15-.12-.31a.22.22,0,0,1,.25.1,1.24,1.24,0,0,0,1.16.42,1.14,1.14,0,0,1,.37,0A3.94,3.94,0,0,0,32,69.74a1.26,1.26,0,0,1,1-.06c.24,0,.24-.21.3-.37s.47-.42.57-.22a1.51,1.51,0,0,0,.67.51c.38.1.7-.12,1-.2a.22.22,0,0,0,.15-.31.68.68,0,0,1,.09-.89,6.57,6.57,0,0,1,.44,1.11c0-.18,0-.39.24-.49s.08-.11,0-.14c-.39-.17-.31-.47-.25-.77l.13.06a3.4,3.4,0,0,0,.71,0c.57,0,1-.48,1.56-.59a1.39,1.39,0,0,1,1.36.33c.52.51.52.51,1.18.16a1.18,1.18,0,0,1,1.29.33.54.54,0,0,0,.15.15.43.43,0,0,0,.35,0,.31.31,0,0,0,.06-.45.27.27,0,0,1,0-.34l0-.05s.1,0,.12,0c.25-.49.53-.33.85-.07a.4.4,0,0,0,.58,0c0,.17.07.34.29.38l.08,0a.37.37,0,0,0,.14.24c.13.1.14.4.36.31s.37-.2.27-.48a0,0,0,0,1,0,0l.17,0a.45.45,0,0,0,.19-.11c0,.35.32.43.59.55-.17.31,0,.53.15.79s0,.45.31.52.32-.24.49-.38a1.58,1.58,0,0,0,0,.39c.07.19-.12.24-.16.37s0,.31.11.21c.3-.26.46-.14.77,0a1.6,1.6,0,0,1,.44.29c.07.08.2.14.24,0v-.06a.85.85,0,0,0,0-.23c.21.07.15.33.3.45s.23.2.37.15.18-.24.13-.4,0,0,0,0,0,0,0,0c.17.24.12.63.5.71.13-.08.25.18.37,0a.28.28,0,0,0,0-.21c-.25,0-.31-.12-.14-.32s.21.16.35.11c.14-.22-.19-.34-.09-.54s.39,0,.48-.22l-.58-.11c.35-.23.17-.54.22-.85.29.22.62.21.76.63.06.17-.06.58.31.63a.71.71,0,0,0,.77.34c.86-.1.86-.09,1.16.69.08.23.17.47.5.35.34-.41.16-.85,0-1.28.09,0,.12,0,.14,0,.49.62.58.65,1.38.36.1,0,.21-.07.28,0,.37.35.61.07.86-.16a.09.09,0,0,0,0,.05c0,.09.1.19.18.06s0-.13-.14-.18,0,0,0-.07c.18-.51.19-1.1.66-1.47a.56.56,0,0,0,.16-.24.62.62,0,0,0-.08-.72.41.41,0,0,0-.52-.06c-.28.11-.29.34-.17.59-.48-.18-.06-.46-.12-.68.11,0,.21.06.32,0a.53.53,0,0,0,.18,0c.12-.06.27-.08.36-.18,0,.09.1.11.19.11l.09-.08s0,0,0,0a.27.27,0,0,0,.19.08.42.42,0,0,0,.28-.08l.1,0a.84.84,0,0,0,.32,1,.48.48,0,0,0,.49.08c.17-.08.07-.24,0-.37s0-.27.23-.27c.22.16.28.49.57.58v.1c.21.21.32-.11.49-.1l.1.18c.17-.12,0-.33.1-.46h.28c.08.17.35,0,.39.19.21.25.41.55.79.35l.08,0c.44.15.4-.15.43-.38a.26.26,0,0,0,.22.16c.17,0,.23-.15.28-.28a5.28,5.28,0,0,0,.38-.75c.16.14.49.09.51.4.33-.21.7,0,1-.09.09.1.06.16,0,.3a4.89,4.89,0,0,0-.15,1.21c0,.12.14.15.26.1s.16-.11.27-.07.44.09.5-.17.19-.63,0-.85-.42-.33-.61-.51c.15-.26.38,0,.57-.1a3.55,3.55,0,0,0,.71,1.72.48.48,0,0,0,.52.18,1.83,1.83,0,0,1,.66,0h0v.06l.19.2h.34a3.74,3.74,0,0,0-.4-.26.33.33,0,0,0,.17,0c.31-.11.63-.21.67-.62.27-.34.45,0,.67.1l.09.3c.26-.31.41-.78,1-.62.13,0-.06-.16,0-.25.37.18.79.09,1.15.29l.29.1h0c.07.24.34.15.47.29s.13.28.31.24.05-.3.17-.42a1,1,0,0,1,.86.2c0-.1-.12-.2,0-.3a1.48,1.48,0,0,1,0-.21.67.67,0,0,0,.43.24,1.55,1.55,0,0,0,.48,0,3.59,3.59,0,0,0,1.44-1.18.17.17,0,0,1,0-.07c.14-.07.25-.23.41-.09.36.34.58.22.68-.29a1.16,1.16,0,0,0,1.65.53.41.41,0,0,1,.32.06c.13.06.26.14.4,0-.05-.45-.48-.51-.75-.74s-.17-.31.12-.33h0c.35.51,1,.29,1.44.57s.88-.2,1.34-.26c.1.28.45.06.58.29.24-.16.27.09.38.2a1.45,1.45,0,0,1,.46.09c.65.18,1.31.45,1.94-.07h.09l.29.09a1.76,1.76,0,0,1,1.05.5l.29.1c0-.41.57-.57.49-1.07a.8.8,0,0,0,.9,0c.11-.06.23-.1.34,0l0,0a1,1,0,0,0,.46.14c.12,0,.25-.16.35,0,.46.63.8,0,1.18-.12.07-.43.21-.52.58-.34.1,0,.18.15.31.09.29-.12.31-.11.45.09a.89.89,0,0,0,1,.1.45.45,0,0,1,.55-.14c.08,0,.2,0,.23-.09s-.09-.15-.18-.17-.27-.1-.28-.22.17-.15.28-.21a.53.53,0,0,1,.18,0l0,0c.06-.08,0-.2.11-.28s.2.11.32,0,.19.26.3,0,.34-.25.57-.24v.1c0,.12,0,.23.19.19h0a2,2,0,0,1,.64.4c.13.09.36.18.4,0,.14-.55.48-.29.74-.21a1.49,1.49,0,0,0,1.19,0,1.56,1.56,0,0,0,.22-.76c.15.53.65.56.74,1.11.18-.51,0-.83,0-1.16a.52.52,0,0,1,.3-.46c.2-.09.16.14.23.22a.23.23,0,0,0,.25.1.16.16,0,0,0,.08-.24c-.17-.28.15-.29.21-.45a6,6,0,0,0,.42-.57h0a.41.41,0,0,0,.11,0,.34.34,0,0,0,.22.09.43.43,0,0,0,.41,0,1.62,1.62,0,0,1,1-.19,1.29,1.29,0,0,0,.52-.08,1.17,1.17,0,0,1,1,0c.14.09.28,0,.37-.12a.21.21,0,0,0,.07-.13c.24.3.52.57.78.86s.28.32.52.27a.64.64,0,0,0,.12-.06c-.06-.28,0-.46.32-.31.11,0,.21-.1.14-.16-.23-.2-.16-.56-.43-.73-.08-.06-.25-.12-.17-.25a.51.51,0,0,1,.31-.18c.14,0,.17.11.21.22a1.27,1.27,0,0,0,.44.61c.1.08.2.1.29,0s.11-.18,0-.21c-.64-.31-.08-.46.07-.66V63h0v0c.17.07.24.25.36.36s.31.35.57.25a.18.18,0,0,0,.07,0l.06,0h0l.23.31c0,.24-.21.4-.19.64s0,.34.19.19.34,0,.5.08.27.29.3,0,.19-.29.43-.16a2.28,2.28,0,0,1,.51.42.39.39,0,0,0,.52,0,.25.25,0,0,0,.08-.38c-.14-.19-.31-.49-.48-.5-.64,0-.79-.45-.9-1,0-.15,0-.21.1-.24h0c.06.26.27.28.48.29l.19.1v.09c.34.26.51.68.89.92v-.38a1.12,1.12,0,0,0,.74.25c.22,0,.27.28.47.29,0,0,.91.22,1,.25s.13,0,.17,0,.28.11.29.29c.15,0,.21,0,.16-.21s.34-.72.71-.65h0c.11.36.22.64.72.48.29-.1.69-.09.68.46.22-.21.06-.45.2-.66a2.58,2.58,0,0,0,1.54.3c.17,0,.26.11.4.12.39.29.34-.16.49-.29.34-.18.6-.56,1.07-.43,0,0,.13-.07.14-.11,0-.54.47-.72.81-1h0a.86.86,0,0,1,.67,0v-.11h.06c.14-.07.26,0,.39,0h.17a.34.34,0,0,1,.18.07.26.26,0,0,0,.46-.12.34.34,0,0,1,.08-.2l.29-.16a.25.25,0,0,0,0-.07c.23-.12.48-.32.64.11.42,0,.57-.46,1-.48.21.36.48.3.77.11.38,0,.77.21,1.15,0l.1.1c0,.22.16.34.36.27a1.43,1.43,0,0,1,1,.16c0-.15-.09-.27-.12-.39s.24-.14.38,0,.15.19.28.2a1.44,1.44,0,0,1,0,.87.48.48,0,0,0,.28.49c.17-.1.3,0,.45,0s.29.08.27-.19-.16-.86.4-1c0,0,0-.18,0-.27.29-.36.58,0,.87,0v.09c.44,0,.73.17.62.7,0,.17.25.36-.06.53-.1,0,0,.18.13.18.26,0,.56.08.73-.2s.34-.25.56-.14a1,1,0,0,0,.83.12c.29-.12.36,0,.45.2s.51.17.74.34c0-.38.29-.17.41-.24s-.19-.19-.12-.32.2-.06.3,0a.52.52,0,0,0,.35,0l.14,0a.64.64,0,0,0,.41,0,1.17,1.17,0,0,0,.25-.07,1.37,1.37,0,0,0,.58-.16h.29c.07.06,0,.26.21.19a.28.28,0,0,0,.2-.24l.07.15c.05.11-.12.36.19.29-.13-.13,0-.25,0-.38.13.13.3.09.46.11l.13,0c.24-.05.46-.12.45-.44,0,0,0,0,0-.08a.34.34,0,0,1,.51,0h0c.6,0,1.26.33,1.78-.23l0,0a1.35,1.35,0,0,1,1.25.1h.13a1.34,1.34,0,0,0,.06.12l.06.11c.16.25.31.29.65.23,0,0,.06,0,.09,0v-54Z"/><path class="cls-2" d="M89.06,2.8a5.38,5.38,0,0,1,3.25,1.11,8.38,8.38,0,0,1-3.85,1.24c.39,1.58,2.62,2.15,4.47,2.43a12.62,12.62,0,0,0-3.71,1.68L93,10.53,89.88,12.4l3.75,1.26-3.13,1.9,3.66.59c-8,1.57-16.11,2.09-24.23,2.6L50.32,20l2.56-2-2.07-2.31a1.28,1.28,0,0,0,1.64-1.46c-.24-.83-1.15-1.35-2-1.8a4.15,4.15,0,0,0,2.17-1.78A6.64,6.64,0,0,1,50.55,9l2.08-1L49.89,6.52,52.1,4.73a4.15,4.15,0,0,0-2.25-1.22,144.27,144.27,0,0,0,17.25-1L91.64,0Z"/></g></g></svg>