<svg width="216" height="112" viewBox="0 0 216 112" fill="none" xmlns="http://www.w3.org/2000/svg">
<path d="M0 14.3268V106.933C0.496102 106.722 0.962138 106.933 1.50334 107.098H1.39811C1.39811 107.023 1.32294 107.098 1.32294 107.098C1.32294 107.098 1.32294 107.248 1.32294 107.339C1.32294 107.429 1.56347 107.624 1.69878 107.729C2.19488 107.97 2.34521 107.609 2.49555 107.233C2.49555 107.233 2.49555 107.128 2.58575 107.233C2.59093 107.284 2.60673 107.333 2.63211 107.377C2.6575 107.421 2.6919 107.459 2.73305 107.489C2.77421 107.519 2.8212 107.539 2.87095 107.55C2.92069 107.56 2.97207 107.56 3.02172 107.549H3.14198L3.47272 107.865C3.50009 107.932 3.54726 107.99 3.60802 108.03C3.79589 108.124 4.00011 108.18 4.20935 108.195C4.31365 108.177 4.40878 108.124 4.47996 108.045L4.72049 107.955L5.00612 108.09C5.28207 108.195 5.58708 108.195 5.86303 108.09C5.87489 108.125 5.89462 108.157 5.92069 108.183C5.94675 108.209 5.97846 108.229 6.01336 108.241C6.37479 108.546 6.79401 108.776 7.2461 108.917C7.5167 109.052 7.86247 108.917 8.11804 109.112C8.28512 109.251 8.4951 109.326 8.71186 109.326C8.92862 109.326 9.1386 109.251 9.30568 109.112C9.90702 108.827 10.4933 108.496 11.1849 108.857C11.2369 108.896 11.3002 108.917 11.3653 108.917C11.4303 108.917 11.4936 108.896 11.5457 108.857C11.7411 109.458 12.2823 108.947 12.583 109.173C12.0117 109.173 11.9215 109.173 11.9365 109.548C11.9738 109.795 12.0615 110.032 12.1941 110.243C12.3267 110.454 12.5013 110.636 12.7072 110.777C12.9131 110.918 13.1457 111.015 13.3907 111.063C13.6358 111.11 13.8879 111.106 14.1314 111.052C14.838 110.751 15.6347 110.661 16.3112 110.36C16.5283 110.371 16.7425 110.306 16.9176 110.178C17.0928 110.049 17.2184 109.864 17.2734 109.654C17.6192 109.789 17.8597 110.315 18.3408 109.909C18.3518 109.82 18.385 109.734 18.4375 109.661C18.4901 109.587 18.5602 109.528 18.6414 109.488C18.7612 109.542 18.8944 109.557 19.0233 109.533C19.1522 109.509 19.2707 109.446 19.363 109.353L19.5885 109.248C19.8291 109.398 20.0245 109.248 20.2199 109.128C20.7611 109.128 21.2422 109.488 21.7984 109.383C22.4449 109.022 22.941 109.383 23.4371 109.699C23.6008 109.77 23.7773 109.806 23.9557 109.806C24.1341 109.806 24.3106 109.77 24.4744 109.699C25.2712 109.428 25.3614 109.503 25.3163 110.36C25.2636 110.547 25.2636 110.745 25.3163 110.932C25.3446 110.995 25.3919 111.047 25.4516 111.082C25.5525 111.13 25.6629 111.155 25.7748 111.155C25.8866 111.155 25.997 111.13 26.098 111.082C26.1595 111.045 26.2153 111 26.2634 110.947C26.4137 110.766 26.4137 110.511 26.6091 110.36C27.3445 110.3 28.0836 110.3 28.819 110.36C28.8812 110.345 28.9382 110.314 28.9844 110.27C29.1047 110.12 29.27 110.014 29.3753 109.864C29.7361 110.42 30.3825 110.45 30.8786 110.691C31.0741 110.511 31.1192 110.045 31.3747 110.135C31.8859 110.285 32.0512 109.894 32.3369 109.684C32.7271 109.768 33.1342 109.72 33.4944 109.548V109.398H33.5846C33.6413 109.36 33.6877 109.308 33.7199 109.248C33.7918 109.122 33.8116 108.973 33.7751 108.832C33.7386 108.692 33.6487 108.571 33.5245 108.496C33.7989 108.508 34.07 108.433 34.2994 108.282C34.5288 108.13 34.7047 107.911 34.8023 107.654C34.9527 107.173 35.1331 107.248 35.3435 107.654C35.554 108.06 35.8396 108.18 36.1704 107.744C36.2018 107.687 36.227 107.627 36.2455 107.564C36.2217 107.218 36.2983 106.871 36.4663 106.567C36.6344 106.263 36.8866 106.014 37.1927 105.85C37.2936 105.802 37.3776 105.725 37.434 105.628C37.4903 105.532 37.5162 105.421 37.5084 105.309C37.7006 105.289 37.8884 105.238 38.0646 105.159C38.3502 105.038 38.5156 105.309 38.7411 105.354C38.9918 105.389 39.2242 105.505 39.4026 105.685C39.5675 105.794 39.761 105.852 39.9588 105.852C40.1566 105.852 40.3501 105.794 40.515 105.685C40.5577 105.652 40.5935 105.611 40.6203 105.565H40.8007C40.8007 105.354 41.3419 105.234 41.3118 105.008C41.3887 105.086 41.4499 105.178 41.4922 105.279C41.5235 105.34 41.5641 105.396 41.6125 105.444C41.7778 105.61 41.8981 105.85 42.1687 105.865C42.238 105.881 42.3099 105.881 42.3792 105.865C43.0256 105.58 43.0406 105.504 42.6197 104.963C42.5145 104.843 42.289 104.738 42.4393 104.497C42.5098 104.477 42.5849 104.481 42.6529 104.508C42.7209 104.535 42.778 104.584 42.8151 104.648C43.0254 104.896 43.2971 105.085 43.603 105.196C43.9089 105.306 44.2385 105.335 44.559 105.279C44.7432 105.249 44.9311 105.249 45.1153 105.279C46.1334 105.395 47.1642 105.245 48.1069 104.843C48.338 104.726 48.5907 104.658 48.8492 104.642C49.1078 104.627 49.3668 104.664 49.6102 104.753C49.971 104.753 49.971 104.437 50.0612 104.197C50.1514 103.956 50.7678 103.565 50.9182 103.866C51.1744 104.212 51.5237 104.478 51.9254 104.633C52.4967 104.783 52.9777 104.452 53.4287 104.332C53.4773 104.321 53.5227 104.299 53.5617 104.268C53.6007 104.237 53.6322 104.198 53.6539 104.153C53.6756 104.108 53.6869 104.059 53.6869 104.01C53.687 103.96 53.6758 103.911 53.6542 103.866C53.5112 103.664 53.446 103.417 53.4709 103.171C53.4958 102.925 53.609 102.697 53.7895 102.528C54.0602 103.063 54.2816 103.621 54.451 104.197C54.451 103.926 54.451 103.61 54.8118 103.46C55.1726 103.31 54.9321 103.295 54.8118 103.249C54.2255 102.994 54.3458 102.543 54.436 102.092L54.6314 102.182C54.9862 102.219 55.344 102.219 55.6988 102.182C56.5557 102.182 57.2021 101.46 58.044 101.295C58.3982 101.19 58.7741 101.18 59.1333 101.267C59.4924 101.354 59.8221 101.535 60.0885 101.791C60.8703 102.558 60.8703 102.558 61.8625 102.032C62.1981 101.91 62.5628 101.892 62.9088 101.98C63.2548 102.069 63.566 102.26 63.8018 102.528C63.8613 102.617 63.9379 102.694 64.0273 102.753C64.1101 102.79 64.1997 102.809 64.2904 102.809C64.381 102.809 64.4707 102.79 64.5535 102.753C64.6057 102.716 64.6498 102.669 64.6829 102.614C64.716 102.559 64.7374 102.498 64.7459 102.435C64.7544 102.371 64.7496 102.307 64.7321 102.245C64.7145 102.184 64.6844 102.126 64.6437 102.077C64.5851 102.005 64.5531 101.914 64.5531 101.821C64.5531 101.728 64.5851 101.638 64.6437 101.566V101.491C64.6437 101.491 64.794 101.491 64.8241 101.491C65.1999 100.754 65.6208 100.994 66.1019 101.385C66.1581 101.444 66.2257 101.492 66.3006 101.524C66.3756 101.556 66.4563 101.572 66.5379 101.572C66.6194 101.572 66.7001 101.556 66.7751 101.524C66.85 101.492 66.9177 101.444 66.9738 101.385C66.9738 101.641 67.0791 101.896 67.4098 101.957H67.5301C67.5507 102.1 67.6262 102.229 67.7405 102.317C67.936 102.468 67.951 102.919 68.2817 102.783C68.6125 102.648 68.838 102.483 68.6876 102.062H68.9432C69.0506 102.031 69.1487 101.974 69.2288 101.896C69.2288 102.423 69.7099 102.543 70.1158 102.723C69.8602 103.189 70.1158 103.52 70.3413 103.911C70.5668 104.302 70.3413 104.587 70.8074 104.693C71.2734 104.798 71.2884 104.332 71.544 104.121C71.5198 104.316 71.5198 104.513 71.544 104.708C71.6492 104.993 71.3636 105.068 71.3035 105.264C71.2433 105.459 71.3035 105.73 71.4688 105.58C71.9198 105.189 72.1604 105.369 72.6264 105.58C72.8695 105.687 73.093 105.835 73.2879 106.016C73.3931 106.136 73.5885 106.226 73.6487 106.016V105.925C73.6643 105.811 73.6643 105.694 73.6487 105.58C73.9644 105.685 73.8742 106.076 74.0997 106.256C74.3252 106.437 74.4454 106.557 74.6559 106.482C74.8664 106.406 74.9265 106.121 74.8513 105.88C75.1069 106.241 75.0317 106.827 75.603 106.948C75.7984 106.827 75.9788 107.218 76.1592 106.948C76.2002 106.846 76.2002 106.733 76.1592 106.632C75.7834 106.632 75.6932 106.452 75.9488 106.151C76.2043 105.85 76.2645 106.391 76.4749 106.316C76.6854 105.986 76.1893 105.805 76.3396 105.504C76.49 105.204 76.9259 105.504 77.0612 105.174L76.1893 105.008C76.7155 104.663 76.4449 104.197 76.5201 103.731C76.956 104.061 77.4521 104.046 77.6626 104.678C77.7528 104.933 77.5724 105.55 78.1286 105.625C78.2418 105.822 78.4152 105.978 78.6235 106.07C78.8318 106.162 79.064 106.185 79.2862 106.136C80.5791 105.986 80.5791 106.001 81.0301 107.173C81.1503 107.519 81.2856 107.88 81.7817 107.699C82.2929 107.083 82.0223 106.422 81.7817 105.775C81.917 105.775 81.9621 105.775 81.9922 105.775C82.7288 106.707 82.8641 106.752 84.0668 106.316C84.2172 106.316 84.3825 106.211 84.4878 106.316C85.044 106.842 85.4048 106.422 85.7806 106.076C85.7735 106.1 85.7735 106.126 85.7806 106.151C85.7806 106.286 85.931 106.437 86.0512 106.241C86.1715 106.046 86.0512 106.046 85.8408 105.971C85.6303 105.895 85.8408 105.971 85.8408 105.865C86.1114 105.099 86.1264 104.212 86.833 103.655C86.9433 103.558 87.0262 103.434 87.0735 103.295C87.1695 103.124 87.2095 102.928 87.1879 102.734C87.1663 102.54 87.0842 102.357 86.9532 102.212C86.8539 102.108 86.7214 102.043 86.5786 102.026C86.4359 102.01 86.2919 102.044 86.1715 102.122C85.7506 102.287 85.7355 102.633 85.9159 103.009C85.1943 102.738 85.8257 102.317 85.7355 101.987C85.9009 101.987 86.0512 102.077 86.2166 101.987C86.3061 102.002 86.3977 102.002 86.4872 101.987C86.6676 101.896 86.8931 101.866 87.0284 101.716C87.0284 101.851 87.1787 101.881 87.314 101.881L87.4493 101.761C87.5249 101.837 87.6276 101.881 87.735 101.881C87.8851 101.893 88.0344 101.85 88.1559 101.761H88.3062C88.2037 102.029 88.1955 102.324 88.283 102.597C88.3704 102.87 88.5483 103.106 88.7873 103.264C88.8875 103.35 89.009 103.406 89.1389 103.427C89.2687 103.448 89.4019 103.434 89.5239 103.385C89.7795 103.264 89.6292 103.024 89.5239 102.829C89.4187 102.633 89.5239 102.423 89.8697 102.423C90.2004 102.663 90.2906 103.159 90.7266 103.295V103.445C91.0423 103.761 91.2077 103.28 91.4633 103.295L91.6136 103.565C91.8692 103.385 91.6136 103.069 91.7639 102.874H92.1849C92.3051 103.129 92.711 102.874 92.7712 103.159C93.0869 103.535 93.3875 103.986 93.9588 103.685H94.0791C94.7405 103.911 94.6804 103.46 94.7255 103.114C94.753 103.181 94.7985 103.239 94.8569 103.281C94.9153 103.324 94.9843 103.349 95.0562 103.355C95.3118 103.355 95.402 103.129 95.4772 102.934C95.6973 102.574 95.8883 102.197 96.0484 101.806C96.289 102.017 96.7851 101.942 96.8152 102.408C97.3113 102.092 97.8675 102.408 98.3185 102.272C98.4538 102.423 98.4087 102.513 98.3185 102.723C98.1677 103.318 98.092 103.929 98.093 104.542C98.093 104.723 98.3035 104.768 98.4839 104.693C98.6643 104.617 98.7244 104.527 98.8898 104.587C99.0551 104.648 99.5512 104.723 99.6414 104.332C99.7316 103.941 99.9271 103.385 99.6414 103.054C99.3558 102.723 99.01 102.558 98.7244 102.287C98.9499 101.896 99.2957 102.287 99.5813 102.137C99.7008 103.078 100.069 103.971 100.649 104.723C100.736 104.843 100.857 104.933 100.997 104.981C101.137 105.03 101.288 105.034 101.43 104.993C101.758 104.933 102.095 104.933 102.423 104.993V105.084L102.708 105.384H103.219C103.027 105.241 102.827 105.111 102.618 104.993C102.702 105.016 102.79 105.016 102.874 104.993C103.34 104.828 103.821 104.678 103.881 104.061C104.287 103.55 104.557 104.061 104.888 104.212L105.023 104.663C105.414 104.197 105.64 103.49 106.527 103.731C106.722 103.731 106.437 103.49 106.527 103.355C107.083 103.625 107.714 103.49 108.256 103.791L108.692 103.941C108.797 104.302 109.203 104.166 109.398 104.377C109.594 104.587 109.594 104.798 109.864 104.738C110.135 104.678 109.939 104.287 110.12 104.106C110.344 104.054 110.577 104.054 110.801 104.106C111.025 104.158 111.234 104.261 111.413 104.407C111.413 104.257 111.232 104.106 111.413 103.956C111.405 103.851 111.405 103.745 111.413 103.64C111.574 103.838 111.806 103.967 112.059 104.001C112.298 104.039 112.542 104.039 112.781 104.001C113.646 103.61 114.392 102.999 114.945 102.227C114.938 102.192 114.938 102.157 114.945 102.122C115.156 102.017 115.321 101.776 115.562 101.987C116.103 102.498 116.434 102.317 116.584 101.551C116.684 101.776 116.83 101.977 117.013 102.142C117.196 102.306 117.411 102.43 117.646 102.506C117.88 102.581 118.127 102.606 118.372 102.578C118.617 102.551 118.853 102.472 119.065 102.347C119.147 102.329 119.232 102.327 119.314 102.343C119.397 102.358 119.476 102.391 119.546 102.438C119.741 102.528 119.937 102.648 120.147 102.438C120.072 101.761 119.425 101.671 119.019 101.325C118.614 100.979 118.764 100.859 119.2 100.829C119.726 101.596 120.703 101.265 121.365 101.686C122.026 102.107 122.688 101.385 123.379 101.295C123.53 101.716 124.056 101.385 124.251 101.731C124.612 101.491 124.657 101.866 124.822 102.032C125.059 102.039 125.292 102.085 125.514 102.167C126.491 102.438 127.483 102.844 128.43 102.062H128.566L129.002 102.197C129.598 102.262 130.154 102.527 130.58 102.949L131.016 103.099C131.016 102.483 131.873 102.242 131.753 101.491C131.952 101.626 132.188 101.699 132.429 101.699C132.671 101.699 132.906 101.626 133.106 101.491C133.271 101.4 133.452 101.34 133.617 101.491C133.827 101.616 134.064 101.688 134.308 101.701C134.489 101.701 134.684 101.46 134.835 101.701C135.526 102.648 136.037 101.701 136.609 101.521C136.714 100.874 136.924 100.739 137.481 101.009C137.631 101.009 137.751 101.235 137.947 101.145C138.383 100.964 138.413 100.979 138.623 101.28C138.829 101.454 139.083 101.561 139.351 101.588C139.62 101.615 139.89 101.56 140.126 101.43C140.219 101.306 140.352 101.217 140.502 101.178C140.653 101.14 140.812 101.155 140.953 101.22C141.074 101.22 141.254 101.22 141.299 101.085C141.344 100.949 141.164 100.859 141.028 100.829C140.893 100.799 140.623 100.679 140.607 100.498C140.592 100.318 140.863 100.273 141.028 100.183C141.118 100.167 141.209 100.167 141.299 100.183C141.389 100.062 141.299 99.882 141.464 99.7617C141.63 99.6414 141.765 99.9271 141.945 99.7617C142.126 99.5963 142.231 100.153 142.396 99.7617C142.562 99.3708 142.908 99.3859 143.253 99.4009V99.5512C143.253 99.7316 143.253 99.897 143.539 99.8369C143.895 99.9744 144.221 100.179 144.501 100.438C144.697 100.574 145.042 100.709 145.102 100.438C145.313 99.6114 145.824 100.002 146.215 100.123C146.497 100.245 146.802 100.309 147.109 100.309C147.417 100.309 147.722 100.245 148.004 100.123C148.21 99.7764 148.324 99.3829 148.335 98.98C148.56 99.7767 149.312 99.8218 149.447 100.649C149.718 99.882 149.447 99.4009 149.447 98.9048C149.45 98.7589 149.494 98.6169 149.574 98.4946C149.654 98.3724 149.766 98.275 149.898 98.2133C150.199 98.078 150.139 98.4237 150.244 98.544C150.283 98.6054 150.34 98.6529 150.408 98.6799C150.475 98.7069 150.549 98.7119 150.62 98.6943C150.654 98.6822 150.686 98.6623 150.712 98.6361C150.737 98.6099 150.757 98.5782 150.768 98.5434C150.78 98.5086 150.783 98.4716 150.778 98.4352C150.774 98.3988 150.76 98.364 150.74 98.3335C150.484 97.9126 150.965 97.8976 151.056 97.657C151.283 97.3841 151.494 97.0979 151.687 96.8001C151.742 96.8076 151.798 96.8076 151.852 96.8001C151.943 96.8835 152.06 96.9316 152.183 96.9354C152.278 96.9867 152.384 97.0136 152.491 97.0136C152.599 97.0136 152.705 96.9867 152.8 96.9354C153.257 96.6812 153.784 96.581 154.303 96.6498C154.569 96.6638 154.835 96.6229 155.085 96.5295C155.32 96.4184 155.576 96.3608 155.836 96.3608C156.096 96.3608 156.353 96.4184 156.588 96.5295C156.798 96.6648 157.009 96.5295 157.144 96.3491C157.202 96.2989 157.239 96.2294 157.249 96.1537C157.61 96.6047 158.031 97.0106 158.422 97.4466C158.813 97.8825 158.843 97.9276 159.204 97.8525C159.267 97.8288 159.327 97.7986 159.384 97.7623C159.294 97.3413 159.384 97.0707 159.865 97.2962C160.031 97.2962 160.181 97.1459 160.076 97.0557C159.73 96.755 159.835 96.2138 159.429 95.9583C159.309 95.8681 159.053 95.7779 159.174 95.5824C159.291 95.4388 159.457 95.3427 159.64 95.3118C159.85 95.3118 159.895 95.4772 159.955 95.6426C160.078 96.008 160.309 96.3277 160.617 96.5596C160.767 96.6799 160.918 96.7099 161.053 96.5596C161.188 96.4093 161.218 96.289 161.053 96.2439C160.091 95.7778 160.933 95.5524 161.158 95.2517V94.7105C161.414 94.8157 161.519 95.0863 161.699 95.2517C161.88 95.4171 162.165 95.7779 162.556 95.6275C162.591 95.6344 162.627 95.6344 162.661 95.6275H162.752L163.097 96.0936C163.097 96.4544 162.782 96.6949 162.812 97.0557C162.842 97.4165 162.812 97.5668 163.097 97.3413C163.383 97.1158 163.609 97.3413 163.849 97.4616C164.09 97.5819 164.255 97.8976 164.3 97.4616C164.345 97.0256 164.586 97.0256 164.947 97.2211C165.231 97.3932 165.49 97.6059 165.713 97.8525C165.821 97.9486 165.96 98.0018 166.104 98.0018C166.248 98.0018 166.388 97.9486 166.495 97.8525C166.545 97.8269 166.588 97.7906 166.622 97.7462C166.656 97.7017 166.68 97.6502 166.691 97.5955C166.703 97.5407 166.702 97.4841 166.689 97.4297C166.676 97.3754 166.651 97.3246 166.615 97.2812C166.405 96.9956 166.149 96.5446 165.894 96.5295C164.932 96.5295 164.706 95.853 164.541 95.0262C164.541 94.8007 164.541 94.7105 164.691 94.6654C164.781 95.0563 165.097 95.0863 165.413 95.1013L165.698 95.2517V95.387C166.209 95.7779 166.465 96.4093 167.036 96.7701V96.1988C167.35 96.4535 167.745 96.5869 168.149 96.5746C168.479 96.5746 168.555 96.9956 168.855 97.0106C168.855 97.0106 170.223 97.3413 170.359 97.3864C170.494 97.4315 170.554 97.3864 170.614 97.3864C170.674 97.3864 171.035 97.5518 171.05 97.8224C171.276 97.8224 171.366 97.8224 171.291 97.5067C171.215 97.191 171.802 96.4243 172.358 96.5295C172.523 97.0707 172.689 97.4917 173.44 97.2511C173.876 97.1008 174.478 97.1158 174.463 97.9427C174.793 97.627 174.553 97.2662 174.763 96.9505C175.47 97.3375 176.279 97.4951 177.079 97.4015C177.334 97.4015 177.469 97.5668 177.68 97.5819C178.266 98.0178 178.191 97.3413 178.416 97.1459C178.928 96.8753 179.318 96.304 180.025 96.4995C180.025 96.4995 180.22 96.3942 180.236 96.3341C180.236 95.5223 180.942 95.2517 181.453 94.8308C181.613 94.7634 181.784 94.7286 181.957 94.7286C182.13 94.7286 182.301 94.7634 182.46 94.8308V94.6654H182.551C182.761 94.5601 182.942 94.6654 183.137 94.6654H183.393C183.491 94.6736 183.585 94.7101 183.663 94.7706C183.71 94.8298 183.774 94.8741 183.845 94.898C183.917 94.9219 183.994 94.9245 184.068 94.9054C184.141 94.8863 184.207 94.8463 184.258 94.7904C184.309 94.7344 184.342 94.6649 184.355 94.5902C184.361 94.4796 184.403 94.3741 184.475 94.2895L184.911 94.049C184.916 94.0141 184.916 93.9787 184.911 93.9438C185.257 93.7634 185.633 93.4627 185.873 94.1091C186.504 94.1091 186.73 93.4176 187.376 93.3875C187.692 93.9287 188.098 93.8385 188.534 93.5529C189.105 93.5529 189.692 93.8686 190.263 93.5529L190.413 93.7032C190.413 94.034 190.654 94.2144 190.954 94.1091C191.468 94.0033 192.003 94.0888 192.458 94.3497C192.458 94.1242 192.322 93.9438 192.277 93.7634C192.232 93.583 192.638 93.5529 192.849 93.7634C193.059 93.9738 193.074 94.049 193.269 94.064C193.404 94.4896 193.404 94.9464 193.269 95.3719C193.253 95.5235 193.285 95.6763 193.36 95.8087C193.436 95.941 193.551 96.046 193.69 96.1086C193.946 95.9583 194.141 96.1086 194.367 96.1086C194.592 96.1086 194.803 96.2289 194.773 95.823C194.743 95.4171 194.532 94.5301 195.374 94.3196C195.374 94.3196 195.374 94.049 195.374 93.9137C195.81 93.3725 196.246 93.9137 196.682 93.9137V94.049C197.344 94.049 197.78 94.3046 197.614 95.1013C197.614 95.3569 197.99 95.6426 197.524 95.8981C197.374 95.8981 197.524 96.1687 197.719 96.1687C198.11 96.1687 198.561 96.289 198.817 95.8681C199.072 95.4471 199.328 95.4922 199.659 95.6576C199.841 95.7762 200.047 95.8538 200.263 95.8849C200.478 95.9161 200.698 95.9 200.906 95.838C201.342 95.6576 201.448 95.838 201.583 96.1387C201.718 96.4393 202.35 96.3942 202.695 96.6498C202.695 96.0785 203.131 96.3942 203.312 96.289C203.492 96.1838 203.026 96.0034 203.131 95.8079C203.237 95.6125 203.432 95.7177 203.582 95.8079C203.753 95.8687 203.938 95.8687 204.109 95.8079H204.319C204.519 95.8755 204.736 95.8755 204.935 95.8079C205.064 95.7869 205.19 95.7516 205.311 95.7027C205.616 95.6881 205.914 95.606 206.183 95.4622H206.619C206.724 95.5524 206.619 95.853 206.935 95.7478C207.015 95.7243 207.087 95.6775 207.14 95.6132C207.194 95.549 207.227 95.4702 207.236 95.387L207.341 95.6125C207.416 95.7779 207.16 96.1537 207.626 96.0485C207.431 95.853 207.626 95.6726 207.626 95.4772C207.822 95.6726 208.077 95.6125 208.318 95.6426H208.513C208.874 95.5674 209.205 95.4622 209.19 94.9811C209.19 94.9811 209.19 94.9811 209.19 94.8608C209.238 94.8064 209.297 94.7629 209.363 94.733C209.429 94.7032 209.501 94.6878 209.573 94.6878C209.646 94.6878 209.717 94.7032 209.784 94.733C209.85 94.7629 209.909 94.8064 209.957 94.8608C210.859 94.8608 211.851 95.3569 212.633 94.515C212.935 94.3862 213.263 94.3326 213.591 94.3588C213.918 94.385 214.234 94.4902 214.512 94.6654H214.707C214.734 94.727 214.764 94.7872 214.797 94.8458L214.888 95.0112C215.128 95.387 215.354 95.4471 215.865 95.3569C215.865 95.3569 215.955 95.3569 216 95.3569V14.1765L0 14.3268Z" fill="#FEF9EB"/>
<path opacity="0.8" d="M133.888 4.20935C135.655 4.21688 137.371 4.80299 138.774 5.87806C137.026 6.96271 135.038 7.60273 132.986 7.74221C133.572 10.1175 136.925 10.9744 139.706 11.3953C137.722 11.9297 135.839 12.7827 134.128 13.9209L139.811 15.8302L135.121 18.6414L140.758 20.5356L136.053 23.392L141.555 24.279C129.528 26.6392 117.336 27.4209 105.129 28.1876L75.6485 30.0668L79.497 27.0601L76.3851 23.5874C76.7024 23.6867 77.0399 23.7022 77.3649 23.6322C77.6899 23.5623 77.9912 23.4093 78.2395 23.1883C78.4878 22.9672 78.6746 22.6856 78.7817 22.3709C78.8888 22.0562 78.9125 21.7191 78.8506 21.3925C78.4898 20.1448 77.1217 19.363 75.8439 18.6865C77.2091 18.2005 78.3625 17.2544 79.1061 16.0106C77.9129 15.401 76.8545 14.5574 75.9942 13.5301L79.1212 12.0267L75.002 9.80178L78.3244 7.1108C77.4183 6.15834 76.2345 5.51644 74.9419 5.27673C83.6084 5.29418 92.2681 4.79216 100.875 3.77339L137.767 0L133.888 4.20935Z" fill="#C2D0BE"/>
<g filter="url(#filter0_d_126_300)">
<path d="M42.2066 55.04V58.496L34.8386 63.08L42.2066 67.592V71L31.0706 64.16V62.024L42.2066 55.04ZM74.88 57.512V60.536H71.664V64.544L68.304 65.432V63.968L58.584 65.048H52.632V57.992H61.92V56.192H52.632V53.72H65.28V60.392H56.04V62.456H59.232L68.304 61.472V53.48H71.664V57.512H74.88ZM71.736 72.488H68.376V68.768H52.656V66.248H71.736V72.488ZM77.544 60.08V57.632H80.592V55.712H77.64V53.264H96.264V55.712H93.312V57.632H96.384V60.08H77.544ZM84.072 55.712V57.632H89.832V55.712H84.072ZM77.976 67.424H92.496V66.512H77.976V64.328H85.08V63.296H76.296V60.944H97.656V63.296H88.68V64.328H95.856V69.464H81.336V70.376H96.648V72.56H77.976V67.424ZM99.936 58.928V56.144H104.04V52.76H107.832V56.144H111.864V58.928H107.76V62.384L112.392 67.496L110.208 69.56L105.912 65.072L101.832 69.992L99.312 68.024L104.112 62.36V58.928H99.936ZM116.664 71.264L113.424 72.392V63.248H110.592V60.152H113.424V53.48H116.664V71.264ZM121.728 71.264L118.488 72.392V53.48H121.728V71.264ZM139.416 54.752V57.224H136.488C137.688 57.872 138.192 58.76 138.192 59.696V59.84C138.192 62.552 135.792 64.256 131.496 64.256C127.056 64.256 124.8 62.48 124.8 59.84V59.696C124.8 58.76 125.232 57.872 126.408 57.224H123.576V54.752H129.648V52.52H133.56V54.752H139.416ZM145.104 63.608L141.744 64.496V61.088H138.816V57.968H141.744V53.48H145.104V63.608ZM128.16 59.768C128.16 60.944 129.192 61.736 131.496 61.736C133.8 61.736 134.832 60.968 134.832 59.768C134.832 58.52 133.848 57.824 131.496 57.824C129.144 57.824 128.16 58.52 128.16 59.768ZM126.768 72.344V65.192H145.08V72.344H126.768ZM141.72 69.824V67.712H130.128V69.824H141.72ZM170.88 57.056V60.08H167.664V63.344L164.304 64.232V53.48H167.664V57.056H170.88ZM162.192 53.72V56.312H157.008V57.608L162.768 61.688L161.016 63.896L155.208 59.936L149.256 64.304L147.24 62.144L153.264 57.704V56.312H148.08V53.72H162.192ZM149.064 68.792V68.6C149.064 66.176 151.32 64.616 158.208 64.616H158.976C165.792 64.616 168.096 66.2 168.096 68.6V68.792C168.096 71.288 165.72 72.776 158.976 72.776H158.208C151.464 72.776 149.064 71.288 149.064 68.792ZM152.544 68.696C152.544 69.872 154.44 70.088 158.232 70.088H158.952C162.528 70.088 164.616 69.896 164.616 68.696C164.616 67.52 162.888 67.304 158.952 67.304H158.232C154.512 67.304 152.544 67.52 152.544 68.696ZM179.791 58.496V55.04L190.927 62.024V64.16L179.791 71V67.592L187.159 63.08L179.791 58.496Z" fill="#333333"/>
</g>
<defs>
<filter id="filter0_d_126_300" x="27.0708" y="52.52" width="167.856" height="28.256" filterUnits="userSpaceOnUse" color-interpolation-filters="sRGB">
<feFlood flood-opacity="0" result="BackgroundImageFix"/>
<feColorMatrix in="SourceAlpha" type="matrix" values="0 0 0 0 0 0 0 0 0 0 0 0 0 0 0 0 0 0 127 0" result="hardAlpha"/>
<feOffset dy="4"/>
<feGaussianBlur stdDeviation="2"/>
<feComposite in2="hardAlpha" operator="out"/>
<feColorMatrix type="matrix" values="0 0 0 0 0 0 0 0 0 0 0 0 0 0 0 0 0 0 0.25 0"/>
<feBlend mode="normal" in2="BackgroundImageFix" result="effect1_dropShadow_126_300"/>
<feBlend mode="normal" in="SourceGraphic" in2="effect1_dropShadow_126_300" result="shape"/>
</filter>
</defs>
</svg>
