<svg width="212" height="102" viewBox="0 0 212 102" fill="none" xmlns="http://www.w3.org/2000/svg">
<path d="M0 13.1469V98.1255C0.486915 97.9324 0.944321 98.1255 1.4755 98.2773H1.37222C1.37222 98.2083 1.29844 98.2773 1.29844 98.2773C1.29844 98.2773 1.29844 98.4152 1.29844 98.498C1.29844 98.5808 1.53452 98.7601 1.66732 98.8567C2.15423 99.0774 2.30178 98.7463 2.44933 98.4014C2.44933 98.4014 2.44933 98.3049 2.53786 98.4014C2.54295 98.4478 2.55845 98.4927 2.58337 98.5331C2.60828 98.5735 2.64205 98.6085 2.68244 98.6358C2.72284 98.6632 2.76896 98.6822 2.81778 98.6918C2.86661 98.7013 2.91703 98.7011 2.96576 98.6911H3.0838L3.40841 98.9808C3.43527 99.0428 3.48157 99.0957 3.5412 99.1326C3.7256 99.2183 3.92603 99.2699 4.1314 99.2843C4.23377 99.2669 4.32714 99.2184 4.39699 99.1464L4.63307 99.0636L4.91342 99.1877C5.18426 99.2843 5.48362 99.2843 5.75445 99.1877C5.7661 99.2198 5.78546 99.2489 5.81104 99.2728C5.83663 99.2967 5.86775 99.3148 5.902 99.3257C6.25674 99.6063 6.6682 99.8174 7.11192 99.9465C7.37751 100.071 7.71687 99.9465 7.96771 100.126C8.13169 100.253 8.33778 100.322 8.55053 100.322C8.76328 100.322 8.96937 100.253 9.13335 100.126C9.72355 99.8637 10.299 99.5602 10.9777 99.8913C11.0288 99.9271 11.0909 99.9465 11.1548 99.9465C11.2186 99.9465 11.2808 99.9271 11.3318 99.8913C11.5237 100.443 12.0548 99.9741 12.3499 100.181C11.7893 100.181 11.7007 100.181 11.7155 100.526C11.7521 100.752 11.8382 100.969 11.9683 101.163C12.0984 101.357 12.2698 101.524 12.4719 101.653C12.6739 101.783 12.9023 101.872 13.1428 101.915C13.3832 101.959 13.6307 101.955 13.8697 101.905C14.5632 101.63 15.3452 101.547 16.0092 101.271C16.2223 101.28 16.4324 101.221 16.6044 101.103C16.7763 100.985 16.8996 100.815 16.9535 100.622C17.2929 100.747 17.529 101.229 18.0011 100.857C18.0119 100.775 18.0446 100.696 18.0961 100.629C18.1477 100.561 18.2164 100.507 18.2962 100.471C18.4138 100.52 18.5445 100.534 18.671 100.512C18.7975 100.49 18.9138 100.432 19.0045 100.347L19.2258 100.25C19.4619 100.388 19.6537 100.25 19.8455 100.14C20.3767 100.14 20.8488 100.471 21.3948 100.374C22.0292 100.043 22.5161 100.374 23.0031 100.664C23.1638 100.729 23.337 100.762 23.5121 100.762C23.6872 100.762 23.8604 100.729 24.0212 100.664C24.8032 100.416 24.8917 100.484 24.8474 101.271C24.7957 101.442 24.7957 101.624 24.8474 101.795C24.8752 101.853 24.9216 101.901 24.9802 101.933C25.0793 101.977 25.1877 102 25.2975 102C25.4072 102 25.5156 101.977 25.6147 101.933C25.6751 101.899 25.7298 101.858 25.777 101.809C25.9246 101.643 25.9246 101.409 26.1164 101.271C26.8382 101.216 27.5636 101.216 28.2854 101.271C28.3463 101.257 28.4024 101.229 28.4477 101.188C28.5657 101.05 28.728 100.954 28.8313 100.816C29.1854 101.326 29.8199 101.354 30.3068 101.574C30.4986 101.409 30.5429 100.981 30.7937 101.064C31.2954 101.202 31.4577 100.843 31.738 100.65C32.121 100.727 32.5206 100.684 32.8742 100.526V100.388H32.9627C33.0183 100.353 33.0639 100.305 33.0955 100.25C33.1661 100.134 33.1855 99.9975 33.1497 99.8686C33.1138 99.7398 33.0256 99.6291 32.9037 99.5602C33.173 99.5709 33.4391 99.502 33.6642 99.3633C33.8893 99.2247 34.062 99.0233 34.1579 98.7877C34.3054 98.3462 34.4825 98.4152 34.689 98.7877C34.8956 99.1602 35.1759 99.2705 35.5006 98.8705C35.5314 98.8179 35.5561 98.7624 35.5743 98.7049C35.5509 98.3869 35.6261 98.0694 35.791 97.7904C35.9559 97.5114 36.2035 97.2829 36.5039 97.1323C36.6029 97.0882 36.6855 97.0172 36.7407 96.9286C36.796 96.84 36.8214 96.7379 36.8138 96.6356C37.0025 96.6173 37.1868 96.5707 37.3597 96.4977C37.64 96.3873 37.8023 96.6356 38.0237 96.677C38.2697 96.7091 38.4978 96.8157 38.6729 96.9805C38.8348 97.0808 39.0246 97.1342 39.2188 97.1342C39.413 97.1342 39.6029 97.0808 39.7648 96.9805C39.8067 96.9505 39.8418 96.913 39.868 96.8701H40.0451C40.0451 96.677 40.5763 96.5666 40.5468 96.3597C40.6222 96.4312 40.6823 96.5155 40.7238 96.608C40.7545 96.664 40.7944 96.7152 40.8419 96.7598C41.0042 96.9115 41.1222 97.1323 41.3878 97.146C41.4558 97.1603 41.5264 97.1603 41.5944 97.146C42.2288 96.8839 42.2436 96.815 41.8305 96.3183C41.7272 96.208 41.5058 96.1114 41.6534 95.8907C41.7225 95.8722 41.7963 95.8758 41.863 95.9007C41.9298 95.9257 41.9858 95.9707 42.0223 96.0286C42.2287 96.2565 42.4953 96.4298 42.7955 96.5315C43.0958 96.6331 43.4193 96.6595 43.7339 96.608C43.9146 96.5802 44.099 96.5802 44.2798 96.608C45.2791 96.7144 46.2908 96.5765 47.216 96.208C47.4429 96.1006 47.6908 96.0378 47.9446 96.0236C48.1984 96.0094 48.4526 96.0439 48.6915 96.1252C49.0457 96.1252 49.0457 95.8355 49.1342 95.6148C49.2227 95.3941 49.8277 95.0354 49.9752 95.3113C50.2267 95.6287 50.5696 95.8727 50.9638 96.0148C51.5245 96.1528 51.9967 95.8493 52.4393 95.7389C52.487 95.7289 52.5316 95.709 52.5698 95.6806C52.6081 95.6522 52.639 95.6161 52.6603 95.575C52.6816 95.5339 52.6927 95.4888 52.6927 95.4432C52.6928 95.3975 52.6818 95.3524 52.6606 95.3113C52.5202 95.1262 52.4563 94.8999 52.4807 94.6741C52.5051 94.4484 52.6162 94.2385 52.7934 94.0835C53.0591 94.5744 53.2764 95.087 53.4427 95.6148C53.4427 95.3665 53.4427 95.0768 53.7968 94.9388C54.1509 94.8009 53.9148 94.7871 53.7968 94.7457C53.2213 94.5112 53.3394 94.0973 53.4279 93.6834L53.6197 93.7662C53.968 93.8004 54.3191 93.8004 54.6673 93.7662C55.5084 93.7662 56.1428 93.104 56.9691 92.9523C57.3168 92.8555 57.6857 92.8466 58.0382 92.9266C58.3907 93.0066 58.7142 93.1725 58.9758 93.4075C59.743 94.1111 59.743 94.1111 60.7169 93.6283C61.0463 93.5162 61.4042 93.4997 61.7438 93.5809C62.0834 93.6621 62.3889 93.8373 62.6203 94.0835C62.6787 94.1655 62.7539 94.2358 62.8416 94.2904C62.9229 94.3243 63.0108 94.3418 63.0998 94.3418C63.1888 94.3418 63.2767 94.3243 63.358 94.2904C63.4093 94.2565 63.4525 94.213 63.485 94.1627C63.5175 94.1123 63.5386 94.0563 63.5469 93.9981C63.5552 93.9398 63.5506 93.8806 63.5333 93.8241C63.516 93.7676 63.4865 93.715 63.4466 93.6697C63.389 93.6033 63.3577 93.5205 63.3577 93.4351C63.3577 93.3497 63.389 93.2669 63.4466 93.2006V93.1316C63.4466 93.1316 63.5941 93.1316 63.6236 93.1316C63.9925 92.4557 64.4056 92.6764 64.8778 93.0351C64.9329 93.0893 64.9993 93.1325 65.0729 93.1621C65.1464 93.1916 65.2256 93.2068 65.3057 93.2068C65.3857 93.2068 65.465 93.1916 65.5385 93.1621C65.6121 93.1325 65.6784 93.0893 65.7336 93.0351C65.7336 93.2696 65.8369 93.5041 66.1615 93.5593H66.2795C66.2997 93.6905 66.3738 93.8093 66.4861 93.8904C66.6779 94.0283 66.6926 94.4422 67.0173 94.318C67.3419 94.1939 67.5632 94.0421 67.4156 93.6559H67.6665C67.7719 93.6277 67.8682 93.5756 67.9468 93.5041C67.9468 93.9869 68.419 94.0973 68.8174 94.2628C68.5665 94.6905 68.8174 94.994 69.0387 95.3527C69.26 95.7114 69.0387 95.9735 69.4961 96.07C69.9535 96.1666 69.9683 95.7389 70.2191 95.5458C70.1953 95.7245 70.1953 95.9052 70.2191 96.0838C70.3224 96.3459 70.042 96.4149 69.983 96.5942C69.924 96.7736 69.983 97.0219 70.1453 96.8839C70.588 96.5253 70.8241 96.6908 71.2815 96.8839C71.52 96.9828 71.7394 97.118 71.9307 97.284C72.034 97.3944 72.2258 97.4771 72.2848 97.284V97.2012C72.3002 97.096 72.3002 96.9892 72.2848 96.8839C72.5947 96.9805 72.5061 97.3392 72.7275 97.5047C72.9488 97.6703 73.0668 97.7806 73.2734 97.7117C73.48 97.6427 73.539 97.3806 73.4652 97.1598C73.716 97.4909 73.6423 98.0289 74.203 98.1393C74.3948 98.0289 74.5718 98.3876 74.7489 98.1393C74.7891 98.0464 74.7891 97.9425 74.7489 97.8496C74.38 97.8496 74.2915 97.6841 74.5423 97.4082C74.7932 97.1323 74.8522 97.6289 75.0587 97.5599C75.2653 97.2564 74.7784 97.0909 74.9259 96.815C75.0735 96.5391 75.5014 96.815 75.6342 96.5115L74.7784 96.3597C75.2948 96.0424 75.0292 95.6148 75.103 95.1871C75.5309 95.4906 76.0178 95.4768 76.2244 96.0562C76.3129 96.2907 76.1359 96.8564 76.6818 96.9253C76.7929 97.1066 76.9631 97.2499 77.1675 97.3342C77.3719 97.4186 77.5998 97.4397 77.8179 97.3944C79.0869 97.2564 79.0869 97.2702 79.5295 98.3462C79.6476 98.6635 79.7803 98.9946 80.2673 98.8291C80.7689 98.2635 80.5033 97.6565 80.2673 97.0633C80.4001 97.0633 80.4443 97.0633 80.4738 97.0633C81.1968 97.9186 81.3296 97.96 82.51 97.5599C82.6576 97.5599 82.8199 97.4633 82.9232 97.5599C83.4691 98.0427 83.8232 97.6565 84.1921 97.3392C84.1851 97.3617 84.1851 97.3856 84.1921 97.4082C84.1921 97.5323 84.3396 97.6703 84.4577 97.4909C84.5757 97.3116 84.4577 97.3116 84.2511 97.2426C84.0445 97.1736 84.2511 97.2426 84.2511 97.146C84.5167 96.4425 84.5315 95.6286 85.2249 95.1181C85.3332 95.029 85.4146 94.9148 85.461 94.7871C85.5552 94.6308 85.5945 94.4509 85.5733 94.2726C85.5521 94.0944 85.4716 93.9269 85.343 93.7938C85.2455 93.6986 85.1154 93.6382 84.9753 93.623C84.8352 93.6079 84.6939 93.6391 84.5757 93.711C84.1626 93.8628 84.1478 94.1801 84.3249 94.5249C83.6167 94.2766 84.2364 93.8904 84.1478 93.5869C84.3101 93.5869 84.4577 93.6696 84.62 93.5869C84.7079 93.601 84.7977 93.601 84.8856 93.5869C85.0626 93.5041 85.284 93.4765 85.4168 93.3386C85.4168 93.4627 85.5643 93.4903 85.6971 93.4903L85.8299 93.38C85.9041 93.45 86.0049 93.4896 86.1103 93.4903C86.2576 93.5008 86.4042 93.4616 86.5234 93.38H86.6709C86.5703 93.6258 86.5623 93.8964 86.6481 94.1472C86.7339 94.3979 86.9085 94.6139 87.1431 94.7595C87.2414 94.8377 87.3607 94.8894 87.4882 94.9088C87.6156 94.9283 87.7463 94.9148 87.8661 94.8698C88.1169 94.7595 87.9694 94.5388 87.8661 94.3594C87.7628 94.1801 87.8661 93.9869 88.2055 93.9869C88.5301 94.2077 88.6186 94.6629 89.0465 94.7871V94.925C89.3563 95.2147 89.5187 94.7733 89.7695 94.7871L89.917 95.0354C90.1679 94.8698 89.917 94.5801 90.0646 94.4008H90.4777C90.5958 94.6353 90.9942 94.4008 91.0532 94.6629C91.363 95.0078 91.6581 95.4216 92.2188 95.1457H92.3369C92.9861 95.3527 92.9271 94.9388 92.9713 94.6215C92.9984 94.6827 93.043 94.7358 93.1003 94.7747C93.1576 94.8137 93.2253 94.8371 93.2959 94.8422C93.5468 94.8422 93.6353 94.6353 93.7091 94.456C93.9251 94.1256 94.1126 93.7796 94.2698 93.4213C94.5058 93.6145 94.9928 93.5455 95.0223 93.9732C95.5092 93.6835 96.0551 93.9731 96.4978 93.849C96.6306 93.9869 96.5863 94.0697 96.4978 94.2628C96.3498 94.8084 96.2755 95.3692 96.2765 95.9321C96.2765 96.0976 96.483 96.139 96.6601 96.07C96.8371 96.001 96.8962 95.9183 97.0585 95.9735C97.2208 96.0286 97.7077 96.0976 97.7962 95.7389C97.8847 95.3803 98.0766 94.8698 97.7962 94.5663C97.5159 94.2629 97.1765 94.1111 96.8962 93.8628C97.1175 93.5041 97.4569 93.8628 97.7372 93.7248C97.8545 94.5888 98.2162 95.4078 98.7848 96.0976C98.87 96.2076 98.9894 96.2903 99.1266 96.3348C99.2638 96.3792 99.4124 96.3831 99.5521 96.3459C99.874 96.2907 100.204 96.2907 100.526 96.3459V96.4287L100.806 96.7046H101.308C101.12 96.5734 100.922 96.4536 100.718 96.3459C100.8 96.3664 100.886 96.3664 100.969 96.3459C101.426 96.1942 101.898 96.0562 101.957 95.4906C102.356 95.0216 102.621 95.4906 102.946 95.6286L103.079 96.0424C103.462 95.6148 103.683 94.9664 104.554 95.1871C104.746 95.1871 104.465 94.9664 104.554 94.8422C105.1 95.0906 105.72 94.9664 106.251 95.2423L106.679 95.3803C106.782 95.7113 107.18 95.5872 107.372 95.7803C107.564 95.9735 107.564 96.1666 107.83 96.1114C108.095 96.0562 107.903 95.6975 108.08 95.532C108.3 95.4841 108.529 95.4841 108.749 95.5319C108.969 95.5798 109.175 95.6742 109.349 95.8079C109.349 95.67 109.172 95.532 109.349 95.3941C109.342 95.2976 109.342 95.2008 109.349 95.1044C109.508 95.286 109.735 95.4044 109.984 95.4354C110.219 95.4698 110.457 95.4698 110.692 95.4354C111.541 95.077 112.274 94.5155 112.817 93.8076C112.81 93.7758 112.81 93.7429 112.817 93.711C113.023 93.6145 113.186 93.3937 113.422 93.5869C113.953 94.0559 114.278 93.8904 114.425 93.1868C114.523 93.3933 114.666 93.5782 114.846 93.7292C115.025 93.8802 115.237 93.994 115.467 94.0631C115.697 94.1321 115.94 94.1549 116.18 94.1299C116.42 94.1049 116.652 94.0327 116.86 93.918C116.94 93.9009 117.024 93.8994 117.105 93.9137C117.186 93.9279 117.263 93.9575 117.332 94.0007C117.524 94.0835 117.715 94.1939 117.922 94.0007C117.848 93.3799 117.214 93.2972 116.815 92.9799C116.417 92.6626 116.565 92.5522 116.992 92.5246C117.509 93.2282 118.468 92.9247 119.117 93.311C119.766 93.6972 120.416 93.0351 121.094 92.9523C121.242 93.3386 121.758 93.0351 121.95 93.3524C122.304 93.1316 122.349 93.4765 122.511 93.6283C122.743 93.635 122.972 93.6769 123.19 93.7524C124.149 94.0007 125.122 94.3732 126.052 93.6559H126.185L126.613 93.78C127.198 93.8392 127.744 94.0824 128.162 94.4698L128.59 94.6077C128.59 94.0421 129.431 93.8214 129.313 93.1316C129.509 93.2562 129.74 93.3228 129.977 93.3228C130.214 93.3228 130.445 93.2562 130.641 93.1316C130.803 93.0489 130.98 92.9937 131.143 93.1316C131.349 93.2467 131.582 93.313 131.821 93.3248C131.998 93.3248 132.19 93.1041 132.338 93.3248C133.016 94.1939 133.518 93.3248 134.079 93.1592C134.182 92.566 134.389 92.4419 134.935 92.6902C135.082 92.6902 135.2 92.8971 135.392 92.8143C135.82 92.6488 135.849 92.6626 136.056 92.9385C136.258 93.0978 136.508 93.1962 136.771 93.2208C137.034 93.2454 137.299 93.1951 137.531 93.0765C137.622 92.962 137.753 92.8804 137.901 92.8452C138.048 92.81 138.205 92.8235 138.343 92.8833C138.461 92.8833 138.638 92.8833 138.682 92.7592C138.727 92.635 138.55 92.5522 138.417 92.5246C138.284 92.4971 138.018 92.3867 138.004 92.2211C137.989 92.0556 138.254 92.0142 138.417 91.9314C138.505 91.9173 138.594 91.9173 138.682 91.9314C138.771 91.8211 138.682 91.6556 138.845 91.5452C139.007 91.4348 139.14 91.6969 139.317 91.5452C139.494 91.3934 139.597 91.9039 139.759 91.5452C139.922 91.1865 140.261 91.2003 140.601 91.2141V91.3521C140.601 91.5176 140.601 91.6693 140.881 91.6142C141.23 91.7404 141.551 91.9277 141.825 92.166C142.017 92.2901 142.356 92.4143 142.415 92.166C142.622 91.4072 143.124 91.7659 143.507 91.8763C143.784 91.9891 144.083 92.0473 144.385 92.0473C144.687 92.0473 144.986 91.9891 145.263 91.8763C145.466 91.5587 145.578 91.1976 145.588 90.8278C145.809 91.559 146.547 91.6004 146.68 92.3591C146.945 91.6555 146.68 91.2141 146.68 90.7589C146.683 90.625 146.726 90.4946 146.804 90.3825C146.882 90.2703 146.992 90.1809 147.122 90.1243C147.417 90.0001 147.358 90.3174 147.462 90.4278C147.5 90.4841 147.556 90.5277 147.622 90.5525C147.688 90.5772 147.761 90.5819 147.83 90.5657C147.864 90.5546 147.895 90.5363 147.921 90.5123C147.946 90.4883 147.965 90.4592 147.976 90.4272C147.988 90.3953 147.991 90.3613 147.986 90.3279C147.981 90.2945 147.969 90.2626 147.949 90.2346C147.698 89.8484 148.17 89.8346 148.258 89.6139C148.481 89.3634 148.688 89.1008 148.878 88.8275C148.932 88.8343 148.987 88.8343 149.04 88.8275C149.129 88.9041 149.244 88.9482 149.365 88.9517C149.458 88.9988 149.562 89.0234 149.667 89.0234C149.773 89.0234 149.877 88.9988 149.97 88.9517C150.419 88.7184 150.936 88.6265 151.445 88.6896C151.707 88.7025 151.968 88.6649 152.213 88.5792C152.443 88.4773 152.695 88.4244 152.95 88.4244C153.206 88.4244 153.458 88.4773 153.688 88.5792C153.895 88.7034 154.101 88.5792 154.234 88.4137C154.291 88.3675 154.327 88.3038 154.337 88.2343C154.692 88.6482 155.105 89.0207 155.488 89.4207C155.872 89.8208 155.901 89.8622 156.256 89.7932C156.318 89.7715 156.377 89.7437 156.433 89.7104C156.344 89.3242 156.433 89.0758 156.905 89.2828C157.067 89.2828 157.215 89.1448 157.111 89.062C156.772 88.7861 156.875 88.2895 156.477 88.055C156.359 87.9722 156.108 87.8895 156.226 87.7101C156.341 87.5783 156.504 87.4901 156.683 87.4618C156.89 87.4618 156.934 87.6135 156.993 87.7653C157.114 88.1006 157.34 88.394 157.643 88.6068C157.79 88.7172 157.938 88.7448 158.07 88.6068C158.203 88.4689 158.233 88.3585 158.07 88.3171C157.126 87.8894 157.952 87.6825 158.174 87.4066V86.91C158.425 87.0066 158.528 87.2549 158.705 87.4066C158.882 87.5584 159.162 87.8894 159.546 87.7515C159.58 87.7578 159.615 87.7578 159.649 87.7515H159.738L160.077 88.1791C160.077 88.5102 159.767 88.731 159.797 89.062C159.826 89.3931 159.797 89.5311 160.077 89.3242C160.357 89.1172 160.579 89.3242 160.815 89.4345C161.051 89.5449 161.213 89.8346 161.258 89.4345C161.302 89.0345 161.538 89.0345 161.892 89.2138C162.172 89.3717 162.425 89.5669 162.645 89.7932C162.75 89.8814 162.887 89.9302 163.028 89.9302C163.17 89.9302 163.306 89.8814 163.412 89.7932C163.461 89.7698 163.503 89.7364 163.537 89.6956C163.57 89.6548 163.593 89.6076 163.604 89.5574C163.616 89.5071 163.615 89.4552 163.602 89.4053C163.589 89.3554 163.564 89.3088 163.53 89.269C163.323 89.0069 163.072 88.593 162.822 88.5792C161.877 88.5792 161.656 87.9584 161.494 87.1997C161.494 86.9928 161.494 86.91 161.641 86.8686C161.73 87.2273 162.04 87.2549 162.349 87.2687L162.63 87.4066V87.5308C163.131 87.8894 163.382 88.4688 163.943 88.7999V88.2757C164.251 88.5095 164.638 88.6319 165.035 88.6206C165.359 88.6206 165.433 89.0069 165.728 89.0207C165.728 89.0207 167.071 89.3241 167.204 89.3655C167.337 89.4069 167.396 89.3655 167.455 89.3655C167.514 89.3655 167.868 89.5173 167.883 89.7656C168.104 89.7656 168.192 89.7656 168.119 89.4759C168.045 89.1862 168.62 88.4826 169.166 88.5792C169.329 89.0758 169.491 89.4621 170.229 89.2414C170.656 89.1034 171.247 89.1172 171.232 89.876C171.557 89.5863 171.32 89.2552 171.527 88.9655C172.22 89.3206 173.014 89.4653 173.799 89.3793C174.05 89.3793 174.183 89.5311 174.389 89.5449C174.965 89.9449 174.891 89.3242 175.112 89.1448C175.614 88.8965 175.998 88.3723 176.691 88.5516C176.691 88.5516 176.883 88.4551 176.898 88.3999C176.898 87.6549 177.591 87.4066 178.093 87.0203C178.249 86.9585 178.417 86.9266 178.587 86.9266C178.757 86.9266 178.925 86.9585 179.082 87.0203V86.8686H179.17C179.377 86.772 179.554 86.8686 179.746 86.8686H179.996C180.093 86.8761 180.185 86.9096 180.262 86.9652C180.308 87.0195 180.37 87.0601 180.441 87.082C180.511 87.104 180.587 87.1064 180.659 87.0888C180.731 87.0713 180.796 87.0346 180.846 86.9833C180.896 86.932 180.929 86.8682 180.941 86.7996C180.947 86.6981 180.988 86.6013 181.059 86.5237L181.487 86.303C181.491 86.271 181.491 86.2385 181.487 86.2064C181.826 86.0409 182.195 85.765 182.431 86.3582C183.051 86.3582 183.272 85.7236 183.906 85.696C184.216 86.1926 184.615 86.1099 185.043 85.8478C185.603 85.8478 186.179 86.1375 186.739 85.8478L186.887 85.9857C186.887 86.2892 187.123 86.4547 187.418 86.3582C187.922 86.261 188.447 86.3395 188.894 86.5789C188.894 86.372 188.761 86.2064 188.717 86.0409C188.672 85.8753 189.071 85.8478 189.277 86.0409C189.484 86.234 189.499 86.303 189.69 86.3168C189.823 86.7073 189.823 87.1265 189.69 87.517C189.674 87.656 189.705 87.7963 189.78 87.9177C189.854 88.0392 189.967 88.1355 190.104 88.1929C190.354 88.055 190.546 88.1929 190.768 88.1929C190.989 88.1929 191.195 88.3033 191.166 87.9308C191.136 87.5584 190.93 86.7444 191.756 86.5513C191.756 86.5513 191.756 86.303 191.756 86.1788C192.184 85.6822 192.612 86.1788 193.04 86.1788V86.303C193.689 86.303 194.117 86.5375 193.955 87.2687C193.955 87.5032 194.324 87.7653 193.866 87.9998C193.719 87.9998 193.866 88.2481 194.058 88.2481C194.442 88.2481 194.884 88.3585 195.135 87.9722C195.386 87.586 195.637 87.6273 195.961 87.7791C196.14 87.8879 196.343 87.9591 196.554 87.9877C196.766 88.0163 196.981 88.0016 197.186 87.9446C197.614 87.7791 197.717 87.9446 197.85 88.2205C197.983 88.4964 198.602 88.4551 198.942 88.6896C198.942 88.1654 199.37 88.4551 199.547 88.3585C199.724 88.2619 199.266 88.0964 199.37 87.917C199.473 87.7377 199.665 87.8343 199.812 87.917C199.979 87.9728 200.162 87.9728 200.329 87.917H200.535C200.732 87.9791 200.944 87.9791 201.14 87.917C201.267 87.8977 201.39 87.8654 201.509 87.8205C201.808 87.8071 202.101 87.7317 202.365 87.5997H202.793C202.896 87.6825 202.793 87.9584 203.103 87.8619C203.182 87.8403 203.252 87.7973 203.304 87.7384C203.357 87.6794 203.389 87.6071 203.398 87.5308L203.501 87.7377C203.575 87.8894 203.324 88.2343 203.781 88.1378C203.59 87.9584 203.781 87.7929 203.781 87.6135C203.973 87.7929 204.224 87.7377 204.46 87.7653H204.652C205.006 87.6963 205.331 87.5997 205.316 87.1583C205.316 87.1583 205.316 87.1583 205.316 87.0479C205.363 86.998 205.421 86.9581 205.486 86.9307C205.551 86.9033 205.621 86.8891 205.692 86.8891C205.763 86.8891 205.834 86.9033 205.899 86.9307C205.964 86.9581 206.021 86.998 206.068 87.0479C206.954 87.0479 207.928 87.5032 208.695 86.7306C208.991 86.6124 209.314 86.5632 209.635 86.5873C209.956 86.6113 210.267 86.7078 210.539 86.8686H210.731C210.758 86.9251 210.787 86.9804 210.82 87.0341L210.908 87.1859C211.144 87.5308 211.366 87.586 211.867 87.5032C211.867 87.5032 211.956 87.5032 212 87.5032V13.0089L0 13.1469Z" fill="#FEF9EB"/>
<path opacity="0.8" d="M131.408 3.86267C133.143 3.86957 134.827 4.40741 136.203 5.39394C134.488 6.38925 132.537 6.97656 130.523 7.10455C131.098 9.28419 134.389 10.0705 137.118 10.4568C135.171 10.9471 133.323 11.7299 131.644 12.7744L137.222 14.5264L132.618 17.1061L138.151 18.8443L133.533 21.4654L138.933 22.2793C127.129 24.4452 115.163 25.1625 103.182 25.8661L74.2472 27.5905L78.0245 24.8314L74.9702 21.6447C75.2816 21.7359 75.6129 21.75 75.9318 21.6858C76.2508 21.6216 76.5466 21.4813 76.7903 21.2785C77.0339 21.0756 77.2173 20.8172 77.3224 20.5284C77.4275 20.2396 77.4508 19.9303 77.39 19.6306C77.0359 18.4856 75.6932 17.7683 74.439 17.1475C75.7789 16.7015 76.911 15.8333 77.6408 14.6919C76.4697 14.1325 75.4309 13.3584 74.5866 12.4157L77.6556 11.0362L73.6127 8.99449L76.8736 6.52515C75.9843 5.65113 74.8224 5.0621 73.5537 4.84213C82.0597 4.85814 90.5591 4.39748 99.0061 3.4626L135.215 0L131.408 3.86267Z" fill="#C2D0BE"/>
<g filter="url(#filter0_d_124_288)">
<path d="M57.8433 50.04V53.496L50.4753 58.08L57.8433 62.592V66L46.7073 59.16V57.024L57.8433 50.04ZM78.6127 53.328L71.0047 59.016L69.0847 56.64L76.6687 50.952V48.192H80.5567V50.904L88.3807 56.256L86.7727 58.656L78.6127 53.328ZM80.4607 67.392H76.8607V62.904H67.9807V60.36H89.2927V62.904H80.4607V67.392ZM114.517 51.216V54.24H111.301V57.048L107.941 57.936V56.208L97.9807 57.384H92.2447V48.48H104.365V51H95.6527V54.864H98.0047L107.941 53.664V48.48H111.301V51.216H114.517ZM92.9167 61.776H107.917V60.84H92.9167V58.488H111.277V63.984H96.2767V64.968H112.069V67.32H92.9167V61.776ZM142.243 48.528V51.12H135.283V51.72L142.915 54.144L142.075 56.616L133.483 54L124.915 57.024L123.883 54.384L131.635 51.72V51.12H124.531V48.528H142.243ZM122.659 60.696V58.176H131.659V55.608H135.091V58.176H144.019V60.696H122.659ZM124.411 67.152V62.04H128.011V64.728H142.555V67.152H124.411ZM154.154 53.496V50.04L165.29 57.024V59.16L154.154 66V62.592L161.522 58.08L154.154 53.496Z" fill="#333333"/>
</g>
<defs>
<filter id="filter0_d_124_288" x="42.707" y="48.192" width="126.583" height="27.2" filterUnits="userSpaceOnUse" color-interpolation-filters="sRGB">
<feFlood flood-opacity="0" result="BackgroundImageFix"/>
<feColorMatrix in="SourceAlpha" type="matrix" values="0 0 0 0 0 0 0 0 0 0 0 0 0 0 0 0 0 0 127 0" result="hardAlpha"/>
<feOffset dy="4"/>
<feGaussianBlur stdDeviation="2"/>
<feComposite in2="hardAlpha" operator="out"/>
<feColorMatrix type="matrix" values="0 0 0 0 0 0 0 0 0 0 0 0 0 0 0 0 0 0 0.25 0"/>
<feBlend mode="normal" in2="BackgroundImageFix" result="effect1_dropShadow_124_288"/>
<feBlend mode="normal" in="SourceGraphic" in2="effect1_dropShadow_124_288" result="shape"/>
</filter>
</defs>
</svg>
