<svg width="262" height="112" viewBox="0 0 262 112" fill="none" xmlns="http://www.w3.org/2000/svg">
<path d="M0 14.3268V106.933C0.601754 106.722 1.16704 106.933 1.8235 107.098H1.69585C1.69585 107.023 1.60468 107.098 1.60468 107.098C1.60468 107.098 1.60468 107.248 1.60468 107.339C1.60468 107.429 1.89644 107.624 2.06055 107.729C2.66231 107.97 2.84465 107.609 3.027 107.233C3.027 107.233 3.027 107.128 3.13641 107.233C3.1427 107.284 3.16186 107.333 3.19265 107.377C3.22345 107.421 3.26517 107.459 3.31509 107.489C3.36502 107.519 3.42202 107.539 3.48235 107.55C3.54269 107.56 3.60501 107.56 3.66523 107.549H3.81111L4.21228 107.865C4.24548 107.932 4.30269 107.99 4.37639 108.03C4.60428 108.124 4.85198 108.18 5.10579 108.195C5.2323 108.177 5.34769 108.124 5.43402 108.045L5.72578 107.955L6.07224 108.09C6.40696 108.195 6.77692 108.195 7.11164 108.09C7.12603 108.125 7.14995 108.157 7.18157 108.183C7.21319 108.209 7.25165 108.229 7.29399 108.241C7.73239 108.546 8.24088 108.776 8.78925 108.917C9.11748 109.052 9.53689 108.917 9.84688 109.112C10.0495 109.251 10.3042 109.326 10.5672 109.326C10.8301 109.326 11.0848 109.251 11.2874 109.112C12.0168 108.827 12.728 108.496 13.5668 108.857C13.6299 108.896 13.7067 108.917 13.7856 108.917C13.8645 108.917 13.9413 108.896 14.0045 108.857C14.2415 109.458 14.898 108.947 15.2627 109.173C14.5697 109.173 14.4603 109.173 14.4786 109.548C14.5238 109.795 14.6302 110.032 14.791 110.243C14.9518 110.454 15.1636 110.636 15.4134 110.777C15.6631 110.918 15.9453 111.015 16.2425 111.063C16.5397 111.11 16.8455 111.106 17.1409 111.052C17.9979 110.751 18.9644 110.661 19.7849 110.36C20.0483 110.371 20.308 110.306 20.5205 110.178C20.733 110.049 20.8853 109.864 20.952 109.654C21.3714 109.789 21.6631 110.315 22.2467 109.909C22.26 109.82 22.3004 109.734 22.3641 109.661C22.4278 109.587 22.5128 109.528 22.6114 109.488C22.7567 109.542 22.9182 109.557 23.0746 109.533C23.2309 109.509 23.3746 109.446 23.4866 109.353L23.7602 109.248C24.0519 109.398 24.289 109.248 24.526 109.128C25.1825 109.128 25.766 109.488 26.4407 109.383C27.2248 109.022 27.8266 109.383 28.4283 109.699C28.627 109.77 28.841 109.806 29.0574 109.806C29.2738 109.806 29.4879 109.77 29.6865 109.699C30.653 109.428 30.7624 109.503 30.7077 110.36C30.6438 110.547 30.6438 110.745 30.7077 110.932C30.742 110.995 30.7994 111.047 30.8718 111.082C30.9943 111.13 31.1282 111.155 31.2639 111.155C31.3995 111.155 31.5334 111.13 31.6559 111.082C31.7305 111.045 31.7981 111 31.8565 110.947C32.0388 110.766 32.0388 110.511 32.2759 110.36C33.1679 110.3 34.0644 110.3 34.9564 110.36C35.0318 110.345 35.101 110.314 35.157 110.27C35.3029 110.12 35.5035 110.014 35.6311 109.864C36.0688 110.42 36.8529 110.45 37.4546 110.691C37.6917 110.511 37.7464 110.045 38.0564 110.135C38.6764 110.285 38.877 109.894 39.2234 109.684C39.6967 109.768 40.1905 109.72 40.6275 109.548V109.398H40.7369C40.8056 109.36 40.862 109.308 40.901 109.248C40.9882 109.122 41.0123 108.973 40.968 108.832C40.9237 108.692 40.8146 108.571 40.664 108.496C40.9968 108.508 41.3257 108.433 41.6039 108.282C41.8821 108.13 42.0955 107.911 42.2139 107.654C42.3963 107.173 42.6151 107.248 42.8704 107.654C43.1257 108.06 43.4722 108.18 43.8733 107.744C43.9114 107.687 43.942 107.627 43.9645 107.564C43.9355 107.218 44.0285 106.871 44.2323 106.567C44.4361 106.263 44.742 106.014 45.1133 105.85C45.2357 105.802 45.3377 105.725 45.406 105.628C45.4743 105.532 45.5058 105.421 45.4962 105.309C45.7295 105.289 45.9573 105.238 46.1709 105.159C46.5174 105.038 46.718 105.309 46.9915 105.354C47.2956 105.389 47.5775 105.505 47.7938 105.685C47.9939 105.794 48.2286 105.852 48.4685 105.852C48.7085 105.852 48.9432 105.794 49.1432 105.685C49.195 105.652 49.2384 105.611 49.2709 105.565H49.4897C49.4897 105.354 50.1462 105.234 50.1097 105.008C50.2029 105.086 50.2772 105.178 50.3285 105.279C50.3664 105.34 50.4157 105.396 50.4744 105.444C50.675 105.61 50.8209 105.85 51.1491 105.865C51.2331 105.881 51.3203 105.881 51.4044 105.865C52.1885 105.58 52.2067 105.504 51.6961 104.963C51.5685 104.843 51.295 104.738 51.4773 104.497C51.5628 104.477 51.6539 104.481 51.7364 104.508C51.8189 104.535 51.8881 104.584 51.9332 104.648C52.1883 104.896 52.5177 105.085 52.8888 105.196C53.2599 105.306 53.6597 105.335 54.0484 105.279C54.2718 105.249 54.4997 105.249 54.7231 105.279C55.9581 105.395 57.2084 105.245 58.3519 104.843C58.6322 104.726 58.9387 104.658 59.2523 104.642C59.5659 104.627 59.8801 104.664 60.1754 104.753C60.613 104.753 60.613 104.437 60.7224 104.197C60.8318 103.956 61.5795 103.565 61.7618 103.866C62.0727 104.212 62.4964 104.478 62.9836 104.633C63.6765 104.783 64.26 104.452 64.8071 104.332C64.866 104.321 64.9211 104.299 64.9684 104.268C65.0157 104.237 65.0539 104.198 65.0802 104.153C65.1065 104.108 65.1202 104.059 65.1202 104.01C65.1203 103.96 65.1068 103.911 65.0806 103.866C64.9071 103.664 64.8281 103.417 64.8582 103.171C64.8884 102.925 65.0257 102.697 65.2447 102.528C65.573 103.063 65.8416 103.621 66.0471 104.197C66.0471 103.926 66.047 103.61 66.4847 103.46C66.9223 103.31 66.6306 103.295 66.4847 103.249C65.7735 102.994 65.9194 102.543 66.0288 102.092L66.2659 102.182C66.6962 102.219 67.1302 102.219 67.5606 102.182C68.5999 102.182 69.3841 101.46 70.4052 101.295C70.8349 101.19 71.2908 101.18 71.7264 101.267C72.1621 101.354 72.5619 101.535 72.8852 101.791C73.8334 102.558 73.8334 102.558 75.0369 102.032C75.444 101.91 75.8863 101.892 76.306 101.98C76.7257 102.069 77.1033 102.26 77.3892 102.528C77.4614 102.617 77.5544 102.694 77.6627 102.753C77.7632 102.79 77.8719 102.809 77.9818 102.809C78.0918 102.809 78.2005 102.79 78.3009 102.753C78.3643 102.716 78.4177 102.669 78.4579 102.614C78.4981 102.559 78.5241 102.498 78.5344 102.435C78.5446 102.371 78.5389 102.307 78.5176 102.245C78.4962 102.184 78.4597 102.126 78.4104 102.077C78.3393 102.005 78.3005 101.914 78.3005 101.821C78.3005 101.728 78.3393 101.638 78.4104 101.566V101.491C78.4104 101.491 78.5927 101.491 78.6292 101.491C79.085 100.754 79.5956 100.994 80.1792 101.385C80.2473 101.444 80.3293 101.492 80.4202 101.524C80.5111 101.556 80.609 101.572 80.708 101.572C80.8069 101.572 80.9048 101.556 80.9957 101.524C81.0866 101.492 81.1686 101.444 81.2368 101.385C81.2368 101.641 81.3644 101.896 81.7656 101.957H81.9115C81.9365 102.1 82.028 102.229 82.1668 102.317C82.4038 102.468 82.422 102.919 82.8232 102.783C83.2244 102.648 83.4979 102.483 83.3156 102.062H83.6256C83.7558 102.031 83.8749 101.974 83.972 101.896C83.972 102.423 84.5555 102.543 85.0479 102.723C84.7379 103.189 85.0479 103.52 85.3214 103.911C85.5949 104.302 85.3214 104.587 85.8867 104.693C86.452 104.798 86.4702 104.332 86.7802 104.121C86.7508 104.316 86.7508 104.513 86.7802 104.708C86.9079 104.993 86.5614 105.068 86.4884 105.264C86.4155 105.459 86.4885 105.73 86.689 105.58C87.2361 105.189 87.5278 105.369 88.0931 105.58C88.388 105.687 88.6591 105.835 88.8955 106.016C89.0231 106.136 89.2602 106.226 89.3331 106.016V105.925C89.3521 105.811 89.3521 105.694 89.3331 105.58C89.716 105.685 89.6066 106.076 89.8802 106.256C90.1537 106.437 90.2996 106.557 90.5548 106.482C90.8101 106.406 90.8831 106.121 90.7919 105.88C91.1019 106.241 91.0107 106.827 91.7037 106.948C91.9407 106.827 92.1595 107.218 92.3783 106.948C92.428 106.846 92.428 106.733 92.3783 106.632C91.9225 106.632 91.8131 106.452 92.1231 106.151C92.433 105.85 92.506 106.391 92.7613 106.316C93.0166 105.986 92.4148 105.805 92.5972 105.504C92.7795 105.204 93.3083 105.504 93.4724 105.174L92.4148 105.008C93.053 104.663 92.7248 104.197 92.816 103.731C93.3448 104.061 93.9465 104.046 94.2018 104.678C94.3112 104.933 94.0924 105.55 94.7671 105.625C94.9045 105.822 95.1148 105.978 95.3674 106.07C95.62 106.162 95.9017 106.185 96.1712 106.136C97.7394 105.986 97.7394 106.001 98.2865 107.173C98.4324 107.519 98.5965 107.88 99.1982 107.699C99.8182 107.083 99.49 106.422 99.1982 105.775C99.3623 105.775 99.417 105.775 99.4535 105.775C100.347 106.707 100.511 106.752 101.97 106.316C102.152 106.316 102.353 106.211 102.481 106.316C103.155 106.842 103.593 106.422 104.049 106.076C104.04 106.1 104.04 106.126 104.049 106.151C104.049 106.286 104.231 106.437 104.377 106.241C104.523 106.046 104.377 106.046 104.122 105.971C103.866 105.895 104.122 105.971 104.122 105.865C104.45 105.099 104.468 104.212 105.325 103.655C105.459 103.558 105.56 103.434 105.617 103.295C105.733 103.124 105.782 102.928 105.756 102.734C105.73 102.54 105.63 102.357 105.471 102.212C105.351 102.108 105.19 102.043 105.017 102.026C104.844 102.01 104.669 102.044 104.523 102.122C104.012 102.287 103.994 102.633 104.213 103.009C103.338 102.738 104.103 102.317 103.994 101.987C104.195 101.987 104.377 102.077 104.578 101.987C104.686 102.002 104.797 102.002 104.906 101.987C105.125 101.896 105.398 101.866 105.562 101.716C105.562 101.851 105.745 101.881 105.909 101.881L106.073 101.761C106.164 101.837 106.289 101.881 106.419 101.881C106.601 101.893 106.782 101.85 106.93 101.761H107.112C106.988 102.029 106.978 102.324 107.084 102.597C107.19 102.87 107.406 103.106 107.696 103.264C107.817 103.35 107.965 103.406 108.122 103.427C108.28 103.448 108.441 103.434 108.589 103.385C108.899 103.264 108.717 103.024 108.589 102.829C108.462 102.633 108.589 102.423 109.009 102.423C109.41 102.663 109.519 103.159 110.048 103.295V103.445C110.431 103.761 110.632 103.28 110.942 103.295L111.124 103.565C111.434 103.385 111.124 103.069 111.306 102.874H111.817C111.963 103.129 112.455 102.874 112.528 103.159C112.911 103.535 113.276 103.986 113.969 103.685H114.114C114.917 103.911 114.844 103.46 114.899 103.114C114.932 103.181 114.987 103.239 115.058 103.281C115.129 103.324 115.212 103.349 115.3 103.355C115.61 103.355 115.719 103.129 115.81 102.934C116.077 102.574 116.309 102.197 116.503 101.806C116.795 102.017 117.397 101.942 117.433 102.408C118.035 102.092 118.71 102.408 119.257 102.272C119.421 102.423 119.366 102.513 119.257 102.723C119.074 103.318 118.982 103.929 118.983 104.542C118.983 104.723 119.238 104.768 119.457 104.693C119.676 104.617 119.749 104.527 119.95 104.587C120.15 104.648 120.752 104.723 120.861 104.332C120.971 103.941 121.208 103.385 120.861 103.054C120.515 102.723 120.095 102.558 119.749 102.287C120.023 101.896 120.442 102.287 120.788 102.137C120.933 103.078 121.38 103.971 122.083 104.723C122.188 104.843 122.336 104.933 122.506 104.981C122.675 105.03 122.859 105.034 123.031 104.993C123.429 104.933 123.837 104.933 124.235 104.993V105.084L124.581 105.384H125.201C124.968 105.241 124.725 105.111 124.472 104.993C124.573 105.016 124.68 105.016 124.782 104.993C125.347 104.828 125.931 104.678 126.004 104.061C126.496 103.55 126.824 104.061 127.225 104.212L127.389 104.663C127.864 104.197 128.137 103.49 129.213 103.731C129.45 103.731 129.104 103.49 129.213 103.355C129.888 103.625 130.654 103.49 131.31 103.791L131.839 103.941C131.966 104.302 132.459 104.166 132.696 104.377C132.933 104.587 132.933 104.798 133.261 104.738C133.589 104.678 133.352 104.287 133.571 104.106C133.843 104.054 134.126 104.054 134.398 104.106C134.67 104.158 134.923 104.261 135.139 104.407C135.139 104.257 134.921 104.106 135.139 103.956C135.13 103.851 135.13 103.745 135.139 103.64C135.336 103.838 135.616 103.967 135.923 104.001C136.213 104.039 136.509 104.039 136.799 104.001C137.848 103.61 138.754 102.999 139.425 102.227C139.416 102.192 139.416 102.157 139.425 102.122C139.68 102.017 139.88 101.776 140.172 101.987C140.829 102.498 141.23 102.317 141.412 101.551C141.533 101.776 141.71 101.977 141.932 102.142C142.154 102.306 142.416 102.43 142.7 102.506C142.984 102.581 143.284 102.606 143.581 102.578C143.878 102.551 144.164 102.472 144.421 102.347C144.521 102.329 144.624 102.327 144.724 102.343C144.824 102.358 144.92 102.391 145.004 102.438C145.242 102.528 145.479 102.648 145.734 102.438C145.643 101.761 144.859 101.671 144.366 101.325C143.874 100.979 144.056 100.859 144.585 100.829C145.223 101.596 146.409 101.265 147.211 101.686C148.013 102.107 148.816 101.385 149.654 101.295C149.837 101.716 150.475 101.385 150.712 101.731C151.15 101.491 151.204 101.866 151.405 102.032C151.692 102.039 151.975 102.085 152.244 102.167C153.429 102.438 154.633 102.844 155.781 102.062H155.945L156.474 102.197C157.197 102.262 157.872 102.527 158.389 102.949L158.918 103.099C158.918 102.483 159.957 102.242 159.811 101.491C160.053 101.626 160.339 101.699 160.632 101.699C160.924 101.699 161.21 101.626 161.452 101.491C161.653 101.4 161.872 101.34 162.072 101.491C162.327 101.616 162.615 101.688 162.911 101.701C163.13 101.701 163.367 101.46 163.549 101.701C164.388 102.648 165.008 101.701 165.701 101.521C165.829 100.874 166.084 100.739 166.759 101.009C166.941 101.009 167.087 101.235 167.324 101.145C167.853 100.964 167.889 100.979 168.145 101.28C168.395 101.454 168.703 101.561 169.028 101.588C169.354 101.615 169.681 101.56 169.968 101.43C170.081 101.306 170.242 101.217 170.424 101.178C170.607 101.14 170.8 101.155 170.971 101.22C171.117 101.22 171.336 101.22 171.39 101.085C171.445 100.949 171.226 100.859 171.062 100.829C170.898 100.799 170.57 100.679 170.552 100.498C170.533 100.318 170.862 100.273 171.062 100.183C171.171 100.167 171.282 100.167 171.39 100.183C171.5 100.062 171.39 99.882 171.591 99.7617C171.792 99.6414 171.956 99.9271 172.175 99.7617C172.393 99.5963 172.521 100.153 172.722 99.7617C172.922 99.3708 173.342 99.3859 173.761 99.4009V99.5512C173.761 99.7316 173.761 99.897 174.107 99.8369C174.539 99.9744 174.935 100.179 175.275 100.438C175.512 100.574 175.931 100.709 176.004 100.438C176.259 99.6114 176.879 100.002 177.353 100.123C177.696 100.245 178.065 100.309 178.438 100.309C178.812 100.309 179.181 100.245 179.523 100.123C179.774 99.7764 179.912 99.3829 179.924 98.98C180.198 99.7767 181.11 99.8218 181.274 100.649C181.602 99.882 181.274 99.4009 181.274 98.9048C181.278 98.7589 181.331 98.6169 181.428 98.4946C181.524 98.3724 181.66 98.275 181.821 98.2133C182.186 98.078 182.113 98.4237 182.24 98.544C182.287 98.6054 182.357 98.6529 182.439 98.6799C182.521 98.7069 182.611 98.7119 182.696 98.6943C182.738 98.6822 182.776 98.6623 182.807 98.6361C182.839 98.6099 182.862 98.5782 182.876 98.5434C182.89 98.5086 182.895 98.4716 182.889 98.4352C182.883 98.3988 182.867 98.364 182.842 98.3335C182.532 97.9126 183.116 97.8976 183.225 97.657C183.5 97.3841 183.756 97.0979 183.991 96.8001C184.057 96.8076 184.125 96.8076 184.191 96.8001C184.301 96.8835 184.443 96.9316 184.593 96.9354C184.707 96.9867 184.836 97.0136 184.966 97.0136C185.097 97.0136 185.225 96.9867 185.34 96.9354C185.895 96.6812 186.534 96.581 187.164 96.6498C187.486 96.6638 187.809 96.6229 188.112 96.5295C188.397 96.4184 188.708 96.3608 189.024 96.3608C189.339 96.3608 189.65 96.4184 189.935 96.5295C190.191 96.6648 190.446 96.5295 190.61 96.3491C190.68 96.2989 190.725 96.2294 190.738 96.1537C191.175 96.6047 191.686 97.0106 192.16 97.4466C192.634 97.8825 192.671 97.9276 193.108 97.8525C193.185 97.8288 193.258 97.7986 193.327 97.7623C193.218 97.3413 193.327 97.0707 193.911 97.2962C194.111 97.2962 194.294 97.1459 194.166 97.0557C193.747 96.755 193.874 96.2138 193.382 95.9583C193.236 95.8681 192.926 95.7779 193.072 95.5824C193.214 95.4388 193.415 95.3427 193.637 95.3118C193.892 95.3118 193.947 95.4772 194.02 95.6426C194.169 96.008 194.449 96.3277 194.822 96.5596C195.005 96.6799 195.187 96.7099 195.351 96.5596C195.515 96.4093 195.552 96.289 195.351 96.2439C194.184 95.7778 195.205 95.5524 195.479 95.2517V94.7105C195.789 94.8157 195.916 95.0863 196.135 95.2517C196.354 95.4171 196.701 95.7779 197.175 95.6275C197.217 95.6344 197.26 95.6344 197.302 95.6275H197.412L197.831 96.0936C197.831 96.4544 197.448 96.6949 197.485 97.0557C197.521 97.4165 197.485 97.5668 197.831 97.3413C198.178 97.1158 198.451 97.3413 198.743 97.4616C199.035 97.5819 199.235 97.8976 199.29 97.4616C199.345 97.0256 199.636 97.0256 200.074 97.2211C200.42 97.3932 200.733 97.6059 201.004 97.8525C201.134 97.9486 201.303 98.0018 201.478 98.0018C201.653 98.0018 201.822 97.9486 201.952 97.8525C202.013 97.8269 202.065 97.7906 202.107 97.7462C202.148 97.7017 202.176 97.6502 202.19 97.5955C202.204 97.5407 202.203 97.4841 202.187 97.4297C202.171 97.3754 202.141 97.3246 202.098 97.2812C201.843 96.9956 201.533 96.5446 201.223 96.5295C200.056 96.5295 199.782 95.853 199.582 95.0262C199.582 94.8007 199.582 94.7105 199.764 94.6654C199.873 95.0563 200.256 95.0863 200.639 95.1013L200.986 95.2517V95.387C201.606 95.7779 201.916 96.4093 202.609 96.7701V96.1988C202.989 96.4535 203.468 96.5869 203.958 96.5746C204.359 96.5746 204.45 96.9956 204.815 97.0106C204.815 97.0106 206.475 97.3413 206.639 97.3864C206.803 97.4315 206.876 97.3864 206.949 97.3864C207.022 97.3864 207.459 97.5518 207.477 97.8224C207.751 97.8224 207.86 97.8224 207.769 97.5067C207.678 97.191 208.389 96.4243 209.064 96.5295C209.264 97.0707 209.465 97.4917 210.377 97.2511C210.906 97.1008 211.635 97.1158 211.617 97.9427C212.018 97.627 211.726 97.2662 211.981 96.9505C212.838 97.3375 213.82 97.4951 214.79 97.4015C215.1 97.4015 215.264 97.5668 215.519 97.5819C216.23 98.0178 216.139 97.3413 216.413 97.1459C217.033 96.8753 217.507 96.304 218.364 96.4995C218.364 96.4995 218.601 96.3942 218.619 96.3341C218.619 95.5223 219.476 95.2517 220.096 94.8308C220.289 94.7634 220.497 94.7286 220.707 94.7286C220.917 94.7286 221.125 94.7634 221.318 94.8308V94.6654H221.427C221.682 94.5601 221.901 94.6654 222.138 94.6654H222.448C222.568 94.6736 222.682 94.7101 222.777 94.7706C222.834 94.8298 222.911 94.8741 222.998 94.898C223.085 94.9219 223.178 94.9245 223.267 94.9054C223.356 94.8863 223.436 94.8463 223.498 94.7904C223.56 94.7344 223.601 94.6649 223.615 94.5902C223.623 94.4796 223.674 94.3741 223.761 94.2895L224.29 94.049C224.296 94.0141 224.296 93.9787 224.29 93.9438C224.709 93.7634 225.165 93.4627 225.457 94.1091C226.223 94.1091 226.497 93.4176 227.281 93.3875C227.664 93.9287 228.156 93.8385 228.685 93.5529C229.378 93.5529 230.089 93.8686 230.782 93.5529L230.964 93.7032C230.964 94.034 231.256 94.2144 231.621 94.1091C232.244 94.0033 232.892 94.0888 233.444 94.3497C233.444 94.1242 233.28 93.9438 233.225 93.7634C233.171 93.583 233.663 93.5529 233.918 93.7634C234.173 93.9738 234.192 94.049 234.429 94.064C234.592 94.4896 234.592 94.9464 234.429 95.3719C234.409 95.5235 234.447 95.6763 234.539 95.8087C234.631 95.941 234.771 96.046 234.939 96.1086C235.249 95.9583 235.486 96.1086 235.76 96.1086C236.033 96.1086 236.289 96.2289 236.252 95.823C236.216 95.4171 235.96 94.5301 236.982 94.3196C236.982 94.3196 236.982 94.049 236.982 93.9137C237.51 93.3725 238.039 93.9137 238.568 93.9137V94.049C239.37 94.049 239.899 94.3046 239.699 95.1013C239.699 95.3569 240.155 95.6426 239.589 95.8981C239.407 95.8981 239.589 96.1687 239.826 96.1687C240.3 96.1687 240.847 96.289 241.157 95.8681C241.467 95.4471 241.777 95.4922 242.179 95.6576C242.4 95.7762 242.65 95.8538 242.911 95.8849C243.173 95.9161 243.439 95.9 243.692 95.838C244.221 95.6576 244.349 95.838 244.513 96.1387C244.677 96.4393 245.443 96.3942 245.862 96.6498C245.862 96.0785 246.391 96.3942 246.61 96.289C246.829 96.1838 246.263 96.0034 246.391 95.8079C246.519 95.6125 246.756 95.7177 246.938 95.8079C247.144 95.8687 247.37 95.8687 247.576 95.8079H247.831C248.074 95.8755 248.337 95.8755 248.579 95.8079C248.735 95.7869 248.888 95.7516 249.035 95.7027C249.405 95.6881 249.766 95.606 250.093 95.4622H250.621C250.749 95.5524 250.621 95.853 251.004 95.7478C251.102 95.7243 251.188 95.6775 251.253 95.6132C251.318 95.549 251.359 95.4702 251.369 95.387L251.497 95.6125C251.588 95.7779 251.278 96.1537 251.843 96.0485C251.606 95.853 251.843 95.6726 251.843 95.4772C252.08 95.6726 252.39 95.6125 252.682 95.6426H252.919C253.357 95.5674 253.758 95.4622 253.74 94.9811C253.74 94.9811 253.74 94.9811 253.74 94.8608C253.798 94.8064 253.869 94.7629 253.949 94.733C254.03 94.7032 254.117 94.6878 254.205 94.6878C254.293 94.6878 254.379 94.7032 254.46 94.733C254.54 94.7629 254.611 94.8064 254.67 94.8608C255.764 94.8608 256.967 95.3569 257.915 94.515C258.282 94.3862 258.681 94.3326 259.078 94.3588C259.475 94.385 259.858 94.4902 260.195 94.6654H260.432C260.465 94.727 260.501 94.7872 260.541 94.8458L260.651 95.0112C260.942 95.387 261.216 95.4471 261.836 95.3569C261.836 95.3569 261.945 95.3569 262 95.3569V14.1765L0 14.3268Z" fill="#FEF9EB"/>
<path opacity="0.8" d="M162.401 4.20935C164.545 4.21688 166.626 4.80299 168.328 5.87806C166.207 6.96271 163.797 7.60273 161.307 7.74221C162.018 10.1175 166.085 10.9744 169.458 11.3953C167.052 11.9297 164.767 12.7827 162.693 13.9209L169.586 15.8302L163.896 18.6414L170.735 20.5356L165.027 23.392L171.701 24.279C157.113 26.6392 142.324 27.4209 127.518 28.1876L91.7589 30.0668L96.4271 27.0601L92.6524 23.5874C93.0372 23.6867 93.4467 23.7022 93.8409 23.6322C94.2351 23.5623 94.6006 23.4093 94.9017 23.1883C95.2029 22.9672 95.4295 22.6856 95.5594 22.3709C95.6893 22.0562 95.7181 21.7191 95.643 21.3925C95.2053 20.1448 93.5459 19.363 91.996 18.6865C93.6519 18.2005 95.0509 17.2544 95.9529 16.0106C94.5055 15.401 93.2218 14.5574 92.1783 13.5301L95.9712 12.0267L90.9748 9.80178L95.0047 7.1108C93.9056 6.15834 92.4697 5.51644 90.9019 5.27673C101.414 5.29418 111.918 4.79216 122.357 3.77339L167.106 0L162.401 4.20935Z" fill="#C2D0BE"/>
<g filter="url(#filter0_d_124_287)">
<path d="M37.8433 55.04V58.496L30.4753 63.08L37.8433 67.592V71L26.7073 64.16V62.024L37.8433 55.04ZM70.5167 60.488V63.512H67.3007V71.288L63.9887 72.416V53.48H67.3007V60.488H70.5167ZM61.3727 69.392H48.1247V54.176H51.4367V59.84H58.0607V54.176H61.3727V69.392ZM51.4367 66.872H58.0607V62.336H51.4367V66.872ZM94.5167 60.488V63.512H91.3007V71.288L87.9887 72.416V66.776L77.9807 69.608H72.2447V54.44H84.6047V56.96H75.6527V66.872H78.0047L87.9887 64.16V53.48H91.3007V60.488H94.5167ZM116.741 71.288L113.429 72.416V63.248H108.149L107.141 70.064H103.805L105.797 56.96H95.6207V54.44H109.445L108.581 60.344H113.429V53.48H116.741V71.288ZM139.565 61.256H121.613V53.432H124.925V55.112H136.253V53.432H139.565V61.256ZM124.925 58.736H136.253V57.488H124.925V58.736ZM139.421 72.488H136.061V69.08H121.301V66.56H128.645V65.024H119.933V62.504H141.293V65.024H132.245V66.56H139.421V72.488ZM162.923 72.272H159.323V66.248H150.707V63.704H165.347L166.379 56.408H152.195V53.888H169.955L168.611 63.704H172.019V66.248H162.923V72.272ZM194.027 54.128V56.72H187.187V58.328L194.963 62.672L193.451 65.168L185.291 60.68L177.299 65.72L175.571 63.296L183.347 58.352V56.72H176.459V54.128H194.027ZM174.707 71.24V68.696H183.659V64.112H187.091V68.696H196.019V71.24H174.707ZM220.043 71.264L216.803 72.392V62.984H214.211V71.264L210.971 72.392V67.544L203.939 69.464H199.043V54.368H208.403V56.888H202.355V66.728H203.987L210.971 64.88V53.48H214.211V60.176H216.803V53.48H220.043V71.264ZM230.154 58.496V55.04L241.29 62.024V64.16L230.154 71V67.592L237.522 63.08L230.154 58.496Z" fill="#333333"/>
</g>
<defs>
<filter id="filter0_d_124_287" x="22.7075" y="53.432" width="222.583" height="27.056" filterUnits="userSpaceOnUse" color-interpolation-filters="sRGB">
<feFlood flood-opacity="0" result="BackgroundImageFix"/>
<feColorMatrix in="SourceAlpha" type="matrix" values="0 0 0 0 0 0 0 0 0 0 0 0 0 0 0 0 0 0 127 0" result="hardAlpha"/>
<feOffset dy="4"/>
<feGaussianBlur stdDeviation="2"/>
<feComposite in2="hardAlpha" operator="out"/>
<feColorMatrix type="matrix" values="0 0 0 0 0 0 0 0 0 0 0 0 0 0 0 0 0 0 0.25 0"/>
<feBlend mode="normal" in2="BackgroundImageFix" result="effect1_dropShadow_124_287"/>
<feBlend mode="normal" in="SourceGraphic" in2="effect1_dropShadow_124_287" result="shape"/>
</filter>
</defs>
</svg>
