<svg width="71" height="69" viewBox="0 0 71 69" fill="none" xmlns="http://www.w3.org/2000/svg">
<path d="M38.144 0.185591C38.144 0.185591 55.7718 3.74233 63.3032 16.1761C63.3032 16.1761 71.4726 28.9526 69.7895 42.6288C69.7895 42.6288 69.4935 62.2331 50.7236 63.9488C50.7236 63.9488 45.3023 64.1456 35.9819 67.8972C35.9819 67.8972 25.0494 70.1269 16.719 64.5414C16.719 64.5414 -2.17693 49.6841 0.208187 29.4024C0.208187 29.4024 7.56554 6.08322 16.719 4.13401C16.719 4.13401 28.2175 -1.03127 38.144 0.185591Z" fill="#062190"/>
<path d="M48.5005 21.1542C48.3108 20.9413 48.0781 20.7711 47.8179 20.6547C47.5576 20.5384 47.2756 20.4785 46.9905 20.4792H41.0005C41.0005 18.8879 40.3683 17.3618 39.2431 16.2365C38.1179 15.1113 36.5918 14.4792 35.0005 14.4792C33.4092 14.4792 31.883 15.1113 30.7578 16.2365C29.6326 17.3618 29.0005 18.8879 29.0005 20.4792H23.0105C22.727 20.48 22.447 20.5405 22.1885 20.6568C21.93 20.7731 21.699 20.9426 21.5105 21.1542C21.3235 21.365 21.1832 21.613 21.0987 21.8818C21.0143 22.1507 20.9876 22.4343 21.0205 22.7142L22.803 37.7142C22.8608 38.2029 23.0967 38.6532 23.4657 38.9788C23.8347 39.3044 24.3108 39.4826 24.803 39.4792H45.2092C45.7013 39.4826 46.1774 39.3044 46.5464 38.9788C46.9154 38.6532 47.1514 38.2029 47.2092 37.7142L48.9917 22.7142C49.0244 22.4342 48.9975 22.1505 48.9128 21.8817C48.8282 21.6128 48.6876 21.3649 48.5005 21.1542ZM35.0005 16.4792C36.0613 16.4792 37.0787 16.9006 37.8289 17.6508C38.579 18.4009 39.0005 19.4183 39.0005 20.4792H31.0005C31.0005 19.4183 31.4219 18.4009 32.172 17.6508C32.9222 16.9006 33.9396 16.4792 35.0005 16.4792ZM45.2205 37.4792C45.2168 37.4805 45.2128 37.4805 45.2092 37.4792H24.7817L23.0105 22.4792H29.0005V25.4792C29.0005 25.7444 29.1058 25.9988 29.2934 26.1863C29.4809 26.3738 29.7352 26.4792 30.0005 26.4792C30.2657 26.4792 30.52 26.3738 30.7076 26.1863C30.8951 25.9988 31.0005 25.7444 31.0005 25.4792V22.4792H39.0005V25.4792C39.0005 25.7444 39.1058 25.9988 39.2934 26.1863C39.4809 26.3738 39.7352 26.4792 40.0005 26.4792C40.2657 26.4792 40.52 26.3738 40.7076 26.1863C40.8951 25.9988 41.0005 25.7444 41.0005 25.4792V22.4792H47.0005L45.2205 37.4792Z" fill="white"/>
<path d="M23.2168 47.155V47.9167C23.2168 48.7419 23.2168 49.6354 22.9727 50.8854H24.2617V51.5202H20.6777V55.2897H19.9062V51.5202H16.3516V50.8854H22.1914C22.4551 49.6354 22.4551 48.7224 22.4551 47.9167V47.7897H17.3477V47.155H23.2168ZM32.4355 46.5886V55.2702H31.6934V50.6706H30.4824V54.8307H29.75V46.7741H30.4824V50.0358H31.6934V46.5886H32.4355ZM28.6367 47.6042V52.9362H25.3164V47.6042H28.6367ZM26.0391 48.2194V52.321H27.9141V48.2194H26.0391ZM40.3555 46.5886V50.1725H41.8105V50.8073H40.3555V55.2702H39.5938V46.5886H40.3555ZM38.7539 47.985V48.6198H33.5879V47.985H35.8242V46.696H36.5859V47.985H38.7539ZM36.2148 49.3425C37.4453 49.3425 38.334 50.1628 38.3438 51.3347C38.334 52.5065 37.4453 53.3268 36.2148 53.3268C34.9746 53.3268 34.0762 52.5065 34.0859 51.3347C34.0762 50.1628 34.9746 49.3425 36.2148 49.3425ZM36.2148 49.987C35.4043 49.987 34.8086 50.5534 34.8184 51.3347C34.8086 52.1257 35.4043 52.6823 36.2148 52.6725C37.0156 52.6823 37.6016 52.1257 37.6113 51.3347C37.6016 50.5534 37.0156 49.987 36.2148 49.987ZM49.457 46.5886V55.2702H48.6855V46.5886H49.457ZM46.8887 47.5358C46.8789 50.0358 45.7168 52.2429 42.8066 53.6393L42.3867 53.0143C44.7354 51.9011 45.9316 50.236 46.1074 48.1608H42.7871V47.5358H46.8887Z" fill="white"/>
</svg>
