<svg width="71" height="69" viewBox="0 0 71 69" fill="none" xmlns="http://www.w3.org/2000/svg">
<path d="M38.144 0.284605C38.144 0.284605 55.7718 3.84134 63.3032 16.2751C63.3032 16.2751 71.4726 29.0516 69.7895 42.7278C69.7895 42.7278 69.4935 62.3321 50.7236 64.0478C50.7236 64.0478 45.3023 64.2446 35.9819 67.9962C35.9819 67.9962 25.0494 70.2259 16.719 64.6404C16.719 64.6404 -2.17693 49.7831 0.208187 29.5014C0.208187 29.5014 7.56554 6.18224 16.719 4.23302C16.719 4.23302 28.2175 -0.932253 38.144 0.284605Z" fill="#062190" fill-opacity="0.75"/>
<path d="M32 36.4792C32 36.8748 31.8827 37.2614 31.6629 37.5903C31.4432 37.9192 31.1308 38.1756 30.7654 38.3269C30.3999 38.4783 29.9978 38.5179 29.6098 38.4408C29.2219 38.3636 28.8655 38.1731 28.5858 37.8934C28.3061 37.6137 28.1156 37.2573 28.0384 36.8694C27.9613 36.4814 28.0009 36.0793 28.1522 35.7138C28.3036 35.3484 28.56 35.036 28.8889 34.8162C29.2178 34.5965 29.6044 34.4792 30 34.4792C30.5304 34.4792 31.0391 34.6899 31.4142 35.065C31.7893 35.44 32 35.9488 32 36.4792ZM43 34.4792C42.6044 34.4792 42.2178 34.5965 41.8889 34.8162C41.56 35.036 41.3036 35.3484 41.1522 35.7138C41.0009 36.0793 40.9613 36.4814 41.0384 36.8694C41.1156 37.2573 41.3061 37.6137 41.5858 37.8934C41.8655 38.1731 42.2219 38.3636 42.6098 38.4408C42.9978 38.5179 43.3999 38.4783 43.7654 38.3269C44.1308 38.1756 44.4432 37.9192 44.6629 37.5903C44.8827 37.2614 45 36.8748 45 36.4792C45 35.9488 44.7893 35.44 44.4142 35.065C44.0391 34.6899 43.5304 34.4792 43 34.4792ZM48.9562 18.7729L45.39 30.3617C45.2032 30.976 44.8234 31.5138 44.3068 31.8952C43.7903 32.2766 43.1646 32.4814 42.5225 32.4792H30.5087C29.8575 32.4767 29.2245 32.2634 28.7046 31.8711C28.1848 31.4787 27.806 30.9286 27.625 30.3029L23.1025 14.4792H21C20.7348 14.4792 20.4804 14.3738 20.2929 14.1863C20.1054 13.9988 20 13.7444 20 13.4792C20 13.214 20.1054 12.9596 20.2929 12.7721C20.4804 12.5845 20.7348 12.4792 21 12.4792H23.1025C23.5368 12.4806 23.9589 12.6227 24.3057 12.8841C24.6525 13.1454 24.9053 13.5121 25.0262 13.9292L26.04 17.4792H48C48.1565 17.4791 48.3108 17.5158 48.4505 17.5862C48.5903 17.6567 48.7115 17.759 48.8045 17.8848C48.8976 18.0106 48.9597 18.1566 48.9861 18.3108C49.0124 18.4651 49.0022 18.6234 48.9562 18.7729ZM46.6462 19.4792H26.6112L29.5475 29.7542C29.6072 29.963 29.7334 30.1468 29.9068 30.2776C30.0802 30.4084 30.2915 30.4791 30.5087 30.4792H42.5225C42.7365 30.4793 42.9448 30.4107 43.117 30.2836C43.2891 30.1565 43.4159 29.9775 43.4788 29.7729L46.6462 19.4792Z" fill="white"/>
<path d="M20.291 45.239C20.291 46.3718 21.1406 47.3874 22.4199 47.8073L22.0586 48.4128C21.0576 48.0856 20.3008 47.3923 19.9297 46.5182C19.5537 47.5143 18.7529 48.2907 17.7129 48.6667L17.3223 48.0515C18.6211 47.612 19.5293 46.489 19.5391 45.239V44.8679H17.5566V44.2331H22.2441V44.8679H20.291V45.239ZM24.1387 43.5886V45.8054H25.4473V46.4499H24.1387V48.8327H23.377V43.5886H24.1387ZM21.3555 49.0671C23.1426 49.0671 24.2168 49.653 24.2168 50.6491C24.2168 51.6647 23.1426 52.2507 21.3555 52.2507C19.5684 52.2507 18.4746 51.6647 18.4746 50.6491C18.4746 49.653 19.5684 49.0671 21.3555 49.0671ZM21.3555 49.6823C20.0469 49.6823 19.2363 50.0436 19.2461 50.6491C19.2363 51.2741 20.0469 51.6354 21.3555 51.6354C22.6738 51.6354 23.4746 51.2741 23.4746 50.6491C23.4746 50.0436 22.6738 49.6823 21.3555 49.6823ZM32.7129 43.5886V47.0065H34.168V47.6706H32.7129V52.2702H31.9512V43.5886H32.7129ZM27.1172 44.3307V46.6257H29.6562V44.3307H30.418V50.1901H26.3555V44.3307H27.1172ZM27.1172 49.5456H29.6562V47.2409H27.1172V49.5456ZM41.502 44.155V44.9167C41.502 45.7419 41.502 46.6354 41.2578 47.8854H42.5469V48.5202H38.9629V52.2897H38.1914V48.5202H34.6367V47.8854H40.4766C40.7402 46.6354 40.7402 45.7224 40.7402 44.9167V44.7897H35.6328V44.155H41.502ZM50.4375 43.5886V52.2702H49.6758V43.5886H50.4375ZM44.5977 44.4479V49.3698C45.9209 49.3649 47.293 49.2575 48.748 48.9499L48.8555 49.6042C47.3125 49.9265 45.9355 50.0339 44.5488 50.0339H43.8457V44.4479H44.5977Z" fill="white"/>
</svg>
