<svg width="71" height="69" viewBox="0 0 71 69" fill="none" xmlns="http://www.w3.org/2000/svg">
<path d="M38.144 0.383604C38.144 0.383604 55.7718 3.94034 63.3032 16.3741C63.3032 16.3741 71.4726 29.1506 69.7895 42.8268C69.7895 42.8268 69.4935 62.4311 50.7236 64.1468C50.7236 64.1468 45.3023 64.3436 35.9819 68.0952C35.9819 68.0952 25.0494 70.3249 16.719 64.7394C16.719 64.7394 -2.17693 49.8821 0.208187 29.6004C0.208187 29.6004 7.56554 6.28124 16.719 4.33202C16.719 4.33202 28.2175 -0.833254 38.144 0.383604Z" fill="#062190" fill-opacity="0.5"/>
<path d="M46 11.4792H24C23.4696 11.4792 22.9609 11.6899 22.5858 12.065C22.2107 12.44 22 12.9488 22 13.4792V33.4792C22.0001 33.6496 22.0437 33.8172 22.1268 33.966C22.2099 34.1149 22.3296 34.24 22.4746 34.3295C22.6197 34.4191 22.7852 34.4701 22.9554 34.4777C23.1257 34.4853 23.2951 34.4492 23.4475 34.3729L27 32.5967L30.5525 34.3729C30.6914 34.4425 30.8446 34.4787 31 34.4787C31.1554 34.4787 31.3086 34.4425 31.4475 34.3729L35 32.5967L38.5525 34.3729C38.6914 34.4425 38.8446 34.4787 39 34.4787C39.1554 34.4787 39.3086 34.4425 39.4475 34.3729L43 32.5967L46.5525 34.3729C46.7049 34.4492 46.8743 34.4853 47.0446 34.4777C47.2148 34.4701 47.3803 34.4191 47.5254 34.3295C47.6704 34.24 47.7901 34.1149 47.8732 33.966C47.9563 33.8172 47.9999 33.6496 48 33.4792V13.4792C48 12.9488 47.7893 12.44 47.4142 12.065C47.0391 11.6899 46.5304 11.4792 46 11.4792ZM46 31.8617L43.4475 30.5842C43.3086 30.5147 43.1554 30.4785 43 30.4785C42.8446 30.4785 42.6914 30.5147 42.5525 30.5842L39 32.3617L35.4475 30.5842C35.3086 30.5147 35.1554 30.4785 35 30.4785C34.8446 30.4785 34.6914 30.5147 34.5525 30.5842L31 32.3617L27.4475 30.5842C27.3086 30.5147 27.1554 30.4785 27 30.4785C26.8446 30.4785 26.6914 30.5147 26.5525 30.5842L24 31.8617V13.4792H46V31.8617ZM36 20.4792C36 20.214 36.1054 19.9596 36.2929 19.7721C36.4804 19.5845 36.7348 19.4792 37 19.4792H43C43.2652 19.4792 43.5196 19.5845 43.7071 19.7721C43.8946 19.9596 44 20.214 44 20.4792C44 20.7444 43.8946 20.9988 43.7071 21.1863C43.5196 21.3738 43.2652 21.4792 43 21.4792H37C36.7348 21.4792 36.4804 21.3738 36.2929 21.1863C36.1054 20.9988 36 20.7444 36 20.4792ZM36 24.4792C36 24.214 36.1054 23.9596 36.2929 23.7721C36.4804 23.5845 36.7348 23.4792 37 23.4792H43C43.2652 23.4792 43.5196 23.5845 43.7071 23.7721C43.8946 23.9596 44 24.214 44 24.4792C44 24.7444 43.8946 24.9988 43.7071 25.1863C43.5196 25.3738 43.2652 25.4792 43 25.4792H37C36.7348 25.4792 36.4804 25.3738 36.2929 25.1863C36.1054 24.9988 36 24.7444 36 24.4792ZM27 27.4792H33C33.2652 27.4792 33.5196 27.3738 33.7071 27.1863C33.8946 26.9988 34 26.7444 34 26.4792V18.4792C34 18.214 33.8946 17.9596 33.7071 17.7721C33.5196 17.5845 33.2652 17.4792 33 17.4792H27C26.7348 17.4792 26.4804 17.5845 26.2929 17.7721C26.1054 17.9596 26 18.214 26 18.4792V26.4792C26 26.7444 26.1054 26.9988 26.2929 27.1863C26.4804 27.3738 26.7348 27.4792 27 27.4792ZM28 19.4792H32V25.4792H28V19.4792Z" fill="white"/>
<path d="M24.5488 42.528V43.1628H18.5723V40.0378H19.3535V42.528H24.5488ZM25.4766 44.4225V45.0573H23.416V48.2702H22.6543V45.0573H20.3984V48.2702H19.6367V45.0573H17.5664V44.4225H25.4766ZM30.5352 40.8679C30.5352 42.3522 32.2344 43.6804 33.748 43.9636L33.3965 44.6081C32.0879 44.3054 30.7061 43.3727 30.1445 42.0886C29.583 43.3679 28.2061 44.3005 26.8926 44.6081L26.541 43.9636C28.0449 43.6706 29.7344 42.362 29.7344 40.8679V40.2038H30.5352V40.8679ZM34.1582 46.4538V47.0886H26.209V46.4538H34.1582ZM38.2402 40.5554V43.5534H35.8867V45.487C36.8877 45.4821 37.835 45.4479 38.9922 45.2429L39.0508 45.8776C37.8105 46.1022 36.8242 46.1218 35.7207 46.1315H35.1445V42.9186H37.5078V41.1901H35.125V40.5554H38.2402ZM42.2734 39.5886V48.2702H41.541V39.5886H42.2734ZM40.4961 39.8034V47.8112H39.7734V43.3483H38.6602V42.7233H39.7734V39.8034H40.4961ZM50.6914 39.5886V48.2897H49.9297V43.5046H48.0938V42.8698H49.9297V39.5886H50.6914ZM47.9473 40.3893V41.0241H44.666V42.8307H47.5664V43.4557H44.666V45.5554C46.2627 45.5554 47.2783 45.5016 48.4746 45.2917L48.5625 45.9265C47.3027 46.1315 46.2383 46.1901 44.5586 46.1901H43.8945V40.3893H47.9473ZM33.0742 52.155V52.9167C33.0742 53.7419 33.0742 54.6354 32.8301 55.8854H34.1191V56.5202H30.5352V60.2897H29.7637V56.5202H26.209V55.8854H32.0488C32.3125 54.6354 32.3125 53.7224 32.3125 52.9167V52.7897H27.2051V52.155H33.0742ZM42.7617 55.9245V56.5495H34.8516V55.9245H38.4258V54.8698H35.8574V51.9401H41.7852V52.5749H36.6191V54.235H41.8633V54.8698H39.1875V55.9245H42.7617ZM41.7949 57.3991V60.3386H41.0332V58.0241H35.7305V57.3991H41.7949Z" fill="white"/>
</svg>
