<svg width="71" height="69" viewBox="0 0 71 69" fill="none" xmlns="http://www.w3.org/2000/svg">
<path d="M38.144 0.482619C38.144 0.482619 55.7718 4.03935 63.3032 16.4731C63.3032 16.4731 71.4726 29.2496 69.7895 42.9258C69.7895 42.9258 69.4935 62.5302 50.7236 64.2458C50.7236 64.2458 45.3023 64.4426 35.9819 68.1942C35.9819 68.1942 25.0494 70.4239 16.719 64.8384C16.719 64.8384 -2.17693 49.9811 0.208187 29.6995C0.208187 29.6995 7.56554 6.38025 16.719 4.43103C16.719 4.43103 28.2175 -0.73424 38.144 0.482619Z" fill="#062190" fill-opacity="0.25"/>
<path d="M47.7073 26.2925L35.7073 14.2925C35.6144 14.1995 35.5041 14.1258 35.3828 14.0754C35.2614 14.0251 35.1312 13.9992 34.9998 13.9992C34.8684 13.9992 34.7383 14.0251 34.6169 14.0754C34.4955 14.1258 34.3852 14.1995 34.2923 14.2925L22.2923 26.2925C22.1523 26.4323 22.0569 26.6106 22.0183 26.8047C21.9796 26.9988 21.9994 27.2 22.0752 27.3828C22.1509 27.5656 22.2792 27.7218 22.4438 27.8317C22.6084 27.9416 22.8019 28.0001 22.9998 28H27.9998V31C27.9998 31.2652 28.1052 31.5196 28.2927 31.7071C28.4802 31.8946 28.7346 32 28.9998 32H40.9998C41.265 32 41.5194 31.8946 41.7069 31.7071C41.8945 31.5196 41.9998 31.2652 41.9998 31V28H46.9998C47.1977 28.0001 47.3912 27.9416 47.5558 27.8317C47.7204 27.7218 47.8487 27.5656 47.9244 27.3828C48.0002 27.2 48.02 26.9988 47.9813 26.8047C47.9427 26.6106 47.8473 26.4323 47.7073 26.2925ZM40.9998 26C40.7346 26 40.4802 26.1054 40.2927 26.2929C40.1052 26.4804 39.9998 26.7348 39.9998 27V30H29.9998V27C29.9998 26.7348 29.8945 26.4804 29.7069 26.2929C29.5194 26.1054 29.265 26 28.9998 26H25.4136L34.9998 16.4137L44.5861 26H40.9998ZM41.9998 39C41.9998 39.2652 41.8945 39.5196 41.7069 39.7071C41.5194 39.8946 41.265 40 40.9998 40H28.9998C28.7346 40 28.4802 39.8946 28.2927 39.7071C28.1052 39.5196 27.9998 39.2652 27.9998 39C27.9998 38.7348 28.1052 38.4804 28.2927 38.2929C28.4802 38.1053 28.7346 38 28.9998 38H40.9998C41.265 38 41.5194 38.1053 41.7069 38.2929C41.8945 38.4804 41.9998 38.7348 41.9998 39ZM41.9998 35C41.9998 35.2652 41.8945 35.5196 41.7069 35.7071C41.5194 35.8946 41.265 36 40.9998 36H28.9998C28.7346 36 28.4802 35.8946 28.2927 35.7071C28.1052 35.5196 27.9998 35.2652 27.9998 35C27.9998 34.7348 28.1052 34.4804 28.2927 34.2929C28.4802 34.1053 28.7346 34 28.9998 34H40.9998C41.265 34 41.5194 34.1053 41.7069 34.2929C41.8945 34.4804 41.9998 34.7348 41.9998 35Z" fill="white"/>
<path d="M25.3906 47.7109V46.9297H30.7227V47.7109H28.5059V54H27.6172V47.7109H25.3906ZM37.5781 50.4648C37.5781 52.7012 36.2598 54.0976 34.4531 54.0976C32.6367 54.0976 31.3281 52.7012 31.3281 50.4648C31.3281 48.2285 32.6367 46.832 34.4531 46.832C36.2598 46.832 37.5781 48.2285 37.5781 50.4648ZM36.7285 50.4648C36.7285 48.6387 35.7324 47.6523 34.4531 47.6523C33.1738 47.6523 32.1777 48.6387 32.1777 50.4648C32.1777 52.291 33.1738 53.2773 34.4531 53.2773C35.7324 53.2773 36.7285 52.291 36.7285 50.4648ZM38.8672 54V46.9297H41.2695C42.9297 46.9297 43.6816 47.916 43.6816 49.1758C43.6816 50.4258 42.9297 51.4316 41.2793 51.4316H39.7461V54H38.8672ZM39.7461 50.6504H41.2402C42.3633 50.6504 42.8125 50.0156 42.8125 49.1758C42.8125 48.3262 42.3633 47.7109 41.2305 47.7109H39.7461V50.6504Z" fill="white"/>
</svg>
