<svg width="80" height="80" viewBox="0 0 80 80" fill="none" xmlns="http://www.w3.org/2000/svg">
<path d="M43.6213 0.357882C43.6213 0.357882 63.7665 4.52146 72.3733 19.0767C72.3733 19.0767 81.7093 34.0331 79.7859 50.0427C79.7859 50.0427 79.4476 72.9919 57.9973 75.0003C57.9973 75.0003 51.8019 75.2307 41.1505 79.6224C41.1505 79.6224 28.6568 82.2325 19.1368 75.694C19.1368 75.694 -2.45752 58.3018 0.26819 34.5597C0.26819 34.5597 8.67619 7.26176 19.1368 4.97997C19.1368 4.97997 32.2773 -1.0666 43.6213 0.357882Z" fill="#E5E9FD"/>
<path d="M30.416 36.192L28.208 36.944V24.32H30.416V36.192ZM26.128 24.96L24.592 35.376H22.368L23.728 26.64H16.656V24.96H26.128ZM46.736 30.304L44.496 30.896V28.352H42.304C41.888 30.032 40.16 30.832 37.6 30.832H37.344C34.384 30.832 32.528 29.76 32.528 27.52V27.376C32.528 25.232 34.288 24.064 37.344 24.064H37.6C40.064 24.064 41.712 24.896 42.224 26.336H44.496V24.32H46.736V30.304ZM34.768 27.36V27.536C34.768 28.608 35.952 29.088 37.376 29.088H37.568C38.896 29.088 40.16 28.608 40.16 27.536V27.36C40.16 26.288 39.088 25.808 37.568 25.808H37.376C35.952 25.808 34.768 26.288 34.768 27.36ZM46.72 36.896H34.352V31.392H36.624V32.656H44.448V31.392H46.72V36.896ZM36.624 35.216H44.448V34.224H36.624V35.216ZM48.624 27.952V26.096H51.36V23.84H53.888V26.096H56.576V27.952H53.84V30.256L56.928 33.664L55.472 35.04L52.608 32.048L49.888 35.328L48.208 34.016L51.408 30.24V27.952H48.624ZM59.776 36.176L57.616 36.928V30.832H55.728V28.768H57.616V24.32H59.776V36.176ZM63.152 36.176L60.992 36.928V24.32H63.152V36.176ZM30.736 56.192L28.528 56.944V54.704L24.816 55.584H16.576V53.904H20.848V52.768C18.688 52.416 17.568 51.088 17.568 49.344C17.568 48.512 17.936 47.76 18.656 47.232H16.704V45.456H20.784V43.6H23.392V45.456H27.376V47.232H25.456C26.16 47.76 26.528 48.496 26.528 49.344C26.528 51.104 25.36 52.464 23.152 52.784V53.904H24.688L28.528 52.928V44.32H30.736V56.192ZM24.32 49.344C24.32 48.272 23.504 47.568 22.048 47.568C20.64 47.568 19.776 48.272 19.776 49.344C19.776 50.416 20.592 51.088 22.048 51.088C23.552 51.088 24.32 50.416 24.32 49.344ZM33.2 46.688C33.2 44.976 34.624 43.968 37.92 43.968H38.432C41.68 43.968 43.136 45.024 43.136 46.688C43.136 48.4 41.632 49.296 38.432 49.296H37.92C34.72 49.296 33.2 48.4 33.2 46.688ZM46.752 53.616L44.496 54.368V53.568H41.696V52.032H44.496V50.928L40.928 51.504H39.12V53.472H36.816V51.504H32.576V49.824H40.928L44.496 49.152V44.32H46.752V53.616ZM35.44 46.688C35.44 47.28 36 47.584 38.096 47.584H38.256C40.208 47.584 40.896 47.296 40.896 46.688C40.896 46.096 40.448 45.68 38.256 45.68H38.096C36.048 45.68 35.44 46.096 35.44 46.688ZM34 56.768V52.96H36.4V55.088H46.896V56.768H34ZM55.2 53.024H52.816V50.912H48.576V49.232H55.92L56.528 46.272H49.136V44.592H58.816L57.984 49.072L60.496 48.704V44.32H62.752V53.456L60.496 54.208V53.072H57.376V51.472H60.496V50.416L56.768 50.912H55.2V53.024ZM50.16 56.768V53.024H52.56V55.088H63.056V56.768H50.16Z" fill="#062190"/>
</svg>
