<svg width="80" height="80" viewBox="0 0 80 80" fill="none" xmlns="http://www.w3.org/2000/svg">
<path d="M43.6213 0.35837C43.6213 0.35837 63.7665 4.52195 72.3733 19.0772C72.3733 19.0772 81.7093 34.0336 79.7859 50.0431C79.7859 50.0431 79.4476 72.9924 57.9973 75.0008C57.9973 75.0008 51.8019 75.2312 41.1505 79.6228C41.1505 79.6228 28.6568 82.233 19.1368 75.6945C19.1368 75.6945 -2.45752 58.3022 0.26819 34.5602C0.26819 34.5602 8.67619 7.26225 19.1368 4.98046C19.1368 4.98046 32.2773 -1.06611 43.6213 0.35837Z" fill="#D94785"/>
<path d="M22.44 28.744V30.256H20.832V34.144L19.176 34.708V25.24H20.832V28.744H22.44ZM14.652 29.896L11.808 33.352L10.548 32.404L13.716 28.468V25.516H15.54V28.42L18.732 32.284L17.568 33.256L14.652 29.896ZM33.552 31.648L31.872 32.092V28.66H29.976V27.208H31.872V25.24H33.552V31.648ZM30.252 25.36V26.656H27.684V27.748L30.708 29.884L29.832 31.072L26.784 29.008L23.724 31.276L22.716 30.04L25.812 27.796V26.656H23.16V25.36H30.252ZM24.36 34.576V31.468H26.16V33.316H33.756V34.576H24.36ZM43.308 34.132L41.688 34.696V31.708H40.32C39.936 32.716 39.156 33.244 37.812 33.244H37.656C35.544 33.244 34.824 31.864 34.824 29.512V29.116C34.824 26.8 35.544 25.384 37.656 25.384H37.812C39.06 25.384 39.828 25.9 40.236 26.788H41.688V25.24H43.308V34.132ZM45.888 34.132L44.268 34.696V25.24H45.888V34.132ZM38.976 29.416V29.212C38.976 27.508 38.652 26.728 37.776 26.728H37.68C36.804 26.728 36.48 27.472 36.48 29.212V29.416C36.48 31.12 36.804 31.876 37.68 31.876H37.776C38.688 31.876 38.976 31.12 38.976 29.416ZM40.632 29.116V29.632C40.632 29.86 40.62 30.076 40.608 30.28H41.688V28.216H40.584C40.62 28.504 40.632 28.804 40.632 29.116ZM46.896 27.928V27.82C46.896 26.176 48.192 25.048 50.448 25.048H50.64C52.86 25.048 54.18 26.224 54.18 27.82V27.928C54.18 29.644 52.824 30.7 50.64 30.7H50.448C48.264 30.7 46.896 29.644 46.896 27.928ZM58.416 28.132V29.548H56.832V30.46L55.152 30.904V25.24H56.832V26.032H58.416V27.448H56.832V28.132H58.416ZM48.576 27.808V27.94C48.576 28.744 49.26 29.392 50.472 29.392H50.616C51.756 29.392 52.5 28.744 52.5 27.94V27.808C52.5 27.004 51.9 26.356 50.616 26.356H50.472C49.26 26.356 48.576 27.004 48.576 27.808ZM56.808 34.744H55.128V32.752H47.268V31.492H56.808V34.744ZM63.9 31.768H62.112V30.184H58.932V28.924H64.44L64.896 26.704H59.352V25.444H66.612L65.988 28.804L67.872 28.528V25.24H69.564V32.092L67.872 32.656V31.804H65.532V30.604H67.872V29.812L65.076 30.184H63.9V31.768ZM60.12 34.576V31.768H61.92V33.316H69.792V34.576H60.12ZM7.22484 49.764V50.772C7.22484 53.004 8.10084 54.492 10.0928 55.548V55.62H8.10084C6.43284 54.888 5.59284 53.184 5.59284 50.784V49.752C5.59284 47.352 6.43284 45.648 8.10084 44.916H10.0928V44.988C8.10084 46.044 7.22484 47.532 7.22484 49.764ZM18.6863 46.044V47.34H16.0223V48.132L18.8783 50.124L18.1103 51.252L15.1343 49.308L12.2183 51.432L11.2943 50.316L14.2223 48.156V47.34H11.5223V46.044H14.1623V44.76H16.1063V46.044H18.6863ZM21.4703 54.144L19.8023 54.708V53.136L17.3183 53.808H10.8383V52.548H14.3063V50.712H15.9863V52.548H17.2223L19.8023 51.828V45.24H21.4703V54.144ZM28.4423 48.348L24.4823 51.456L23.4623 50.22L27.4463 47.064V45.396H29.3903V47.028L33.4223 50.088L32.5223 51.252L28.4423 48.348ZM23.0783 54.12V52.848H27.5543V50.436H29.2703V52.848H33.7343V54.12H23.0783ZM40.4215 54.12V47.316L38.0935 48.108V46.656L40.4695 45.828H42.1135V54.12H40.4215ZM43.7465 47.4V47.292C43.7465 45.864 45.0065 45.048 47.2985 45.048H47.6105C49.8665 45.048 51.1505 45.912 51.1505 47.292V47.4C51.1505 48.9 49.8305 49.644 47.6105 49.644H47.2985C45.0785 49.644 43.7465 48.9 43.7465 47.4ZM54.1625 49.284L52.4825 49.716V45.24H54.1625V49.284ZM45.4265 47.316V47.376C45.4265 47.964 46.0745 48.348 47.3225 48.348H47.5865C48.7625 48.348 49.4705 47.964 49.4705 47.376V47.316C49.4705 46.728 48.9065 46.344 47.5865 46.344H47.3225C46.0745 46.344 45.4265 46.728 45.4265 47.316ZM44.9705 51.852H52.4705V51.336H44.9705V50.16H54.1505V52.956H46.6505V53.484H54.5465V54.66H44.9705V51.852ZM69.6458 51.648L67.9658 52.092V48.66H66.0698V47.208H67.9658V45.24H69.6458V51.648ZM66.3458 45.36V46.656H63.7778V47.748L66.8018 49.884L65.9258 51.072L62.8778 49.008L59.8178 51.276L58.8098 50.04L61.9058 47.796V46.656H59.2538V45.36H66.3458ZM60.4538 54.576V51.468H62.2538V53.316H69.8498V54.576H60.4538ZM73.7738 50.772V49.764C73.7738 47.532 72.8978 46.044 70.9058 44.988V44.916H72.8978C74.5658 45.648 75.4058 47.352 75.4058 49.752V50.784C75.4058 53.184 74.5658 54.888 72.8978 55.62H70.9058V55.548C72.8978 54.492 73.7738 53.004 73.7738 50.772Z" fill="white"/>
</svg>
