<svg width="80" height="80" viewBox="0 0 80 80" fill="none" xmlns="http://www.w3.org/2000/svg">
<path d="M43.6213 0.35837C43.6213 0.35837 63.7665 4.52195 72.3733 19.0772C72.3733 19.0772 81.7093 34.0336 79.7859 50.0431C79.7859 50.0431 79.4476 72.9924 57.9973 75.0008C57.9973 75.0008 51.8019 75.2312 41.1505 79.6228C41.1505 79.6228 28.6568 82.233 19.1368 75.6945C19.1368 75.6945 -2.45752 58.3022 0.26819 34.5602C0.26819 34.5602 8.67619 7.26225 19.1368 4.98046C19.1368 4.98046 32.2773 -1.06611 43.6213 0.35837Z" fill="#FF8D3D"/>
<path d="M37.776 30.96L35.536 31.552V30.064L28.896 31.056H25.072V24.48H33.152V26.16H27.344V29.28H28.912L35.536 28.352V24.32H37.776V26.672H39.92V28.688H37.776V30.96ZM25.376 34.544V34.416C25.376 32.656 26.88 31.776 31.472 31.776H31.984C36.528 31.776 38.064 32.72 38.064 34.416V34.544C38.064 36.304 36.48 37.184 31.984 37.184H31.472C26.976 37.184 25.376 36.304 25.376 34.544ZM27.696 34.48C27.696 35.168 28.96 35.392 31.488 35.392H31.968C34.352 35.392 35.744 35.184 35.744 34.48C35.744 33.792 34.592 33.568 31.968 33.568H31.488C29.008 33.568 27.696 33.792 27.696 34.48ZM40.688 27.2V27.056C40.688 25.152 42.368 24.064 45.424 24.064H45.84C48.848 24.064 50.56 25.216 50.56 27.056V27.2C50.56 29.2 48.8 30.192 45.84 30.192H45.424C42.464 30.192 40.688 29.2 40.688 27.2ZM54.576 29.712L52.336 30.288V24.32H54.576V29.712ZM42.928 27.088V27.168C42.928 27.952 43.792 28.464 45.456 28.464H45.808C47.376 28.464 48.32 27.952 48.32 27.168V27.088C48.32 26.304 47.568 25.792 45.808 25.792H45.456C43.792 25.792 42.928 26.304 42.928 27.088ZM42.32 33.136H52.32V32.448H42.32V30.88H54.56V34.608H44.56V35.312H55.088V36.88H42.32V33.136ZM16.688 47.44V47.392C16.688 45.248 18.512 44.064 21.424 44.064H21.84C24.704 44.064 26.56 45.312 26.56 47.392V47.44C26.56 49.68 24.656 50.768 21.84 50.768H21.424C18.608 50.768 16.688 49.68 16.688 47.44ZM30.576 50.192L28.336 50.784V44.32H30.576V50.192ZM18.928 47.376V47.456C18.928 48.576 20.032 49.024 21.456 49.024H21.808C23.136 49.024 24.32 48.576 24.32 47.456V47.376C24.32 46.256 23.328 45.808 21.808 45.808H21.456C20.032 45.808 18.928 46.256 18.928 47.376ZM30.544 56.896H18.288V51.392H20.56V52.592H28.272V51.392H30.544V56.896ZM20.56 55.216H28.272V54.16H20.56V55.216ZM47.92 46.704V48.72H45.776V50.896L43.536 51.488V44.32H45.776V46.704H47.92ZM42.128 44.48V46.208H38.672V47.072L42.512 49.792L41.344 51.264L37.472 48.624L33.504 51.536L32.16 50.096L36.176 47.136V46.208H32.72V44.48H42.128ZM33.376 54.528V54.4C33.376 52.784 34.88 51.744 39.472 51.744H39.984C44.528 51.744 46.064 52.8 46.064 54.4V54.528C46.064 56.192 44.48 57.184 39.984 57.184H39.472C34.976 57.184 33.376 56.192 33.376 54.528ZM35.696 54.464C35.696 55.248 36.96 55.392 39.488 55.392H39.968C42.352 55.392 43.744 55.264 43.744 54.464C43.744 53.68 42.592 53.536 39.968 53.536H39.488C37.008 53.536 35.696 53.68 35.696 54.464ZM55.2 53.024H52.816V50.912H48.576V49.232H55.92L56.528 46.272H49.136V44.592H58.816L57.984 49.072L60.496 48.704V44.32H62.752V53.456L60.496 54.208V53.072H57.376V51.472H60.496V50.416L56.768 50.912H55.2V53.024ZM50.16 56.768V53.024H52.56V55.088H63.056V56.768H50.16Z" fill="white"/>
</svg>
