<svg width="80" height="80" viewBox="0 0 80 80" fill="none" xmlns="http://www.w3.org/2000/svg">
<path d="M43.6213 0.357882C43.6213 0.357882 63.7665 4.52146 72.3733 19.0767C72.3733 19.0767 81.7093 34.0331 79.7859 50.0427C79.7859 50.0427 79.4476 72.9919 57.9973 75.0003C57.9973 75.0003 51.8019 75.2307 41.1505 79.6224C41.1505 79.6224 28.6568 82.2325 19.1368 75.694C19.1368 75.694 -2.45752 58.3018 0.26819 34.5597C0.26819 34.5597 8.67619 7.26176 19.1368 4.97997C19.1368 4.97997 32.2773 -1.0666 43.6213 0.357882Z" fill="#BFD0CD"/>
<path d="M24.528 28V27.856C24.528 25.52 26.4 24.064 29.264 24.064H29.52C32.336 24.064 34.24 25.584 34.24 27.856V28C34.24 30.432 32.288 31.792 29.52 31.792H29.264C26.496 31.792 24.528 30.432 24.528 28ZM38.736 32.864L36.496 33.456V30.784H34.592V28.896H36.496V27.184H34.592V25.296H36.496V24.32H38.736V32.864ZM26.768 27.84V28.016C26.768 29.232 27.776 30.048 29.296 30.048H29.488C30.912 30.048 32 29.232 32 28.016V27.84C32 26.624 31.104 25.808 29.488 25.808H29.296C27.776 25.808 26.768 26.624 26.768 27.84ZM26.64 36.768V32.688H29.04V35.088H39.168V36.768H26.64ZM55.92 27.408V29.424H53.776V32.704L51.536 33.296V24.32H53.776V27.408H55.92ZM50.032 24.48L48.608 32.016H46.336L47.392 26.16H40.656V24.48H50.032ZM41.776 36.768V31.888H44.176V35.088H54.304V36.768H41.776ZM30.736 56.192L28.528 56.944V54.704L24.816 55.584H16.576V53.904H20.848V52.768C18.688 52.416 17.568 51.088 17.568 49.344C17.568 48.512 17.936 47.76 18.656 47.232H16.704V45.456H20.784V43.6H23.392V45.456H27.376V47.232H25.456C26.16 47.76 26.528 48.496 26.528 49.344C26.528 51.104 25.36 52.464 23.152 52.784V53.904H24.688L28.528 52.928V44.32H30.736V56.192ZM24.32 49.344C24.32 48.272 23.504 47.568 22.048 47.568C20.64 47.568 19.776 48.272 19.776 49.344C19.776 50.416 20.592 51.088 22.048 51.088C23.552 51.088 24.32 50.416 24.32 49.344ZM33.2 46.688C33.2 44.976 34.624 43.968 37.92 43.968H38.432C41.68 43.968 43.136 45.024 43.136 46.688C43.136 48.4 41.632 49.296 38.432 49.296H37.92C34.72 49.296 33.2 48.4 33.2 46.688ZM46.752 53.616L44.496 54.368V53.568H41.696V52.032H44.496V50.928L40.928 51.504H39.12V53.472H36.816V51.504H32.576V49.824H40.928L44.496 49.152V44.32H46.752V53.616ZM35.44 46.688C35.44 47.28 36 47.584 38.096 47.584H38.256C40.208 47.584 40.896 47.296 40.896 46.688C40.896 46.096 40.448 45.68 38.256 45.68H38.096C36.048 45.68 35.44 46.096 35.44 46.688ZM34 56.768V52.96H36.4V55.088H46.896V56.768H34ZM55.2 53.024H52.816V50.912H48.576V49.232H55.92L56.528 46.272H49.136V44.592H58.816L57.984 49.072L60.496 48.704V44.32H62.752V53.456L60.496 54.208V53.072H57.376V51.472H60.496V50.416L56.768 50.912H55.2V53.024ZM50.16 56.768V53.024H52.56V55.088H63.056V56.768H50.16Z" fill="#1E3D00"/>
</svg>
