<svg width="60" height="60" viewBox="0 0 60 60" fill="none" xmlns="http://www.w3.org/2000/svg">
<path d="M56.25 28.125C56.2469 25.1423 55.0606 22.2826 52.9515 20.1735C50.8424 18.0643 47.9827 16.8781 45 16.875H35.6719C34.9898 16.8351 23.1047 15.9984 11.7867 6.50624C11.2402 6.04722 10.574 5.75371 9.86641 5.66018C9.15883 5.56665 8.43926 5.67699 7.79222 5.97823C7.14518 6.27948 6.59755 6.75912 6.21365 7.36081C5.82976 7.96251 5.62554 8.66126 5.625 9.37499V46.875C5.6251 47.5889 5.82899 48.288 6.21271 48.89C6.59643 49.4921 7.14404 49.9721 7.79116 50.2736C8.43829 50.5751 9.15804 50.6857 9.86583 50.5922C10.5736 50.4988 11.24 50.2052 11.7867 49.7461C20.6391 42.3211 29.8336 40.193 33.75 39.5976V47.032C33.7492 47.65 33.9011 48.2585 34.1923 48.8036C34.4834 49.3486 34.9047 49.8133 35.4187 50.1562L37.9969 51.8742C38.4952 52.2068 39.0659 52.4152 39.6613 52.4818C40.2567 52.5485 40.8594 52.4716 41.419 52.2574C41.9785 52.0433 42.4786 51.6982 42.8774 51.2511C43.2762 50.804 43.562 50.2678 43.7109 49.6875L46.4695 39.2906C49.1759 38.9305 51.6595 37.5999 53.4585 35.5461C55.2574 33.4924 56.2494 30.8552 56.25 28.125ZM9.375 46.8586V9.37499C19.4086 17.7914 29.6789 19.9219 33.75 20.4469V35.7937C29.6836 36.3281 19.4156 38.4539 9.375 46.8586ZM40.0781 48.7336V48.7594L37.5 47.0414V39.375H42.5625L40.0781 48.7336ZM45 35.625H37.5V20.625H45C46.9891 20.625 48.8968 21.4152 50.3033 22.8217C51.7098 24.2282 52.5 26.1359 52.5 28.125C52.5 30.1141 51.7098 32.0218 50.3033 33.4283C48.8968 34.8348 46.9891 35.625 45 35.625Z" fill="white"/>
</svg>
