<svg width="55" height="55" viewBox="0 0 55 55" fill="none" xmlns="http://www.w3.org/2000/svg">
<path d="M25.7812 3.4375V1.71875C25.7812 1.26291 25.9623 0.825738 26.2847 0.50341C26.607 0.181082 27.0442 0 27.5 0C27.9558 0 28.393 0.181082 28.7153 0.50341C29.0377 0.825738 29.2188 1.26291 29.2188 1.71875V3.4375C29.2188 3.89334 29.0377 4.33051 28.7153 4.65284C28.393 4.97517 27.9558 5.15625 27.5 5.15625C27.0442 5.15625 26.607 4.97517 26.2847 4.65284C25.9623 4.33051 25.7812 3.89334 25.7812 3.4375ZM42.9688 10.3125C43.1945 10.3127 43.4181 10.2684 43.6268 10.1821C43.8354 10.0958 44.025 9.96933 44.1848 9.80977L45.9035 8.09102C46.226 7.76851 46.4072 7.33109 46.4072 6.875C46.4072 6.41891 46.226 5.98149 45.9035 5.65898C45.581 5.33648 45.1436 5.15529 44.6875 5.15529C44.2314 5.15529 43.794 5.33648 43.4715 5.65898L41.7527 7.37773C41.5121 7.61811 41.3482 7.92448 41.2817 8.25807C41.2153 8.59165 41.2494 8.93744 41.3796 9.25167C41.5098 9.5659 41.7303 9.83443 42.0132 10.0233C42.2961 10.2121 42.6286 10.3128 42.9688 10.3125ZM10.8152 9.80977C10.9749 9.96945 11.1645 10.0961 11.3731 10.1826C11.5818 10.269 11.8054 10.3135 12.0312 10.3135C12.2571 10.3135 12.4807 10.269 12.6894 10.1826C12.898 10.0961 13.0876 9.96945 13.2473 9.80977C13.407 9.65008 13.5336 9.4605 13.6201 9.25185C13.7065 9.04321 13.751 8.81958 13.751 8.59375C13.751 8.36792 13.7065 8.14429 13.6201 7.93565C13.5336 7.727 13.407 7.53742 13.2473 7.37773L11.5285 5.65898C11.206 5.33648 10.7686 5.15529 10.3125 5.15529C9.85641 5.15529 9.41899 5.33648 9.09648 5.65898C8.77398 5.98149 8.59279 6.41891 8.59279 6.875C8.59279 7.33109 8.77398 7.76851 9.09648 8.09102L10.8152 9.80977ZM29.5066 15.4924C29.2831 15.4528 29.0539 15.458 28.8323 15.5075C28.6107 15.5571 28.4011 15.65 28.2157 15.781C28.0302 15.912 27.8726 16.0785 27.7518 16.2708C27.6311 16.463 27.5496 16.6773 27.5121 16.9013C27.4747 17.1252 27.482 17.3543 27.5336 17.5755C27.5851 17.7966 27.68 18.0053 27.8128 18.1895C27.9455 18.3737 28.1134 18.5298 28.3067 18.6488C28.5001 18.7678 28.7152 18.8472 28.9395 18.8826C33.015 19.568 36.0938 23.2719 36.0938 27.5C36.0938 27.9558 36.2748 28.393 36.5972 28.7153C36.9195 29.0377 37.3567 29.2188 37.8125 29.2188C38.2683 29.2188 38.7055 29.0377 39.0278 28.7153C39.3502 28.393 39.5312 27.9558 39.5312 27.5C39.5312 21.6133 35.2193 16.4506 29.5023 15.4924H29.5066ZM49.8438 37.8125V42.9688C49.8438 43.8804 49.4816 44.7548 48.8369 45.3994C48.1923 46.0441 47.3179 46.4062 46.4062 46.4062H8.59375C7.68207 46.4062 6.80773 46.0441 6.16307 45.3994C5.51841 44.7548 5.15625 43.8804 5.15625 42.9688V37.8125C5.15625 36.9008 5.51841 36.0265 6.16307 35.3818C6.80773 34.7372 7.68207 34.375 8.59375 34.375V27.5C8.59368 25.005 9.08743 22.5347 10.0465 20.2315C11.0057 17.9282 12.4112 15.8376 14.1821 14.0801C15.9529 12.3226 18.0542 10.933 20.3646 9.99138C22.6751 9.04976 25.1491 8.57475 27.6439 8.59375C37.9887 8.67109 46.4062 17.2498 46.4062 27.7148V34.375C47.3179 34.375 48.1923 34.7372 48.8369 35.3818C49.4816 36.0265 49.8438 36.9008 49.8438 37.8125ZM12.0312 34.375H42.9688V27.7148C42.9688 19.1211 36.083 12.0936 27.6182 12.0312H27.5C23.3974 12.0312 19.4629 13.661 16.5619 16.5619C13.661 19.4629 12.0312 23.3974 12.0312 27.5V34.375ZM46.4062 42.9688V37.8125H8.59375V42.9688H46.4062Z" fill="white"/>
</svg>
