<svg width="80" height="81" viewBox="0 0 80 81" fill="none" xmlns="http://www.w3.org/2000/svg">
<g clip-path="url(#clip0_63_296)">
<path d="M43.6213 0.668032C43.6213 0.668032 63.7665 4.83161 72.3733 19.3868C72.3733 19.3868 81.7093 34.3433 79.7859 50.3528C79.7859 50.3528 79.4476 73.3021 57.9973 75.3104C57.9973 75.3104 51.8019 75.5409 41.1505 79.9325C41.1505 79.9325 28.6568 82.5427 19.1368 76.0042C19.1368 76.0042 -2.45752 58.6119 0.26819 34.8698C0.26819 34.8698 8.67619 7.57191 19.1368 5.29012C19.1368 5.29012 32.2773 -0.756446 43.6213 0.668032Z" fill="#FF8D3D"/>
<path d="M35.28 16.3538V17.6498H32.616V18.4418L35.472 20.4338L34.704 21.5618L31.728 19.6178L28.812 21.7418L27.888 20.6258L30.816 18.4658V17.6498H28.116V16.3538H30.756V15.0698H32.7V16.3538H35.28ZM38.064 24.4538L36.396 25.0178V23.4458L33.912 24.1178H27.432V22.8578H30.9V21.0218H32.58V22.8578H33.816L36.396 22.1378V15.5498H38.064V24.4538ZM50.34 24.4418L48.72 25.0058V20.3018H47.424V24.4418L45.804 25.0058V22.5818L42.288 23.5418H39.84V15.9938H44.52V17.2538H41.496V22.1738H42.312L45.804 21.2498V15.5498H47.424V18.8978H48.72V15.5498H50.34V24.4418ZM18.6516 42.0298H28.6916L27.8916 44.3098H15.5716C15.5716 41.0498 16.5316 39.4098 19.5516 38.1298L23.7116 36.3898C25.1116 35.8098 25.3516 35.0098 25.3516 34.2698C25.3516 33.1698 24.4316 32.7298 22.1916 32.7898C20.1116 32.8498 18.1316 33.0098 15.9716 33.3698L16.4716 31.0698C18.5116 30.7698 20.1116 30.6298 22.1916 30.5898C26.4716 30.5098 28.1316 31.8898 28.1316 34.3498C28.1316 36.3498 27.2916 37.4498 24.7716 38.5098L20.9116 40.1298C19.2716 40.8698 18.7516 41.2898 18.6516 42.0298ZM36.2939 44.4098H33.2339L39.4539 32.9698H30.0539V30.6898H43.4539V31.2298L36.2939 44.4098ZM52.6708 33.6498V34.0698C52.6708 36.0298 51.2908 37.2298 48.8908 37.2298H48.1308C45.7508 37.2298 44.3508 36.0298 44.3508 34.0698V33.6498C44.3508 31.6898 45.7508 30.4898 48.1308 30.4898H48.8908C51.2908 30.4898 52.6708 31.6898 52.6708 33.6498ZM49.2508 44.3098H46.3508L57.9508 30.5098H60.8508L49.2508 44.3098ZM48.1508 35.1898H48.8908C49.9108 35.1898 50.3708 34.7298 50.3708 34.0298V33.6898C50.3708 32.9898 49.9108 32.5298 48.8908 32.5298H48.1508C47.1308 32.5298 46.6708 32.9898 46.6708 33.6898V34.0298C46.6708 34.7298 47.1308 35.1898 48.1508 35.1898ZM62.8708 40.7298V41.1498C62.8708 43.1098 61.4908 44.3098 59.0908 44.3098H58.3308C55.9508 44.3098 54.5508 43.1098 54.5508 41.1498V40.7298C54.5508 38.7698 55.9508 37.5698 58.3308 37.5698H59.0908C61.4908 37.5698 62.8708 38.7698 62.8708 40.7298ZM58.3508 42.2698H59.0908C60.1108 42.2698 60.5708 41.8098 60.5708 41.1098V40.7698C60.5708 40.0698 60.1108 39.6098 59.0908 39.6098H58.3508C57.3308 39.6098 56.8708 40.0698 56.8708 40.7698V41.1098C56.8708 41.8098 57.3308 42.2698 58.3508 42.2698ZM34.956 56.0778V57.2658H33.696C34.26 57.5178 34.512 57.8778 34.512 58.3098V58.3818C34.512 59.6298 33.384 60.3858 31.128 60.3858C28.8 60.3858 27.744 59.5938 27.744 58.3818V58.3098C27.744 57.8658 27.984 57.5058 28.512 57.2658H27.288V56.0778H30.144V55.0698H32.088V56.0778H34.956ZM38.94 57.0018V58.5138H37.332V60.0258L35.652 60.4698V55.5498H37.332V57.0018H38.94ZM29.424 58.3458C29.424 58.8618 29.976 59.1738 31.128 59.1738C32.28 59.1738 32.832 58.8738 32.832 58.3458C32.832 57.7938 32.268 57.5178 31.128 57.5178C29.988 57.5178 29.424 57.7938 29.424 58.3458ZM28.14 62.3058H35.64V61.9338H28.14V60.7818H37.32V63.4098H29.82V63.8178H37.716V64.9698H28.14V62.3058ZM39.504 58.3098V58.2018C39.504 56.4498 40.836 55.3578 43.056 55.3578H43.368C45.552 55.3578 46.908 56.4978 46.908 58.2018V58.3098C46.908 60.1338 45.516 61.1538 43.368 61.1538H43.056C40.908 61.1538 39.504 60.1338 39.504 58.3098ZM49.932 61.9578L48.252 62.4018V55.5498H49.932V61.9578ZM41.184 58.1898V58.3218C41.184 59.2698 41.94 59.8458 43.08 59.8458H43.344C44.412 59.8458 45.228 59.2698 45.228 58.3218V58.1898C45.228 57.2418 44.556 56.6658 43.344 56.6658H43.08C41.94 56.6658 41.184 57.2418 41.184 58.1898ZM40.74 64.8978V61.7778H42.54V63.6258H50.136V64.8858L40.74 64.8978Z" fill="white"/>
</g>
<defs>
<clipPath id="clip0_63_296">
<rect width="80" height="80" fill="white" transform="translate(0 0.309814)"/>
</clipPath>
</defs>
</svg>
