<svg width="80" height="81" viewBox="0 0 80 81" fill="none" xmlns="http://www.w3.org/2000/svg">
<g clip-path="url(#clip0_63_303)">
<path d="M43.6213 0.668032C43.6213 0.668032 63.7665 4.83161 72.3733 19.3868C72.3733 19.3868 81.7093 34.3433 79.7859 50.3528C79.7859 50.3528 79.4476 73.3021 57.9973 75.3104C57.9973 75.3104 51.8019 75.5409 41.1505 79.9325C41.1505 79.9325 28.6568 82.5427 19.1368 76.0042C19.1368 76.0042 -2.45752 58.6119 0.26819 34.8698C0.26819 34.8698 8.67619 7.57191 19.1368 5.29012C19.1368 5.29012 32.2773 -0.756446 43.6213 0.668032Z" fill="#D94785"/>
<path d="M36.28 16.3538V17.6498H33.616V18.4418L36.472 20.4338L35.704 21.5618L32.728 19.6178L29.812 21.7418L28.888 20.6258L31.816 18.4658V17.6498H29.116V16.3538H31.756V15.0698H33.7V16.3538H36.28ZM39.064 24.4538L37.396 25.0178V23.4458L34.912 24.1178H28.432V22.8578H31.9V21.0218H33.58V22.8578H34.816L37.396 22.1378V15.5498H39.064V24.4538ZM51.34 24.4418L49.72 25.0058V20.3018H48.424V24.4418L46.804 25.0058V22.5818L43.288 23.5418H40.84V15.9938H45.52V17.2538H42.496V22.1738H43.312L46.804 21.2498V15.5498H48.424V18.8978H49.72V15.5498H51.34V24.4418ZM28.0288 32.9498H19.4688V36.1698C20.4688 35.9698 21.2288 35.8698 22.2888 35.8698H22.9688C27.2488 35.8698 29.0688 37.3898 29.0688 39.7298V40.7298C29.0688 43.0698 27.2488 44.6098 22.9688 44.6098C20.8688 44.6098 18.3288 44.2898 16.1688 43.5898V41.1698C18.4888 41.9698 21.0888 42.3498 22.9288 42.3298C25.1688 42.3098 26.3288 41.7098 26.3288 40.5298V39.8898C26.3288 38.7098 25.1288 38.1098 22.8888 38.1098H22.0288C20.2088 38.1098 18.6088 38.3098 16.7488 38.8498V30.6898H28.8088L28.0288 32.9498ZM42.9312 32.9498H34.3712V36.1698C35.3712 35.9698 36.1312 35.8698 37.1912 35.8698H37.8712C42.1512 35.8698 43.9712 37.3898 43.9712 39.7298V40.7298C43.9712 43.0698 42.1512 44.6098 37.8712 44.6098C35.7712 44.6098 33.2312 44.2898 31.0712 43.5898V41.1698C33.3912 41.9698 35.9912 42.3498 37.8312 42.3298C40.0712 42.3098 41.2312 41.7098 41.2312 40.5298V39.8898C41.2312 38.7098 40.0312 38.1098 37.7912 38.1098H36.9312C35.1112 38.1098 33.5112 38.3098 31.6512 38.8498V30.6898H43.7112L42.9312 32.9498ZM53.9735 33.6498V34.0698C53.9735 36.0298 52.5935 37.2298 50.1935 37.2298H49.4335C47.0535 37.2298 45.6535 36.0298 45.6535 34.0698V33.6498C45.6535 31.6898 47.0535 30.4898 49.4335 30.4898H50.1935C52.5935 30.4898 53.9735 31.6898 53.9735 33.6498ZM50.5535 44.3098H47.6535L59.2535 30.5098H62.1535L50.5535 44.3098ZM49.4535 35.1898H50.1935C51.2135 35.1898 51.6735 34.7298 51.6735 34.0298V33.6898C51.6735 32.9898 51.2135 32.5298 50.1935 32.5298H49.4535C48.4335 32.5298 47.9735 32.9898 47.9735 33.6898V34.0298C47.9735 34.7298 48.4335 35.1898 49.4535 35.1898ZM64.1735 40.7298V41.1498C64.1735 43.1098 62.7935 44.3098 60.3935 44.3098H59.6335C57.2535 44.3098 55.8535 43.1098 55.8535 41.1498V40.7298C55.8535 38.7698 57.2535 37.5698 59.6335 37.5698H60.3935C62.7935 37.5698 64.1735 38.7698 64.1735 40.7298ZM59.6535 42.2698H60.3935C61.4135 42.2698 61.8735 41.8098 61.8735 41.1098V40.7698C61.8735 40.0698 61.4135 39.6098 60.3935 39.6098H59.6535C58.6335 39.6098 58.1735 40.0698 58.1735 40.7698V41.1098C58.1735 41.8098 58.6335 42.2698 59.6535 42.2698ZM35.956 56.0778V57.2658H34.696C35.26 57.5178 35.512 57.8778 35.512 58.3098V58.3818C35.512 59.6298 34.384 60.3858 32.128 60.3858C29.8 60.3858 28.744 59.5938 28.744 58.3818V58.3098C28.744 57.8658 28.984 57.5058 29.512 57.2658H28.288V56.0778H31.144V55.0698H33.088V56.0778H35.956ZM39.94 57.0018V58.5138H38.332V60.0258L36.652 60.4698V55.5498H38.332V57.0018H39.94ZM30.424 58.3458C30.424 58.8618 30.976 59.1738 32.128 59.1738C33.28 59.1738 33.832 58.8738 33.832 58.3458C33.832 57.7938 33.268 57.5178 32.128 57.5178C30.988 57.5178 30.424 57.7938 30.424 58.3458ZM29.14 62.3058H36.64V61.9338H29.14V60.7818H38.32V63.4098H30.82V63.8178H38.716V64.9698H29.14V62.3058ZM40.504 58.3098V58.2018C40.504 56.4498 41.836 55.3578 44.056 55.3578H44.368C46.552 55.3578 47.908 56.4978 47.908 58.2018V58.3098C47.908 60.1338 46.516 61.1538 44.368 61.1538H44.056C41.908 61.1538 40.504 60.1338 40.504 58.3098ZM50.932 61.9578L49.252 62.4018V55.5498H50.932V61.9578ZM42.184 58.1898V58.3218C42.184 59.2698 42.94 59.8458 44.08 59.8458H44.344C45.412 59.8458 46.228 59.2698 46.228 58.3218V58.1898C46.228 57.2418 45.556 56.6658 44.344 56.6658H44.08C42.94 56.6658 42.184 57.2418 42.184 58.1898ZM41.74 64.8978V61.7778H43.54V63.6258H51.136V64.8858L41.74 64.8978Z" fill="white"/>
</g>
<defs>
<clipPath id="clip0_63_303">
<rect width="80" height="80" fill="white" transform="translate(0 0.309814)"/>
</clipPath>
</defs>
</svg>
