<svg width="80" height="81" viewBox="0 0 80 81" fill="none" xmlns="http://www.w3.org/2000/svg">
<g clip-path="url(#clip0_63_310)">
<path d="M43.6213 0.668032C43.6213 0.668032 63.7665 4.83161 72.3733 19.3868C72.3733 19.3868 81.7093 34.3433 79.7859 50.3528C79.7859 50.3528 79.4476 73.3021 57.9973 75.3104C57.9973 75.3104 51.8019 75.5409 41.1505 79.9325C41.1505 79.9325 28.6568 82.5427 19.1368 76.0042C19.1368 76.0042 -2.45752 58.6119 0.26819 34.8698C0.26819 34.8698 8.67619 7.57191 19.1368 5.29012C19.1368 5.29012 32.2773 -0.756446 43.6213 0.668032Z" fill="#FF8D3D"/>
<path d="M36.78 16.3538V17.6498H34.116V18.4418L36.972 20.4338L36.204 21.5618L33.228 19.6178L30.312 21.7418L29.388 20.6258L32.316 18.4658V17.6498H29.616V16.3538H32.256V15.0698H34.2V16.3538H36.78ZM39.564 24.4538L37.896 25.0178V23.4458L35.412 24.1178H28.932V22.8578H32.4V21.0218H34.08V22.8578H35.316L37.896 22.1378V15.5498H39.564V24.4538ZM51.84 24.4418L50.22 25.0058V20.3018H48.924V24.4418L47.304 25.0058V22.5818L43.788 23.5418H41.34V15.9938H46.02V17.2538H42.996V22.1738H43.812L47.304 21.2498V15.5498H48.924V18.8978H50.22V15.5498H51.84V24.4418ZM28.9086 41.2698H26.5486V44.4098H23.8086V41.2698H14.7486V40.0698L22.9686 30.6898H26.2486L18.9686 39.0098H23.8086V35.4098L26.5486 33.5698V39.0098H29.6886L28.9086 41.2698ZM38.9016 44.4098H37.2816C33.0016 44.4098 31.0016 43.0098 31.0016 40.6698V40.1498C31.0016 38.9698 31.8816 37.5498 33.7016 37.1698V37.1298C32.1216 36.7898 31.4816 35.5298 31.4816 34.5098V34.1098C31.4816 31.7698 33.2216 30.4698 37.4816 30.4698H38.6816C42.9616 30.4698 44.6816 31.7698 44.6816 34.1098V34.5098C44.6816 35.5298 44.0616 36.7898 42.4616 37.1298V37.1698C44.2816 37.5498 45.1816 38.9698 45.1816 40.1498V40.6698C45.1816 43.0098 43.1816 44.4098 38.9016 44.4098ZM37.5216 36.0898H38.6416C41.2816 36.0898 41.9416 35.3098 41.9416 34.4298V34.2698C41.9416 33.3698 41.2816 32.6298 38.6416 32.6298H37.5216C34.9016 32.6298 34.2416 33.3698 34.2416 34.2698V34.4298C34.2416 35.3098 34.9016 36.0898 37.5216 36.0898ZM37.2416 42.2098H38.9416C41.5616 42.2098 42.4216 41.2698 42.4216 40.3898V40.1098C42.4216 39.2298 41.5616 38.4698 38.9416 38.4698H37.2416C34.6016 38.4698 33.7416 39.2298 33.7416 40.1098V40.3898C33.7416 41.2698 34.6016 42.2098 37.2416 42.2098ZM55.7138 33.6498V34.0698C55.7138 36.0298 54.3338 37.2298 51.9338 37.2298H51.1738C48.7938 37.2298 47.3938 36.0298 47.3938 34.0698V33.6498C47.3938 31.6898 48.7938 30.4898 51.1738 30.4898H51.9338C54.3338 30.4898 55.7138 31.6898 55.7138 33.6498ZM52.2938 44.3098H49.3938L60.9938 30.5098H63.8938L52.2938 44.3098ZM51.1938 35.1898H51.9338C52.9538 35.1898 53.4138 34.7298 53.4138 34.0298V33.6898C53.4138 32.9898 52.9538 32.5298 51.9338 32.5298H51.1938C50.1738 32.5298 49.7138 32.9898 49.7138 33.6898V34.0298C49.7138 34.7298 50.1738 35.1898 51.1938 35.1898ZM65.9138 40.7298V41.1498C65.9138 43.1098 64.5338 44.3098 62.1338 44.3098H61.3738C58.9938 44.3098 57.5938 43.1098 57.5938 41.1498V40.7298C57.5938 38.7698 58.9938 37.5698 61.3738 37.5698H62.1338C64.5338 37.5698 65.9138 38.7698 65.9138 40.7298ZM61.3938 42.2698H62.1338C63.1538 42.2698 63.6138 41.8098 63.6138 41.1098V40.7698C63.6138 40.0698 63.1538 39.6098 62.1338 39.6098H61.3938C60.3738 39.6098 59.9138 40.0698 59.9138 40.7698V41.1098C59.9138 41.8098 60.3738 42.2698 61.3938 42.2698ZM36.456 56.0778V57.2658H35.196C35.76 57.5178 36.012 57.8778 36.012 58.3098V58.3818C36.012 59.6298 34.884 60.3858 32.628 60.3858C30.3 60.3858 29.244 59.5938 29.244 58.3818V58.3098C29.244 57.8658 29.484 57.5058 30.012 57.2658H28.788V56.0778H31.644V55.0698H33.588V56.0778H36.456ZM40.44 57.0018V58.5138H38.832V60.0258L37.152 60.4698V55.5498H38.832V57.0018H40.44ZM30.924 58.3458C30.924 58.8618 31.476 59.1738 32.628 59.1738C33.78 59.1738 34.332 58.8738 34.332 58.3458C34.332 57.7938 33.768 57.5178 32.628 57.5178C31.488 57.5178 30.924 57.7938 30.924 58.3458ZM29.64 62.3058H37.14V61.9338H29.64V60.7818H38.82V63.4098H31.32V63.8178H39.216V64.9698H29.64V62.3058ZM41.004 58.3098V58.2018C41.004 56.4498 42.336 55.3578 44.556 55.3578H44.868C47.052 55.3578 48.408 56.4978 48.408 58.2018V58.3098C48.408 60.1338 47.016 61.1538 44.868 61.1538H44.556C42.408 61.1538 41.004 60.1338 41.004 58.3098ZM51.432 61.9578L49.752 62.4018V55.5498H51.432V61.9578ZM42.684 58.1898V58.3218C42.684 59.2698 43.44 59.8458 44.58 59.8458H44.844C45.912 59.8458 46.728 59.2698 46.728 58.3218V58.1898C46.728 57.2418 46.056 56.6658 44.844 56.6658H44.58C43.44 56.6658 42.684 57.2418 42.684 58.1898ZM42.24 64.8978V61.7778H44.04V63.6258H51.636V64.8858L42.24 64.8978Z" fill="white"/>
</g>
<defs>
<clipPath id="clip0_63_310">
<rect width="80" height="80" fill="white" transform="translate(0 0.309814)"/>
</clipPath>
</defs>
</svg>
