<svg xmlns="http://www.w3.org/2000/svg" viewBox="0 0 1047.17 72.61"><defs><style>.cls-1{fill:#7fb0c6;}</style></defs><g id="Layer_2" data-name="Layer 2"><g id="Graphic_Elements" data-name="Graphic Elements"><path class="cls-1" d="M148.93,19.79a14.09,14.09,0,0,1,5.45,2.15,5.78,5.78,0,0,1,2.19,3c.21.63-.08,1-.75,1a18.58,18.58,0,0,0-4.7.53,14.22,14.22,0,0,0-4,1.75,19.69,19.69,0,0,0-7.07,7,11.2,11.2,0,0,0-1.66,4,5.25,5.25,0,0,0,.76,4.31,14.35,14.35,0,0,0,2.38,2.78c.53.45.54.45,1-.07.63-.74,1.25-1.5,1.89-2.24a20.56,20.56,0,0,1,6.76-5,83.45,83.45,0,0,1,15.93-5.89,81,81,0,0,1,9.9-1.86c2.37-.3,4.76-.48,7.16-.57,3.48-.14,7-.09,10.45.09.94.05,1.87.13,2.81.2a.28.28,0,0,0,.45,0,35.58,35.58,0,0,1,6.54,1.16,15,15,0,0,1,3.06,1.06,3.84,3.84,0,0,1,1.89,2.24.51.51,0,0,1-.28.72c-.49.24-.94.54-1.44.74a15.92,15.92,0,0,0-4,2.26c-.94.74-1.92,1.44-2.9,2.14a8.38,8.38,0,0,0-3.28,5.13,21.34,21.34,0,0,0-.43,5.29,6,6,0,0,0,1.73,3.7,15.71,15.71,0,0,0,3.93,3.08l2.07,1.27c.65.4,1.13,1,1.77,1.43.46.32.39.84,0,1.27a2.76,2.76,0,0,1-2.36,1,6.8,6.8,0,0,0-.89.07,7.8,7.8,0,0,1-3.89-.7A11.92,11.92,0,0,1,192.56,55a16.69,16.69,0,0,1-.49-7,22.07,22.07,0,0,1,.7-3.42,13.27,13.27,0,0,1,4.71-6.48c.63-.5,1.3-1,2.08-1.54-1.6-.16-3.06-.29-4.52-.34a.26.26,0,0,0-.44,0c-1.59,0-3.17,0-4.75-.12-2.1-.1-4.2-.07-6.3,0s-4,.22-6.05.44a76.56,76.56,0,0,0-11.26,2.13,87,87,0,0,0-12.87,4.64,13.58,13.58,0,0,0-3.43,2.28c-1.18,1-2.25,2.18-3.39,3.27-.34.33-.33.39.14.59a42.16,42.16,0,0,0,5.39,1.82,55.05,55.05,0,0,0,9.65,1.5c2.14.17,4.28.43,6.42.61a47,47,0,0,0,6.81-.16c1.15-.07,2.31-.09,3.47-.12.57,0,1.14,0,1.71,0a3,3,0,0,1,1.57.28l.17.63a2.71,2.71,0,0,1-1.78.93,27.3,27.3,0,0,1-4.67.71c-2.82.26-5.65.53-8.47.74-2.14.16-4.28.3-6.43.31-.84,0-1.68,0-2.52,0a45.27,45.27,0,0,1-10.63-1.35A21.23,21.23,0,0,1,137,49.6a12.31,12.31,0,0,1-3.28-5.71c-.18-.8-.3-1.61-.45-2.42a.28.28,0,0,0,0-.44c0-.44,0-.87.05-1.31a.28.28,0,0,0,0-.44,15.41,15.41,0,0,1,3.36-7.35,23.18,23.18,0,0,1,6.89-6.52l.45-.24c.12,0,.27,0,.22-.18s-.14-.08-.21,0c-1.41,0-2.83-.12-4.23-.08-2,.07-3.95.12-5.92.31s-4.12.47-6.16.82a106.83,106.83,0,0,0-14,3.35q-6.87,2.12-13.53,4.81a42.47,42.47,0,0,0-7.86,4.08A22.44,22.44,0,0,0,89,41a8,8,0,0,0-1.28,1.61c-.28.47-.28.49.15.84a64.07,64.07,0,0,0,7.24,5.2,43.4,43.4,0,0,0,10.8,4.75,56.16,56.16,0,0,0,7.38,1.52l4.25.62a2.62,2.62,0,0,0,.74,0c.94-.11,1.86.17,2.81.13.33,0,.69.45.72.82s-.21.53-.5.63a19.51,19.51,0,0,1-5.22,1.31,29.52,29.52,0,0,1-4,.16,37.84,37.84,0,0,1-8.13-1.14,43.16,43.16,0,0,1-9.13-3.37A70,70,0,0,1,84.52,47.3,42.36,42.36,0,0,1,79,42.49a21.81,21.81,0,0,1-5.62-10.84A20.57,20.57,0,0,1,72.82,27a15.13,15.13,0,0,1,2.49-8.2,72,72,0,0,1,7.43-9.45,18.25,18.25,0,0,1,2.42-2.14,1,1,0,0,0,.45-.47,1.71,1.71,0,0,0-.9,0c-3.82.68-7.61,1.5-11.38,2.4A139.73,139.73,0,0,0,52.51,15.9c-3.7,1.52-7.32,3.2-10.84,5.07a116.7,116.7,0,0,0-11.27,6.9,99.71,99.71,0,0,0-8.64,6.66,76.26,76.26,0,0,0-5.69,5.54,62.94,62.94,0,0,0-8,10.65,9.78,9.78,0,0,0-.69,1.6,30.38,30.38,0,0,0-1.1,3.83,9.52,9.52,0,0,0-.16,1.59c0,.78,0,1.56-.09,2.33a13.22,13.22,0,0,0,1.2,6.1c.34.91.73,1.8,1.12,2.7A3.66,3.66,0,0,1,8.64,70,1.61,1.61,0,0,1,7.5,71.92c-.44.18-.87.36-1.31.52a3.6,3.6,0,0,1-2,.07,1.62,1.62,0,0,1-1.12-.78A16.8,16.8,0,0,1,.75,66.32c-.2-1.06-.38-2.13-.56-3.2.14-.11.11-.21,0-.29a6.43,6.43,0,0,1-.06-1.91,1.23,1.23,0,0,0,0-1.15,22.46,22.46,0,0,1,.3-3.27,5.31,5.31,0,0,0,.09-.79,14,14,0,0,1,1.44-6,46.13,46.13,0,0,1,4.77-8.14,68.58,68.58,0,0,1,8.44-9.67A88.17,88.17,0,0,1,26,23.25c3.51-2.44,7.19-4.64,10.91-6.76,3.52-2,7.14-3.79,10.84-5.44q6-2.66,12.2-4.74A135.11,135.11,0,0,1,77.59,1.7,76.58,76.58,0,0,1,86.76.43C87.94.35,89.12.16,90.31.14c.1.14.2.12.29,0a74.15,74.15,0,0,1,8.82,0,8.14,8.14,0,0,1,1.39.18c.87.2,1.74.36,2.6.56a3.45,3.45,0,0,1,1.71,1c.48.49.43.9-.17,1.24a5.39,5.39,0,0,1-1,.37c-.8.24-1.62.4-2.44.57-1.06.22-2.11.53-3.14.85a36.11,36.11,0,0,0-9.46,4.46,22.22,22.22,0,0,0-5.11,5,61.6,61.6,0,0,0-4.34,6.08,12.62,12.62,0,0,0-1.74,5,15.33,15.33,0,0,0,3.43,11.66,28,28,0,0,0,2,2.31c.24.25.41.26.63,0,2.32-3.08,5.47-5.16,8.75-7.09a76.2,76.2,0,0,1,12.27-5.49c4.12-1.51,8.3-2.87,12.54-4a101.83,101.83,0,0,1,11.06-2.41q4.14-.64,8.32-.95c1-.08,2.07-.06,3.11-.09a54.5,54.5,0,0,1,7.11.23l1.62.2C148.72,19.89,148.82,19.91,148.93,19.79Z" transform="translate(0)"/><path class="cls-1" d="M.14,59.77a1.23,1.23,0,0,1,0,1.15A1.4,1.4,0,0,1,.14,59.77Z" transform="translate(0)"/><path class="cls-1" d="M181.88,54l-.17-.63C182.1,53.59,182.14,53.7,181.88,54Z" transform="translate(0)"/><path class="cls-1" d="M197.89,31a.28.28,0,0,1-.45,0A.29.29,0,0,1,197.89,31Z" transform="translate(0)"/><path class="cls-1" d="M194.6,36.23a.26.26,0,0,1,.44,0A.3.3,0,0,1,194.6,36.23Z" transform="translate(0)"/><path class="cls-1" d="M133.31,39.28a.28.28,0,0,1,0,.44A.26.26,0,0,1,133.31,39.28Z" transform="translate(0)"/><path class="cls-1" d="M133.23,41a.28.28,0,0,1,0,.44A.26.26,0,0,1,133.23,41Z" transform="translate(0)"/><path class="cls-1" d="M90.6.13c-.09.13-.19.15-.29,0A.17.17,0,0,1,90.6.13Z" transform="translate(0)"/><path class="cls-1" d="M148.93,19.79c-.11.12-.21.1-.29,0C148.75,19.65,148.85,19.66,148.93,19.79Z" transform="translate(0)"/><path class="cls-1" d="M144,25c.07-.09.18-.13.21,0s-.1.17-.22.18Z" transform="translate(0)"/><path class="cls-1" d="M.17,62.83c.13.08.16.18,0,.29C.08,63,.06,62.93.17,62.83Z" transform="translate(0)"/><path class="cls-1" d="M358.37,19.79a14.22,14.22,0,0,1,5.45,2.15A5.76,5.76,0,0,1,366,25c.21.63-.08,1-.74,1a18.52,18.52,0,0,0-4.7.53,14.16,14.16,0,0,0-4,1.75,19.69,19.69,0,0,0-7.07,7,11.18,11.18,0,0,0-1.65,4,5.25,5.25,0,0,0,.75,4.31A14.7,14.7,0,0,0,351,46.3c.54.45.54.45,1-.07.63-.74,1.25-1.5,1.89-2.24a20.66,20.66,0,0,1,6.76-5,83.3,83.3,0,0,1,15.94-5.89,80.89,80.89,0,0,1,9.89-1.86c2.37-.3,4.76-.48,7.16-.57,3.49-.14,7-.09,10.45.09.94.05,1.88.13,2.81.2a.28.28,0,0,0,.45,0,35.54,35.54,0,0,1,6.55,1.16,14.89,14.89,0,0,1,3.05,1.06,3.84,3.84,0,0,1,1.89,2.24.5.5,0,0,1-.28.72c-.48.24-.94.54-1.44.74a15.86,15.86,0,0,0-4,2.26c-.95.74-1.93,1.44-2.91,2.14A8.37,8.37,0,0,0,407,46.41a20.88,20.88,0,0,0-.44,5.29,6.09,6.09,0,0,0,1.73,3.7,15.71,15.71,0,0,0,3.93,3.08l2.08,1.27c.64.4,1.13,1,1.76,1.43.47.32.4.84,0,1.27a2.74,2.74,0,0,1-2.36,1,6.52,6.52,0,0,0-.88.07,7.76,7.76,0,0,1-3.89-.7A11.94,11.94,0,0,1,402,55a16.52,16.52,0,0,1-.48-7,20.93,20.93,0,0,1,.69-3.42,13.33,13.33,0,0,1,4.71-6.48c.64-.5,1.3-1,2.08-1.54-1.6-.16-3.05-.29-4.52-.34a.26.26,0,0,0-.44,0c-1.58,0-3.17,0-4.75-.12-2.1-.1-4.2-.07-6.3,0s-4,.22-6.05.44a76.81,76.81,0,0,0-11.26,2.13,87.26,87.26,0,0,0-12.86,4.64,13.63,13.63,0,0,0-3.44,2.28c-1.18,1-2.25,2.18-3.38,3.27-.35.33-.34.39.13.59a42.16,42.16,0,0,0,5.39,1.82,55.2,55.2,0,0,0,9.65,1.5c2.14.17,4.28.43,6.42.61a47,47,0,0,0,6.81-.16c1.16-.07,2.32-.09,3.48-.12.57,0,1.13,0,1.7,0a3,3,0,0,1,1.58.28l.16.63a2.69,2.69,0,0,1-1.77.93,27.42,27.42,0,0,1-4.68.71c-2.82.26-5.64.53-8.47.74-2.14.16-4.28.3-6.43.31-.84,0-1.68,0-2.52,0a45.34,45.34,0,0,1-10.63-1.35,21.27,21.27,0,0,1-10.4-5.72,12.4,12.4,0,0,1-3.28-5.71c-.18-.8-.3-1.61-.45-2.42a.28.28,0,0,0,0-.44c0-.44,0-.87,0-1.31a.28.28,0,0,0,0-.44,15.3,15.3,0,0,1,3.35-7.35A23.3,23.3,0,0,1,353,25.41l.45-.24c.12,0,.27,0,.22-.18s-.14-.08-.21,0c-1.41,0-2.82-.12-4.23-.08-2,.07-3.94.12-5.91.31s-4.12.47-6.17.82a107.21,107.21,0,0,0-14,3.35q-6.87,2.12-13.52,4.81a41.85,41.85,0,0,0-7.86,4.08A22.53,22.53,0,0,0,298.4,41a8,8,0,0,0-1.28,1.61c-.27.47-.27.49.15.84a65.11,65.11,0,0,0,7.25,5.2,43.17,43.17,0,0,0,10.79,4.75,56.5,56.5,0,0,0,7.38,1.52l4.26.62a2.54,2.54,0,0,0,.73,0c.94-.11,1.87.17,2.81.13.33,0,.69.45.73.82s-.22.53-.5.63a19.7,19.7,0,0,1-5.22,1.31,29.73,29.73,0,0,1-4,.16,37.75,37.75,0,0,1-8.12-1.14,43,43,0,0,1-9.14-3.37A70.48,70.48,0,0,1,294,47.3a43,43,0,0,1-5.55-4.81,21.89,21.89,0,0,1-5.62-10.84,21.15,21.15,0,0,1-.53-4.69,15.21,15.21,0,0,1,2.49-8.2,72,72,0,0,1,7.43-9.45,17.72,17.72,0,0,1,2.43-2.14,1.08,1.08,0,0,0,.45-.47,1.75,1.75,0,0,0-.91,0c-3.82.68-7.6,1.5-11.37,2.4A139,139,0,0,0,262,15.9c-3.7,1.52-7.32,3.2-10.85,5.07a115.34,115.34,0,0,0-11.26,6.9,98.2,98.2,0,0,0-8.64,6.66,74.39,74.39,0,0,0-5.69,5.54,62.47,62.47,0,0,0-8,10.65,9.78,9.78,0,0,0-.69,1.6,30.33,30.33,0,0,0-1.09,3.83,8.57,8.57,0,0,0-.16,1.59c0,.78,0,1.56-.09,2.33a13.21,13.21,0,0,0,1.19,6.1c.34.91.74,1.8,1.13,2.7a4.33,4.33,0,0,1,.31,1.12,1.62,1.62,0,0,1-1.15,1.93c-.43.18-.87.36-1.31.52a3.57,3.57,0,0,1-2,.07,1.66,1.66,0,0,1-1.13-.78,17,17,0,0,1-2.34-5.41c-.2-1.06-.37-2.13-.56-3.2.14-.11.11-.21,0-.29a6.79,6.79,0,0,1-.06-1.91,1.2,1.2,0,0,0,0-1.15,22.45,22.45,0,0,1,.29-3.27,4.25,4.25,0,0,0,.09-.79,14,14,0,0,1,1.45-6,45.47,45.47,0,0,1,4.76-8.14,68.58,68.58,0,0,1,8.44-9.67,88.17,88.17,0,0,1,10.78-8.67c3.52-2.44,7.19-4.64,10.92-6.76,3.51-2,7.14-3.79,10.83-5.44,4-1.77,8.06-3.35,12.2-4.74A134.84,134.84,0,0,1,287,1.7,76,76,0,0,1,296.2.43c1.18-.08,2.35-.27,3.54-.29.1.14.2.12.29,0a74.15,74.15,0,0,1,8.82,0,8.14,8.14,0,0,1,1.39.18c.87.2,1.74.36,2.61.56a3.46,3.46,0,0,1,1.7,1c.48.49.43.9-.17,1.24a5.3,5.3,0,0,1-1,.37c-.81.24-1.63.4-2.45.57-1.06.22-2.1.53-3.14.85a36.11,36.11,0,0,0-9.46,4.46,22.42,22.42,0,0,0-5.11,5,63.3,63.3,0,0,0-4.34,6.08,12.77,12.77,0,0,0-1.74,5,15.33,15.33,0,0,0,3.43,11.66,29.93,29.93,0,0,0,2.05,2.31c.25.25.41.26.64,0,2.31-3.08,5.46-5.16,8.75-7.09a75.71,75.71,0,0,1,12.26-5.49c4.13-1.51,8.3-2.87,12.54-4a101.49,101.49,0,0,1,11.07-2.41q4.13-.64,8.31-.95c1-.08,2.07-.06,3.11-.09a54.44,54.44,0,0,1,7.11.23l1.62.2C358.16,19.89,358.25,19.91,358.37,19.79Z" transform="translate(0)"/><path class="cls-1" d="M209.58,59.77a1.2,1.2,0,0,1,0,1.15A1.4,1.4,0,0,1,209.58,59.77Z" transform="translate(0)"/><path class="cls-1" d="M391.31,54l-.16-.63C391.54,53.59,391.57,53.7,391.31,54Z" transform="translate(0)"/><path class="cls-1" d="M407.32,31a.28.28,0,0,1-.45,0A.29.29,0,0,1,407.32,31Z" transform="translate(0)"/><path class="cls-1" d="M404,36.23a.26.26,0,0,1,.44,0A.3.3,0,0,1,404,36.23Z" transform="translate(0)"/><path class="cls-1" d="M342.75,39.28a.28.28,0,0,1,0,.44A.26.26,0,0,1,342.75,39.28Z" transform="translate(0)"/><path class="cls-1" d="M342.67,41a.28.28,0,0,1,0,.44A.26.26,0,0,1,342.67,41Z" transform="translate(0)"/><path class="cls-1" d="M300,.13c-.09.13-.19.15-.29,0A.17.17,0,0,1,300,.13Z" transform="translate(0)"/><path class="cls-1" d="M358.37,19.79c-.12.12-.21.1-.3,0C358.18,19.65,358.28,19.66,358.37,19.79Z" transform="translate(0)"/><path class="cls-1" d="M353.45,25c.07-.09.18-.13.21,0s-.1.17-.22.18Z" transform="translate(0)"/><path class="cls-1" d="M209.6,62.83c.13.08.16.18,0,.29C209.52,63,209.49,62.93,209.6,62.83Z" transform="translate(0)"/><path class="cls-1" d="M567.8,19.79a14.09,14.09,0,0,1,5.45,2.15,5.83,5.83,0,0,1,2.19,3c.2.63-.09,1-.75,1a18.52,18.52,0,0,0-4.7.53,14.28,14.28,0,0,0-4,1.75,19.76,19.76,0,0,0-7.07,7,11.18,11.18,0,0,0-1.65,4,5.25,5.25,0,0,0,.75,4.31,14.7,14.7,0,0,0,2.38,2.78c.54.45.55.45,1-.07.63-.74,1.26-1.5,1.9-2.24a20.52,20.52,0,0,1,6.75-5A83.55,83.55,0,0,1,586,33.08a81.25,81.25,0,0,1,9.89-1.86c2.38-.3,4.77-.48,7.16-.57,3.49-.14,7-.09,10.46.09.93.05,1.87.13,2.81.2a.27.27,0,0,0,.44,0,35.54,35.54,0,0,1,6.55,1.16,15,15,0,0,1,3.06,1.06,3.88,3.88,0,0,1,1.89,2.24.51.51,0,0,1-.28.72c-.49.24-1,.54-1.45.74a15.86,15.86,0,0,0-4,2.26c-.95.74-1.93,1.44-2.9,2.14a8.38,8.38,0,0,0-3.28,5.13A20.42,20.42,0,0,0,616,51.7a6,6,0,0,0,1.73,3.7,15.66,15.66,0,0,0,3.92,3.08l2.08,1.27c.65.4,1.13,1,1.76,1.43.47.32.4.84,0,1.27a2.76,2.76,0,0,1-2.37,1,6.79,6.79,0,0,0-.88.07,7.8,7.8,0,0,1-3.89-.7A12,12,0,0,1,611.42,55a16.69,16.69,0,0,1-.48-7,21,21,0,0,1,.7-3.42,13.25,13.25,0,0,1,4.7-6.48c.64-.5,1.3-1,2.09-1.54-1.6-.16-3.06-.29-4.52-.34a.27.27,0,0,0-.45,0c-1.58,0-3.16,0-4.74-.12-2.11-.1-4.21-.07-6.31,0s-4,.22-6,.44a76.7,76.7,0,0,0-11.27,2.13,87.26,87.26,0,0,0-12.86,4.64,13.58,13.58,0,0,0-3.43,2.28c-1.18,1-2.25,2.18-3.39,3.27-.35.33-.33.39.13.59a42.83,42.83,0,0,0,5.4,1.82,55.05,55.05,0,0,0,9.65,1.5c2.14.17,4.27.43,6.41.61a46.91,46.91,0,0,0,6.81-.16c1.16-.07,2.32-.09,3.48-.12.57,0,1.14,0,1.71,0a3,3,0,0,1,1.57.28l.17.63a2.71,2.71,0,0,1-1.78.93,27.27,27.27,0,0,1-4.68.71c-2.82.26-5.64.53-8.47.74-2.13.16-4.28.3-6.43.31-.83,0-1.67,0-2.51,0a45.2,45.2,0,0,1-10.63-1.35,21.26,21.26,0,0,1-10.41-5.72,12.4,12.4,0,0,1-3.28-5.71c-.18-.8-.3-1.61-.44-2.42a.28.28,0,0,0,0-.44c0-.44,0-.87,0-1.31a.28.28,0,0,0,0-.44,15.32,15.32,0,0,1,3.36-7.35,23.14,23.14,0,0,1,6.88-6.52l.46-.24c.12,0,.26,0,.22-.18s-.15-.08-.22,0c-1.41,0-2.82-.12-4.23-.08-2,.07-3.94.12-5.91.31s-4.12.47-6.16.82a107.36,107.36,0,0,0-14,3.35c-4.57,1.41-9.09,3-13.52,4.81a41.85,41.85,0,0,0-7.86,4.08A23.06,23.06,0,0,0,507.83,41a7.91,7.91,0,0,0-1.27,1.61c-.28.47-.28.49.15.84a64.07,64.07,0,0,0,7.24,5.2,43.08,43.08,0,0,0,10.8,4.75,55.83,55.83,0,0,0,7.38,1.52l4.25.62a2.56,2.56,0,0,0,.73,0c.95-.11,1.87.17,2.81.13.34,0,.7.45.73.82s-.22.53-.5.63a19.7,19.7,0,0,1-5.22,1.31,29.52,29.52,0,0,1-4,.16,37.76,37.76,0,0,1-8.13-1.14,43.24,43.24,0,0,1-9.14-3.37,70.39,70.39,0,0,1-10.28-6.76,42.45,42.45,0,0,1-5.56-4.81,21.87,21.87,0,0,1-5.61-10.84,20.57,20.57,0,0,1-.53-4.69,15.2,15.2,0,0,1,2.48-8.2,72.09,72.09,0,0,1,7.44-9.45A17.07,17.07,0,0,1,504,7.17a1,1,0,0,0,.45-.47,1.75,1.75,0,0,0-.91,0c-3.82.68-7.6,1.5-11.37,2.4a139,139,0,0,0-20.82,6.76c-3.7,1.52-7.32,3.2-10.85,5.07a116.55,116.55,0,0,0-11.26,6.9,99.71,99.71,0,0,0-8.64,6.66,74.39,74.39,0,0,0-5.69,5.54,62.42,62.42,0,0,0-8,10.65,9.83,9.83,0,0,0-.7,1.6,32.1,32.1,0,0,0-1.09,3.83,9.52,9.52,0,0,0-.16,1.59c0,.78,0,1.56-.09,2.33a13.09,13.09,0,0,0,1.2,6.1c.34.91.73,1.8,1.12,2.7a4,4,0,0,1,.31,1.12,1.61,1.61,0,0,1-1.15,1.93c-.43.18-.86.36-1.3.52a3.6,3.6,0,0,1-2,.07,1.66,1.66,0,0,1-1.13-.78,16.78,16.78,0,0,1-2.33-5.41c-.21-1.06-.38-2.13-.57-3.2.14-.11.12-.21,0-.29a7.18,7.18,0,0,1-.06-1.91,1.2,1.2,0,0,0,0-1.15,21.15,21.15,0,0,1,.3-3.27,7.08,7.08,0,0,0,.09-.79,13.82,13.82,0,0,1,1.44-6,44.93,44.93,0,0,1,4.77-8.14,68,68,0,0,1,8.44-9.67,87.41,87.41,0,0,1,10.78-8.67c3.51-2.44,7.18-4.64,10.91-6.76,3.52-2,7.14-3.79,10.83-5.44q6-2.66,12.21-4.74A134.69,134.69,0,0,1,496.46,1.7,76.3,76.3,0,0,1,505.63.43c1.18-.08,2.36-.27,3.54-.29.11.14.2.12.3,0a74.15,74.15,0,0,1,8.82,0,8.14,8.14,0,0,1,1.39.18c.86.2,1.74.36,2.6.56a3.42,3.42,0,0,1,1.7,1c.48.49.43.9-.17,1.24a5,5,0,0,1-1,.37c-.8.24-1.62.4-2.45.57-1.06.22-2.1.53-3.14.85a36.2,36.2,0,0,0-9.45,4.46,22.47,22.47,0,0,0-5.12,5,65.1,65.1,0,0,0-4.34,6.08,12.76,12.76,0,0,0-1.73,5,15.33,15.33,0,0,0,3.43,11.66,27.84,27.84,0,0,0,2,2.31c.25.25.42.26.64,0,2.31-3.08,5.47-5.16,8.75-7.09a75.42,75.42,0,0,1,12.27-5.49c4.12-1.51,8.29-2.87,12.53-4a102,102,0,0,1,11.07-2.41q4.14-.64,8.31-.95c1-.08,2.08-.06,3.11-.09a54.39,54.39,0,0,1,7.11.23l1.62.2C567.59,19.89,567.69,19.91,567.8,19.79Z" transform="translate(0)"/><path class="cls-1" d="M419,59.77a1.2,1.2,0,0,1,0,1.15A1.4,1.4,0,0,1,419,59.77Z" transform="translate(0)"/><path class="cls-1" d="M600.75,54l-.17-.63C601,53.59,601,53.7,600.75,54Z" transform="translate(0)"/><path class="cls-1" d="M616.75,31a.27.27,0,0,1-.44,0A.28.28,0,0,1,616.75,31Z" transform="translate(0)"/><path class="cls-1" d="M613.46,36.23a.27.27,0,0,1,.45,0A.31.31,0,0,1,613.46,36.23Z" transform="translate(0)"/><path class="cls-1" d="M552.18,39.28a.28.28,0,0,1,0,.44A.26.26,0,0,1,552.18,39.28Z" transform="translate(0)"/><path class="cls-1" d="M552.1,41a.28.28,0,0,1,0,.44A.26.26,0,0,1,552.1,41Z" transform="translate(0)"/><path class="cls-1" d="M509.47.13c-.1.13-.19.15-.3,0C509.27,0,509.37,0,509.47.13Z" transform="translate(0)"/><path class="cls-1" d="M567.8,19.79c-.11.12-.21.1-.3,0C567.61,19.65,567.71,19.66,567.8,19.79Z" transform="translate(0)"/><path class="cls-1" d="M562.88,25c.07-.09.18-.13.22,0s-.1.17-.22.18Z" transform="translate(0)"/><path class="cls-1" d="M419,62.83c.14.08.16.18,0,.29C419,63,418.92,62.93,419,62.83Z" transform="translate(0)"/><path class="cls-1" d="M777.23,19.79a14.09,14.09,0,0,1,5.45,2.15,5.72,5.72,0,0,1,2.19,3c.21.63-.08,1-.75,1a18.58,18.58,0,0,0-4.7.53,14.22,14.22,0,0,0-4,1.75,19.69,19.69,0,0,0-7.07,7,11.2,11.2,0,0,0-1.66,4,5.29,5.29,0,0,0,.76,4.31,14.7,14.7,0,0,0,2.38,2.78c.53.45.54.45,1-.07.63-.74,1.25-1.5,1.89-2.24a20.56,20.56,0,0,1,6.76-5,83.45,83.45,0,0,1,15.93-5.89,81,81,0,0,1,9.9-1.86c2.37-.3,4.76-.48,7.16-.57,3.48-.14,7-.09,10.45.09.94.05,1.87.13,2.81.2a.28.28,0,0,0,.45,0,35.58,35.58,0,0,1,6.54,1.16,15,15,0,0,1,3.06,1.06,3.84,3.84,0,0,1,1.89,2.24.51.51,0,0,1-.28.72c-.49.24-.94.54-1.44.74a16.1,16.1,0,0,0-4,2.26c-.94.74-1.92,1.44-2.9,2.14a8.33,8.33,0,0,0-3.27,5.13,20.88,20.88,0,0,0-.44,5.29,6,6,0,0,0,1.73,3.7A15.71,15.71,0,0,0,831,58.48l2.07,1.27c.65.4,1.13,1,1.77,1.43.46.32.39.84,0,1.27a2.76,2.76,0,0,1-2.36,1,6.52,6.52,0,0,0-.88.07,7.82,7.82,0,0,1-3.9-.7A11.92,11.92,0,0,1,820.86,55a16.69,16.69,0,0,1-.49-7,22.07,22.07,0,0,1,.7-3.42,13.27,13.27,0,0,1,4.71-6.48c.63-.5,1.3-1,2.08-1.54-1.6-.16-3.06-.29-4.52-.34a.26.26,0,0,0-.44,0c-1.59,0-3.17,0-4.75-.12-2.1-.1-4.2-.07-6.3,0s-4,.22-6.05.44a76.56,76.56,0,0,0-11.26,2.13,87,87,0,0,0-12.87,4.64,13.58,13.58,0,0,0-3.43,2.28c-1.18,1-2.25,2.18-3.39,3.27-.34.33-.33.39.14.59a42.16,42.16,0,0,0,5.39,1.82,55.05,55.05,0,0,0,9.65,1.5c2.14.17,4.28.43,6.42.61a47,47,0,0,0,6.81-.16c1.15-.07,2.31-.09,3.47-.12.57,0,1.14,0,1.71,0a3,3,0,0,1,1.57.28l.17.63a2.71,2.71,0,0,1-1.78.93,27.3,27.3,0,0,1-4.67.71c-2.82.26-5.65.53-8.47.74-2.14.16-4.28.3-6.43.31-.84,0-1.68,0-2.52,0a45.27,45.27,0,0,1-10.63-1.35,21.23,21.23,0,0,1-10.4-5.72A12.31,12.31,0,0,1,762,43.89c-.18-.8-.3-1.61-.45-2.42a.27.27,0,0,0,0-.44c0-.44,0-.87.05-1.31a.28.28,0,0,0,0-.44A15.41,15.41,0,0,1,765,31.93a23.18,23.18,0,0,1,6.89-6.52l.45-.24c.12,0,.27,0,.22-.18s-.14-.08-.21,0c-1.41,0-2.82-.12-4.23-.08-2,.07-4,.12-5.92.31s-4.12.47-6.16.82a106.83,106.83,0,0,0-14,3.35q-6.87,2.12-13.53,4.81a42.47,42.47,0,0,0-7.86,4.08A22.44,22.44,0,0,0,717.27,41,8,8,0,0,0,716,42.57c-.28.47-.28.49.15.84a64.07,64.07,0,0,0,7.24,5.2,43.4,43.4,0,0,0,10.8,4.75,56.16,56.16,0,0,0,7.38,1.52l4.25.62a2.62,2.62,0,0,0,.74,0c.94-.11,1.86.17,2.81.13.33,0,.69.45.72.82s-.21.53-.5.63a19.51,19.51,0,0,1-5.22,1.31,29.52,29.52,0,0,1-4,.16,37.84,37.84,0,0,1-8.13-1.14,43.16,43.16,0,0,1-9.13-3.37,70,70,0,0,1-10.29-6.76,42.36,42.36,0,0,1-5.55-4.81,21.81,21.81,0,0,1-5.62-10.84,20.57,20.57,0,0,1-.53-4.69,15.13,15.13,0,0,1,2.49-8.2A72,72,0,0,1,711,9.31a18.25,18.25,0,0,1,2.42-2.14,1,1,0,0,0,.45-.47,1.71,1.71,0,0,0-.9,0c-3.82.68-7.61,1.5-11.38,2.4a139.73,139.73,0,0,0-20.82,6.76c-3.7,1.52-7.32,3.2-10.84,5.07a116.7,116.7,0,0,0-11.27,6.9,98.06,98.06,0,0,0-8.63,6.66,74.52,74.52,0,0,0-5.7,5.54,62.94,62.94,0,0,0-8,10.65,9.78,9.78,0,0,0-.69,1.6,30.38,30.38,0,0,0-1.1,3.83,8.56,8.56,0,0,0-.15,1.59c0,.78,0,1.56-.1,2.33a13.22,13.22,0,0,0,1.2,6.1c.34.91.73,1.8,1.12,2.7a3.66,3.66,0,0,1,.31,1.12,1.61,1.61,0,0,1-1.14,1.93c-.44.18-.87.36-1.31.52a3.6,3.6,0,0,1-2,.07,1.62,1.62,0,0,1-1.12-.78,17,17,0,0,1-2.34-5.41c-.2-1.06-.38-2.13-.56-3.2.14-.11.11-.21,0-.29a6.43,6.43,0,0,1-.06-1.91,1.2,1.2,0,0,0,0-1.15,22.46,22.46,0,0,1,.3-3.27,5.31,5.31,0,0,0,.09-.79,14.11,14.11,0,0,1,1.44-6A46.13,46.13,0,0,1,635,41.59a68.58,68.58,0,0,1,8.44-9.67,88.17,88.17,0,0,1,10.78-8.67c3.51-2.44,7.19-4.64,10.91-6.76,3.52-2,7.14-3.79,10.84-5.44q6-2.66,12.2-4.74A135.11,135.11,0,0,1,705.89,1.7,76.58,76.58,0,0,1,715.06.43c1.19-.08,2.36-.27,3.55-.29.1.14.2.12.29,0a74.15,74.15,0,0,1,8.82,0,8.14,8.14,0,0,1,1.39.18c.87.2,1.74.36,2.6.56a3.45,3.45,0,0,1,1.71,1c.48.49.43.9-.17,1.24a5.39,5.39,0,0,1-1,.37c-.8.24-1.62.4-2.44.57-1.06.22-2.11.53-3.14.85a36.11,36.11,0,0,0-9.46,4.46,22.22,22.22,0,0,0-5.11,5,61.6,61.6,0,0,0-4.34,6.08,12.62,12.62,0,0,0-1.74,5,15.33,15.33,0,0,0,3.43,11.66,28,28,0,0,0,2,2.31c.24.25.41.26.63,0,2.32-3.08,5.47-5.16,8.75-7.09a76.2,76.2,0,0,1,12.27-5.49c4.12-1.51,8.3-2.87,12.54-4a101.83,101.83,0,0,1,11.06-2.41q4.14-.64,8.32-.95c1-.08,2.07-.06,3.11-.09a54.5,54.5,0,0,1,7.11.23l1.62.2C777,19.89,777.12,19.91,777.23,19.79Z" transform="translate(0)"/><path class="cls-1" d="M628.44,59.77a1.2,1.2,0,0,1,0,1.15A1.4,1.4,0,0,1,628.44,59.77Z" transform="translate(0)"/><path class="cls-1" d="M810.18,54l-.17-.63C810.41,53.59,810.44,53.7,810.18,54Z" transform="translate(0)"/><path class="cls-1" d="M826.19,31a.28.28,0,0,1-.45,0A.29.29,0,0,1,826.19,31Z" transform="translate(0)"/><path class="cls-1" d="M822.9,36.23a.26.26,0,0,1,.44,0A.3.3,0,0,1,822.9,36.23Z" transform="translate(0)"/><path class="cls-1" d="M761.61,39.28a.28.28,0,0,1,0,.44A.26.26,0,0,1,761.61,39.28Z" transform="translate(0)"/><path class="cls-1" d="M761.53,41a.27.27,0,0,1,0,.44A.26.26,0,0,1,761.53,41Z" transform="translate(0)"/><path class="cls-1" d="M718.9.13c-.09.13-.19.15-.29,0A.17.17,0,0,1,718.9.13Z" transform="translate(0)"/><path class="cls-1" d="M777.23,19.79c-.11.12-.21.1-.29,0C777.05,19.65,777.15,19.66,777.23,19.79Z" transform="translate(0)"/><path class="cls-1" d="M772.32,25c.07-.09.18-.13.21,0s-.1.17-.22.18Z" transform="translate(0)"/><path class="cls-1" d="M628.47,62.83c.13.08.16.18,0,.29C628.38,63,628.36,62.93,628.47,62.83Z" transform="translate(0)"/><path class="cls-1" d="M986.67,19.79a14.22,14.22,0,0,1,5.45,2.15,5.76,5.76,0,0,1,2.18,3c.21.63-.08,1-.74,1a18.52,18.52,0,0,0-4.7.53,14.16,14.16,0,0,0-4,1.75,19.69,19.69,0,0,0-7.07,7,11.18,11.18,0,0,0-1.65,4,5.25,5.25,0,0,0,.75,4.31,14.7,14.7,0,0,0,2.38,2.78c.54.45.54.45,1-.07L982.16,44a20.66,20.66,0,0,1,6.76-5,83.3,83.3,0,0,1,15.94-5.89,80.89,80.89,0,0,1,9.89-1.86c2.37-.3,4.76-.48,7.16-.57,3.49-.14,7-.09,10.45.09.94.05,1.88.13,2.81.2a.28.28,0,0,0,.45,0,35.54,35.54,0,0,1,6.55,1.16,15.19,15.19,0,0,1,3.06,1.06,3.86,3.86,0,0,1,1.88,2.24.5.5,0,0,1-.28.72c-.48.24-.94.54-1.44.74a15.86,15.86,0,0,0-4,2.26c-1,.74-1.93,1.44-2.91,2.14a8.37,8.37,0,0,0-3.27,5.13,20.88,20.88,0,0,0-.44,5.29,6,6,0,0,0,1.74,3.7,15.48,15.48,0,0,0,3.92,3.08l2.08,1.27c.64.4,1.13,1,1.76,1.43.47.32.4.84,0,1.27a2.74,2.74,0,0,1-2.36,1,6.52,6.52,0,0,0-.88.07,7.76,7.76,0,0,1-3.89-.7,11.94,11.94,0,0,1-6.89-7.76,16.52,16.52,0,0,1-.48-7,22,22,0,0,1,.69-3.42,13.33,13.33,0,0,1,4.71-6.48c.64-.5,1.3-1,2.08-1.54-1.6-.16-3-.29-4.52-.34a.26.26,0,0,0-.44,0c-1.58,0-3.17,0-4.75-.12-2.1-.1-4.2-.07-6.3,0s-4,.22-6,.44A76.81,76.81,0,0,0,1004,38.66a87.26,87.26,0,0,0-12.86,4.64,13.63,13.63,0,0,0-3.44,2.28c-1.18,1-2.25,2.18-3.38,3.27-.35.33-.34.39.13.59a42.16,42.16,0,0,0,5.39,1.82,55.35,55.35,0,0,0,9.65,1.5c2.14.17,4.28.43,6.42.61a47,47,0,0,0,6.81-.16c1.16-.07,2.32-.09,3.48-.12.57,0,1.13,0,1.7,0a3,3,0,0,1,1.58.28c0,.21.11.42.17.63a2.73,2.73,0,0,1-1.78.93,27.42,27.42,0,0,1-4.68.71c-2.82.26-5.64.53-8.47.74-2.14.16-4.28.3-6.43.31-.84,0-1.68,0-2.52,0a45.19,45.19,0,0,1-10.62-1.35,21.26,21.26,0,0,1-10.41-5.72,12.4,12.4,0,0,1-3.28-5.71c-.18-.8-.3-1.61-.45-2.42a.28.28,0,0,0,0-.44l0-1.31a.28.28,0,0,0,0-.44,15.3,15.3,0,0,1,3.35-7.35,23.3,23.3,0,0,1,6.89-6.52l.45-.24c.12,0,.27,0,.22-.18s-.14-.08-.21,0c-1.41,0-2.82-.12-4.23-.08-2,.07-3.94.12-5.91.31s-4.12.47-6.17.82a107.21,107.21,0,0,0-14,3.35q-6.87,2.12-13.52,4.81A41.85,41.85,0,0,0,930,38.29,22.53,22.53,0,0,0,926.7,41a8,8,0,0,0-1.28,1.61c-.27.47-.27.49.15.84a65.11,65.11,0,0,0,7.25,5.2,43.17,43.17,0,0,0,10.79,4.75A56.5,56.5,0,0,0,951,54.88l4.26.62a2.54,2.54,0,0,0,.73,0c.94-.11,1.87.17,2.81.13.34,0,.69.45.73.82s-.22.53-.5.63a19.7,19.7,0,0,1-5.22,1.31,29.73,29.73,0,0,1-4,.16,37.75,37.75,0,0,1-8.12-1.14,43,43,0,0,1-9.14-3.37,71,71,0,0,1-10.29-6.76,43,43,0,0,1-5.55-4.81,21.89,21.89,0,0,1-5.62-10.84,21.76,21.76,0,0,1-.53-4.69,15.21,15.21,0,0,1,2.49-8.2,72,72,0,0,1,7.43-9.45,17.72,17.72,0,0,1,2.43-2.14,1.08,1.08,0,0,0,.45-.47,1.75,1.75,0,0,0-.91,0c-3.82.68-7.6,1.5-11.37,2.4a139,139,0,0,0-20.82,6.76c-3.7,1.52-7.32,3.2-10.85,5.07a115.34,115.34,0,0,0-11.26,6.9,98.2,98.2,0,0,0-8.64,6.66,74.39,74.39,0,0,0-5.69,5.54,62.47,62.47,0,0,0-8,10.65,9.78,9.78,0,0,0-.69,1.6A30.33,30.33,0,0,0,844,56.15a8.57,8.57,0,0,0-.16,1.59c0,.78,0,1.56-.09,2.33a13.09,13.09,0,0,0,1.2,6.1c.33.91.73,1.8,1.12,2.7a4,4,0,0,1,.31,1.12,1.62,1.62,0,0,1-1.15,1.93c-.43.18-.87.36-1.31.52a3.57,3.57,0,0,1-2,.07,1.66,1.66,0,0,1-1.13-.78,17,17,0,0,1-2.34-5.41c-.2-1.06-.37-2.13-.56-3.2.14-.11.11-.21,0-.29a6.79,6.79,0,0,1-.06-1.91,1.2,1.2,0,0,0,0-1.15,22.45,22.45,0,0,1,.29-3.27,4.25,4.25,0,0,0,.09-.79,14,14,0,0,1,1.45-6,45.47,45.47,0,0,1,4.76-8.14,68.58,68.58,0,0,1,8.44-9.67,88.17,88.17,0,0,1,10.78-8.67c3.52-2.44,7.19-4.64,10.92-6.76,3.51-2,7.14-3.79,10.83-5.44,4-1.77,8.06-3.35,12.2-4.74A134.84,134.84,0,0,1,915.33,1.7,76,76,0,0,1,924.5.43c1.18-.08,2.35-.27,3.54-.29.1.14.2.12.29,0a74.15,74.15,0,0,1,8.82,0,8.14,8.14,0,0,1,1.39.18c.87.2,1.74.36,2.61.56a3.46,3.46,0,0,1,1.7,1c.48.49.43.9-.17,1.24a5.3,5.3,0,0,1-1,.37c-.81.24-1.63.4-2.45.57-1.06.22-2.1.53-3.14.85a36.11,36.11,0,0,0-9.46,4.46,22.42,22.42,0,0,0-5.11,5,65.1,65.1,0,0,0-4.34,6.08,12.77,12.77,0,0,0-1.74,5,15.33,15.33,0,0,0,3.43,11.66A29.93,29.93,0,0,0,921,39.43c.25.25.41.26.64,0,2.31-3.08,5.46-5.16,8.75-7.09a75.71,75.71,0,0,1,12.26-5.49c4.13-1.51,8.3-2.87,12.54-4a101.49,101.49,0,0,1,11.07-2.41c2.75-.43,5.53-.75,8.31-.95,1-.08,2.07-.06,3.11-.09a54.39,54.39,0,0,1,7.11.23l1.62.2C986.46,19.89,986.56,19.91,986.67,19.79Z" transform="translate(0)"/><path class="cls-1" d="M837.88,59.77a1.2,1.2,0,0,1,0,1.15A1.4,1.4,0,0,1,837.88,59.77Z" transform="translate(0)"/><path class="cls-1" d="M1019.62,54c-.06-.21-.12-.42-.17-.63C1019.84,53.59,1019.87,53.7,1019.62,54Z" transform="translate(0)"/><path class="cls-1" d="M1035.62,31a.28.28,0,0,1-.45,0A.29.29,0,0,1,1035.62,31Z" transform="translate(0)"/><path class="cls-1" d="M1032.33,36.23a.26.26,0,0,1,.44,0A.3.3,0,0,1,1032.33,36.23Z" transform="translate(0)"/><path class="cls-1" d="M971.05,39.28a.28.28,0,0,1,0,.44A.26.26,0,0,1,971.05,39.28Z" transform="translate(0)"/><path class="cls-1" d="M971,41a.28.28,0,0,1,0,.44A.26.26,0,0,1,971,41Z" transform="translate(0)"/><path class="cls-1" d="M928.33.13c-.09.13-.19.15-.29,0A.17.17,0,0,1,928.33.13Z" transform="translate(0)"/><path class="cls-1" d="M986.67,19.79c-.11.12-.21.1-.3,0C986.48,19.65,986.58,19.66,986.67,19.79Z" transform="translate(0)"/><path class="cls-1" d="M981.75,25c.07-.09.18-.13.21,0s-.1.17-.22.18Z" transform="translate(0)"/><path class="cls-1" d="M837.9,62.83c.13.08.16.18,0,.29C837.82,63,837.79,62.93,837.9,62.83Z" transform="translate(0)"/></g></g></svg>