<svg width="80" height="75" viewBox="0 0 80 75" fill="none" xmlns="http://www.w3.org/2000/svg">
<path d="M43.1758 0.201499C43.1758 0.201499 63.129 4.0631 71.6539 17.5626C71.6539 17.5626 80.9009 31.4343 78.9958 46.2826C78.9958 46.2826 78.6607 67.5674 57.4148 69.4301C57.4148 69.4301 51.2784 69.6438 40.7285 73.7169C40.7285 73.7169 28.3538 76.1378 18.9245 70.0735C18.9245 70.0735 -2.4641 53.9427 0.23565 31.9226C0.23565 31.9226 8.56355 6.60464 18.9245 4.48835C18.9245 4.48835 31.9398 -1.11966 43.1758 0.201499Z" fill="#FF8D3D"/>
<path d="M41.5625 34.6562C41.5625 34.1927 41.7 33.7396 41.9575 33.3541C42.215 32.9687 42.5811 32.6683 43.0093 32.4909C43.4376 32.3135 43.9088 32.2671 44.3635 32.3575C44.8181 32.448 45.2358 32.6712 45.5635 32.999C45.8913 33.3267 46.1145 33.7444 46.205 34.199C46.2954 34.6536 46.249 35.1249 46.0716 35.5532C45.8942 35.9814 45.5938 36.3475 45.2084 36.605C44.8229 36.8625 44.3698 37 43.9062 37C43.2846 37 42.6885 36.7531 42.249 36.3135C41.8094 35.874 41.5625 35.2779 41.5625 34.6562ZM58.7109 28.6758C58.4405 32.6268 56.6814 36.3282 53.7888 39.033C50.8962 41.7379 47.0853 43.2449 43.125 43.25H36.875C36.2534 43.25 35.6573 43.4969 35.2177 43.9365C34.7782 44.376 34.5312 44.9721 34.5312 45.5938C34.5312 46.2154 34.7782 46.8115 35.2177 47.251C35.6573 47.6906 36.2534 47.9375 36.875 47.9375H47.8125C48.2269 47.9375 48.6243 48.1021 48.9174 48.3951C49.2104 48.6882 49.375 49.0856 49.375 49.5C49.375 49.9144 49.2104 50.3118 48.9174 50.6049C48.6243 50.8979 48.2269 51.0625 47.8125 51.0625H38.4375V54.1875H44.6875C45.1019 54.1875 45.4993 54.3521 45.7924 54.6451C46.0854 54.9382 46.25 55.3356 46.25 55.75C46.25 56.1644 46.0854 56.5618 45.7924 56.8549C45.4993 57.1479 45.1019 57.3125 44.6875 57.3125H33.75C29.606 57.3125 25.6317 55.6663 22.7015 52.736C19.7712 49.8058 18.125 45.8315 18.125 41.6875C18.125 37.5435 19.7712 33.5692 22.7015 30.639C25.6317 27.7087 29.606 26.0625 33.75 26.0625H56.4062C57.0279 26.0625 57.624 25.8156 58.0635 25.376C58.5031 24.9365 58.75 24.3404 58.75 23.7188C58.75 23.0971 58.5031 22.501 58.0635 22.0615C57.624 21.6219 57.0279 21.375 56.4062 21.375H40C38.7568 21.375 37.5645 20.8811 36.6854 20.0021C35.8064 19.123 35.3125 17.9307 35.3125 16.6875C35.3125 16.2731 35.4771 15.8757 35.7701 15.5826C36.0632 15.2896 36.4606 15.125 36.875 15.125C37.2894 15.125 37.6868 15.2896 37.9799 15.5826C38.2729 15.8757 38.4375 16.2731 38.4375 16.6875C38.4375 17.1019 38.6021 17.4993 38.8951 17.7924C39.1882 18.0854 39.5856 18.25 40 18.25H56.4062C57.6507 18.2512 58.8575 18.6767 59.8275 19.4564C60.7974 20.2361 61.4724 21.3232 61.741 22.5383C62.0096 23.7535 61.8558 25.0238 61.3049 26.1397C60.7539 27.2556 59.8389 28.1502 58.7109 28.6758ZM24.9219 50.5332L31.4102 45.8984C31.4102 45.7988 31.4102 45.7031 31.4102 45.5938C31.409 45.1002 31.4747 44.6087 31.6055 44.1328L21.4453 39.5137C21.092 41.4953 21.2244 43.5331 21.8313 45.4523C22.4381 47.3715 23.5013 49.115 24.9297 50.5332H24.9219ZM32.5391 48.9316L27.5234 52.5195C29.416 53.6137 31.5639 54.1891 33.75 54.1875H35.3125V50.834C34.2147 50.5039 33.2477 49.8387 32.5469 48.9316H32.5391ZM35.3125 40.3535V29.1875H33.75C31.3525 29.1902 29.0063 29.8815 26.9904 31.1793C24.9745 32.477 23.3739 34.3266 22.3789 36.5078L33.291 41.4668C33.878 40.9561 34.5672 40.5766 35.3125 40.3535ZM55.5273 29.1875H38.4375V40.125H43.125C46.1686 40.1213 49.1066 39.0089 51.3893 36.9957C53.6721 34.9826 55.1432 32.2068 55.5273 29.1875Z" fill="white"/>
</svg>
