<svg width="80" height="75" viewBox="0 0 80 75" fill="none" xmlns="http://www.w3.org/2000/svg">
<path d="M43.1758 0.201499C43.1758 0.201499 63.129 4.0631 71.6539 17.5626C71.6539 17.5626 80.9009 31.4343 78.9958 46.2826C78.9958 46.2826 78.6607 67.5674 57.4148 69.4301C57.4148 69.4301 51.2784 69.6438 40.7285 73.7169C40.7285 73.7169 28.3538 76.1378 18.9245 70.0735C18.9245 70.0735 -2.4641 53.9427 0.23565 31.9226C0.23565 31.9226 8.56355 6.60464 18.9245 4.48835C18.9245 4.48835 31.9398 -1.11966 43.1758 0.201499Z" fill="#FF8D3D"/>
<path d="M38.4375 34.6562C38.4375 34.1927 38.3 33.7396 38.0425 33.3541C37.785 32.9687 37.4189 32.6683 36.9907 32.4909C36.5624 32.3135 36.0912 32.2671 35.6365 32.3575C35.1819 32.448 34.7642 32.6712 34.4365 32.999C34.1087 33.3267 33.8855 33.7444 33.795 34.199C33.7046 34.6536 33.751 35.1249 33.9284 35.5532C34.1058 35.9814 34.4062 36.3475 34.7916 36.605C35.1771 36.8625 35.6302 37 36.0938 37C36.7154 37 37.3115 36.7531 37.751 36.3135C38.1906 35.874 38.4375 35.2779 38.4375 34.6562ZM21.2891 28.6758C21.5595 32.6268 23.3186 36.3282 26.2112 39.033C29.1038 41.7379 32.9147 43.2449 36.875 43.25H43.125C43.7466 43.25 44.3427 43.4969 44.7823 43.9365C45.2218 44.376 45.4688 44.9721 45.4688 45.5938C45.4688 46.2154 45.2218 46.8115 44.7823 47.251C44.3427 47.6906 43.7466 47.9375 43.125 47.9375H32.1875C31.7731 47.9375 31.3757 48.1021 31.0826 48.3951C30.7896 48.6882 30.625 49.0856 30.625 49.5C30.625 49.9144 30.7896 50.3118 31.0826 50.6049C31.3757 50.8979 31.7731 51.0625 32.1875 51.0625H41.5625V54.1875H35.3125C34.8981 54.1875 34.5007 54.3521 34.2076 54.6451C33.9146 54.9382 33.75 55.3356 33.75 55.75C33.75 56.1644 33.9146 56.5618 34.2076 56.8549C34.5007 57.1479 34.8981 57.3125 35.3125 57.3125H46.25C50.394 57.3125 54.3683 55.6663 57.2985 52.736C60.2288 49.8058 61.875 45.8315 61.875 41.6875C61.875 37.5435 60.2288 33.5692 57.2985 30.639C54.3683 27.7087 50.394 26.0625 46.25 26.0625H23.5938C22.9721 26.0625 22.376 25.8156 21.9365 25.376C21.4969 24.9365 21.25 24.3404 21.25 23.7188C21.25 23.0971 21.4969 22.501 21.9365 22.0615C22.376 21.6219 22.9721 21.375 23.5938 21.375H40C41.2432 21.375 42.4355 20.8811 43.3146 20.0021C44.1936 19.123 44.6875 17.9307 44.6875 16.6875C44.6875 16.2731 44.5229 15.8757 44.2299 15.5826C43.9368 15.2896 43.5394 15.125 43.125 15.125C42.7106 15.125 42.3132 15.2896 42.0201 15.5826C41.7271 15.8757 41.5625 16.2731 41.5625 16.6875C41.5625 17.1019 41.3979 17.4993 41.1049 17.7924C40.8118 18.0854 40.4144 18.25 40 18.25H23.5938C22.3493 18.2512 21.1425 18.6767 20.1725 19.4564C19.2026 20.2361 18.5276 21.3232 18.259 22.5383C17.9904 23.7535 18.1442 25.0238 18.6951 26.1397C19.2461 27.2556 20.1611 28.1502 21.2891 28.6758ZM55.0781 50.5332L48.5898 45.8984C48.5898 45.7988 48.5898 45.7031 48.5898 45.5938C48.591 45.1002 48.5253 44.6087 48.3945 44.1328L58.5547 39.5137C58.908 41.4953 58.7756 43.5331 58.1687 45.4523C57.5619 47.3715 56.4987 49.115 55.0703 50.5332H55.0781ZM47.4609 48.9316L52.4766 52.5195C50.584 53.6137 48.4361 54.1891 46.25 54.1875H44.6875V50.834C45.7853 50.5039 46.7523 49.8387 47.4531 48.9316H47.4609ZM44.6875 40.3535V29.1875H46.25C48.6475 29.1902 50.9937 29.8815 53.0096 31.1793C55.0255 32.477 56.6261 34.3266 57.6211 36.5078L46.709 41.4668C46.122 40.9561 45.4328 40.5766 44.6875 40.3535ZM24.4727 29.1875H41.5625V40.125H36.875C33.8314 40.1213 30.8934 39.0089 28.6107 36.9957C26.3279 34.9826 24.8568 32.2068 24.4727 29.1875Z" fill="white"/>
</svg>
