<svg width="40" height="41" viewBox="0 0 40 41" fill="none" xmlns="http://www.w3.org/2000/svg">
<path d="M21.791 1.03741C21.791 1.03741 31.8615 3.12062 36.164 10.4032C36.164 10.4032 40.831 17.8871 39.8695 25.8967C39.8695 25.8967 39.7004 37.3792 28.9775 38.384C28.9775 38.384 25.8804 38.4993 20.5558 40.6973C20.5558 40.6973 14.3103 42.0026 9.55125 38.7317C9.55125 38.7317 -1.24364 30.0291 0.118933 18.1506C0.118933 18.1506 4.32206 4.49171 9.55125 3.35003C9.55125 3.35003 16.1202 0.324689 21.791 1.03741Z" fill="#D8DBF5"/>
<path fill-rule="evenodd" clip-rule="evenodd" d="M27.1332 12.6587H12.7689C10.7359 12.6587 9.08008 14.282 9.08008 16.2599V24.9765C9.08008 26.9612 10.7429 28.5777 12.7689 28.5777H17.8411L18.7145 30.0509L19.5738 31.5037C19.7275 31.7697 20.1187 31.7697 20.2794 31.5037L21.1388 30.0509L22.0121 28.5777H27.1402C29.1732 28.5777 30.829 26.9544 30.829 24.9765V16.2667C30.829 14.282 29.1662 12.6587 27.1332 12.6587ZM20.9571 19.0427C19.8462 19.0427 18.9449 19.9089 18.9449 20.9797C18.9449 22.0505 19.8462 22.9167 20.9571 22.9167C22.0679 22.9167 22.9692 22.0505 22.9692 20.9797C22.9692 19.9089 22.0749 19.0427 20.9571 19.0427ZM20.9571 21.9073C20.4261 21.9073 19.9929 21.4912 19.9929 20.9797C19.9929 20.4681 20.4261 20.0521 20.9571 20.0521C21.488 20.0521 21.9212 20.4681 21.9212 20.9797C21.9212 21.4912 21.495 21.9073 20.9571 21.9073ZM13.4396 19.486C13.754 19.2064 14.1592 19.0427 14.5924 19.0427C15.5984 19.0427 16.4019 19.9157 16.4019 20.9865C16.4019 22.0573 15.5915 22.9235 14.5924 22.9235C14.1522 22.9235 13.754 22.753 13.4396 22.4802V22.828H12.3218V17.8832H13.4396V19.486ZM13.4466 21.3616C13.6003 21.7095 13.9566 21.9482 14.3688 21.9482C14.9277 21.9482 15.3749 21.5185 15.3749 20.9797C15.3749 20.4409 14.9277 20.0112 14.3688 20.0112C13.9566 20.0112 13.6003 20.2499 13.4466 20.5977C13.3907 20.7137 13.3628 20.8433 13.3628 20.9797C13.3628 21.1161 13.3977 21.2457 13.4466 21.3616ZM26.4555 19.1245V19.4314C26.1411 19.1927 25.7498 19.0495 25.3306 19.0495C24.3036 19.0495 23.4722 19.8884 23.4722 20.9183C23.4722 21.9482 24.3036 22.7871 25.3306 22.7871C25.7568 22.7871 26.1481 22.6439 26.4555 22.4052V22.9235C26.4555 22.9235 26.3437 23.4351 25.5612 23.4351V24.3968C25.5612 24.3968 26.4066 24.4922 27.1611 23.7556C27.1611 23.7556 27.5104 23.3941 27.5873 22.9167V19.1245H26.4555ZM25.5402 21.8664C24.9743 21.8664 24.5202 21.4367 24.5202 20.9115C24.5202 20.3863 24.9813 19.9566 25.5402 19.9566C25.9385 19.9566 26.2878 20.1749 26.4555 20.4886C26.5253 20.6182 26.5603 20.7614 26.5603 20.9115C26.5603 21.0615 26.5183 21.2116 26.4555 21.3344C26.2878 21.6549 25.9385 21.8664 25.5402 21.8664ZM16.5277 18.7767V17.7877C16.5277 17.7877 17.2682 17.6922 17.925 18.4493C17.925 18.4493 18.2254 18.8176 18.2953 19.3087V19.3359V22.828H17.1425V19.3359C17.0447 18.8449 16.5277 18.7767 16.5277 18.7767Z" fill="black"/>
</svg>
