<svg width="40" height="41" viewBox="0 0 40 41" fill="none" xmlns="http://www.w3.org/2000/svg">
<path d="M21.791 0.108702C21.791 0.108702 31.8615 2.19191 36.164 9.47448C36.164 9.47448 40.831 16.9584 39.8695 24.968C39.8695 24.968 39.7004 36.4505 28.9775 37.4553C28.9775 37.4553 25.8804 37.5706 20.5558 39.7685C20.5558 39.7685 14.3103 41.0739 9.55125 37.803C9.55125 37.803 -1.24364 29.1004 0.118933 17.2218C0.118933 17.2218 4.32206 3.56299 9.55125 2.42132C9.55125 2.42132 16.1202 -0.604022 21.791 0.108702Z" fill="#D8DBF5"/>
<g clip-path="url(#clip0_63_251)">
<path d="M31.875 20.0806C31.875 13.9096 26.7829 8.9082 20.5 8.9082C14.2171 8.9082 9.125 13.9096 9.125 20.0806C9.125 25.658 13.284 30.2797 18.7227 31.1176V23.3101H15.8345V20.0806H18.7227V17.6191C18.7227 14.8195 20.42 13.2724 23.0194 13.2724C24.2635 13.2724 25.5654 13.4906 25.5654 13.4906V16.2401H24.1302C22.7172 16.2401 22.2773 17.102 22.2773 17.9857V20.0806H25.4321L24.9278 23.3101H22.2773V31.1176C27.716 30.2797 31.875 25.658 31.875 20.0806Z" fill="black"/>
</g>
<defs>
<clipPath id="clip0_63_251">
<rect width="22.75" height="22.2094" fill="white" transform="translate(9.125 8.9082)"/>
</clipPath>
</defs>
</svg>
