<svg width="40" height="41" viewBox="0 0 40 41" fill="none" xmlns="http://www.w3.org/2000/svg">
<path d="M21.791 1.03741C21.791 1.03741 31.8615 3.12062 36.164 10.4032C36.164 10.4032 40.831 17.8871 39.8695 25.8967C39.8695 25.8967 39.7004 37.3792 28.9775 38.384C28.9775 38.384 25.8804 38.4993 20.5558 40.6973C20.5558 40.6973 14.3103 42.0026 9.55125 38.7317C9.55125 38.7317 -1.24364 30.0291 0.118933 18.1506C0.118933 18.1506 4.32206 4.49171 9.55125 3.35003C9.55125 3.35003 16.1202 0.324689 21.791 1.03741Z" fill="#D8DBF5"/>
<g clip-path="url(#clip0_63_262)">
<path d="M19.9998 12.0664C23.1257 12.0664 23.4926 12.08 24.7281 12.1344C25.8707 12.1843 26.4885 12.3702 26.9018 12.5289C27.4499 12.7375 27.8401 12.9823 28.2488 13.3814C28.6575 13.7804 28.913 14.1613 29.122 14.6963C29.2799 15.0999 29.475 15.7029 29.5261 16.8184C29.5818 18.0245 29.5958 18.3827 29.5958 21.4343C29.5958 24.4859 29.5818 24.8441 29.5261 26.0503C29.475 27.1657 29.2846 27.7688 29.122 28.1723C28.9084 28.7074 28.6575 29.0883 28.2488 29.4873C27.8401 29.8863 27.4499 30.1357 26.9018 30.3398C26.4885 30.4939 25.8707 30.6844 24.7281 30.7342C23.4926 30.7887 23.1257 30.8023 19.9998 30.8023C16.8739 30.8023 16.507 30.7887 15.2715 30.7342C14.1289 30.6844 13.5112 30.4985 13.0978 30.3398C12.5497 30.1312 12.1596 29.8863 11.7508 29.4873C11.3421 29.0883 11.0866 28.7074 10.8776 28.1723C10.7197 27.7688 10.5246 27.1657 10.4735 26.0503C10.4178 24.8441 10.4039 24.4859 10.4039 21.4343C10.4039 18.3827 10.4178 18.0245 10.4735 16.8184C10.5246 15.7029 10.7151 15.0999 10.8776 14.6963C11.0913 14.1613 11.3421 13.7804 11.7508 13.3814C12.1596 12.9823 12.5497 12.7329 13.0978 12.5289C13.5112 12.3747 14.1289 12.1843 15.2715 12.1344C16.507 12.0755 16.8786 12.0664 19.9998 12.0664ZM19.9998 10.0078C16.8228 10.0078 16.4234 10.0214 15.174 10.0758C13.9292 10.1302 13.0792 10.3252 12.3361 10.6063C11.565 10.8965 10.9148 11.291 10.2645 11.9258C9.61426 12.5606 9.21481 13.2 8.91291 13.9481C8.62493 14.6736 8.42521 15.5034 8.36948 16.7232C8.31374 17.9384 8.2998 18.3283 8.2998 21.4298C8.2998 24.5313 8.31374 24.9212 8.36948 26.141C8.42521 27.3562 8.62493 28.1859 8.91291 28.916C9.21017 29.6687 9.61426 30.3035 10.2645 30.9383C10.9148 31.5731 11.5697 31.963 12.3361 32.2578C13.0792 32.5389 13.9292 32.7339 15.1786 32.7883C16.428 32.8427 16.8228 32.8563 20.0045 32.8563C23.1861 32.8563 23.5809 32.8427 24.8303 32.7883C26.0751 32.7339 26.9251 32.5389 27.6729 32.2578C28.4439 31.9676 29.0942 31.5731 29.7444 30.9383C30.3947 30.3035 30.7941 29.6641 31.096 28.916C31.384 28.1905 31.5837 27.3607 31.6394 26.141C31.6952 24.9212 31.7091 24.5358 31.7091 21.4298C31.7091 18.3238 31.6952 17.9384 31.6394 16.7186C31.5837 15.5034 31.384 14.6736 31.096 13.9436C30.7988 13.1909 30.3947 12.5561 29.7444 11.9213C29.0942 11.2865 28.4392 10.8965 27.6729 10.6018C26.9297 10.3207 26.0797 10.1257 24.8303 10.0713C23.5762 10.0214 23.1768 10.0078 19.9998 10.0078Z" fill="black"/>
<path d="M19.9995 15.5669C16.6832 15.5669 13.9893 18.1923 13.9893 21.4343C13.9893 24.6764 16.6785 27.3017 19.9995 27.3017C23.3205 27.3017 26.0097 24.6764 26.0097 21.4343C26.0097 18.1923 23.3205 15.5669 19.9995 15.5669ZM19.9995 25.2386C17.8444 25.2386 16.098 23.5337 16.098 21.4298C16.098 19.3259 17.8444 17.6209 19.9995 17.6209C22.1546 17.6209 23.901 19.3259 23.901 21.4298C23.901 23.5337 22.1546 25.2386 19.9995 25.2386Z" fill="black"/>
<path d="M26.2464 16.7007C27.0211 16.7007 27.6492 16.0876 27.6492 15.3313C27.6492 14.575 27.0211 13.9619 26.2464 13.9619C25.4718 13.9619 24.8438 14.575 24.8438 15.3313C24.8438 16.0876 25.4718 16.7007 26.2464 16.7007Z" fill="black"/>
</g>
<defs>
<clipPath id="clip0_63_262">
<rect width="23.4" height="22.844" fill="white" transform="translate(8.2998 10.0078)"/>
</clipPath>
</defs>
</svg>
