<svg width="40" height="42" viewBox="0 0 40 42" fill="none" xmlns="http://www.w3.org/2000/svg">
<path d="M21.791 1.08478C21.791 1.08478 31.8615 3.16799 36.164 10.4506C36.164 10.4506 40.831 17.9345 39.8695 25.9441C39.8695 25.9441 39.7004 37.4265 28.9775 38.4314C28.9775 38.4314 25.8804 38.5467 20.5558 40.7446C20.5558 40.7446 14.3103 42.05 9.55125 38.7791C9.55125 38.7791 -1.24364 30.0765 0.118933 18.1979C0.118933 18.1979 4.32206 4.53907 9.55125 3.3974C9.55125 3.3974 16.1202 0.372052 21.791 1.08478Z" fill="#D8DBF5"/>
<path d="M29.3852 16.7981C29.1516 15.9428 28.4653 15.2728 27.6038 15.0447C26.0268 14.6313 19.7334 14.6313 19.7334 14.6313C19.7334 14.6313 13.4255 14.6313 11.8631 15.0447C11.0016 15.2728 10.3153 15.9428 10.0817 16.7981C9.6582 18.3376 9.6582 21.5592 9.6582 21.5592C9.6582 21.5592 9.6582 24.7808 10.0817 26.3203C10.3153 27.1756 11.0016 27.8456 11.8631 28.0736C13.4401 28.487 19.7334 28.487 19.7334 28.487C19.7334 28.487 26.0414 28.487 27.6038 28.0736C28.4653 27.8456 29.1516 27.1756 29.3852 26.3203C29.8086 24.7808 29.8086 21.5592 29.8086 21.5592C29.8086 21.5592 29.8086 18.3376 29.3852 16.7981ZM17.6746 24.4814V18.6369L22.9458 21.5592L17.6746 24.4814Z" fill="black"/>
</svg>
