<svg width="20" height="20" viewBox="0 0 20 20" fill="none" xmlns="http://www.w3.org/2000/svg">
<path d="M16.692 9.55779C16.7502 9.61584 16.7963 9.68477 16.8277 9.76064C16.8592 9.83652 16.8754 9.91785 16.8754 9.99998C16.8754 10.0821 16.8592 10.1634 16.8277 10.2393C16.7963 10.3152 16.7502 10.3841 16.692 10.4422L10.442 16.6922C10.384 16.7503 10.3151 16.7964 10.2392 16.8278C10.1633 16.8593 10.082 16.8755 9.99986 16.8755C9.91772 16.8755 9.8364 16.8593 9.76052 16.8278C9.68465 16.7964 9.61572 16.7503 9.55767 16.6922L3.30767 10.4422C3.1904 10.3249 3.12451 10.1658 3.12451 9.99998C3.12451 9.83413 3.1904 9.67507 3.30767 9.55779C3.42495 9.44052 3.58401 9.37463 3.74986 9.37463C3.91571 9.37463 4.07477 9.44052 4.19205 9.55779L9.99986 15.3664L15.8077 9.55779C15.8657 9.49968 15.9346 9.45358 16.0105 9.42213C16.0864 9.39068 16.1677 9.37449 16.2499 9.37449C16.332 9.37449 16.4133 9.39068 16.4892 9.42213C16.5651 9.45358 16.634 9.49968 16.692 9.55779ZM9.55767 10.4422C9.61572 10.5003 9.68465 10.5464 9.76052 10.5778C9.8364 10.6093 9.91772 10.6255 9.99986 10.6255C10.082 10.6255 10.1633 10.6093 10.2392 10.5778C10.3151 10.5464 10.384 10.5003 10.442 10.4422L16.692 4.19217C16.8093 4.07489 16.8752 3.91583 16.8752 3.74998C16.8752 3.58413 16.8093 3.42507 16.692 3.30779C16.5748 3.19052 16.4157 3.12463 16.2499 3.12463C16.084 3.12463 15.9249 3.19052 15.8077 3.30779L9.99986 9.11639L4.19205 3.30779C4.07477 3.19052 3.91571 3.12463 3.74986 3.12463C3.58401 3.12463 3.42495 3.19052 3.30767 3.30779C3.1904 3.42507 3.12451 3.58413 3.12451 3.74998C3.12451 3.91583 3.1904 4.07489 3.30767 4.19217L9.55767 10.4422Z" fill="white"/>
</svg>
