<svg width="25" height="25" viewBox="0 0 25 25" fill="none" xmlns="http://www.w3.org/2000/svg">
<path d="M21.6934 5.74902C21.62 5.66127 21.5283 5.59068 21.4247 5.54225C21.3211 5.49382 21.2081 5.46873 21.0938 5.46875H5.33984L4.8623 2.8457C4.7969 2.48568 4.60721 2.16003 4.32631 1.92553C4.04541 1.69103 3.69111 1.56255 3.3252 1.5625H1.5625C1.3553 1.5625 1.15659 1.64481 1.01007 1.79132C0.86356 1.93784 0.78125 2.13655 0.78125 2.34375C0.78125 2.55095 0.86356 2.74966 1.01007 2.89618C1.15659 3.04269 1.3553 3.125 1.5625 3.125H3.32031L5.81641 16.8252C5.88993 17.2315 6.06949 17.6112 6.33691 17.9258C5.96782 18.2705 5.70142 18.7108 5.56724 19.1977C5.43307 19.6846 5.43638 20.1991 5.57679 20.6843C5.7172 21.1694 5.98923 21.6062 6.36272 21.9462C6.73621 22.2861 7.19656 22.516 7.69273 22.6103C8.1889 22.7047 8.7015 22.6597 9.17368 22.4805C9.64587 22.3013 10.0592 21.9948 10.3678 21.595C10.6764 21.1952 10.8683 20.7178 10.9222 20.2156C10.976 19.7134 10.8897 19.2061 10.6729 18.75H15.1084C14.9336 19.1159 14.8432 19.5164 14.8438 19.9219C14.8438 20.4627 15.0041 20.9913 15.3046 21.441C15.605 21.8907 16.0321 22.2411 16.5317 22.4481C17.0314 22.6551 17.5812 22.7092 18.1116 22.6037C18.642 22.4982 19.1292 22.2378 19.5116 21.8554C19.894 21.473 20.1545 20.9857 20.26 20.4553C20.3655 19.9249 20.3113 19.3751 20.1044 18.8755C19.8974 18.3758 19.5469 17.9488 19.0973 17.6483C18.6476 17.3479 18.1189 17.1875 17.5781 17.1875H8.12207C7.93911 17.1875 7.76197 17.1232 7.62151 17.006C7.48106 16.8887 7.38622 16.7259 7.35352 16.5459L7.04394 14.8438H18.3721C18.9209 14.8437 19.4524 14.651 19.8737 14.2992C20.2951 13.9475 20.5796 13.459 20.6777 12.9189L21.8652 6.38965C21.8853 6.2768 21.8804 6.1609 21.8507 6.05019C21.821 5.93948 21.7673 5.83666 21.6934 5.74902ZM9.375 19.9219C9.375 20.1537 9.30627 20.3802 9.1775 20.5729C9.04874 20.7656 8.86571 20.9158 8.65158 21.0045C8.43745 21.0932 8.20182 21.1164 7.9745 21.0712C7.74718 21.026 7.53837 20.9144 7.37448 20.7505C7.21059 20.5866 7.09898 20.3778 7.05377 20.1505C7.00855 19.9232 7.03176 19.6876 7.12045 19.4734C7.20915 19.2593 7.35935 19.0763 7.55207 18.9475C7.74478 18.8187 7.97135 18.75 8.20312 18.75C8.51393 18.75 8.812 18.8735 9.03177 19.0932C9.25154 19.313 9.375 19.6111 9.375 19.9219ZM18.75 19.9219C18.75 20.1537 18.6813 20.3802 18.5525 20.5729C18.4237 20.7656 18.2407 20.9158 18.0266 21.0045C17.8124 21.0932 17.5768 21.1164 17.3495 21.0712C17.1222 21.026 16.9134 20.9144 16.7495 20.7505C16.5856 20.5866 16.474 20.3778 16.4288 20.1505C16.3835 19.9232 16.4068 19.6876 16.4955 19.4734C16.5842 19.2593 16.7344 19.0763 16.9271 18.9475C17.1198 18.8187 17.3463 18.75 17.5781 18.75C17.8889 18.75 18.187 18.8735 18.4068 19.0932C18.6265 19.313 18.75 19.6111 18.75 19.9219ZM19.1406 12.6396C19.1078 12.8202 19.0126 12.9834 18.8715 13.1007C18.7304 13.218 18.5526 13.2819 18.3691 13.2812H6.75977L5.62402 7.03125H20.1572L19.1406 12.6396Z" fill="white"/>
</svg>
